<?xml version="1.0" encoding="utf-8"?>
<!-- Generator: Adobe Illustrator 16.0.0, SVG Export Plug-In . SVG Version: 6.00 Build 0)  -->
<!DOCTYPE svg PUBLIC "-//W3C//DTD SVG 1.1//EN" "http://www.w3.org/Graphics/SVG/1.1/DTD/svg11.dtd">
<svg version="1.1" id="Layer_1" xmlns="http://www.w3.org/2000/svg" xmlns:xlink="http://www.w3.org/1999/xlink" x="0px" y="0px"
	 width="459.681px" height="204.84px" viewBox="0 0 459.681 204.84" enable-background="new 0 0 459.681 204.84"
	 xml:space="preserve">
<g>
	<path fill="#36393E" d="M310.453,147.041l91.316-91.316l57.325,57.324c0.37-3.496,0.587-7.036,0.587-10.627
		c0-6.108-0.564-12.096-1.6-17.923c-0.77-4.37-1.793-8.645-3.1-12.811c-0.922-2.923-1.971-5.806-3.148-8.608
		c-2.572-6.172-5.723-12.04-9.404-17.536c-2.512-3.751-5.27-7.316-8.23-10.697c-1.35-1.518-2.721-3.02-4.152-4.466
		c-11.588-11.708-25.965-20.631-42.063-25.687c-4.156-1.307-8.445-2.327-12.801-3.101C369.353,0.563,363.371,0,357.257,0
		c-6.111,0-12.107,0.563-17.916,1.592c-3.283,0.581-6.507,1.3-9.67,2.174c-1.055,0.292-2.102,0.601-3.143,0.927
		c-15.09,4.74-28.669,12.878-39.853,23.525c-0.745,0.709-1.48,1.43-2.204,2.162c-4.621,4.663-8.789,9.767-12.439,15.247
		c-2.496,3.734-4.746,7.645-6.74,11.699c-0.924,1.883-1.795,3.798-2.609,5.752c-1.18,2.803-2.232,5.686-3.148,8.608
		c-1.309,4.166-2.322,8.44-3.1,12.811c-1.035,5.827-1.594,11.815-1.594,17.923c0,6.114,0.559,12.098,1.594,17.923
		c0.777,4.37,1.791,8.636,3.1,12.803c0.934,2.982,2.004,5.9,3.199,8.76c2.502,5.984,5.568,11.665,9.096,17.01
		c2.494,3.754,5.23,7.337,8.186,10.721c1.473,1.694,2.982,3.342,4.559,4.93c0.724,0.729,1.457,1.446,2.202,2.152
		c11.17,10.598,24.705,18.703,39.753,23.428c1.041,0.326,2.088,0.634,3.143,0.925c3.163,0.872,6.387,1.59,9.67,2.174
		c5.809,1.033,11.805,1.594,17.916,1.594c3.524,0,6.999-0.206,10.432-0.563L310.453,147.041z"/>
	<path fill="#2C3034" d="M310.453,147.041l57.236,57.237c2.522-0.261,5.025-0.594,7.494-1.031c4.355-0.779,8.645-1.794,12.801-3.099
		c16.051-5.04,30.391-13.926,41.959-25.58c4.742-4.776,9.012-10.03,12.746-15.675c2.48-3.744,4.732-7.655,6.717-11.715
		c0.834-1.734,1.627-3.491,2.377-5.271c1.191-2.859,2.268-5.778,3.199-8.76c1.307-4.167,2.33-8.434,3.1-12.803
		c0.427-2.403,0.752-4.84,1.013-7.295l-57.325-57.324L310.453,147.041z"/>
</g>
<g>
	<g>
		<circle fill="#FFD343" cx="357.396" cy="102.283" r="64.762"/>
		<path fill="#D18D29" d="M316.416,102.284c0-25.432,19.676-46.221,44.635-48.093c-1.213-0.09-2.42-0.183-3.65-0.183
			c-26.666,0-48.279,21.613-48.279,48.276c0,26.663,21.613,48.279,48.279,48.279c1.23,0,2.438-0.093,3.65-0.185
			C336.091,148.505,316.416,127.716,316.416,102.284z"/>
		<path fill="#EFA120" d="M316.416,102.284c0,24.176,17.785,44.146,40.98,47.668V54.618
			C334.201,58.141,316.416,78.108,316.416,102.284z"/>
		<path fill="#EFA120" d="M405.673,102.284c0-25.432-19.676-46.221-44.623-48.093c-1.234,0.092-2.449,0.244-3.654,0.427v95.334
			c1.205,0.182,2.42,0.334,3.654,0.426C385.998,148.505,405.673,127.716,405.673,102.284z"/>
	</g>
	<g>
		<path fill="#FFD343" d="M379.109,116.609c0,1.949-0.412,3.775-1.238,5.474c-0.824,1.701-2.063,3.076-3.711,4.125
			c-1.65,1.05-3.625,1.576-5.926,1.576c-2.449,0-4.6-0.402-6.449-1.201c-1.852-0.798-3.826-1.923-5.926-3.375
			c-2.9,3.052-6.449,4.576-10.65,4.576c-2.75,0-5.025-0.626-6.824-1.875c-1.801-1.249-2.701-3.049-2.701-5.4
			c0-2.399,0.963-4.212,2.889-5.437c1.924-1.226,4.262-1.838,7.012-1.838c1.449,0,2.5,0.026,3.15,0.075
			c-0.25-2.35-0.951-4.549-2.1-6.601h-10.275v-5.549h6.449c-1.4-1.951-2.361-3.675-2.887-5.175s-0.787-3.125-0.787-4.875
			c0-2.5,0.699-4.838,2.1-7.013c1.398-2.175,3.537-3.938,6.412-5.288c2.875-1.35,6.412-2.024,10.613-2.024
			c11.35,0,17.875,4.7,19.574,14.1l-13.725,6.075c-0.699-3.199-1.525-5.4-2.475-6.6c-0.951-1.201-2.201-1.801-3.75-1.801
			c-1.15,0-2.088,0.301-2.813,0.9c-0.727,0.6-1.088,1.451-1.088,2.549c0,1.65,0.85,3.726,2.551,6.226l1.799,2.925h14.025v5.549
			h-12.074c0.199,1.001,0.299,2.202,0.299,3.601c0,1.901-0.225,3.726-0.674,5.476c1.848,0.551,3.525,0.825,5.025,0.825
			c3,0,4.35-1.801,4.049-5.401l9.525,1.5C378.908,114.059,379.109,115.359,379.109,116.609z M347.421,121.671
			c0.525-0.524,0.912-1.437,1.162-2.738c-1-0.348-2.074-0.524-3.225-0.524c-0.9,0-1.588,0.176-2.063,0.524
			c-0.477,0.351-0.713,0.852-0.713,1.5c0,0.65,0.225,1.152,0.676,1.5c0.449,0.351,1.1,0.526,1.949,0.526
			C346.158,122.459,346.896,122.196,347.421,121.671z"/>
	</g>
</g>
<g>
	<path fill="none" d="M200.142,133.147c-0.934,2.982-2.008,5.9-3.199,8.76C198.134,139.047,199.208,136.129,200.142,133.147z"/>
	<path fill="none" d="M0.104,106.981c0.205,4.536,0.713,8.994,1.489,13.363c0.583,3.277,1.299,6.496,2.173,9.659
		c-0.874-3.163-1.59-6.382-2.173-9.659C0.816,115.975,0.309,111.517,0.104,106.981z"/>
	<path fill="none" d="M25.174,169.638c-1.231-1.41-2.416-2.862-3.569-4.34C22.758,166.776,23.942,168.228,25.174,169.638z"/>
	<path fill="none" d="M187.849,158.893c-2.802,4.234-5.903,8.248-9.279,12.004C181.946,167.14,185.047,163.126,187.849,158.893
		c2.48-3.744,4.732-7.655,6.717-11.714c0.834-1.734,1.627-3.491,2.377-5.271c-0.75,1.78-1.543,3.537-2.377,5.271
		C192.582,151.238,190.33,155.149,187.849,158.893z"/>
	<path fill="none" d="M7.893,141.907c-1.195-2.859-2.266-5.778-3.199-8.76C5.627,136.129,6.697,139.047,7.893,141.907z"/>
	<path fill="none" d="M203.242,120.344c-0.577,3.277-1.297,6.497-2.172,9.659C201.945,126.84,202.665,123.621,203.242,120.344
		c0.775-4.369,1.287-8.827,1.495-13.362c-0.094,2.04-0.27,4.058-0.483,6.066C203.993,115.503,203.668,117.94,203.242,120.344z"/>
	<path fill="#36393E" d="M59.199,150.629c-0.936-0.839-1.848-1.705-2.733-2.596c-0.997-1.004-1.951-2.045-2.881-3.117
		c-1.868-2.138-3.6-4.404-5.178-6.778c-2.229-3.38-4.166-6.971-5.748-10.754c-0.756-1.808-1.433-3.653-2.024-5.538
		c-0.826-2.635-1.47-5.332-1.96-8.095c-0.654-3.682-1.007-7.466-1.007-11.331c0-3.861,0.353-7.647,1.007-11.332
		c0.49-2.762,1.134-5.465,1.96-8.099c0.579-1.849,1.244-3.67,1.99-5.444c0.516-1.235,1.068-2.445,1.648-3.636
		c1.263-2.563,2.685-5.035,4.263-7.396c2.31-3.466,4.942-6.691,7.866-9.639c7.324-7.402,16.412-13.043,26.59-16.239
		c2.63-0.827,5.331-1.472,8.099-1.961c3.673-0.65,7.462-1.007,11.327-1.007c3.866,0,7.647,0.357,11.332,1.007
		c2.755,0.49,5.466,1.134,8.094,1.961c10.178,3.196,19.266,8.837,26.593,16.239c0.904,0.914,1.773,1.864,2.627,2.823
		c0.305,0.349,0.602,0.707,0.9,1.062l52.29,52.288c0.213-2.008,0.389-4.026,0.483-6.066c0.069-1.512,0.104-3.032,0.104-4.561
		c0-6.108-0.566-12.096-1.6-17.923c-0.77-4.37-1.793-8.645-3.1-12.811c-0.924-2.923-1.971-5.806-3.148-8.608
		c-2.572-6.172-5.725-12.04-9.404-17.536c-2.512-3.751-5.27-7.316-8.23-10.697c-1.35-1.518-2.721-3.02-4.154-4.466
		c-11.588-11.708-25.963-20.631-42.061-25.687c-4.157-1.307-8.445-2.327-12.802-3.101C114.513,0.563,108.529,0,102.416,0
		C96.305,0,90.31,0.563,84.5,1.592c-4.376,0.774-8.649,1.794-12.813,3.101C55.592,9.749,41.215,18.672,29.631,30.38
		c-4.621,4.663-8.789,9.767-12.44,15.247c-2.495,3.734-4.745,7.645-6.74,11.699c-0.923,1.883-1.794,3.798-2.608,5.752
		c-1.18,2.803-2.232,5.686-3.148,8.608c-1.309,4.166-2.323,8.44-3.101,12.811C0.558,90.325,0,96.313,0,102.421
		c0,1.528,0.035,3.049,0.104,4.561c0.205,4.536,0.713,8.994,1.489,13.362c0.583,3.277,1.299,6.497,2.173,9.659
		c0.292,1.054,0.6,2.102,0.927,3.144c0.934,2.982,2.004,5.9,3.199,8.76c0.625,1.496,1.286,2.973,1.98,4.431
		c2.083,4.373,4.469,8.57,7.115,12.579c1.455,2.19,3.001,4.314,4.617,6.382c1.153,1.478,2.337,2.93,3.569,4.34
		c1.473,1.694,2.982,3.342,4.559,4.93c11.574,11.654,25.904,20.54,41.955,25.58c4.163,1.305,8.437,2.319,12.813,3.099
		c5.81,1.033,11.805,1.594,17.916,1.594c3.524,0,7-0.207,10.433-0.563L59.199,150.629z"/>
	<path fill="#2C3034" d="M204.254,113.047l-52.29-52.288c1.529,1.82,2.973,3.716,4.303,5.701c2.326,3.474,4.316,7.184,5.943,11.085
		c0.744,1.773,1.408,3.595,1.992,5.444c0.826,2.634,1.473,5.336,1.959,8.099c0.654,3.685,1.012,7.47,1.012,11.332
		c0,3.865-0.357,7.649-1.012,11.331c-0.486,2.763-1.133,5.46-1.959,8.095c-0.59,1.885-1.271,3.73-2.023,5.538
		c-0.475,1.125-0.973,2.236-1.502,3.332c-1.256,2.567-2.68,5.041-4.246,7.407c-2.363,3.568-5.061,6.891-8.059,9.91
		c-7.314,7.369-16.38,12.984-26.529,16.173c-2.628,0.824-5.339,1.467-8.094,1.958c-3.685,0.654-7.466,1.008-11.332,1.008
		c-3.865,0-7.654-0.354-11.327-1.008c-2.768-0.492-5.469-1.134-8.099-1.958c-8.921-2.803-17-7.481-23.793-13.577l53.649,53.649
		c2.522-0.261,5.024-0.594,7.493-1.031c4.356-0.779,8.645-1.794,12.802-3.099c16.051-5.04,30.391-13.926,41.959-25.58
		c1.186-1.194,2.341-2.418,3.467-3.671c3.376-3.757,6.477-7.771,9.279-12.004c2.48-3.744,4.732-7.655,6.717-11.715
		c0.834-1.734,1.627-3.491,2.377-5.271c1.191-2.859,2.266-5.778,3.199-8.76c0.327-1.042,0.636-2.09,0.927-3.144
		c0.875-3.163,1.595-6.382,2.172-9.659C203.668,117.94,203.993,115.503,204.254,113.047z"/>
	<path fill="#0982A5" d="M42.625,77.546c-0.746,1.773-1.411,3.595-1.99,5.444h10.167L42.625,77.546z"/>
	<path fill="#0982A5" d="M162.179,127.384c0.752-1.808,1.434-3.653,2.023-5.538h-10.334L162.179,127.384z"/>
	<path fill="#0982A5" d="M82.992,130.351l-26.526,17.682c0.886,0.892,1.798,1.757,2.733,2.596
		c6.793,6.095,14.872,10.774,23.793,13.577V130.351z"/>
	<path fill="#0982A5" d="M82.992,40.636c-10.178,3.196-19.266,8.837-26.59,16.239l26.59,17.731V40.636z"/>
	<path fill="#0982A5" d="M164.203,82.99c-0.584-1.849-1.248-3.67-1.992-5.444l-8.172,5.444H164.203z"/>
	<path fill="#0982A5" d="M121.844,164.206c10.148-3.188,19.215-8.804,26.529-16.173l-26.529-17.682V164.206z"/>
	<path fill="#0982A5" d="M40.635,121.846c0.592,1.885,1.269,3.73,2.024,5.538l8.31-5.538H40.635z"/>
	<path fill="#0982A5" d="M148.437,56.875c-7.328-7.402-16.416-13.043-26.593-16.239v33.97L148.437,56.875z"/>
	<path fill="#FFFFFF" d="M113.75,166.164c2.755-0.492,5.466-1.134,8.094-1.958v-33.855l26.529,17.682
		c2.998-3.019,5.695-6.342,8.059-9.91l-24.471-16.276h15.379l13.338,8.87c0.529-1.095,1.027-2.206,1.502-3.332l-8.311-5.538h10.334
		c0.826-2.635,1.473-5.332,1.959-8.095H113.75V166.164z"/>
	<path fill="#FFFFFF" d="M91.091,38.674c-2.768,0.49-5.469,1.134-8.099,1.961v33.97l-26.59-17.731
		c-2.924,2.948-5.557,6.173-7.866,9.639L73.314,82.99H57.936l-13.662-9.08c-0.58,1.191-1.133,2.401-1.648,3.636l8.177,5.444H40.635
		c-0.826,2.634-1.47,5.336-1.96,8.099h52.416V38.674z"/>
	<path fill="#FFFFFF" d="M82.992,130.351v33.855c2.63,0.824,5.331,1.467,8.099,1.958v-52.413H38.675
		c0.49,2.763,1.134,5.46,1.96,8.095h10.334l-8.31,5.538c1.582,3.783,3.519,7.374,5.748,10.754l24.491-16.292h10.094v3.513
		l-29.407,19.557c0.93,1.072,1.884,2.113,2.881,3.117L82.992,130.351z"/>
	<path fill="#FFFFFF" d="M113.75,91.088h52.412c-0.486-2.762-1.133-5.465-1.959-8.099h-10.164l8.172-5.444
		c-1.627-3.901-3.617-7.611-5.943-11.085L131.415,82.99h-9.571v-3.862l29.22-19.43c-0.854-0.959-1.723-1.909-2.627-2.823
		l-26.593,17.731v-33.97c-2.628-0.827-5.339-1.472-8.094-1.961V91.088z"/>
	<path fill="#EF4039" d="M91.091,113.751v52.413c3.673,0.654,7.462,1.008,11.327,1.008c3.866,0,7.647-0.354,11.332-1.008v-52.413
		h52.412c0.654-3.682,1.012-7.466,1.012-11.331c0-3.861-0.357-7.647-1.012-11.332H113.75V38.674
		c-3.685-0.65-7.466-1.007-11.332-1.007c-3.865,0-7.654,0.357-11.327,1.007v52.414H38.675c-0.654,3.685-1.007,7.47-1.007,11.332
		c0,3.865,0.353,7.649,1.007,11.331H91.091z"/>
	<path fill="#EF4039" d="M131.96,121.846l24.471,16.276c1.566-2.366,2.99-4.84,4.246-7.407l-13.338-8.87H131.96z"/>
	<path fill="#EF4039" d="M121.844,79.127v3.862h9.571l24.852-16.529c-1.33-1.985-2.774-3.881-4.303-5.701
		c-0.298-0.355-0.595-0.713-0.9-1.062L121.844,79.127z"/>
	<path fill="#EF4039" d="M82.992,125.359v-3.513H72.898l-24.491,16.292c1.578,2.374,3.31,4.64,5.178,6.778L82.992,125.359z"/>
	<path fill="#EF4039" d="M73.314,82.99L48.536,66.514c-1.578,2.361-3,4.833-4.263,7.396l13.662,9.08H73.314z"/>
</g>
</svg>
