<svg xmlns="http://www.w3.org/2000/svg" viewBox="0 0 73.59 77.2"><defs><style>.a{fill:#f5af00;}</style></defs><title>lgim-icon-3</title><path class="a" d="M53.27,8.12A8.12,8.12,0,1,1,45.16,0a8.12,8.12,0,0,1,8.12,8.12"/><path class="a" d="M72.95,44.3c-.95-.47-5.82-1.1-7.09-1.42s-7.25-7.09-7.25-7.09L58.46,29s-6.62-.16-10.08,3.62a30.85,30.85,0,0,0-10.83-5.26,8.22,8.22,0,1,0-15.14-.58,67,67,0,0,0-16.09,3.8S3.95,30.78,4,27.83c.05-4.11-4.7-3-3.33-1.17,1.21,1.64,1.84,1.13,1.88,2.84.05,1.93,1.15,1.73,1.11,3,0,0-4.57,7.9-3.47,16.88a24.93,24.93,0,0,0,6.3,14,15.68,15.68,0,0,0,2.21,7.17c2.22,3.78,2.69,6.68,3.16,6.68h5S20.19,70.52,20,66.42c0,0,13.7,1.61,17.8-.12.47.16,3.47,8.33,7.57,10.9h5.83s-3.15-12.2.31-14.56,4.57-.67,9.14-3,11.18-7.73,12.13-9.15,1.09-5.69.15-6.16M37.22,32a28.53,28.53,0,0,0-14-.72l-1.43-3.07a5.72,5.72,0,0,1,1.1-.34,8.17,8.17,0,0,0,1.2,1.64l11.79.17a8.16,8.16,0,0,0,1-1.26l1.2.31Zm22,15.42A1.65,1.65,0,1,1,60.9,45.8a1.65,1.65,0,0,1-1.66,1.65"/></svg>