<svg xmlns="http://www.w3.org/2000/svg" viewBox="0 0 95.37 60.17"><defs><style>.a{fill:#009ee2;}</style></defs><title>lgim-icon-4</title><path class="a" d="M91.75,2.76C85-3.42,80.8,2.22,77.31,5.75a1,1,0,0,0,.62,1.75c3.13.31,8.91,1.85,9.93,8.83a1,1,0,0,0,1.78.55C93.73,12.51,99,8.95,91.75,2.76"/><path class="a" d="M81.15,12,47.58,44.29a1,1,0,0,0,.12,1.59l2.47,1.71a1,1,0,0,1,.41.62l.71,3.08a1,1,0,0,1-.26.93L49.35,54a1.08,1.08,0,0,1-.43.28l-2.82.93A1,1,0,0,1,45,55l-4.5-4.48a1,1,0,0,1-.28-1l.47-2.06A1.1,1.1,0,0,1,41,47L76.61,11.46A1,1,0,0,0,76,9.69c-.49-.05-1-.07-1.53-.08a1.13,1.13,0,0,0-.76.3L39.23,44.37a.94.94,0,0,0-.26.47l-3.27,12a1,1,0,0,1-1,.74h0C12.37,57.66,5.82,53,5.46,50.12s4.21-6.75,15.15-9.53c5.85-1.49,8.42-3.17,8.3-5.41C28.67,30,9.64,26.5,1.48,25.24a1.29,1.29,0,1,0-.4,2.54c11.17,1.73,21.57,4.6,24.47,6.59a1,1,0,0,1-.05,1.73,20.37,20.37,0,0,1-5.53,2C8.68,41,2.3,45.63,2.92,50.47c.78,6.09,12.36,9.7,31,9.7h.72a.44.44,0,0,0,.14,0l.19-.05A.72.72,0,0,0,35.2,60l14.93-3.63a1,1,0,0,0,.49-.28l35-35a1.13,1.13,0,0,0,.3-.6c.16-1.31.41-5.9-3.36-8.72a1.09,1.09,0,0,0-1.35.1"/></svg>