<svg xmlns="http://www.w3.org/2000/svg" viewBox="0 0 44.58 60.8"><defs><style>.a{fill:#cc1719;}</style></defs><title>lgim-icon-1</title><path class="a" d="M1.82,0h0A2,2,0,0,0,0,2V58.77a2,2,0,0,0,2,2H42.56a2,2,0,0,0,2-2V11.49A2,2,0,0,0,44,10.05L34.54.59A2,2,0,0,0,33.1,0H1.82M4.05,4.06H29.72v8.78a2,2,0,0,0,2,2h8.78V56.74H4.05ZM33.77,5.58,39,10.81H33.77ZM28.84,16.87h0a2,2,0,0,0-1.33.74l-6.12,7.24L18.2,22.11a2,2,0,1,0-2.62,3.06l4.73,4.05A2,2,0,0,0,23.16,29l7.43-8.78a2,2,0,0,0-1.75-3.36M7.9,31.75h0a2,2,0,1,0,.21,4.05H36.48a2,2,0,1,0,0-4.05H7.9m0,6.08h0a2,2,0,1,0,.21,4.05H36.48a2,2,0,1,0,0-4.05H7.9m0,6.08h0A2,2,0,0,0,8.11,48H36.48a2,2,0,1,0,0-4.05H7.9M7.9,50h0A2,2,0,0,0,8.11,54H36.48a2,2,0,1,0,0-4.05H7.9"/></svg>