<svg xmlns="http://www.w3.org/2000/svg" viewBox="0 0 189.17 230"><defs><style>.a{fill:#6774b7;}.b{fill:#018566;}.c{fill:#4f2d82;}.d{fill:#e0006d;}.e{fill:#7ab929;}.f{fill:#ac0055;}.g{fill:#efab1f;}.h{fill:#00b5cd;}.i{fill:#ee721e;}.j{fill:#9ca199;}.k{fill:none;}</style></defs><title>logo-synaptic_suite</title><path class="a" d="M112.75,129.71H100.17a4.16,4.16,0,1,1,0-8.32h12.59a4.16,4.16,0,0,0,4.16-4.16v-3.05a4.16,4.16,0,0,1,8.32,0v3.05A12.49,12.49,0,0,1,112.75,129.71Z"/><path class="b" d="M121.44,17a4.16,4.16,0,0,1-4.16-4.16,4.16,4.16,0,0,0-4.16-4.16H96.75a4.16,4.16,0,0,0-4.16,4.16,4.16,4.16,0,0,1-8.32,0A12.49,12.49,0,0,1,96.75.37h16.37A12.49,12.49,0,0,1,125.6,12.84,4.16,4.16,0,0,1,121.44,17Z"/><path class="a" d="M77.8,129.71H64.11a12.49,12.49,0,0,1-12.48-12.47v-3.79a4.16,4.16,0,0,1,8.32,0v3.79a4.16,4.16,0,0,0,4.16,4.16H77.8a4.16,4.16,0,1,1,0,8.32Z"/><path class="c" d="M88.43,38.76H65.94A12.49,12.49,0,0,1,53.47,26.28a4.16,4.16,0,1,1,8.32,0,4.17,4.17,0,0,0,4.16,4.16H88.43a4.16,4.16,0,0,1,0,8.32Z"/><path class="c" d="M78,28.37A12.49,12.49,0,0,1,65.57,15.89a4.16,4.16,0,1,1,8.32,0A4.16,4.16,0,0,0,78,20.05a4.16,4.16,0,0,1,0,8.32Z"/><path class="d" d="M88.43,127.14A4.16,4.16,0,0,1,84.27,123V12.47a4.16,4.16,0,0,0-4.16-4.16H63.74a4.16,4.16,0,0,0-4.16,4.16,4.16,4.16,0,0,1-8.32,0A12.49,12.49,0,0,1,63.74,0H80.11A12.49,12.49,0,0,1,92.59,12.47V123A4.16,4.16,0,0,1,88.43,127.14Z"/><path class="c" d="M53.11,64.06A12.49,12.49,0,0,1,40.63,51.59V23.84A12.49,12.49,0,0,1,53.11,11.37H69.48a4.16,4.16,0,1,1,0,8.32H53.11a4.17,4.17,0,0,0-4.16,4.16V51.59a4.17,4.17,0,0,0,4.16,4.16,4.16,4.16,0,1,1,0,8.32Z"/><path class="c" d="M43.2,75.8A12.49,12.49,0,0,1,30.73,63.32V45.85A12.49,12.49,0,0,1,43.2,33.37a4.16,4.16,0,0,1,0,8.32A4.16,4.16,0,0,0,39,45.85V63.32a4.16,4.16,0,0,0,4.16,4.16,4.16,4.16,0,1,1,0,8.32Z"/><path class="e" d="M43.2,95.6A12.49,12.49,0,0,1,30.73,83.13V80A12.49,12.49,0,0,1,43.2,67.48a4.16,4.16,0,1,1,0,8.32A4.16,4.16,0,0,0,39,80v3.17a4.16,4.16,0,0,0,4.16,4.16,4.16,4.16,0,1,1,0,8.32Z"/><path class="f" d="M133.29,95.6a4.16,4.16,0,1,1,0-8.32,4.16,4.16,0,0,0,4.16-4.16V65.65a4.16,4.16,0,0,0-4.16-4.16,4.16,4.16,0,1,1,0-8.32,12.49,12.49,0,0,1,12.47,12.48V83.13A12.49,12.49,0,0,1,133.29,95.6Z"/><path class="f" d="M133.66,61.49a4.16,4.16,0,0,1,0-8.32A4.16,4.16,0,0,0,137.82,49V45.85a4.16,4.16,0,0,0-4.16-4.16,4.16,4.16,0,0,1,0-8.32,12.49,12.49,0,0,1,12.47,12.48V49A12.49,12.49,0,0,1,133.66,61.49Z"/><path class="e" d="M60.31,117.61h-6.1a12.49,12.49,0,0,1-12.48-12.48v-24a4.16,4.16,0,1,1,8.32,0v24a4.16,4.16,0,0,0,4.16,4.16h6.1a4.16,4.16,0,0,0,4.16-4.16,4.16,4.16,0,1,1,8.32,0A12.49,12.49,0,0,1,60.31,117.61Z"/><path class="f" d="M122.29,118a4.16,4.16,0,1,1,0-8.32,4.16,4.16,0,0,0,4.16-4.16V77.39a4.16,4.16,0,0,0-4.16-4.16h-6.35a4.16,4.16,0,0,1,0-8.32h6.35a12.49,12.49,0,0,1,12.48,12.47V105.5A12.49,12.49,0,0,1,122.29,118Z"/><path class="e" d="M76.95,117.24a12.49,12.49,0,0,1-12.48-12.47,4.16,4.16,0,0,1,8.32,0,4.16,4.16,0,0,0,4.16,4.16,4.16,4.16,0,0,1,0,8.32Z"/><path class="b" d="M99.07,28.37a4.16,4.16,0,1,1,0-8.32,4.16,4.16,0,0,0,4.16-4.16,4.16,4.16,0,0,1,8.32,0A12.49,12.49,0,0,1,99.07,28.37Z"/><path class="a" d="M104.34,140.34H72.91A12.12,12.12,0,0,1,60.8,128.24a4.16,4.16,0,0,1,8.32,0A3.8,3.8,0,0,0,72.91,132h31.43a3.8,3.8,0,0,0,3.79-3.79,4.16,4.16,0,0,1,8.32,0A12.12,12.12,0,0,1,104.34,140.34Z"/><path class="g" d="M98.09,106.24a4.16,4.16,0,0,1-4.16-4.16V86.8A12.49,12.49,0,0,1,106.4,74.33a4.16,4.16,0,1,1,0,8.32,4.16,4.16,0,0,0-4.16,4.16v15.27A4.16,4.16,0,0,1,98.09,106.24Z"/><path class="h" d="M116.31,73.23a12.49,12.49,0,0,1-12.48-12.48,4.16,4.16,0,0,1,8.32,0,4.16,4.16,0,0,0,4.16,4.16,4.16,4.16,0,0,1,0,8.32Z"/><path class="h" d="M99.67,73.23a4.16,4.16,0,0,1,0-8.32,4.16,4.16,0,0,0,4.16-4.16,4.16,4.16,0,0,1,8.32,0A12.49,12.49,0,0,1,99.67,73.23Z"/><path class="h" d="M112.75,53.67a4.16,4.16,0,0,1,0-8.32,4.16,4.16,0,0,0,4.16-4.16,4.16,4.16,0,0,1,8.32,0A12.49,12.49,0,0,1,112.75,53.67Z"/><path class="h" d="M119.24,61.86a4.16,4.16,0,0,1-4.16-4.16c0-2.25-2.51-4.16-5.49-4.16h-2c-3,0-5.49,1.91-5.49,4.16a4.16,4.16,0,1,1-8.32,0c0-6.88,6.19-12.48,13.81-12.48h2c7.61,0,13.81,5.6,13.81,12.48A4.16,4.16,0,0,1,119.24,61.86Z"/><path class="b" d="M132.81,32.89a4.16,4.16,0,0,1-4.16-4.16V23.84a4.16,4.16,0,0,0-4.16-4.16H108.12a4.16,4.16,0,0,1,0-8.32h16.38A12.49,12.49,0,0,1,137,23.84v4.88A4.16,4.16,0,0,1,132.81,32.89Z"/><path class="i" d="M56.89,107.7a4.16,4.16,0,0,1-4.16-4.16V89.12A12.49,12.49,0,0,1,65.21,76.65a4.16,4.16,0,0,1,0,8.32,4.16,4.16,0,0,0-4.16,4.16v14.42A4.16,4.16,0,0,1,56.89,107.7Z"/><path class="i" d="M65.69,84.85a4.16,4.16,0,0,1-4.16-4.16A12.49,12.49,0,0,1,74,68.21a4.16,4.16,0,0,1,0,8.32,4.17,4.17,0,0,0-4.16,4.16A4.16,4.16,0,0,1,65.69,84.85Z"/><path class="b" d="M109.58,41.21A4.16,4.16,0,0,1,105.43,37,12.49,12.49,0,0,1,117.9,24.57h4.64a4.16,4.16,0,0,1,0,8.32H117.9A4.16,4.16,0,0,0,113.74,37,4.16,4.16,0,0,1,109.58,41.21Z"/><path class="b" d="M109.34,41.69H98.7a4.16,4.16,0,1,1,0-8.32h10.64a4.16,4.16,0,0,1,0,8.32Z"/><path class="e" d="M77.8,104.4a4.16,4.16,0,0,1-4.16-4.16,4.16,4.16,0,0,0-4.16-4.16,4.16,4.16,0,0,1,0-8.32A12.49,12.49,0,0,1,82,100.24,4.16,4.16,0,0,1,77.8,104.4Z"/><path class="i" d="M56.16,74.7a4.16,4.16,0,0,1,0-8.32c2.25,0,4.16-2.51,4.16-5.49v-2c0-3-1.9-5.49-4.16-5.49a4.16,4.16,0,0,1,0-8.32c6.88,0,12.47,6.19,12.47,13.81v2C68.63,68.5,63,74.7,56.16,74.7Z"/><path class="d" d="M74.61,56.73a4.16,4.16,0,0,1-4.16-4.16A12.49,12.49,0,0,1,82.93,40.09L88.34,40a4.16,4.16,0,0,1,.18,8.31l-5.5.12a4.19,4.19,0,0,0-4.25,4.16A4.16,4.16,0,0,1,74.61,56.73Z"/><path class="i" d="M75.23,76.53a4.16,4.16,0,0,1-4.16-4.16v-8.8a4.16,4.16,0,0,1,8.32,0v8.8A4.16,4.16,0,0,1,75.23,76.53Z"/><path class="g" d="M110.93,96a4.16,4.16,0,1,1,0-8.32,4.16,4.16,0,0,0,4.16-4.16,4.16,4.16,0,0,1,8.32,0A12.49,12.49,0,0,1,110.93,96Z"/><path class="g" d="M119.24,104.34a4.16,4.16,0,0,1-4.16-4.16A4.16,4.16,0,0,0,110.93,96a4.16,4.16,0,1,1,0-8.32,12.49,12.49,0,0,1,12.47,12.48A4.16,4.16,0,0,1,119.24,104.34Z"/><path class="f" d="M122.29,118h-6.1a12.49,12.49,0,0,1-12.47-12.48,4.16,4.16,0,0,1,8.32,0,4.16,4.16,0,0,0,4.16,4.16h6.1a4.16,4.16,0,0,1,0,8.32Z"/><path class="f" d="M99.43,117.24a4.16,4.16,0,0,1,0-8.32,4.16,4.16,0,0,0,4.16-4.16,4.16,4.16,0,0,1,8.32,0A12.49,12.49,0,0,1,99.43,117.24Z"/><path class="b" d="M132.81,51.59a4.16,4.16,0,0,1-4.16-4.16V28.73a4.16,4.16,0,1,1,8.32,0v18.7A4.16,4.16,0,0,1,132.81,51.59Z"/><path class="j" d="M6.14,173.32A10.86,10.86,0,0,1,0,171.51l1.55-2.89A8,8,0,0,0,6,170.11c1.4,0,3-.53,3-2,0-2.54-4.68-3-7-5.64A5,5,0,0,1,.7,159.06c0-2.92,2.31-5.5,6.55-5.5a9.87,9.87,0,0,1,4.85,1.17L12,158.18a9.46,9.46,0,0,0-4.59-1.4c-1.43,0-2.54.64-2.54,1.75,0,3.33,8.27,3,8.27,9.09C13.18,171.13,10.08,173.32,6.14,173.32Z"/><path class="j" d="M31.66,165.46V173h-4V165.4L21,153.77H25.4l2.92,5.38c.47.82,1,1.9,1.43,2.78h.06c.41-.88.94-1.9,1.37-2.72l3-5.44h4.18Z"/><path class="j" d="M61.3,173l-8.36-10.7c-.73-.94-1.26-1.69-1.84-2.54H51c.06.64.06,1.81.06,2.69V173h-4V153.77h4l8.07,10.29c.76,1,1.29,1.72,1.81,2.51h.06c-.06-.91-.06-2.16-.06-3v-9.82h4V173Z"/><path class="j" d="M88,173l-1.87-4.71H79.54L77.76,173H73.81l7.54-19.35h3L92.26,173Zm-4.41-11.66a20.75,20.75,0,0,1-.7-2.37h0a15,15,0,0,1-.7,2.31l-1.43,3.8h4.18Z"/><path class="j" d="M105.79,166.4h-.73V173h-4V153.77h5.26c4.24,0,7.07,2.13,7.07,6.26C113.39,162.51,111.52,166.4,105.79,166.4Zm.12-9.29h-.85v6.25h.88c2.37,0,3.45-1.2,3.45-3.19C109.39,158.45,108.25,157.1,105.91,157.1Z"/><path class="j" d="M136.22,157h-5.17v16h-4V157h-5.64v-3.27h15.76Z"/><path class="j" d="M145.78,173V153.77h4V173Z"/><path class="j" d="M169.26,173.32c-6.28,0-9.85-4.3-9.85-9.73s4.15-10,10.73-10a11.46,11.46,0,0,1,5,1l-.06,3.57a9.31,9.31,0,0,0-4.82-1.34c-4.53,0-6.52,3.16-6.52,6.49,0,3.68,2.37,6.58,6.17,6.58a9.67,9.67,0,0,0,4.79-1.31l1.08,2.81A12,12,0,0,1,169.26,173.32Z"/><path class="j" d="M184.74,162.49a4.4,4.4,0,0,1-1.74-.35,4.32,4.32,0,0,1-1.41-1,4.58,4.58,0,0,1-.94-1.42,4.58,4.58,0,0,1,0-3.49,4.38,4.38,0,0,1,2.35-2.36,4.39,4.39,0,0,1,1.75-.35,4.33,4.33,0,0,1,1.74.35,4.4,4.4,0,0,1,2.34,2.36,4.58,4.58,0,0,1,0,3.49,4.61,4.61,0,0,1-.94,1.42,4.28,4.28,0,0,1-1.41,1,4.4,4.4,0,0,1-1.74.35m0-.86a3.49,3.49,0,0,0,1.4-.27,3.36,3.36,0,0,0,1.1-.76,3.47,3.47,0,0,0,.73-1.14,3.92,3.92,0,0,0,0-2.82,3.43,3.43,0,0,0-1.83-1.91,3.55,3.55,0,0,0-2.78,0,3.54,3.54,0,0,0-1.11.77,3.46,3.46,0,0,0-.73,1.14,3.95,3.95,0,0,0,0,2.82,3.49,3.49,0,0,0,.73,1.14,3.35,3.35,0,0,0,1.1.76,3.5,3.5,0,0,0,1.39.27m-1.55-5.88h1.74a1.93,1.93,0,0,1,.72.12,1.51,1.51,0,0,1,.5.31,1.15,1.15,0,0,1,.29.43,1.31,1.31,0,0,1,.09.47,1.46,1.46,0,0,1-.22.79,1.32,1.32,0,0,1-.67.53l1.1,1.87h-1l-1-1.75H184v1.75h-.86Zm1.7,2.08a.76.76,0,0,0,.57-.19.71.71,0,0,0,.18-.51.63.63,0,0,0-.19-.5.93.93,0,0,0-.61-.16H184v1.37Z"/><rect class="k" width="189.17" height="230"/></svg>