<svg xmlns="http://www.w3.org/2000/svg" viewBox="0 0 227.83 230"><defs><style>.a{fill:#9ca199;}.b{fill:#e0006d;}.c{fill:none;}</style></defs><title>logo-synaptic_comparator</title><path class="a" d="M146.37,17a4.16,4.16,0,0,1-4.16-4.16,4.16,4.16,0,0,0-4.16-4.16H121.69a4.16,4.16,0,0,0-4.16,4.16,4.16,4.16,0,0,1-8.32,0A12.49,12.49,0,0,1,121.69.37h16.37a12.49,12.49,0,0,1,12.47,12.47A4.16,4.16,0,0,1,146.37,17Z"/><path class="a" d="M113.37,38.76H90.88A12.49,12.49,0,0,1,78.41,26.28a4.16,4.16,0,0,1,8.32,0,4.16,4.16,0,0,0,4.16,4.16h22.49a4.16,4.16,0,0,1,0,8.32Z"/><path class="a" d="M103,28.37A12.49,12.49,0,0,1,90.51,15.9a4.16,4.16,0,1,1,8.32,0A4.16,4.16,0,0,0,103,20.05a4.16,4.16,0,0,1,0,8.32Z"/><path class="b" d="M113.37,127.14a4.16,4.16,0,0,1-4.16-4.16V12.47a4.16,4.16,0,0,0-4.16-4.16H88.68a4.16,4.16,0,0,0-4.16,4.16,4.16,4.16,0,0,1-8.32,0A12.49,12.49,0,0,1,88.68,0h16.37a12.49,12.49,0,0,1,12.47,12.47V123A4.16,4.16,0,0,1,113.37,127.14Z"/><path class="a" d="M78,64.06A12.49,12.49,0,0,1,65.57,51.59V23.84A12.49,12.49,0,0,1,78,11.37H94.42a4.16,4.16,0,1,1,0,8.32H78a4.16,4.16,0,0,0-4.16,4.16V51.59A4.16,4.16,0,0,0,78,55.75a4.16,4.16,0,0,1,0,8.32Z"/><path class="a" d="M68.15,75.8A12.49,12.49,0,0,1,55.67,63.32V45.85A12.49,12.49,0,0,1,68.15,33.37a4.16,4.16,0,1,1,0,8.32A4.16,4.16,0,0,0,64,45.85V63.32a4.16,4.16,0,0,0,4.16,4.16,4.16,4.16,0,1,1,0,8.32Z"/><path class="a" d="M68.15,95.6A12.49,12.49,0,0,1,55.67,83.13V80A12.49,12.49,0,0,1,68.15,67.48a4.16,4.16,0,1,1,0,8.32A4.16,4.16,0,0,0,64,80v3.17a4.16,4.16,0,0,0,4.16,4.16,4.16,4.16,0,1,1,0,8.32Z"/><path class="a" d="M158.23,95.6a4.16,4.16,0,1,1,0-8.32,4.16,4.16,0,0,0,4.16-4.16V65.65a4.16,4.16,0,0,0-4.16-4.16,4.16,4.16,0,1,1,0-8.32A12.49,12.49,0,0,1,170.7,65.65V83.13A12.49,12.49,0,0,1,158.23,95.6Z"/><path class="a" d="M158.6,61.5a4.16,4.16,0,0,1,0-8.32A4.17,4.17,0,0,0,162.76,49V45.85a4.16,4.16,0,0,0-4.16-4.16,4.16,4.16,0,0,1,0-8.32,12.49,12.49,0,0,1,12.48,12.47V49A12.49,12.49,0,0,1,158.6,61.5Z"/><path class="a" d="M85.25,117.6h-6.1a12.49,12.49,0,0,1-12.47-12.47v-24a4.16,4.16,0,0,1,8.32,0v24a4.16,4.16,0,0,0,4.16,4.15h6.1a4.16,4.16,0,0,0,4.16-4.15,4.16,4.16,0,1,1,8.32,0A12.49,12.49,0,0,1,85.25,117.6Z"/><path class="a" d="M147.23,118h-6.1a12.49,12.49,0,0,1-12.47-12.48,4.16,4.16,0,0,1,8.32,0,4.16,4.16,0,0,0,4.16,4.16h6.1a4.16,4.16,0,0,1,0,8.32Z"/><path class="a" d="M147.23,118a4.16,4.16,0,0,1,0-8.32,4.16,4.16,0,0,0,4.16-4.16V77.39a4.16,4.16,0,0,0-4.16-4.16h-6.35a4.16,4.16,0,1,1,0-8.32h6.35A12.49,12.49,0,0,1,159.7,77.39V105.5A12.49,12.49,0,0,1,147.23,118Z"/><path class="a" d="M101.89,117.24a12.49,12.49,0,0,1-12.48-12.47,4.16,4.16,0,1,1,8.32,0,4.16,4.16,0,0,0,4.16,4.16,4.16,4.16,0,0,1,0,8.32Z"/><path class="a" d="M124.37,117.24a4.16,4.16,0,0,1,0-8.32,4.16,4.16,0,0,0,4.16-4.16,4.16,4.16,0,1,1,8.32,0A12.49,12.49,0,0,1,124.37,117.24Z"/><path class="a" d="M124,28.37a4.16,4.16,0,0,1,0-8.32,4.16,4.16,0,0,0,4.16-4.16,4.16,4.16,0,0,1,8.32,0A12.49,12.49,0,0,1,124,28.37Z"/><path class="a" d="M102.74,129.7H89a12.49,12.49,0,0,1-12.47-12.47v-3.79a4.16,4.16,0,0,1,8.32,0v3.79A4.16,4.16,0,0,0,89,121.39h13.69a4.16,4.16,0,0,1,0,8.32Z"/><path class="a" d="M137.69,129.7H125.11a4.16,4.16,0,0,1,0-8.32h12.58a4.16,4.16,0,0,0,4.16-4.16v-3a4.16,4.16,0,0,1,8.32,0v3A12.49,12.49,0,0,1,137.69,129.7Z"/><path class="a" d="M129.28,140.34H97.85a12.12,12.12,0,0,1-12.11-12.11,4.16,4.16,0,0,1,8.32,0A3.8,3.8,0,0,0,97.85,132h31.43a3.8,3.8,0,0,0,3.79-3.79,4.16,4.16,0,0,1,8.32,0A12.12,12.12,0,0,1,129.28,140.34Z"/><path class="a" d="M123,106.24a4.16,4.16,0,0,1-4.16-4.16V86.81a12.49,12.49,0,0,1,12.47-12.48,4.16,4.16,0,1,1,0,8.32,4.16,4.16,0,0,0-4.16,4.16v15.27A4.16,4.16,0,0,1,123,106.24Z"/><path class="a" d="M141.24,73.23a12.49,12.49,0,0,1-12.47-12.47,4.16,4.16,0,0,1,8.32,0,4.16,4.16,0,0,0,4.16,4.16,4.16,4.16,0,1,1,0,8.32Z"/><path class="a" d="M124.61,73.23a4.16,4.16,0,1,1,0-8.32,4.16,4.16,0,0,0,4.16-4.16,4.16,4.16,0,0,1,8.32,0A12.49,12.49,0,0,1,124.61,73.23Z"/><path class="a" d="M137.69,53.67a4.16,4.16,0,1,1,0-8.32,4.16,4.16,0,0,0,4.16-4.16,4.16,4.16,0,0,1,8.32,0A12.49,12.49,0,0,1,137.69,53.67Z"/><path class="a" d="M144.18,61.86A4.16,4.16,0,0,1,140,57.7c0-2.25-2.51-4.16-5.49-4.16h-2c-3,0-5.49,1.9-5.49,4.16a4.16,4.16,0,1,1-8.32,0c0-6.88,6.19-12.47,13.8-12.47h2c7.61,0,13.81,5.6,13.81,12.47A4.16,4.16,0,0,1,144.18,61.86Z"/><path class="a" d="M157.75,51.59a4.16,4.16,0,0,1-4.16-4.16V23.84a4.16,4.16,0,0,0-4.16-4.16H133.06a4.16,4.16,0,1,1,0-8.32h16.37A12.49,12.49,0,0,1,161.9,23.84V47.43A4.16,4.16,0,0,1,157.75,51.59Z"/><path class="a" d="M81.83,107.7a4.16,4.16,0,0,1-4.16-4.16V89.12A12.49,12.49,0,0,1,90.15,76.65a4.16,4.16,0,1,1,0,8.32A4.16,4.16,0,0,0,86,89.12v14.42A4.16,4.16,0,0,1,81.83,107.7Z"/><path class="a" d="M90.63,84.85a4.16,4.16,0,0,1-4.16-4.16A12.49,12.49,0,0,1,98.95,68.21a4.16,4.16,0,1,1,0,8.32,4.16,4.16,0,0,0-4.16,4.16A4.16,4.16,0,0,1,90.63,84.85Z"/><path class="a" d="M134.52,41.21A4.16,4.16,0,0,1,130.37,37a12.49,12.49,0,0,1,12.47-12.48h4.64a4.16,4.16,0,0,1,0,8.32h-4.64A4.16,4.16,0,0,0,138.68,37,4.16,4.16,0,0,1,134.52,41.21Z"/><path class="a" d="M134.28,41.69H123.64a4.16,4.16,0,1,1,0-8.32h10.63a4.16,4.16,0,1,1,0,8.32Z"/><path class="a" d="M102.74,104.4a4.16,4.16,0,0,1-4.16-4.16,4.16,4.16,0,0,0-4.16-4.16,4.16,4.16,0,0,1,0-8.32,12.49,12.49,0,0,1,12.47,12.47A4.16,4.16,0,0,1,102.74,104.4Z"/><path class="a" d="M81.1,74.7a4.16,4.16,0,0,1,0-8.32c2.25,0,4.16-2.51,4.16-5.49v-2c0-3-1.9-5.49-4.16-5.49a4.16,4.16,0,0,1,0-8.32c6.88,0,12.47,6.19,12.47,13.81v2C93.57,68.5,88,74.7,81.1,74.7Z"/><path class="b" d="M99.55,56.73a4.16,4.16,0,0,1-4.16-4.16,12.49,12.49,0,0,1,12.47-12.47l5.41-.12A4.11,4.11,0,0,1,117.53,44a4.16,4.16,0,0,1-4.07,4.24l-5.5.12a4.18,4.18,0,0,0-4.25,4.16A4.16,4.16,0,0,1,99.55,56.73Z"/><path class="a" d="M100.17,76.53A4.16,4.16,0,0,1,96,72.37v-8.8a4.16,4.16,0,1,1,8.32,0v8.8A4.16,4.16,0,0,1,100.17,76.53Z"/><path class="a" d="M135.86,96a4.16,4.16,0,1,1,0-8.32A4.17,4.17,0,0,0,140,83.55a4.16,4.16,0,1,1,8.32,0A12.49,12.49,0,0,1,135.86,96Z"/><path class="a" d="M144.18,104.34a4.16,4.16,0,0,1-4.16-4.16A4.16,4.16,0,0,0,135.86,96a4.16,4.16,0,1,1,0-8.32,12.49,12.49,0,0,1,12.48,12.47A4.16,4.16,0,0,1,144.18,104.34Z"/><path class="a" d="M31.12,173.31A10.91,10.91,0,0,1,25,171.49l1.56-2.91a8,8,0,0,0,4.44,1.5c1.41,0,3-.53,3-2,0-2.56-4.7-3-7.05-5.67A5,5,0,0,1,25.66,159c0-2.94,2.32-5.52,6.58-5.52a9.92,9.92,0,0,1,4.88,1.18l-.06,3.47a9.52,9.52,0,0,0-4.61-1.41c-1.44,0-2.56.65-2.56,1.76,0,3.35,8.32,3.06,8.32,9.14C38.21,171.11,35.09,173.31,31.12,173.31Z"/><path class="a" d="M56.87,165.41V173h-4v-7.67l-6.7-11.69h4.44l2.94,5.41c.47.82,1,1.91,1.44,2.79H55c.41-.88.94-1.91,1.38-2.73l3-5.47h4.2Z"/><path class="a" d="M86.75,173l-8.4-10.75c-.73-.94-1.26-1.7-1.85-2.56h-.06c.06.65.06,1.82.06,2.7V173h-4V153.65h4.05L84.67,164c.76,1,1.29,1.73,1.82,2.53h.06c-.06-.91-.06-2.17-.06-3v-9.87h4V173Z"/><path class="a" d="M113.64,173l-1.88-4.73h-6.58L103.39,173h-4L107,153.57h3.06L118,173Zm-4.44-11.72a21,21,0,0,1-.7-2.38h0a15.22,15.22,0,0,1-.7,2.32l-1.44,3.82h4.2Z"/><path class="a" d="M131.66,166.35h-.73V173h-4V153.65h5.29c4.26,0,7.11,2.14,7.11,6.29C139.3,162.44,137.42,166.35,131.66,166.35Zm.12-9.34h-.85v6.29h.88c2.38,0,3.47-1.2,3.47-3.2C135.27,158.36,134.13,157,131.77,157Z"/><path class="a" d="M162.34,156.95h-5.2V173h-4.05V156.95h-5.67v-3.29h15.84Z"/><path class="a" d="M172,173V153.65h4V173Z"/><path class="a" d="M195.72,173.31c-6.32,0-9.9-4.32-9.9-9.78s4.17-10.08,10.78-10.08a11.52,11.52,0,0,1,5.05,1l-.06,3.58a9.37,9.37,0,0,0-4.85-1.35c-4.55,0-6.55,3.17-6.55,6.52,0,3.7,2.38,6.61,6.2,6.61a9.72,9.72,0,0,0,4.82-1.32l1.09,2.82A12.08,12.08,0,0,1,195.72,173.31Z"/><path class="b" d="M9.36,201.53c-6,0-9.36-4.08-9.36-9.25s3.94-9.52,10.19-9.52a10.88,10.88,0,0,1,4.78,1l-.06,3.39a8.85,8.85,0,0,0-4.58-1.28c-4.3,0-6.19,3-6.19,6.16,0,3.5,2.25,6.25,5.86,6.25A9.18,9.18,0,0,0,14.55,197l1,2.67A11.42,11.42,0,0,1,9.36,201.53Z"/><path class="b" d="M39.76,198.81a9.48,9.48,0,0,1-6.89,2.72,9.52,9.52,0,0,1-6.53-2.22,9.18,9.18,0,0,1-2.92-7,9.61,9.61,0,0,1,2.64-6.83,9.33,9.33,0,0,1,6.8-2.72A9.5,9.5,0,0,1,40,185.6a10.21,10.21,0,0,1-.25,13.22Zm-6.89-12.94c-3.17,0-5.47,2.31-5.47,6.3s2.3,6.3,5.47,6.3,5.41-2.3,5.41-6.3S36,185.87,32.87,185.87Z"/><path class="b" d="M66.24,201.26V191.15c0-.67,0-1.33.06-2h-.06a15.14,15.14,0,0,1-1.14,1.92l-3.39,5.19H60L56.19,191A12.32,12.32,0,0,1,55,189.18H55c0,.69,0,1.33,0,1.86v10.22H51.22V183h3.5l4.8,6.86a21,21,0,0,1,1.33,2.05h0a17.29,17.29,0,0,1,1.25-2.17L66.52,183H70v18.3Z"/><path class="b" d="M84.2,195h-.69v6.3H79.7V183h5c4,0,6.72,2,6.72,5.94C91.42,191.26,89.64,195,84.2,195Zm.11-8.83h-.81v5.94h.83c2.25,0,3.28-1.14,3.28-3C87.62,187.4,86.53,186.12,84.31,186.12Z"/><path class="b" d="M110,201.26l-1.78-4.47h-6.22l-1.69,4.47H96.61l7.16-18.38h2.89l7.47,18.38Zm-4.19-11.08a19.66,19.66,0,0,1-.67-2.25h0a14.39,14.39,0,0,1-.67,2.19l-1.36,3.61h4Z"/><path class="b" d="M132,201.26c-2.78-4.75-3.89-6.8-4.55-7.05h-1.42v7.05h-3.8V183h5.33c4.89,0,6.66,2.42,6.66,5.25a5.25,5.25,0,0,1-3.33,4.75v0c.92.53,2.69,3.61,5.44,8.27Zm-4.36-15.13h-1.61v5.3h1.61a2.75,2.75,0,0,0,2.8-2.8A2.5,2.5,0,0,0,127.67,186.12Z"/><path class="b" d="M156.38,201.26l-1.78-4.47h-6.22l-1.69,4.47h-3.75l7.16-18.38H153l7.47,18.38Zm-4.19-11.08a19.66,19.66,0,0,1-.67-2.25h0a14.39,14.39,0,0,1-.67,2.19l-1.36,3.61h4Z"/><path class="b" d="M179.22,186.07h-4.92v15.19h-3.83V186.07h-5.36V183h15Z"/><path class="b" d="M202.26,198.81a10.36,10.36,0,0,1-13.41.5,9.18,9.18,0,0,1-2.92-7,9.61,9.61,0,0,1,2.64-6.83,9.33,9.33,0,0,1,6.8-2.72,8.82,8.82,0,0,1,9.44,9.33A9.4,9.4,0,0,1,202.26,198.81Zm-6.89-12.94c-3.17,0-5.47,2.31-5.47,6.3s2.3,6.3,5.47,6.3,5.41-2.3,5.41-6.3S198.54,185.87,195.38,185.87Z"/><path class="b" d="M223.5,201.26c-2.78-4.75-3.89-6.8-4.55-7.05h-1.42v7.05h-3.8V183h5.33c4.89,0,6.66,2.42,6.66,5.25a5.25,5.25,0,0,1-3.33,4.75v0c.92.53,2.69,3.61,5.44,8.27Zm-4.36-15.13h-1.61v5.3h1.61a2.75,2.75,0,0,0,2.8-2.8A2.5,2.5,0,0,0,219.14,186.12Z"/><rect class="c" width="227.83" height="230"/></svg>