<svg xmlns="http://www.w3.org/2000/svg" viewBox="0 0 241.88 230"><defs><style>.a{fill:#5881c1;}.b{fill:#9ca199;}.c{fill:none;}</style></defs><title>logo-synaptic_web_services</title><path class="a" d="M149.07,129.7H136.48a4.16,4.16,0,1,1,0-8.32h12.59a4.16,4.16,0,0,0,4.16-4.16v-3.05a4.16,4.16,0,0,1,8.32,0v3.05A12.49,12.49,0,0,1,149.07,129.7Z"/><path class="b" d="M124.75,38.76H102.26A12.49,12.49,0,0,1,89.79,26.28a4.16,4.16,0,0,1,8.32,0,4.16,4.16,0,0,0,4.16,4.16h22.49a4.16,4.16,0,1,1,0,8.32Z"/><path class="b" d="M114.36,28.37a12.49,12.49,0,0,1-12.47-12.47,4.16,4.16,0,1,1,8.32,0,4.16,4.16,0,0,0,4.16,4.16,4.16,4.16,0,0,1,0,8.32Z"/><path class="b" d="M124.75,127.14a4.16,4.16,0,0,1-4.16-4.16V12.48a4.16,4.16,0,0,0-4.16-4.16H100.06a4.16,4.16,0,0,0-4.16,4.16,4.16,4.16,0,1,1-8.32,0A12.49,12.49,0,0,1,100.06,0h16.37a12.49,12.49,0,0,1,12.47,12.48V123A4.16,4.16,0,0,1,124.75,127.14Z"/><path class="b" d="M157.75,17a4.16,4.16,0,0,1-4.16-4.16,4.16,4.16,0,0,0-4.16-4.16H133.07a4.16,4.16,0,0,0-4.16,4.16,4.16,4.16,0,1,1-8.32,0A12.49,12.49,0,0,1,133.07.37h16.37a12.49,12.49,0,0,1,12.47,12.47A4.16,4.16,0,0,1,157.75,17Z"/><path class="b" d="M89.42,64.06A12.49,12.49,0,0,1,76.95,51.59V23.84A12.49,12.49,0,0,1,89.42,11.37H105.8a4.16,4.16,0,0,1,0,8.32H89.42a4.16,4.16,0,0,0-4.16,4.16V51.59a4.16,4.16,0,0,0,4.16,4.16,4.16,4.16,0,1,1,0,8.32Z"/><path class="b" d="M79.52,75.8A12.49,12.49,0,0,1,67,63.32V45.85A12.49,12.49,0,0,1,79.52,33.37a4.16,4.16,0,1,1,0,8.32,4.16,4.16,0,0,0-4.16,4.16V63.32a4.16,4.16,0,0,0,4.16,4.16,4.16,4.16,0,1,1,0,8.32Z"/><path class="b" d="M79.52,95.6A12.49,12.49,0,0,1,67,83.13V80A12.49,12.49,0,0,1,79.52,67.48a4.16,4.16,0,1,1,0,8.32A4.16,4.16,0,0,0,75.37,80v3.17a4.16,4.16,0,0,0,4.16,4.16,4.16,4.16,0,0,1,0,8.32Z"/><path class="b" d="M169.61,95.6a4.16,4.16,0,0,1,0-8.32,4.16,4.16,0,0,0,4.16-4.16V65.65a4.16,4.16,0,0,0-4.16-4.16,4.16,4.16,0,0,1,0-8.32,12.49,12.49,0,0,1,12.47,12.47V83.13A12.49,12.49,0,0,1,169.61,95.6Z"/><path class="b" d="M170,61.5a4.16,4.16,0,0,1,0-8.32A4.16,4.16,0,0,0,174.13,49V45.85A4.16,4.16,0,0,0,170,41.69a4.16,4.16,0,0,1,0-8.32,12.49,12.49,0,0,1,12.47,12.47V49A12.49,12.49,0,0,1,170,61.5Z"/><path class="b" d="M96.63,117.6h-6.1A12.49,12.49,0,0,1,78,105.13v-24a4.16,4.16,0,1,1,8.32,0v24a4.16,4.16,0,0,0,4.16,4.16h6.1a4.16,4.16,0,0,0,4.16-4.16,4.16,4.16,0,0,1,8.32,0A12.49,12.49,0,0,1,96.63,117.6Z"/><path class="b" d="M158.61,118H152.5A12.49,12.49,0,0,1,140,105.5a4.16,4.16,0,1,1,8.32,0,4.16,4.16,0,0,0,4.16,4.16h6.11a4.16,4.16,0,1,1,0,8.32Z"/><path class="b" d="M158.61,118a4.16,4.16,0,0,1,0-8.32,4.16,4.16,0,0,0,4.16-4.16V77.39a4.16,4.16,0,0,0-4.16-4.16h-6.35a4.16,4.16,0,1,1,0-8.32h6.35a12.49,12.49,0,0,1,12.47,12.47V105.5A12.49,12.49,0,0,1,158.61,118Z"/><path class="b" d="M113.26,117.24a12.49,12.49,0,0,1-12.47-12.47,4.16,4.16,0,0,1,8.32,0,4.16,4.16,0,0,0,4.16,4.16,4.16,4.16,0,1,1,0,8.32Z"/><path class="b" d="M135.75,117.24a4.16,4.16,0,0,1,0-8.32,4.16,4.16,0,0,0,4.16-4.16,4.16,4.16,0,1,1,8.32,0A12.49,12.49,0,0,1,135.75,117.24Z"/><path class="b" d="M135.38,28.37a4.16,4.16,0,1,1,0-8.32,4.16,4.16,0,0,0,4.16-4.16,4.16,4.16,0,1,1,8.32,0A12.49,12.49,0,0,1,135.38,28.37Z"/><path class="a" d="M114.11,129.7H100.43A12.49,12.49,0,0,1,88,117.23v-3.78a4.16,4.16,0,1,1,8.32,0v3.78a4.16,4.16,0,0,0,4.16,4.16h13.69a4.16,4.16,0,0,1,0,8.32Z"/><path class="a" d="M140.65,140.34H109.23a12.12,12.12,0,0,1-12.11-12.11,4.16,4.16,0,0,1,8.32,0,3.8,3.8,0,0,0,3.79,3.79h31.42a3.8,3.8,0,0,0,3.79-3.79,4.16,4.16,0,0,1,8.32,0A12.12,12.12,0,0,1,140.65,140.34Z"/><path class="b" d="M134.4,106.23a4.16,4.16,0,0,1-4.16-4.16V86.81a12.49,12.49,0,0,1,12.47-12.48,4.16,4.16,0,0,1,0,8.32,4.16,4.16,0,0,0-4.16,4.16v15.27A4.16,4.16,0,0,1,134.4,106.23Z"/><path class="b" d="M152.62,73.23a12.49,12.49,0,0,1-12.47-12.47,4.16,4.16,0,1,1,8.32,0,4.16,4.16,0,0,0,4.16,4.16,4.16,4.16,0,1,1,0,8.32Z"/><path class="b" d="M136,73.23a4.16,4.16,0,1,1,0-8.32,4.16,4.16,0,0,0,4.16-4.16,4.16,4.16,0,1,1,8.32,0A12.49,12.49,0,0,1,136,73.23Z"/><path class="b" d="M149.07,53.67a4.16,4.16,0,1,1,0-8.32,4.16,4.16,0,0,0,4.16-4.16,4.16,4.16,0,1,1,8.32,0A12.49,12.49,0,0,1,149.07,53.67Z"/><path class="b" d="M155.55,61.86a4.16,4.16,0,0,1-4.16-4.16c0-2.25-2.51-4.16-5.49-4.16h-2c-3,0-5.49,1.91-5.49,4.16a4.16,4.16,0,1,1-8.32,0c0-6.88,6.19-12.48,13.81-12.48h2c7.61,0,13.81,5.6,13.81,12.48A4.16,4.16,0,0,1,155.55,61.86Z"/><path class="b" d="M169.12,51.59A4.16,4.16,0,0,1,165,47.43V23.84a4.16,4.16,0,0,0-4.16-4.16H144.43a4.16,4.16,0,0,1,0-8.32H160.8a12.49,12.49,0,0,1,12.47,12.47V47.43A4.16,4.16,0,0,1,169.12,51.59Z"/><path class="b" d="M93.21,107.7a4.16,4.16,0,0,1-4.16-4.16V89.12a12.49,12.49,0,0,1,12.47-12.47,4.16,4.16,0,1,1,0,8.32,4.16,4.16,0,0,0-4.16,4.16v14.42A4.16,4.16,0,0,1,93.21,107.7Z"/><path class="b" d="M102,84.85a4.16,4.16,0,0,1-4.16-4.16,12.49,12.49,0,0,1,12.47-12.47,4.16,4.16,0,0,1,0,8.32,4.16,4.16,0,0,0-4.16,4.16A4.16,4.16,0,0,1,102,84.85Z"/><path class="b" d="M145.9,41.2A4.16,4.16,0,0,1,141.74,37a12.49,12.49,0,0,1,12.47-12.47h4.64a4.16,4.16,0,1,1,0,8.32h-4.64A4.16,4.16,0,0,0,150.06,37,4.16,4.16,0,0,1,145.9,41.2Z"/><path class="b" d="M145.65,41.69H135a4.16,4.16,0,1,1,0-8.32h10.63a4.16,4.16,0,1,1,0,8.32Z"/><path class="b" d="M114.11,104.4a4.16,4.16,0,0,1-4.16-4.16,4.16,4.16,0,0,0-4.16-4.16,4.16,4.16,0,1,1,0-8.32,12.49,12.49,0,0,1,12.47,12.47A4.16,4.16,0,0,1,114.11,104.4Z"/><path class="b" d="M92.48,74.7a4.16,4.16,0,0,1,0-8.32c2.25,0,4.16-2.51,4.16-5.49v-2c0-3-1.9-5.49-4.16-5.49a4.16,4.16,0,1,1,0-8.32c6.88,0,12.47,6.19,12.47,13.81v2C104.95,68.5,99.35,74.7,92.48,74.7Z"/><path class="b" d="M110.93,56.73a4.16,4.16,0,0,1-4.16-4.16,12.49,12.49,0,0,1,12.47-12.48l5.41-.12a4.16,4.16,0,0,1,.18,8.31l-5.5.12a4.19,4.19,0,0,0-4.25,4.16A4.16,4.16,0,0,1,110.93,56.73Z"/><path class="b" d="M111.55,76.53a4.16,4.16,0,0,1-4.16-4.16v-8.8a4.16,4.16,0,1,1,8.32,0v8.8A4.16,4.16,0,0,1,111.55,76.53Z"/><path class="b" d="M147.24,96a4.16,4.16,0,0,1,0-8.32,4.17,4.17,0,0,0,4.16-4.16,4.16,4.16,0,1,1,8.32,0A12.49,12.49,0,0,1,147.24,96Z"/><path class="b" d="M155.56,104.33a4.16,4.16,0,0,1-4.16-4.16A4.16,4.16,0,0,0,147.24,96a4.16,4.16,0,0,1,0-8.32,12.49,12.49,0,0,1,12.48,12.47A4.16,4.16,0,0,1,155.56,104.33Z"/><path class="b" d="M38.95,173.31a10.89,10.89,0,0,1-6.16-1.82l1.56-2.91a8,8,0,0,0,4.43,1.5c1.41,0,3-.53,3-2,0-2.55-4.7-3-7-5.66A5,5,0,0,1,33.49,159c0-2.93,2.32-5.52,6.57-5.52a9.9,9.9,0,0,1,4.87,1.17l-.06,3.46a9.51,9.51,0,0,0-4.61-1.41c-1.44,0-2.55.65-2.55,1.76,0,3.35,8.3,3.05,8.3,9.13C46,171.11,42.91,173.31,38.95,173.31Z"/><path class="b" d="M64.66,165.42V173h-4v-7.66l-6.69-11.68h4.43l2.93,5.4c.47.82,1,1.91,1.44,2.79h.06c.41-.88.94-1.91,1.38-2.73l3-5.46h4.2Z"/><path class="b" d="M94.5,173l-8.39-10.74c-.73-.94-1.26-1.7-1.85-2.55H84.2c.06.65.06,1.82.06,2.7V173h-4V153.68h4L92.42,164c.76,1,1.29,1.73,1.82,2.52h.06c-.06-.91-.06-2.17-.06-3v-9.86h4V173Z"/><path class="b" d="M121.36,173l-1.88-4.72h-6.57L111.12,173h-4l7.57-19.43h3.05L125.67,173Zm-4.43-11.71a20.86,20.86,0,0,1-.7-2.38h0a15.13,15.13,0,0,1-.7,2.32l-1.44,3.82h4.2Z"/><path class="b" d="M139.35,166.36h-.73V173h-4V153.68h5.28c4.26,0,7.1,2.14,7.1,6.28C147,162.46,145.1,166.36,139.35,166.36Zm.12-9.33h-.85v6.28h.88c2.38,0,3.46-1.2,3.46-3.2C143,158.38,141.82,157,139.47,157Z"/><path class="b" d="M170,157H164.8V173h-4V157h-5.66v-3.29H170.9Z"/><path class="b" d="M179.68,173V153.68h4V173Z"/><path class="b" d="M203.33,173.31c-6.31,0-9.89-4.31-9.89-9.77s4.17-10.07,10.77-10.07a11.51,11.51,0,0,1,5,1l-.06,3.58a9.35,9.35,0,0,0-4.84-1.35c-4.55,0-6.54,3.17-6.54,6.51,0,3.7,2.38,6.6,6.19,6.6a9.7,9.7,0,0,0,4.81-1.32l1.09,2.82A12.07,12.07,0,0,1,203.33,173.31Z"/><path class="a" d="M20.19,201.31H17l-2.77-7.63a21,21,0,0,1-.83-2.55h-.08a20.74,20.74,0,0,1-.8,2.52l-2.77,7.65H6.6L0,182.9H4.22l3.41,10.59c.28.83.47,1.61.69,2.47H8.4a24.74,24.74,0,0,1,.75-2.44l2.47-7.29-1.19-3.33H14.2l3.58,10.32c.33,1,.64,1.8.86,2.69h.08c.19-.89.39-1.66.67-2.63l3.16-10.37H26.4Z"/><path class="a" d="M34.52,201.17V182.9H45.11l-1,3.11h-5.8v4.27h5.82v3.13H38.32v4.66h6.77v3.11Z"/><path class="a" d="M60.28,201.17H54.07V182.9h6c3.66,0,5.44,2.33,5.44,4.58a4.15,4.15,0,0,1-2.16,3.72v0a4.46,4.46,0,0,1,3.38,4.44C66.77,198.29,64.74,201.17,60.28,201.17Zm-1-15.11H57.87v4.3h1.86a2.15,2.15,0,0,0,2.08-2.16C61.8,187,61,186.06,59.28,186.06Zm.67,7.4H57.87V198h1.94c2.14,0,3.13-.83,3.13-2.41C62.94,194.29,61.89,193.46,59.94,193.46Z"/><path class="a" d="M93.19,201.45a10.29,10.29,0,0,1-5.82-1.72L88.83,197A7.57,7.57,0,0,0,93,198.4c1.33,0,2.83-.5,2.83-1.89,0-2.41-4.44-2.83-6.66-5.35A4.75,4.75,0,0,1,88,187.92c0-2.77,2.19-5.21,6.21-5.21a9.36,9.36,0,0,1,4.6,1.11l-.06,3.27a9,9,0,0,0-4.35-1.33c-1.36,0-2.41.61-2.41,1.66,0,3.16,7.85,2.88,7.85,8.62C99.87,199.37,96.93,201.45,93.19,201.45Z"/><path class="a" d="M108.6,201.17V182.9H119.2l-1,3.11h-5.8v4.27h5.82v3.13H112.4v4.66h6.77v3.11Z"/><path class="a" d="M137.91,201.17c-2.77-4.74-3.88-6.79-4.55-7h-1.41v7h-3.8V182.9h5.32c4.88,0,6.66,2.41,6.66,5.24a5.24,5.24,0,0,1-3.33,4.74v0c.92.53,2.69,3.61,5.44,8.26Zm-4.35-15.11h-1.61v5.3h1.61a2.74,2.74,0,0,0,2.8-2.8A2.49,2.49,0,0,0,133.56,186.06Z"/><path class="a" d="M157.62,201.31h-2.83l-7.49-18.38h4.16l3.72,9.71c.47,1.19.89,2.36,1.25,3.38h.06c.3-1,.72-2.05,1.22-3.27l4.13-9.82h3.88Z"/><path class="a" d="M173.81,201.17V182.9h3.8v18.27Z"/><path class="a" d="M195.85,201.45c-6,0-9.35-4.08-9.35-9.23s3.94-9.51,10.18-9.51a10.87,10.87,0,0,1,4.77,1l-.06,3.38a8.84,8.84,0,0,0-4.58-1.28c-4.3,0-6.18,3-6.18,6.16,0,3.49,2.25,6.24,5.85,6.24a9.17,9.17,0,0,0,4.55-1.25l1,2.66A11.4,11.4,0,0,1,195.85,201.45Z"/><path class="a" d="M210.69,201.17V182.9h10.59l-1,3.11h-5.8v4.27h5.82v3.13h-5.82v4.66h6.77v3.11Z"/><path class="a" d="M235.2,201.45a10.29,10.29,0,0,1-5.82-1.72l1.47-2.75A7.57,7.57,0,0,0,235,198.4c1.33,0,2.83-.5,2.83-1.89,0-2.41-4.44-2.83-6.66-5.35a4.75,4.75,0,0,1-1.16-3.24c0-2.77,2.19-5.21,6.21-5.21a9.37,9.37,0,0,1,4.6,1.11l-.06,3.27a9,9,0,0,0-4.35-1.33c-1.36,0-2.41.61-2.41,1.66,0,3.16,7.85,2.88,7.85,8.62C241.88,199.37,238.94,201.45,235.2,201.45Z"/><rect class="c" width="241.88" height="230"/></svg>