<?xml version="1.0" encoding="utf-8"?>
<!-- Generator: Adobe Illustrator 21.1.0, SVG Export Plug-In . SVG Version: 6.00 Build 0)  -->
<svg version="1.1" id="Layer_1" xmlns="http://www.w3.org/2000/svg" xmlns:xlink="http://www.w3.org/1999/xlink" x="0px" y="0px"
	 viewBox="0 0 36.2 36.2" style="enable-background:new 0 0 36.2 36.2;" xml:space="preserve">
<style type="text/css">
	.st0{fill:#FF5800;}
	.st1{fill:#FFFFFF;}
</style>
<title>ico-new-flash</title>
<polygon class="st0" points="36.2,18.1 36.2,18.1 36.2,18.1 32.3,15.3 34.8,11.2 34.8,11.2 34.8,11.2 34.8,11.2 30.2,10 30.9,5.3 
	30.9,5.3 30.9,5.3 30.9,5.3 30.9,5.3 30.9,5.3 26.2,6 25,1.4 25,1.4 25,1.4 25,1.4 25,1.4 25,1.4 20.9,3.9 18.1,0 18.1,0 18.1,0 
	18.1,0 15.3,3.9 11.2,1.4 11.2,1.4 11.2,1.4 11.2,1.4 11.2,1.4 11.2,1.4 10,6 5.3,5.3 5.3,5.3 5.3,5.3 5.3,5.3 5.3,5.3 5.3,5.3 
	6,10 1.4,11.2 1.4,11.2 1.4,11.2 1.4,11.2 1.4,11.2 1.4,11.2 3.9,15.3 0,18.1 0,18.1 0,18.1 0,18.1 0,18.1 0,18.1 3.9,20.9 1.4,25 
	1.4,25 1.4,25 1.4,25 1.4,25 1.4,25 6,26.2 5.3,30.9 5.3,30.9 5.3,30.9 5.3,30.9 5.3,30.9 5.3,30.9 10,30.2 11.2,34.8 11.2,34.8 
	11.2,34.8 11.2,34.8 11.2,34.8 11.2,34.8 15.3,32.3 18.1,36.2 18.1,36.2 18.1,36.2 18.1,36.2 18.1,36.2 20.9,32.3 25,34.8 25,34.8 
	25,34.8 25,34.8 25,34.8 26.2,30.2 30.9,30.9 30.9,30.9 30.9,30.9 30.9,30.9 30.9,30.9 30.2,26.2 34.8,25 34.8,25 34.8,25 34.8,25 
	34.8,25 32.3,20.9 36.2,18.1 36.2,18.1 36.2,18.1 "/>
<path class="st1" d="M10.9,14.6c0.4-0.6,0.8-0.9,1.2-0.9c0.5,0.1,0.8,0.2,0.8,0.3c0.2,0.6,0.4,1.2,0.6,1.9c0.3,2.3,0.6,3.8,0.8,4.5
	c0.3,1,0.1,0.1,0.1,0.5l0,0c0,0.3-0.2,0.4-0.5,0.4l0,0c-0.5,0-0.8-0.1-0.8-0.3c-0.3-0.6-0.5-1.2-0.6-1.8l-0.5-3.2l0,0
	c-0.8,1.2-1.5,2.6-2,4c-0.1,0.4-0.3,0.7-0.5,1c0,0-0.1-0.1-0.2-0.1H8.6c-0.1,0-0.2-0.1-0.2-0.2c0,0,0,0,0-0.1L8.1,20
	c0.3-1.4,0.4-2.8,0.3-4.3c0.2-0.1,0.4-0.2,0.5-0.3c0-0.1,0-0.1,0.1-0.1c0.6,0.1,0.9,0.2,0.9,0.3l-0.1,0.2l0,0l0,0
	C10.3,15.5,10.6,15.1,10.9,14.6L10.9,14.6z"/>
<path class="st1" d="M15.6,16c-0.1,0.2-0.2,0.5-0.1,0.7c0,0.4,0.1,0.8,0.4,1c0.3-0.1,0.6-0.2,0.8-0.4c0.1-0.2,0.1-0.3,0.1-0.5
	c0-0.4-0.2-0.8-0.7-1H16C15.8,15.8,15.6,15.9,15.6,16L15.6,16z M27.6,19.4c0,0.8-0.1,1.2-0.3,1.2c-0.3,0.2-0.6,0.3-0.9,0.3
	c-0.6,0-1.4-0.5-2.4-1.6c-0.2-0.2-0.5-0.4-0.7-0.6c-0.3,0.8-0.7,1.6-1.2,2.3c-0.3,0.3-0.6,0.4-1,0.5c-0.2,0-0.4-0.3-0.8-1
	c-0.1-0.2-0.2-0.5-0.2-0.7c-0.4,0.5-1,0.9-1.6,1.1c-0.2,0.1-0.5,0.1-0.7,0.1h-0.2c-1.2,0-2.4-0.9-3.5-2.6l0,0L14,16.5v-0.2
	c0-0.8,0.3-1.3,0.8-1.5c0.4-0.3,1-0.4,1.5-0.5c0.8,0,1.5,0.6,2.1,1.7c0.1,0.3,0.1,0.5,0.1,0.8c0,0.8-0.6,1.5-1.9,2l0,0
	c0.2,0.5,0.7,0.8,1.3,0.9c0.8-0.1,1.6-0.6,2-1.3c0-0.3-0.1-0.6,0-0.8v-0.3c-0.1-0.7,0.2-1.3,0.7-1.8l0.3-0.1H21
	c0.3,0,0.5,0.2,0.6,0.7v0.1L21.5,17l0,0v0.2v0.1c0,0.1,0,0.1,0.1,0.1c0.1,0,0.2-0.1,0.2-0.3l0,0l0,0c0,0.3-0.2,0.6-0.4,0.9
	c0,0.1,0.1,0.2,0.1,0.4c0.2-0.1,0.4-0.4,0.5-0.6c0.1-0.5,0.2-0.7,0.3-0.7c0.3-0.1,0.6-0.2,0.9-0.4c0.5,0.2,1,0.5,1.3,0.9
	c0.7,0.7,1.1,1.1,1.2,1.1c0.1-0.4,0.1-0.7,0.1-1.1v-0.1L25.7,15c0-0.5,0.1-0.7,0.2-0.7c0.1-0.1,0.3-0.2,0.4-0.2h0.1
	c0.4,0,0.7,0.3,0.8,0.8l-0.1,0.8V16c0.1,0.9,0.2,1.8,0.4,2.7L27.6,19.4z"/>
</svg>
