<svg xmlns="http://www.w3.org/2000/svg" viewBox="0 0 281.08 316.84"><title>Synaptic Modeller</title><path d="M388.8,236.74a19.7,19.7,0,0,0-14.46-19V202a19.7,19.7,0,0,0-18.07-19.6A19.7,19.7,0,0,0,336.72,165H310.89a19.59,19.59,0,0,0-12.8,4.76,19.58,19.58,0,0,0-13.44-5.34H258.82a19.69,19.69,0,0,0-19.6,18.16A19.7,19.7,0,0,0,222.36,202v15.46a19.71,19.71,0,0,0-15.62,19.26V264.3A19.7,19.7,0,0,0,226.42,284a6.56,6.56,0,1,0,0-13.12,6.57,6.57,0,0,1-6.56-6.56V236.74a6.55,6.55,0,0,1,2.5-5.14v14.2A19.7,19.7,0,0,0,242,265.47a6.56,6.56,0,1,0,0-13.12,6.57,6.57,0,0,1-6.56-6.56V202a6.57,6.57,0,0,1,6.56-6.56h20.6a19.71,19.71,0,0,0,18.75,13.7,6.56,6.56,0,0,0,0-13.12,6.56,6.56,0,0,1-6.56-6.56,7.48,7.48,0,0,0-7-7.14H252.5a6.57,6.57,0,0,1,6.32-4.81h25.83a6.56,6.56,0,0,1,6.56,6.56v28.34H262.29a6.57,6.57,0,0,1-6.56-6.56,6.56,6.56,0,0,0-13.12,0,19.7,19.7,0,0,0,19.68,19.68H291.2v2.07l-2.12,0a19.7,19.7,0,0,0-19.68,19.68,6.56,6.56,0,0,0,13.12,0,6.6,6.6,0,0,1,6.7-6.56l2,0V358.43a6.56,6.56,0,1,0,13.12,0V184.67a6.57,6.57,0,0,1,6.56-6.56h25.83a6.56,6.56,0,0,1,6.13,4.23h-14a8.32,8.32,0,0,0-7.72,7.14,6.56,6.56,0,0,1-6.56,6.56,6.56,6.56,0,1,0,0,13.12,19.71,19.71,0,0,0,18.75-13.7h21.36a6.57,6.57,0,0,1,6.56,6.56v37.21a6.56,6.56,0,1,0,13.12,0v-6.46a6.52,6.52,0,0,1,1.34,4v5a6.57,6.57,0,0,1-6.56,6.56h-0.58a6.56,6.56,0,0,0,0,13.12,6.56,6.56,0,0,1,6.56,6.56v27.57a6.56,6.56,0,0,1-4.23,6.13V286.5a19.7,19.7,0,0,0-19.68-19.69h-9.44a6.57,6.57,0,0,1-6.56-6.56,6.56,6.56,0,0,0-13.12,0,6.56,6.56,0,0,1-6.56,6.56,6.56,6.56,0,1,0,0,13.12,19.57,19.57,0,0,0,13.12-5.05,19.58,19.58,0,0,0,11.58,5,6.58,6.58,0,0,0,1,.08h10a6.57,6.57,0,0,1,6.56,6.56v44.34a6.57,6.57,0,0,1-6.56,6.56h-9.63a6.57,6.57,0,0,1-6.56-6.56,6.69,6.69,0,1,0-13.31-1.16,6.57,6.57,0,0,1-6.56,6.56,6.56,6.56,0,0,0,0,13.12,19.59,19.59,0,0,0,12.58-4.56,19.61,19.61,0,0,0,13.85,5.72h1a6.57,6.57,0,0,1-6.45,5.4H316.28a6.56,6.56,0,1,0,0,13.12h12.09a6,6,0,0,1-5.51,3.66H273.28a6,6,0,0,1-5.51-3.66H281a6.56,6.56,0,0,0,0-13.12h-21.6a6.56,6.56,0,0,1-6.56-6.56v-6a6.56,6.56,0,0,0-13.12,0v6a19.7,19.7,0,0,0,14.55,19,19.12,19.12,0,0,0,19,17.48h49.58a19.12,19.12,0,0,0,19-17.64A19.7,19.7,0,0,0,355.79,350a19.7,19.7,0,0,0,15.07-19.11V315.08a19.7,19.7,0,0,0,17.35-19.53V268a19.57,19.57,0,0,0-4.76-12.8,19.59,19.59,0,0,0,5.34-13.44v-5Z" transform="translate(-157.18 -164.41)" fill="#8c978e"/><path d="M326.12,281.67a19.7,19.7,0,0,0-19.69,19.68v24.1a6.56,6.56,0,1,0,13.12,0v-24.1a6.57,6.57,0,0,1,6.56-6.56A6.56,6.56,0,1,0,326.12,281.67Z" transform="translate(-157.18 -164.41)" fill="#8c978e"/><path d="M312.81,262a6.56,6.56,0,0,0,6.56-6.56c0-3.56,4-6.56,8.65-6.56h3.12c4.69,0,8.66,3,8.66,6.56a6.56,6.56,0,1,0,13.12,0,18.29,18.29,0,0,0-3.89-11.2,19.62,19.62,0,0,0,6.78-14.83,6.56,6.56,0,1,0-13.12,0,6.57,6.57,0,0,1-6.56,6.56,6.58,6.58,0,0,0-1.14.1,24.07,24.07,0,0,0-3.85-.31H328c-12,0-21.77,8.83-21.77,19.68A6.56,6.56,0,0,0,312.81,262Z" transform="translate(-157.18 -164.41)" fill="#8c978e"/><path d="M256.19,286a19.7,19.7,0,0,0-14.74,19v22.75a6.56,6.56,0,0,0,13.12,0V305a6.57,6.57,0,0,1,6.56-6.56,7.5,7.5,0,0,0,7.32-6.75,6.57,6.57,0,0,1,6.56-6.56,5.94,5.94,0,0,1,1.92,0,6.56,6.56,0,0,0,6.56-6.56V264.7a6.56,6.56,0,0,0-13.12,0v7.9A19.74,19.74,0,0,0,256.19,286Z" transform="translate(-157.18 -164.41)" fill="#8c978e"/><path d="M330.74,230.17a7.68,7.68,0,0,0,7-7.33,6.57,6.57,0,0,1,6.56-6.56h7.31a6.56,6.56,0,1,0,0-13.12h-7.31a19.71,19.71,0,0,0-18.81,13.89H314a6.56,6.56,0,1,0,0,13.12h16.78Z" transform="translate(-157.18 -164.41)" fill="#8c978e"/><path d="M246.85,269.13a6.56,6.56,0,0,0,0,13.12c10.85,0,19.68-9.77,19.68-21.78v-3.12c0-12-8.83-21.78-19.68-21.78a6.56,6.56,0,0,0,0,13.12c3.56,0,6.56,4,6.56,8.66v3.12C253.42,265.17,250.41,269.13,246.85,269.13Z" transform="translate(-157.18 -164.41)" fill="#8c978e"/><path d="M346.37,289.65a6.56,6.56,0,0,0-6.56,6.56,6.57,6.57,0,0,1-6.56,6.56,6.56,6.56,0,1,0,0,13.12,6.57,6.57,0,0,1,6.56,6.56,6.56,6.56,0,0,0,13.12,0,19.58,19.58,0,0,0-5.05-13.12,19.58,19.58,0,0,0,5.05-13.12A6.56,6.56,0,0,0,346.37,289.65Z" transform="translate(-157.18 -164.41)" fill="#8c978e"/><path d="M279.65,336.24a6.57,6.57,0,0,1-6.56-6.56,6.56,6.56,0,0,0-13.12,0c0,0.1,0,.19,0,0.29s0,0.19,0,.29a6.57,6.57,0,0,1-6.56,6.56h-9.63a6.57,6.57,0,0,1-6.56-6.56V292.47a6.56,6.56,0,0,0-13.12,0v9.2a6.56,6.56,0,0,1-4.24-6.13v-5a6.57,6.57,0,0,1,6.56-6.56,6.56,6.56,0,1,0,0-13.12,19.7,19.7,0,0,0-19.68,19.69v5a19.7,19.7,0,0,0,17.36,19.53v15.18a19.7,19.7,0,0,0,19.68,19.69h9.63a19.58,19.58,0,0,0,13.44-5.34,19.59,19.59,0,0,0,12.8,4.76A6.56,6.56,0,0,0,279.65,336.24Z" transform="translate(-157.18 -164.41)" fill="#7ab800"/><path d="M267.87,316a6.57,6.57,0,0,1,6.56,6.56,6.56,6.56,0,1,0,13.12,0,19.7,19.7,0,0,0-19.68-19.68A6.56,6.56,0,0,0,267.87,316Z" transform="translate(-157.18 -164.41)" fill="#7ab800"/><path d="M167,436.67a17.29,17.29,0,0,1-9.78-2.89l2.47-4.61a12.71,12.71,0,0,0,7,2.38c2.24,0,4.75-.84,4.75-3.17,0-4.05-7.45-4.75-11.18-9a8,8,0,0,1-2-5.45c0-4.66,3.68-8.75,10.43-8.75a15.72,15.72,0,0,1,7.73,1.86l-0.09,5.5a15.1,15.1,0,0,0-7.31-2.24c-2.28,0-4.05,1-4.05,2.79,0,5.31,13.18,4.84,13.18,14.48C178.18,433.18,173.25,436.67,167,436.67Z" transform="translate(-157.18 -164.41)" fill="#8c978e"/><path d="M207.76,424.14v12.06h-6.38V424.05l-10.62-18.54h7l4.66,8.57c0.75,1.3,1.63,3,2.28,4.42h0.09c0.65-1.4,1.49-3,2.19-4.33l4.7-8.66h6.66Z" transform="translate(-157.18 -164.41)" fill="#8c978e"/><path d="M255.13,436.21l-13.32-17c-1.16-1.49-2-2.7-2.93-4.05h-0.09c0.09,1,.09,2.89.09,4.28v16.81h-6.33V405.52H239l12.85,16.39c1.21,1.54,2,2.75,2.89,4h0.09c-0.09-1.44-.09-3.45-0.09-4.75V405.52H261v30.69h-5.91Z" transform="translate(-157.18 -164.41)" fill="#8c978e"/><path d="M297.74,436.21l-3-7.5H284.33l-2.84,7.5H275.2l12-30.83h4.84l12.53,30.83h-6.85Zm-7-18.58a33.1,33.1,0,0,1-1.12-3.77h0a24,24,0,0,1-1.12,3.68l-2.28,6.05h6.66Z" transform="translate(-157.18 -164.41)" fill="#8c978e"/><path d="M326.3,425.63h-1.17v10.57h-6.38V405.52h8.38c6.75,0,11.27,3.4,11.27,10C338.4,419.44,335.42,425.63,326.3,425.63Zm0.19-14.81h-1.35v10h1.4c3.77,0,5.5-1.91,5.5-5.08C332,413,330.21,410.82,326.48,410.82Z" transform="translate(-157.18 -164.41)" fill="#8c978e"/><path d="M374.92,410.73h-8.24v25.47h-6.43V410.73h-9v-5.22h25.1Z" transform="translate(-157.18 -164.41)" fill="#8c978e"/><path d="M390.29,436.21V405.52h6.38v30.69h-6.38Z" transform="translate(-157.18 -164.41)" fill="#8c978e"/><path d="M427.83,436.67c-10,0-15.69-6.85-15.69-15.51s6.61-16,17.09-16a18.27,18.27,0,0,1,8,1.63l-0.09,5.68a14.84,14.84,0,0,0-7.68-2.14c-7.22,0-10.38,5-10.38,10.34,0,5.87,3.77,10.48,9.83,10.48a15.4,15.4,0,0,0,7.64-2.1l1.72,4.47A19.15,19.15,0,0,1,427.83,436.67Z" transform="translate(-157.18 -164.41)" fill="#8c978e"/><path d="M187.3,480.81v-16c0-1.06,0-2.11.09-3.12H187.3a24,24,0,0,1-1.8,3l-5.37,8.23h-2.77l-6-8.45a19.52,19.52,0,0,1-1.85-2.82h-0.09c0,1.1,0,2.11,0,2.95v16.19h-6v-29H169l7.61,10.87a33.55,33.55,0,0,1,2.11,3.26h0a27.48,27.48,0,0,1,2-3.43l7-10.69h5.54v29h-6Z" transform="translate(-157.18 -164.41)" fill="#7ab800"/><path d="M233.28,476.94a16.42,16.42,0,0,1-21.26.79,14.56,14.56,0,0,1-4.62-11.09,15.24,15.24,0,0,1,4.18-10.83,14.78,14.78,0,0,1,10.78-4.31,14,14,0,0,1,15,14.79A14.9,14.9,0,0,1,233.28,476.94Zm-10.91-20.51c-5,0-8.67,3.65-8.67,10s3.65,10,8.67,10,8.58-3.65,8.58-10S227.39,456.43,222.37,456.43Z" transform="translate(-157.18 -164.41)" fill="#7ab800"/><path d="M260.56,480.81h-9.11v-29h9.64c10.34,0,16.15,5.59,16.15,14.26C277.24,475,270.59,480.81,260.56,480.81Zm0.13-24h-3.21v19h3.3c7.17,0,10-4.53,10-9.59C270.77,460.52,267.34,456.83,260.69,456.83Z" transform="translate(-157.18 -164.41)" fill="#7ab800"/><path d="M291.36,480.81v-29h16.81l-1.58,4.93h-9.2v6.78h9.24v5h-9.24v7.39h10.74v4.93H291.36Z" transform="translate(-157.18 -164.41)" fill="#7ab800"/><path d="M322.38,480.81v-29h6v24h10.21v5H322.38Z" transform="translate(-157.18 -164.41)" fill="#7ab800"/><path d="M351.55,480.81v-29h6v24h10.21v5H351.55Z" transform="translate(-157.18 -164.41)" fill="#7ab800"/><path d="M380.72,480.81v-29h16.81l-1.58,4.93h-9.2v6.78H396v5h-9.24v7.39h10.74v4.93H380.72Z" transform="translate(-157.18 -164.41)" fill="#7ab800"/><path d="M427.23,480.81c-4.4-7.53-6.16-10.78-7.22-11.18h-2.25v11.18h-6v-29h8.45c7.75,0,10.56,3.83,10.56,8.32a8.31,8.31,0,0,1-5.28,7.52v0c1.45,0.84,4.27,5.72,8.63,13.11h-6.87Zm-6.91-24h-2.55v8.41h2.55a4.35,4.35,0,0,0,4.44-4.44C424.76,458.54,423.18,456.83,420.32,456.83Z" transform="translate(-157.18 -164.41)" fill="#7ab800"/></svg>