<svg xmlns="http://www.w3.org/2000/svg" viewBox="0 0 177.93 230"><defs><style>.a{fill:#9ca199;}.b{fill:#00b5cd;}.c{fill:none;}</style></defs><title>logo-synaptic_risk</title><path class="a" d="M88.77,38.76H66.28A12.49,12.49,0,0,1,53.81,26.28a4.16,4.16,0,0,1,8.32,0,4.16,4.16,0,0,0,4.16,4.16H88.77a4.16,4.16,0,0,1,0,8.32Z"/><path class="a" d="M78.39,28.37A12.49,12.49,0,0,1,65.91,15.9a4.16,4.16,0,1,1,8.32,0,4.16,4.16,0,0,0,4.16,4.16,4.16,4.16,0,1,1,0,8.32Z"/><path class="a" d="M88.77,127.14A4.16,4.16,0,0,1,84.61,123V12.47a4.16,4.16,0,0,0-4.16-4.16H64.08a4.16,4.16,0,0,0-4.16,4.16,4.16,4.16,0,1,1-8.32,0A12.49,12.49,0,0,1,64.08,0H80.46A12.49,12.49,0,0,1,92.93,12.47V123A4.16,4.16,0,0,1,88.77,127.14Z"/><path class="a" d="M121.78,17a4.16,4.16,0,0,1-4.16-4.16,4.16,4.16,0,0,0-4.16-4.16H97.09a4.16,4.16,0,0,0-4.16,4.16,4.16,4.16,0,1,1-8.32,0A12.49,12.49,0,0,1,97.09.37h16.37a12.49,12.49,0,0,1,12.47,12.47A4.16,4.16,0,0,1,121.78,17Z"/><path class="a" d="M53.45,64.06A12.49,12.49,0,0,1,41,51.59V23.84A12.49,12.49,0,0,1,53.45,11.37H69.82a4.16,4.16,0,0,1,0,8.32H53.45a4.16,4.16,0,0,0-4.16,4.16V51.59a4.16,4.16,0,0,0,4.16,4.16,4.16,4.16,0,1,1,0,8.32Z"/><path class="a" d="M43.54,75.8A12.49,12.49,0,0,1,31.07,63.32V45.85A12.49,12.49,0,0,1,43.54,33.37a4.16,4.16,0,1,1,0,8.32,4.16,4.16,0,0,0-4.16,4.16V63.32a4.16,4.16,0,0,0,4.16,4.16,4.16,4.16,0,1,1,0,8.32Z"/><path class="a" d="M43.54,95.6A12.49,12.49,0,0,1,31.07,83.13V80A12.49,12.49,0,0,1,43.54,67.48a4.16,4.16,0,1,1,0,8.32A4.16,4.16,0,0,0,39.39,80v3.17a4.16,4.16,0,0,0,4.16,4.16,4.16,4.16,0,1,1,0,8.32Z"/><path class="a" d="M133.63,95.6a4.16,4.16,0,0,1,0-8.32,4.16,4.16,0,0,0,4.16-4.16V65.65a4.16,4.16,0,0,0-4.16-4.16,4.16,4.16,0,0,1,0-8.32,12.49,12.49,0,0,1,12.47,12.47V83.13A12.49,12.49,0,0,1,133.63,95.6Z"/><path class="a" d="M134,61.49a4.16,4.16,0,1,1,0-8.32A4.16,4.16,0,0,0,138.16,49V45.85A4.16,4.16,0,0,0,134,41.69a4.16,4.16,0,1,1,0-8.32,12.49,12.49,0,0,1,12.47,12.47V49A12.49,12.49,0,0,1,134,61.49Z"/><path class="a" d="M60.65,117.61H54.55a12.49,12.49,0,0,1-12.47-12.47v-24a4.16,4.16,0,0,1,8.32,0v24a4.16,4.16,0,0,0,4.16,4.16h6.11a4.16,4.16,0,0,0,4.16-4.16,4.16,4.16,0,0,1,8.32,0A12.49,12.49,0,0,1,60.65,117.61Z"/><path class="a" d="M122.63,118h-6.1a12.49,12.49,0,0,1-12.47-12.47,4.16,4.16,0,0,1,8.32,0,4.16,4.16,0,0,0,4.16,4.16h6.1a4.16,4.16,0,1,1,0,8.32Z"/><path class="a" d="M122.63,118a4.16,4.16,0,0,1,0-8.32,4.16,4.16,0,0,0,4.16-4.16V77.39a4.16,4.16,0,0,0-4.16-4.16h-6.35a4.16,4.16,0,1,1,0-8.32h6.35a12.49,12.49,0,0,1,12.47,12.47V105.5A12.49,12.49,0,0,1,122.63,118Z"/><path class="a" d="M77.29,117.24a12.49,12.49,0,0,1-12.48-12.47,4.16,4.16,0,0,1,8.32,0,4.16,4.16,0,0,0,4.16,4.16,4.16,4.16,0,0,1,0,8.32Z"/><path class="a" d="M99.77,117.24a4.16,4.16,0,0,1,0-8.32,4.16,4.16,0,0,0,4.16-4.16,4.16,4.16,0,0,1,8.32,0A12.49,12.49,0,0,1,99.77,117.24Z"/><path class="a" d="M99.41,28.37a4.16,4.16,0,1,1,0-8.32,4.16,4.16,0,0,0,4.16-4.16,4.16,4.16,0,0,1,8.32,0A12.49,12.49,0,0,1,99.41,28.37Z"/><path class="a" d="M78.14,129.71H64.45A12.49,12.49,0,0,1,52,117.23v-3.79a4.16,4.16,0,1,1,8.32,0v3.79a4.16,4.16,0,0,0,4.16,4.16H78.14a4.16,4.16,0,0,1,0,8.32Z"/><path class="a" d="M113.09,129.71H100.51a4.16,4.16,0,0,1,0-8.32h12.58a4.16,4.16,0,0,0,4.16-4.16v-3.05a4.16,4.16,0,0,1,8.32,0v3.05A12.49,12.49,0,0,1,113.09,129.71Z"/><path class="a" d="M104.68,140.34H73.25a12.12,12.12,0,0,1-12.11-12.11,4.16,4.16,0,1,1,8.32,0A3.8,3.8,0,0,0,73.25,132h31.42a3.8,3.8,0,0,0,3.79-3.79,4.16,4.16,0,1,1,8.32,0A12.12,12.12,0,0,1,104.68,140.34Z"/><path class="a" d="M98.42,106.24a4.16,4.16,0,0,1-4.16-4.16V86.8a12.49,12.49,0,0,1,12.48-12.47,4.16,4.16,0,0,1,0,8.32,4.16,4.16,0,0,0-4.16,4.16v15.27A4.16,4.16,0,0,1,98.42,106.24Z"/><path class="b" d="M116.64,73.23a12.49,12.49,0,0,1-12.48-12.48,4.16,4.16,0,0,1,8.32,0,4.17,4.17,0,0,0,4.16,4.16,4.16,4.16,0,0,1,0,8.32Z"/><path class="b" d="M100,73.23a4.16,4.16,0,0,1,0-8.32,4.16,4.16,0,0,0,4.16-4.16,4.16,4.16,0,0,1,8.32,0A12.49,12.49,0,0,1,100,73.23Z"/><path class="b" d="M113.09,53.68a4.16,4.16,0,0,1,0-8.32,4.16,4.16,0,0,0,4.16-4.16,4.16,4.16,0,0,1,8.32,0A12.49,12.49,0,0,1,113.09,53.68Z"/><path class="b" d="M119.58,61.86a4.16,4.16,0,0,1-4.16-4.16c0-2.25-2.51-4.16-5.49-4.16h-2c-3,0-5.49,1.9-5.49,4.16a4.16,4.16,0,0,1-8.32,0c0-6.88,6.19-12.47,13.8-12.47h2c7.61,0,13.81,5.6,13.81,12.47A4.16,4.16,0,0,1,119.58,61.86Z"/><path class="a" d="M133.15,51.59A4.16,4.16,0,0,1,129,47.43V23.84a4.16,4.16,0,0,0-4.16-4.16H108.46a4.16,4.16,0,0,1,0-8.32h16.37a12.49,12.49,0,0,1,12.48,12.47V47.43A4.16,4.16,0,0,1,133.15,51.59Z"/><path class="a" d="M57.23,107.7a4.16,4.16,0,0,1-4.16-4.16V89.12A12.49,12.49,0,0,1,65.55,76.65a4.16,4.16,0,1,1,0,8.32,4.16,4.16,0,0,0-4.16,4.16v14.42A4.16,4.16,0,0,1,57.23,107.7Z"/><path class="a" d="M66,84.85a4.16,4.16,0,0,1-4.16-4.16A12.49,12.49,0,0,1,74.35,68.21a4.16,4.16,0,1,1,0,8.32,4.16,4.16,0,0,0-4.16,4.16A4.16,4.16,0,0,1,66,84.85Z"/><path class="a" d="M109.93,41.21A4.16,4.16,0,0,1,105.77,37a12.49,12.49,0,0,1,12.47-12.47h4.64a4.16,4.16,0,1,1,0,8.32h-4.64A4.16,4.16,0,0,0,114.08,37,4.16,4.16,0,0,1,109.93,41.21Z"/><path class="a" d="M109.67,41.69H99a4.16,4.16,0,0,1,0-8.32h10.63a4.16,4.16,0,1,1,0,8.32Z"/><path class="a" d="M78.14,104.4A4.16,4.16,0,0,1,74,100.24a4.16,4.16,0,0,0-4.16-4.16,4.16,4.16,0,0,1,0-8.32A12.49,12.49,0,0,1,82.3,100.24,4.16,4.16,0,0,1,78.14,104.4Z"/><path class="a" d="M56.5,74.7a4.16,4.16,0,0,1,0-8.32c2.25,0,4.16-2.51,4.16-5.49v-2c0-3-1.9-5.49-4.16-5.49a4.16,4.16,0,0,1,0-8.32C63.38,45.11,69,51.3,69,58.92v2C69,68.5,63.38,74.7,56.5,74.7Z"/><path class="a" d="M75,56.73a4.16,4.16,0,0,1-4.16-4.16A12.49,12.49,0,0,1,83.27,40.09L88.68,40A4.09,4.09,0,0,1,92.93,44a4.16,4.16,0,0,1-4.07,4.25l-5.5.12a4.18,4.18,0,0,0-4.25,4.16A4.16,4.16,0,0,1,75,56.73Z"/><path class="a" d="M75.57,76.53a4.16,4.16,0,0,1-4.16-4.16v-8.8a4.16,4.16,0,0,1,8.32,0v8.8A4.16,4.16,0,0,1,75.57,76.53Z"/><path class="a" d="M111.27,96a4.16,4.16,0,0,1,0-8.32,4.16,4.16,0,0,0,4.16-4.16,4.16,4.16,0,1,1,8.32,0A12.49,12.49,0,0,1,111.27,96Z"/><path class="a" d="M119.58,104.34a4.16,4.16,0,0,1-4.16-4.16A4.16,4.16,0,0,0,111.27,96a4.16,4.16,0,0,1,0-8.32,12.49,12.49,0,0,1,12.47,12.47A4.16,4.16,0,0,1,119.58,104.34Z"/><path class="a" d="M6.19,173.4A10.94,10.94,0,0,1,0,171.58l1.56-2.92A8,8,0,0,0,6,170.16c1.42,0,3-.53,3-2,0-2.56-4.72-3-7.08-5.69A5.05,5.05,0,0,1,.71,159c0-2.95,2.33-5.54,6.6-5.54a10,10,0,0,1,4.89,1.18l-.06,3.48a9.56,9.56,0,0,0-4.63-1.42c-1.44,0-2.56.65-2.56,1.77,0,3.36,8.34,3.07,8.34,9.17C13.3,171.19,10.17,173.4,6.19,173.4Z"/><path class="a" d="M32,165.47v7.64H28v-7.69l-6.72-11.73h4.45l2.95,5.42c.47.83,1,1.92,1.44,2.8h.06c.41-.88.94-1.92,1.39-2.74l3-5.48h4.22Z"/><path class="a" d="M62,173.11l-8.43-10.79c-.74-.94-1.27-1.71-1.86-2.56h-.06c.06.65.06,1.83.06,2.71v10.64h-4V153.68h4.07l8.14,10.38c.77,1,1.3,1.74,1.83,2.54h.06c-.06-.91-.06-2.18-.06-3v-9.91h4v19.43Z"/><path class="a" d="M89,173.11l-1.89-4.75h-6.6l-1.8,4.75h-4l7.61-19.52h3.07l7.93,19.52Zm-4.45-11.76a21,21,0,0,1-.71-2.39h0a15.17,15.17,0,0,1-.71,2.33l-1.44,3.83h4.22Z"/><path class="a" d="M107.05,166.42h-.74v6.69h-4V153.68h5.31c4.27,0,7.13,2.15,7.13,6.31C114.72,162.5,112.83,166.42,107.05,166.42Zm.12-9.37h-.85v6.31h.88c2.39,0,3.48-1.21,3.48-3.21C110.68,158.4,109.53,157,107.17,157Z"/><path class="a" d="M137.83,157h-5.22v16.13h-4.07V157h-5.69v-3.3h15.89Z"/><path class="a" d="M147.56,173.11V153.68h4v19.43Z"/><path class="a" d="M171.33,173.4c-6.34,0-9.93-4.33-9.93-9.82s4.19-10.11,10.82-10.11a11.57,11.57,0,0,1,5.07,1l-.06,3.6a9.39,9.39,0,0,0-4.86-1.36c-4.57,0-6.57,3.18-6.57,6.54,0,3.71,2.39,6.63,6.22,6.63a9.75,9.75,0,0,0,4.83-1.33l1.09,2.83A12.12,12.12,0,0,1,171.33,173.4Z"/><path class="b" d="M64,201.25c-2.79-4.76-3.9-6.82-4.57-7.08H58v7.08H54.14V182.9h5.35c4.9,0,6.69,2.42,6.69,5.27a5.26,5.26,0,0,1-3.34,4.76v0c.92.53,2.7,3.62,5.46,8.3Zm-4.37-15.18H58v5.32h1.62a2.75,2.75,0,0,0,2.81-2.81A2.51,2.51,0,0,0,59.58,186.07Z"/><path class="b" d="M76.45,201.25V182.9h3.82v18.36Z"/><path class="b" d="M95,201.53a10.34,10.34,0,0,1-5.85-1.73L90.6,197a7.61,7.61,0,0,0,4.21,1.42c1.34,0,2.84-.5,2.84-1.89,0-2.42-4.46-2.84-6.69-5.38a4.77,4.77,0,0,1-1.17-3.26c0-2.79,2.2-5.24,6.24-5.24a9.41,9.41,0,0,1,4.62,1.11l-.06,3.29a9,9,0,0,0-4.37-1.34c-1.36,0-2.42.61-2.42,1.67,0,3.18,7.88,2.9,7.88,8.66C101.69,199.44,98.74,201.53,95,201.53Z"/><path class="b" d="M120.57,201.25l-6.24-7.91h-.08v7.91h-3.79V182.9h3.79v7.6h.06l6-7.55h4.4l-7.24,8.78,7.69,9.53Z"/><rect class="c" width="177.93" height="230"/></svg>