<svg xmlns="http://www.w3.org/2000/svg" viewBox="0 0 178.2 230.01"><defs><style>.a{fill:#ff5800;}.b{fill:#9ca198;}.c{fill:none;}</style></defs><title>logo-synaptic_analyser</title><path class="a" d="M16.29,201.25l-1.85-4.71H7.73L6,201.25H2.59l7.3-18.89h2.51L20,201.25Zm-4.45-11.84a19.81,19.81,0,0,1-.71-2.34h0a14.94,14.94,0,0,1-.68,2.28l-1.63,4.36h4.56Z"/><path class="a" d="M42.67,201.25l-8.5-11c-.8-1.06-1.34-1.77-1.85-2.57h-.06c.06.63.08,1.63.08,2.51v11.07H28.9v-18.8H32.4L40.59,193a25.08,25.08,0,0,1,1.85,2.63h.06c-.06-.83-.06-1.91-.06-2.74V182.45h3.42v18.8Z"/><path class="a" d="M66.86,201.25,65,196.55h-6.7l-1.74,4.71H53.17l7.3-18.89H63l7.56,18.89Zm-4.45-11.84a19.81,19.81,0,0,1-.71-2.34h0a14.94,14.94,0,0,1-.68,2.28l-1.63,4.36h4.56Z"/><polygon class="a" points="79.47 201.25 79.47 182.45 82.92 182.45 82.92 198.34 89.66 198.34 89.66 201.25 79.47 201.25"/><path class="a" d="M104.78,193.84v7.42h-3.45v-7.47l-6.42-11.33H98.7l3,5.45c.48.86,1.06,1.94,1.48,2.8h.06c.4-.86.94-1.91,1.4-2.77l3-5.48h3.62Z"/><path class="a" d="M124.95,201.54a10,10,0,0,1-5.79-1.71l1.4-2.54a7.47,7.47,0,0,0,4.25,1.43c1.45,0,3.11-.6,3.11-2.17,0-2.68-4.57-3.17-6.85-5.73a4.84,4.84,0,0,1-1.23-3.37c0-2.8,2.2-5.16,6.13-5.16a9.69,9.69,0,0,1,4.62,1.06l-.06,3.08a9,9,0,0,0-4.39-1.31c-1.51,0-2.71.66-2.71,1.91,0,3.48,8.13,3.28,8.13,9.13,0,3.31-2.91,5.39-6.62,5.39"/><polygon class="a" points="141.18 201.25 141.18 182.45 151.65 182.45 150.71 185.34 144.63 185.34 144.63 190.21 150.71 190.21 150.71 193.09 144.63 193.09 144.63 198.37 151.65 198.37 151.65 201.25 141.18 201.25"/><path class="a" d="M171.51,201.25c-2.91-4.85-4.22-7.19-4.94-7.42H165v7.42h-3.45v-18.8h5.08c4.88,0,6.7,2.42,6.7,5.31a5.38,5.38,0,0,1-3.48,4.94v0c.86.48,2.74,3.74,5.62,8.53Zm-4.82-15.89H165v5.85h1.74a3,3,0,0,0,3.11-3.05c0-1.54-1-2.8-3.14-2.8"/><path class="b" d="M121.73,17a4.16,4.16,0,0,1-4.16-4.16,4.16,4.16,0,0,0-4.16-4.16H97a4.16,4.16,0,0,0-4.16,4.16,4.16,4.16,0,0,1-8.32,0A12.49,12.49,0,0,1,97,.37h16.38a12.49,12.49,0,0,1,12.47,12.48A4.16,4.16,0,0,1,121.73,17"/><path class="b" d="M88.73,38.76H66.23A12.49,12.49,0,0,1,53.76,26.29a4.16,4.16,0,0,1,8.32,0,4.16,4.16,0,0,0,4.16,4.16H88.73a4.16,4.16,0,1,1,0,8.32"/><path class="b" d="M78.34,28.37A12.49,12.49,0,0,1,65.86,15.9a4.16,4.16,0,1,1,8.32,0,4.16,4.16,0,0,0,4.16,4.16,4.16,4.16,0,1,1,0,8.32"/><path class="b" d="M88.73,127.16A4.16,4.16,0,0,1,84.57,123V12.48a4.16,4.16,0,0,0-4.16-4.16H64a4.16,4.16,0,0,0-4.16,4.16,4.16,4.16,0,1,1-8.32,0A12.49,12.49,0,0,1,64,0H80.41A12.49,12.49,0,0,1,92.88,12.48V123a4.16,4.16,0,0,1-4.16,4.16"/><path class="b" d="M53.4,64.07A12.49,12.49,0,0,1,40.92,51.6V23.85A12.49,12.49,0,0,1,53.4,11.37H69.77a4.16,4.16,0,0,1,0,8.32H53.4a4.16,4.16,0,0,0-4.16,4.16V51.6a4.16,4.16,0,0,0,4.16,4.16,4.16,4.16,0,0,1,0,8.32"/><path class="b" d="M43.49,75.81A12.49,12.49,0,0,1,31,63.33V45.85A12.49,12.49,0,0,1,43.49,33.38a4.16,4.16,0,1,1,0,8.32,4.16,4.16,0,0,0-4.16,4.16V63.33a4.16,4.16,0,0,0,4.16,4.16,4.16,4.16,0,1,1,0,8.32"/><path class="b" d="M43.49,95.61A12.49,12.49,0,0,1,31,83.14V80A12.49,12.49,0,0,1,43.49,67.49a4.16,4.16,0,0,1,0,8.32A4.17,4.17,0,0,0,39.33,80v3.17a4.16,4.16,0,0,0,4.16,4.16,4.16,4.16,0,1,1,0,8.32"/><path class="b" d="M133.59,95.61a4.16,4.16,0,1,1,0-8.32,4.16,4.16,0,0,0,4.16-4.16V65.66a4.16,4.16,0,0,0-4.16-4.16,4.16,4.16,0,1,1,0-8.32,12.49,12.49,0,0,1,12.47,12.47V83.14a12.49,12.49,0,0,1-12.47,12.48"/><path class="b" d="M134,61.5a4.16,4.16,0,1,1,0-8.32A4.17,4.17,0,0,0,138.12,49V45.85A4.16,4.16,0,0,0,134,41.7a4.16,4.16,0,1,1,0-8.32,12.49,12.49,0,0,1,12.48,12.48V49A12.49,12.49,0,0,1,134,61.5"/><path class="b" d="M60.6,117.62h-6.1A12.49,12.49,0,0,1,42,105.15v-24a4.16,4.16,0,0,1,8.32,0v24a4.16,4.16,0,0,0,4.16,4.15h6.1a4.16,4.16,0,0,0,4.16-4.15,4.16,4.16,0,1,1,8.32,0A12.49,12.49,0,0,1,60.6,117.62"/><path class="b" d="M122.59,118h-6.1A12.49,12.49,0,0,1,104,105.51a4.16,4.16,0,0,1,8.32,0,4.16,4.16,0,0,0,4.16,4.16h6.1a4.16,4.16,0,1,1,0,8.32"/><path class="b" d="M122.59,118a4.16,4.16,0,1,1,0-8.32,4.16,4.16,0,0,0,4.16-4.16V77.4a4.16,4.16,0,0,0-4.16-4.16h-6.35a4.16,4.16,0,0,1,0-8.32h6.35A12.49,12.49,0,0,1,135.07,77.4v28.11A12.49,12.49,0,0,1,122.59,118"/><path class="b" d="M77.24,117.26a12.49,12.49,0,0,1-12.48-12.48,4.16,4.16,0,0,1,8.32,0,4.16,4.16,0,0,0,4.16,4.16,4.16,4.16,0,0,1,0,8.32"/><path class="b" d="M99.73,117.26a4.16,4.16,0,1,1,0-8.32,4.16,4.16,0,0,0,4.16-4.16,4.16,4.16,0,0,1,8.32,0,12.49,12.49,0,0,1-12.48,12.48"/><path class="b" d="M99.36,28.37a4.16,4.16,0,1,1,0-8.32,4.16,4.16,0,0,0,4.16-4.16,4.16,4.16,0,1,1,8.32,0A12.49,12.49,0,0,1,99.36,28.37"/><path class="b" d="M78.09,129.72H64.4a12.49,12.49,0,0,1-12.48-12.48v-3.78a4.16,4.16,0,1,1,8.32,0v3.78a4.16,4.16,0,0,0,4.16,4.16H78.09a4.16,4.16,0,0,1,0,8.32"/><path class="b" d="M113.05,129.72H100.46a4.16,4.16,0,1,1,0-8.32h12.59a4.16,4.16,0,0,0,4.16-4.16v-3a4.16,4.16,0,1,1,8.32,0v3a12.49,12.49,0,0,1-12.48,12.48"/><path class="b" d="M104.63,140.36H73.2a12.12,12.12,0,0,1-12.11-12.11,4.16,4.16,0,0,1,8.32,0A3.8,3.8,0,0,0,73.2,132h31.43a3.8,3.8,0,0,0,3.79-3.79,4.16,4.16,0,0,1,8.32,0,12.12,12.12,0,0,1-12.11,12.11"/><path class="b" d="M98.38,106.25a4.16,4.16,0,0,1-4.16-4.16V86.82a12.49,12.49,0,0,1,12.47-12.48,4.16,4.16,0,1,1,0,8.32,4.16,4.16,0,0,0-4.16,4.16v15.27a4.16,4.16,0,0,1-4.16,4.16"/><path class="b" d="M116.6,73.24a12.49,12.49,0,0,1-12.48-12.48,4.16,4.16,0,1,1,8.32,0,4.16,4.16,0,0,0,4.16,4.16,4.16,4.16,0,1,1,0,8.32"/><path class="b" d="M100,73.24a4.16,4.16,0,1,1,0-8.32,4.16,4.16,0,0,0,4.16-4.16,4.16,4.16,0,0,1,8.32,0A12.49,12.49,0,0,1,100,73.24"/><path class="b" d="M113.05,53.68a4.16,4.16,0,1,1,0-8.32,4.16,4.16,0,0,0,4.16-4.16,4.16,4.16,0,0,1,8.32,0,12.49,12.49,0,0,1-12.48,12.48"/><path class="b" d="M119.54,61.87a4.16,4.16,0,0,1-4.16-4.16c0-2.25-2.51-4.16-5.49-4.16h-2c-3,0-5.49,1.9-5.49,4.16a4.16,4.16,0,1,1-8.32,0c0-6.88,6.19-12.48,13.8-12.48h2c7.62,0,13.81,5.6,13.81,12.48a4.16,4.16,0,0,1-4.16,4.16"/><path class="b" d="M133.11,51.6a4.16,4.16,0,0,1-4.16-4.16V23.85a4.16,4.16,0,0,0-4.16-4.16H108.41a4.16,4.16,0,1,1,0-8.32h16.38a12.49,12.49,0,0,1,12.48,12.47V47.44a4.16,4.16,0,0,1-4.16,4.16"/><path class="a" d="M57.18,107.72A4.16,4.16,0,0,1,53,103.56V89.14A12.49,12.49,0,0,1,65.5,76.66a4.16,4.16,0,1,1,0,8.32,4.16,4.16,0,0,0-4.16,4.16v14.42a4.16,4.16,0,0,1-4.16,4.16"/><path class="a" d="M66,84.86a4.16,4.16,0,0,1-4.16-4.16A12.49,12.49,0,0,1,74.3,68.22a4.16,4.16,0,0,1,0,8.32,4.16,4.16,0,0,0-4.16,4.16A4.16,4.16,0,0,1,66,84.86"/><path class="b" d="M109.88,41.21a4.16,4.16,0,0,1-4.16-4.16A12.49,12.49,0,0,1,118.2,24.58h4.64a4.16,4.16,0,0,1,0,8.32H118.2A4.16,4.16,0,0,0,114,37.05a4.16,4.16,0,0,1-4.16,4.16"/><path class="b" d="M109.63,41.7H99a4.16,4.16,0,1,1,0-8.32h10.64a4.16,4.16,0,1,1,0,8.32"/><path class="b" d="M78.09,104.42a4.16,4.16,0,0,1-4.16-4.16,4.16,4.16,0,0,0-4.16-4.16,4.16,4.16,0,0,1,0-8.32,12.49,12.49,0,0,1,12.48,12.48,4.16,4.16,0,0,1-4.16,4.16"/><path class="a" d="M56.45,74.71a4.16,4.16,0,1,1,0-8.32c2.26,0,4.16-2.51,4.16-5.49v-2c0-3-1.9-5.49-4.16-5.49a4.16,4.16,0,1,1,0-8.32c6.88,0,12.48,6.19,12.48,13.81v2c0,7.61-5.6,13.81-12.48,13.81"/><path class="b" d="M74.91,56.74a4.16,4.16,0,0,1-4.16-4.16A12.49,12.49,0,0,1,83.22,40.1L88.64,40a4.11,4.11,0,0,1,4.25,4.07,4.16,4.16,0,0,1-4.07,4.25l-5.5.12a4.19,4.19,0,0,0-4.25,4.16,4.16,4.16,0,0,1-4.16,4.16"/><path class="a" d="M75.52,76.54a4.16,4.16,0,0,1-4.16-4.16v-8.8a4.16,4.16,0,0,1,8.32,0v8.8a4.16,4.16,0,0,1-4.16,4.16"/><path class="b" d="M111.22,96a4.16,4.16,0,1,1,0-8.32,4.17,4.17,0,0,0,4.16-4.16,4.16,4.16,0,0,1,8.32,0A12.49,12.49,0,0,1,111.22,96"/><path class="b" d="M119.54,104.35a4.16,4.16,0,0,1-4.16-4.16A4.16,4.16,0,0,0,111.22,96a4.16,4.16,0,1,1,0-8.32,12.49,12.49,0,0,1,12.48,12.48,4.16,4.16,0,0,1-4.16,4.16"/><path class="b" d="M6.2,173A11,11,0,0,1,0,171.16l1.56-2.92A8.06,8.06,0,0,0,6,169.74c1.42,0,3-.53,3-2,0-2.57-4.72-3-7.09-5.7a5.06,5.06,0,0,1-1.24-3.46c0-3,2.33-5.55,6.61-5.55a10,10,0,0,1,4.9,1.18l-.06,3.48a9.57,9.57,0,0,0-4.64-1.42c-1.45,0-2.57.65-2.57,1.77,0,3.37,8.36,3.07,8.36,9.18,0,3.54-3.13,5.76-7.12,5.76"/><path class="b" d="M32.07,165v7.65H28V165l-6.73-11.75h4.46l3,5.43c.47.83,1,1.92,1.45,2.81h.06c.41-.89.94-1.92,1.39-2.75l3-5.49H38.8Z"/><path class="b" d="M62.1,172.7l-8.44-10.81c-.74-.94-1.27-1.71-1.86-2.57h-.06c.06.65.06,1.83.06,2.72V172.7h-4V153.24h4.07L60,163.63c.77,1,1.3,1.74,1.83,2.54h.06c-.06-.91-.06-2.18-.06-3v-9.92h4V172.7Z"/><path class="b" d="M89.11,172.7l-1.89-4.75H80.61l-1.8,4.75h-4l7.62-19.54h3.07l7.94,19.54Zm-4.46-11.78a21,21,0,0,1-.71-2.39h0a15.23,15.23,0,0,1-.71,2.33l-1.45,3.84H86Z"/><path class="b" d="M107.21,166h-.74v6.7h-4V153.24h5.31c4.28,0,7.14,2.16,7.14,6.32,0,2.51-1.89,6.44-7.68,6.44m.12-9.39h-.86v6.32h.89c2.39,0,3.48-1.21,3.48-3.22,0-1.74-1.15-3.1-3.51-3.1"/><polygon class="b" points="138.04 156.55 132.81 156.55 132.81 172.7 128.74 172.7 128.74 156.55 123.04 156.55 123.04 153.24 138.96 153.24 138.04 156.55"/><rect class="b" x="147.79" y="153.24" width="4.04" height="19.46"/><path class="b" d="M171.58,173c-6.35,0-9.95-4.34-9.95-9.83S165.83,153,172.47,153a11.59,11.59,0,0,1,5.08,1l-.06,3.6a9.4,9.4,0,0,0-4.87-1.36c-4.58,0-6.58,3.19-6.58,6.55,0,3.72,2.39,6.64,6.23,6.64a9.76,9.76,0,0,0,4.84-1.33L178.2,171a12.14,12.14,0,0,1-6.61,2"/><rect class="c" y="0.01" width="178.2" height="230"/></svg>