<svg xmlns="http://www.w3.org/2000/svg" viewBox="0 0 177.51 230"><defs><style>.a{fill:#9ca199;}.b{fill:#ac0055;}.c{fill:none;}</style></defs><title>logo-synaptic_product_fund</title><path class="a" d="M89.27,38.75H66.82A12.47,12.47,0,0,1,54.37,26.28a4.15,4.15,0,1,1,8.3,0,4.16,4.16,0,0,0,4.15,4.16H89.27a4.16,4.16,0,0,1,0,8.32Z"/><path class="a" d="M78.91,28.37A12.48,12.48,0,0,1,66.46,15.89a4.15,4.15,0,1,1,8.3,0,4.16,4.16,0,0,0,4.15,4.16,4.16,4.16,0,0,1,0,8.32Z"/><path class="a" d="M89.27,127.14A4.15,4.15,0,0,1,85.12,123V12.48A4.16,4.16,0,0,0,81,8.32H64.63a4.16,4.16,0,0,0-4.15,4.16,4.15,4.15,0,1,1-8.3,0A12.48,12.48,0,0,1,64.63,0H81A12.48,12.48,0,0,1,93.42,12.48V123A4.15,4.15,0,0,1,89.27,127.14Z"/><path class="a" d="M122.21,17a4.15,4.15,0,0,1-4.15-4.16,4.16,4.16,0,0,0-4.15-4.16H97.57a4.16,4.16,0,0,0-4.15,4.16,4.15,4.15,0,1,1-8.3,0A12.48,12.48,0,0,1,97.57.37h16.34a12.48,12.48,0,0,1,12.45,12.47A4.15,4.15,0,0,1,122.21,17Z"/><path class="a" d="M54,64.06A12.48,12.48,0,0,1,41.57,51.59V23.84A12.48,12.48,0,0,1,54,11.37H70.36a4.16,4.16,0,0,1,0,8.32H54a4.16,4.16,0,0,0-4.15,4.16V51.59A4.16,4.16,0,0,0,54,55.75a4.16,4.16,0,0,1,0,8.32Z"/><path class="a" d="M44.13,75.79A12.48,12.48,0,0,1,31.68,63.32V45.85A12.48,12.48,0,0,1,44.13,33.37a4.16,4.16,0,0,1,0,8.32A4.16,4.16,0,0,0,40,45.85V63.32a4.16,4.16,0,0,0,4.15,4.16,4.16,4.16,0,0,1,0,8.32Z"/><path class="a" d="M44.13,95.6A12.48,12.48,0,0,1,31.68,83.12V80A12.48,12.48,0,0,1,44.13,67.48a4.16,4.16,0,0,1,0,8.32A4.16,4.16,0,0,0,40,80v3.17a4.16,4.16,0,0,0,4.15,4.16,4.16,4.16,0,0,1,0,8.32Z"/><path class="b" d="M134,95.6a4.16,4.16,0,0,1,0-8.32,4.16,4.16,0,0,0,4.15-4.16V65.65A4.16,4.16,0,0,0,134,61.49a4.16,4.16,0,0,1,0-8.32,12.47,12.47,0,0,1,12.45,12.47V83.12A12.47,12.47,0,0,1,134,95.6Z"/><path class="b" d="M134.41,61.49a4.16,4.16,0,0,1,0-8.32A4.16,4.16,0,0,0,138.56,49V45.85a4.16,4.16,0,0,0-4.15-4.16,4.16,4.16,0,0,1,0-8.32,12.48,12.48,0,0,1,12.45,12.47V49A12.48,12.48,0,0,1,134.41,61.49Z"/><path class="a" d="M61.21,117.6H55.11a12.48,12.48,0,0,1-12.45-12.47v-24a4.15,4.15,0,1,1,8.3,0v24a4.16,4.16,0,0,0,4.15,4.16h6.09a4.16,4.16,0,0,0,4.15-4.16,4.15,4.15,0,1,1,8.3,0A12.48,12.48,0,0,1,61.21,117.6Z"/><path class="b" d="M123.06,118a4.16,4.16,0,0,1,0-8.32,4.16,4.16,0,0,0,4.15-4.16V77.39a4.16,4.16,0,0,0-4.15-4.16h-6.34a4.16,4.16,0,0,1,0-8.32h6.34a12.47,12.47,0,0,1,12.45,12.47v28.11A12.48,12.48,0,0,1,123.06,118Z"/><path class="a" d="M77.81,117.24a12.48,12.48,0,0,1-12.45-12.47,4.15,4.15,0,1,1,8.3,0,4.16,4.16,0,0,0,4.15,4.16,4.16,4.16,0,0,1,0,8.32Z"/><path class="a" d="M99.89,28.37a4.16,4.16,0,0,1,0-8.32A4.16,4.16,0,0,0,104,15.89a4.15,4.15,0,1,1,8.3,0A12.48,12.48,0,0,1,99.89,28.37Z"/><path class="a" d="M78.66,129.7H65a12.48,12.48,0,0,1-12.45-12.47v-3.78a4.15,4.15,0,1,1,8.3,0v3.78A4.16,4.16,0,0,0,65,121.39H78.66a4.16,4.16,0,0,1,0,8.32Z"/><path class="a" d="M113.55,129.7H101a4.16,4.16,0,0,1,0-8.32h12.56a4.16,4.16,0,0,0,4.15-4.16v-3a4.15,4.15,0,1,1,8.3,0v3A12.48,12.48,0,0,1,113.55,129.7Z"/><path class="a" d="M105.15,140.34H73.78a12.11,12.11,0,0,1-12.09-12.11,4.15,4.15,0,1,1,8.3,0A3.8,3.8,0,0,0,73.78,132h31.36a3.79,3.79,0,0,0,3.78-3.79,4.15,4.15,0,1,1,8.3,0A12.11,12.11,0,0,1,105.15,140.34Z"/><path class="a" d="M98.9,106.23a4.15,4.15,0,0,1-4.15-4.16V86.8a12.48,12.48,0,0,1,12.45-12.48,4.16,4.16,0,0,1,0,8.32,4.16,4.16,0,0,0-4.15,4.16v15.27A4.15,4.15,0,0,1,98.9,106.23Z"/><path class="a" d="M117.09,73.23a12.48,12.48,0,0,1-12.45-12.47,4.15,4.15,0,1,1,8.3,0,4.16,4.16,0,0,0,4.15,4.16,4.16,4.16,0,0,1,0,8.32Z"/><path class="a" d="M100.49,73.23a4.16,4.16,0,0,1,0-8.32,4.16,4.16,0,0,0,4.15-4.16,4.15,4.15,0,1,1,8.3,0A12.47,12.47,0,0,1,100.49,73.23Z"/><path class="a" d="M113.55,53.67a4.16,4.16,0,0,1,0-8.32,4.16,4.16,0,0,0,4.15-4.16,4.15,4.15,0,1,1,8.3,0A12.48,12.48,0,0,1,113.55,53.67Z"/><path class="a" d="M120,61.86a4.15,4.15,0,0,1-4.15-4.16c0-2.25-2.51-4.16-5.48-4.16h-2c-3,0-5.48,1.9-5.48,4.16a4.15,4.15,0,1,1-8.3,0c0-6.88,6.18-12.47,13.78-12.47h2c7.6,0,13.78,5.6,13.78,12.47A4.15,4.15,0,0,1,120,61.86Z"/><path class="a" d="M133.56,51.59a4.15,4.15,0,0,1-4.15-4.16V23.84a4.16,4.16,0,0,0-4.15-4.16H108.92a4.16,4.16,0,0,1,0-8.32h16.34a12.47,12.47,0,0,1,12.45,12.47V47.43A4.15,4.15,0,0,1,133.56,51.59Z"/><path class="a" d="M57.79,107.7a4.15,4.15,0,0,1-4.15-4.16V89.12A12.48,12.48,0,0,1,66.1,76.65a4.16,4.16,0,0,1,0,8.32,4.16,4.16,0,0,0-4.15,4.16v14.42A4.15,4.15,0,0,1,57.79,107.7Z"/><path class="a" d="M66.58,84.84a4.15,4.15,0,0,1-4.15-4.16A12.48,12.48,0,0,1,74.88,68.21a4.16,4.16,0,0,1,0,8.32,4.16,4.16,0,0,0-4.15,4.16A4.15,4.15,0,0,1,66.58,84.84Z"/><path class="a" d="M110.38,41.2A4.15,4.15,0,0,1,106.23,37a12.47,12.47,0,0,1,12.45-12.47h4.63a4.16,4.16,0,0,1,0,8.32h-4.63A4.16,4.16,0,0,0,114.53,37,4.15,4.15,0,0,1,110.38,41.2Z"/><path class="a" d="M110.13,41.69H99.52a4.16,4.16,0,0,1,0-8.32h10.61a4.16,4.16,0,0,1,0,8.32Z"/><path class="a" d="M78.66,104.4a4.15,4.15,0,0,1-4.15-4.16,4.16,4.16,0,0,0-4.15-4.16,4.16,4.16,0,0,1,0-8.32,12.48,12.48,0,0,1,12.45,12.47A4.15,4.15,0,0,1,78.66,104.4Z"/><path class="a" d="M57.06,74.69a4.16,4.16,0,0,1,0-8.32c2.25,0,4.15-2.51,4.15-5.49v-2c0-3-1.9-5.49-4.15-5.49a4.16,4.16,0,0,1,0-8.32c6.87,0,12.45,6.19,12.45,13.81v2C69.51,68.5,63.93,74.69,57.06,74.69Z"/><path class="a" d="M75.48,56.73a4.15,4.15,0,0,1-4.15-4.16A12.48,12.48,0,0,1,83.78,40.09l5.4-.12A4.1,4.1,0,0,1,93.42,44a4.15,4.15,0,0,1-4.06,4.24l-5.49.12a4.18,4.18,0,0,0-4.24,4.16A4.15,4.15,0,0,1,75.48,56.73Z"/><path class="a" d="M76.09,76.53a4.15,4.15,0,0,1-4.15-4.16v-8.8a4.15,4.15,0,1,1,8.3,0v8.8A4.15,4.15,0,0,1,76.09,76.53Z"/><path class="a" d="M111.72,96a4.16,4.16,0,0,1,0-8.32,4.16,4.16,0,0,0,4.15-4.16,4.15,4.15,0,1,1,8.3,0A12.47,12.47,0,0,1,111.72,96Z"/><path class="a" d="M120,104.33a4.15,4.15,0,0,1-4.15-4.16A4.16,4.16,0,0,0,111.72,96a4.16,4.16,0,0,1,0-8.32,12.48,12.48,0,0,1,12.45,12.47A4.15,4.15,0,0,1,120,104.33Z"/><path class="b" d="M123.06,118H117a12.48,12.48,0,0,1-12.45-12.48,4.15,4.15,0,1,1,8.3,0,4.16,4.16,0,0,0,4.15,4.16h6.09a4.16,4.16,0,0,1,0,8.32Z"/><path class="b" d="M100.25,117.24a4.16,4.16,0,0,1,0-8.32,4.16,4.16,0,0,0,4.15-4.16,4.15,4.15,0,1,1,8.3,0A12.47,12.47,0,0,1,100.25,117.24Z"/><path class="a" d="M6.18,173.31A10.9,10.9,0,0,1,0,171.49l1.56-2.92A8,8,0,0,0,6,170.07c1.41,0,3-.53,3-2,0-2.56-4.71-3-7.06-5.69a5.06,5.06,0,0,1-1.24-3.45c0-2.95,2.32-5.54,6.59-5.54a9.91,9.91,0,0,1,4.88,1.18L12.12,158a9.52,9.52,0,0,0-4.62-1.41c-1.44,0-2.56.65-2.56,1.77,0,3.36,8.32,3.06,8.32,9.16C13.26,171.1,10.15,173.31,6.18,173.31Z"/><path class="a" d="M31.94,165.39V173h-4v-7.69L21.21,153.6h4.44L28.59,159c.47.83,1,1.92,1.44,2.8h.06c.41-.88.94-1.92,1.38-2.74l3-5.48h4.21Z"/><path class="a" d="M61.86,173l-8.41-10.79c-.74-.94-1.26-1.71-1.85-2.56h-.06c.06.65.06,1.83.06,2.71V173h-4V153.6h4.06L59.77,164c.76,1,1.29,1.74,1.82,2.53h.06c-.06-.91-.06-2.18-.06-3v-9.9h4V173Z"/><path class="a" d="M88.77,173l-1.88-4.74H80.3L78.51,173h-4l7.59-19.51h3.06L93.09,173Zm-4.44-11.76a21.09,21.09,0,0,1-.71-2.39h0a15.28,15.28,0,0,1-.71,2.33L81.45,165h4.21Z"/><path class="a" d="M106.8,166.33h-.74V173h-4V153.6h5.29c4.26,0,7.12,2.15,7.12,6.31C114.45,162.41,112.57,166.33,106.8,166.33Zm.12-9.37h-.85v6.31h.88c2.38,0,3.47-1.21,3.47-3.21C110.42,158.31,109.27,157,106.92,157Z"/><path class="a" d="M137.51,156.9H132.3V173h-4.06V156.9h-5.68v-3.3h15.85Z"/><path class="a" d="M147.22,173V153.6h4V173Z"/><path class="a" d="M170.92,173.31c-6.32,0-9.91-4.33-9.91-9.81s4.18-10.11,10.79-10.11a11.52,11.52,0,0,1,5.06,1l-.06,3.6a9.36,9.36,0,0,0-4.85-1.36c-4.56,0-6.56,3.18-6.56,6.54,0,3.71,2.38,6.63,6.21,6.63a9.71,9.71,0,0,0,4.82-1.33l1.09,2.83A12.07,12.07,0,0,1,170.92,173.31Z"/><path class="b" d="M15.73,194.93H15v6.32H11.23V182.9h5c4,0,6.73,2,6.73,6C23,191.22,21.18,194.93,15.73,194.93Zm.11-8.85H15v6h.83c2.25,0,3.28-1.14,3.28-3C19.15,187.35,18.06,186.07,15.84,186.07Z"/><path class="b" d="M41.46,201.25c-2.78-4.76-3.89-6.82-4.56-7.07H35.49v7.07H31.68V182.9H37c4.89,0,6.67,2.42,6.67,5.26a5.26,5.26,0,0,1-3.33,4.76v0c.92.53,2.7,3.62,5.45,8.3ZM37.1,186.07H35.49v5.32H37.1a2.75,2.75,0,0,0,2.81-2.81A2.5,2.5,0,0,0,37.1,186.07Z"/><path class="b" d="M68.52,198.8a9.48,9.48,0,0,1-6.89,2.73,9.52,9.52,0,0,1-6.53-2.23,9.22,9.22,0,0,1-2.92-7,9.65,9.65,0,0,1,2.64-6.85,9.33,9.33,0,0,1,6.81-2.73,9.58,9.58,0,0,1,6.89,16.09Zm-6.89-13c-3.17,0-5.47,2.31-5.47,6.32s2.31,6.32,5.47,6.32S67,196.15,67,192.14,64.8,185.82,61.63,185.82Z"/><path class="b" d="M85.75,201.25H80V182.9h6.09c6.53,0,10.2,3.54,10.2,9C96.28,197.57,92.08,201.25,85.75,201.25Zm.08-15.18h-2v12h2.08c4.53,0,6.31-2.87,6.31-6.07C92.2,188.41,90,186.07,85.83,186.07Z"/><path class="b" d="M119.12,199.41c-1.36,1.36-3.33,2.12-6.11,2.12s-4.7-.61-6-1.89a7,7,0,0,1-1.81-5.15V182.9H109v11.28a4.39,4.39,0,0,0,1,3,4,4,0,0,0,3.06,1.14,4.06,4.06,0,0,0,3.2-1.14,4,4,0,0,0,.92-2.84V182.9H121v11.19A7.3,7.3,0,0,1,119.12,199.41Z"/><path class="b" d="M139.29,201.53c-6,0-9.37-4.09-9.37-9.27s3.95-9.55,10.2-9.55a10.88,10.88,0,0,1,4.78,1l-.06,3.4a8.84,8.84,0,0,0-4.59-1.28c-4.31,0-6.2,3-6.2,6.18,0,3.51,2.25,6.27,5.86,6.27a9.18,9.18,0,0,0,4.56-1.25l1,2.67A11.41,11.41,0,0,1,139.29,201.53Z"/><path class="b" d="M166.92,186H162v15.23h-3.83V186H152.8V182.9h15Z"/><path class="b" d="M44.91,229.89a7.51,7.51,0,0,1-4.64-2A9.74,9.74,0,0,1,34,230c-3.75,0-6.36-2.26-6.36-5.43,0-2.53,1.75-4.15,3.75-5.1-1.06-1.2-2-2.26-2-4,0-2.23,2-4.26,5.59-4.26s5.56,1.84,5.56,4.29c0,2.14-1.58,3.65-3.61,4.71.92,1,2.5,2.51,3.64,3.54a9,9,0,0,0,2.14-3.84l3.2.78a13.66,13.66,0,0,1-3,5c1.31.92,2.14,1.39,3.61,1.23l.61,2.48A5.27,5.27,0,0,1,44.91,229.89ZM33.4,221.67c-1.19.67-1.86,1.42-1.86,2.53A2.82,2.82,0,0,0,34.65,227a5.09,5.09,0,0,0,3.06-1.06A52,52,0,0,1,33.4,221.67Zm1.53-7.8c-1.17,0-1.72.7-1.72,1.48s.39,1.48,1.56,2.59c1.36-.72,2-1.67,2-2.48A1.6,1.6,0,0,0,34.93,213.88Z"/><path class="b" d="M72,214.49H66.13v4.37h5.78l0,3.12H66.13v7.74H62.33V211.37H73Z"/><path class="b" d="M95.62,227.88c-1.36,1.36-3.33,2.12-6.11,2.12s-4.7-.61-6-1.89A7,7,0,0,1,81.69,223V211.37h3.78v11.28a4.39,4.39,0,0,0,1,3,4,4,0,0,0,3.06,1.14,4.06,4.06,0,0,0,3.2-1.14,4,4,0,0,0,.92-2.84V211.37h3.81v11.19A7.3,7.3,0,0,1,95.62,227.88Z"/><path class="b" d="M120.68,229.72l-7.95-10.19c-.69-.89-1.19-1.61-1.75-2.42h-.06c.06.61.06,1.73.06,2.56v10.05H107.2V211.37H111l7.67,9.8c.72.92,1.22,1.64,1.72,2.39h.06c-.06-.86-.06-2.06-.06-2.84v-9.36h3.78v18.35Z"/><path class="b" d="M139.66,229.72H133.9V211.37H140c6.53,0,10.2,3.54,10.2,9C150.19,226,146,229.72,139.66,229.72Zm.08-15.18h-2v12h2.08c4.53,0,6.31-2.87,6.31-6.07C146.11,216.88,143.94,214.55,139.74,214.55Z"/><rect class="c" width="177.51" height="230"/></svg>