<svg xmlns="http://www.w3.org/2000/svg" viewBox="0 0 177.86 230"><defs><style>.a{fill:#9ca199;}.b{fill:#7ab929;}.c{fill:none;}</style></defs><title>logo-synaptic_modeller</title><path class="a" d="M78.34,129.48H64.68A12.47,12.47,0,0,1,52.23,117v-3.78a4.15,4.15,0,1,1,8.3,0V117a4.15,4.15,0,0,0,4.15,4.15H78.34a4.15,4.15,0,1,1,0,8.3Z"/><path class="a" d="M89,38.69H66.51A12.47,12.47,0,0,1,54.06,26.24a4.15,4.15,0,1,1,8.3,0,4.16,4.16,0,0,0,4.15,4.15H89a4.15,4.15,0,1,1,0,8.3Z"/><path class="a" d="M78.59,28.32A12.47,12.47,0,0,1,66.14,15.87a4.15,4.15,0,1,1,8.3,0A4.15,4.15,0,0,0,78.59,20a4.15,4.15,0,0,1,0,8.3Z"/><path class="a" d="M89,126.92a4.15,4.15,0,0,1-4.15-4.15V12.45A4.15,4.15,0,0,0,80.66,8.3H64.31a4.16,4.16,0,0,0-4.15,4.15,4.15,4.15,0,0,1-8.3,0A12.47,12.47,0,0,1,64.31,0H80.66A12.47,12.47,0,0,1,93.11,12.45V122.77A4.15,4.15,0,0,1,89,126.92Z"/><path class="a" d="M121.91,17a4.15,4.15,0,0,1-4.15-4.15,4.16,4.16,0,0,0-4.15-4.15H97.26a4.16,4.16,0,0,0-4.15,4.15,4.15,4.15,0,0,1-8.3,0A12.47,12.47,0,0,1,97.26.37h16.34a12.47,12.47,0,0,1,12.45,12.45A4.15,4.15,0,0,1,121.91,17Z"/><path class="a" d="M53.7,63.95A12.47,12.47,0,0,1,41.24,51.5V23.8A12.47,12.47,0,0,1,53.7,11.35H70a4.15,4.15,0,1,1,0,8.3H53.7a4.16,4.16,0,0,0-4.15,4.15V51.5a4.16,4.16,0,0,0,4.15,4.15,4.15,4.15,0,1,1,0,8.3Z"/><path class="a" d="M43.81,75.66A12.47,12.47,0,0,1,31.36,63.21V45.77A12.47,12.47,0,0,1,43.81,33.31a4.15,4.15,0,1,1,0,8.3,4.16,4.16,0,0,0-4.15,4.15V63.21a4.16,4.16,0,0,0,4.15,4.15,4.15,4.15,0,0,1,0,8.3Z"/><path class="b" d="M43.81,95.43A12.47,12.47,0,0,1,31.36,83V79.82A12.47,12.47,0,0,1,43.81,67.36a4.15,4.15,0,0,1,0,8.3,4.16,4.16,0,0,0-4.15,4.15V83a4.16,4.16,0,0,0,4.15,4.15,4.15,4.15,0,0,1,0,8.3Z"/><path class="a" d="M133.74,95.43a4.15,4.15,0,0,1,0-8.3A4.15,4.15,0,0,0,137.89,83V65.54a4.15,4.15,0,0,0-4.15-4.15,4.15,4.15,0,1,1,0-8.3,12.46,12.46,0,0,1,12.45,12.45V83A12.47,12.47,0,0,1,133.74,95.43Z"/><path class="a" d="M134.11,61.39a4.15,4.15,0,1,1,0-8.3,4.15,4.15,0,0,0,4.15-4.15V45.77a4.16,4.16,0,0,0-4.15-4.15,4.15,4.15,0,1,1,0-8.3,12.47,12.47,0,0,1,12.45,12.45v3.17A12.47,12.47,0,0,1,134.11,61.39Z"/><path class="b" d="M60.89,117.4h-6.1a12.47,12.47,0,0,1-12.45-12.46V81a4.15,4.15,0,1,1,8.3,0v23.91a4.16,4.16,0,0,0,4.15,4.15h6.1A4.15,4.15,0,0,0,65,104.94a4.15,4.15,0,0,1,8.3,0A12.47,12.47,0,0,1,60.89,117.4Z"/><path class="a" d="M122.76,117.77h-6.09a12.47,12.47,0,0,1-12.45-12.45,4.15,4.15,0,1,1,8.3,0,4.15,4.15,0,0,0,4.15,4.15h6.09a4.15,4.15,0,0,1,0,8.3Z"/><path class="a" d="M122.76,117.77a4.15,4.15,0,0,1,0-8.3,4.15,4.15,0,0,0,4.15-4.15V77.25a4.16,4.16,0,0,0-4.15-4.15h-6.34a4.15,4.15,0,0,1,0-8.3h6.34a12.47,12.47,0,0,1,12.45,12.46v28.06A12.47,12.47,0,0,1,122.76,117.77Z"/><path class="b" d="M77.49,117A12.47,12.47,0,0,1,65,104.58a4.15,4.15,0,0,1,8.3,0,4.16,4.16,0,0,0,4.15,4.15,4.15,4.15,0,1,1,0,8.3Z"/><path class="a" d="M99.94,117a4.15,4.15,0,0,1,0-8.3,4.16,4.16,0,0,0,4.15-4.15,4.15,4.15,0,0,1,8.3,0A12.47,12.47,0,0,1,99.94,117Z"/><path class="a" d="M99.58,28.32a4.15,4.15,0,1,1,0-8.3,4.15,4.15,0,0,0,4.15-4.15,4.15,4.15,0,1,1,8.3,0A12.47,12.47,0,0,1,99.58,28.32Z"/><path class="a" d="M113.24,129.48H100.68a4.15,4.15,0,0,1,0-8.3h12.56a4.15,4.15,0,0,0,4.15-4.15v-3a4.15,4.15,0,0,1,8.3,0v3A12.47,12.47,0,0,1,113.24,129.48Z"/><path class="a" d="M104.83,140.1H73.46A12.1,12.1,0,0,1,61.38,128a4.15,4.15,0,0,1,8.3,0,3.79,3.79,0,0,0,3.78,3.79h31.37a3.79,3.79,0,0,0,3.79-3.79,4.15,4.15,0,0,1,8.3,0A12.1,12.1,0,0,1,104.83,140.1Z"/><path class="a" d="M98.59,106.05a4.15,4.15,0,0,1-4.15-4.15V86.65A12.47,12.47,0,0,1,106.9,74.2a4.15,4.15,0,0,1,0,8.3,4.16,4.16,0,0,0-4.15,4.15V101.9A4.15,4.15,0,0,1,98.59,106.05Z"/><path class="a" d="M116.78,73.1a12.47,12.47,0,0,1-12.46-12.45,4.15,4.15,0,0,1,8.3,0,4.16,4.16,0,0,0,4.15,4.15,4.15,4.15,0,0,1,0,8.3Z"/><path class="a" d="M100.18,73.1a4.15,4.15,0,1,1,0-8.3,4.15,4.15,0,0,0,4.15-4.15,4.15,4.15,0,0,1,8.3,0A12.47,12.47,0,0,1,100.18,73.1Z"/><path class="a" d="M113.24,53.58a4.15,4.15,0,0,1,0-8.3,4.15,4.15,0,0,0,4.15-4.15,4.15,4.15,0,0,1,8.3,0A12.47,12.47,0,0,1,113.24,53.58Z"/><path class="a" d="M119.71,61.75a4.15,4.15,0,0,1-4.15-4.15c0-2.25-2.51-4.15-5.48-4.15h-2c-3,0-5.48,1.9-5.48,4.15a4.15,4.15,0,1,1-8.3,0c0-6.87,6.18-12.45,13.78-12.45h2c7.6,0,13.78,5.59,13.78,12.45A4.15,4.15,0,0,1,119.71,61.75Z"/><path class="a" d="M133.26,51.5a4.15,4.15,0,0,1-4.15-4.15V23.8A4.16,4.16,0,0,0,125,19.65H108.61a4.15,4.15,0,0,1,0-8.3H125A12.47,12.47,0,0,1,137.41,23.8V47.35A4.15,4.15,0,0,1,133.26,51.5Z"/><path class="a" d="M57.48,107.51a4.15,4.15,0,0,1-4.15-4.15V89A12.47,12.47,0,0,1,65.78,76.51a4.15,4.15,0,0,1,0,8.3A4.15,4.15,0,0,0,61.63,89v14.39A4.15,4.15,0,0,1,57.48,107.51Z"/><path class="a" d="M66.26,84.7a4.15,4.15,0,0,1-4.15-4.15A12.47,12.47,0,0,1,74.56,68.09a4.15,4.15,0,0,1,0,8.3,4.16,4.16,0,0,0-4.15,4.15A4.15,4.15,0,0,1,66.26,84.7Z"/><path class="a" d="M110.07,41.13A4.15,4.15,0,0,1,105.92,37a12.47,12.47,0,0,1,12.45-12.45H123a4.15,4.15,0,1,1,0,8.3h-4.63A4.16,4.16,0,0,0,114.23,37,4.15,4.15,0,0,1,110.07,41.13Z"/><path class="a" d="M109.82,41.61H99.21a4.15,4.15,0,1,1,0-8.3h10.62a4.15,4.15,0,1,1,0,8.3Z"/><path class="b" d="M78.34,104.22a4.15,4.15,0,0,1-4.15-4.15A4.15,4.15,0,0,0,70,95.92a4.15,4.15,0,0,1,0-8.3,12.47,12.47,0,0,1,12.45,12.45A4.15,4.15,0,0,1,78.34,104.22Z"/><path class="a" d="M56.74,74.57a4.15,4.15,0,1,1,0-8.3c2.25,0,4.15-2.51,4.15-5.48v-2c0-3-1.9-5.48-4.15-5.48a4.15,4.15,0,1,1,0-8.3c6.87,0,12.45,6.18,12.45,13.78v2C69.2,68.39,63.61,74.57,56.74,74.57Z"/><path class="a" d="M75.17,56.63A4.15,4.15,0,0,1,71,52.47,12.46,12.46,0,0,1,83.47,40l5.4-.12A4.15,4.15,0,0,1,89,48.2l-5.49.12a4.17,4.17,0,0,0-4.24,4.15A4.15,4.15,0,0,1,75.17,56.63Z"/><path class="a" d="M75.78,76.39a4.15,4.15,0,0,1-4.15-4.15V63.46a4.15,4.15,0,0,1,8.3,0v8.78A4.15,4.15,0,0,1,75.78,76.39Z"/><path class="a" d="M111.41,95.85a4.15,4.15,0,0,1,0-8.3,4.15,4.15,0,0,0,4.15-4.15,4.15,4.15,0,1,1,8.3,0A12.47,12.47,0,0,1,111.41,95.85Z"/><path class="a" d="M119.71,104.16a4.15,4.15,0,0,1-4.15-4.15,4.15,4.15,0,0,0-4.15-4.15,4.15,4.15,0,0,1,0-8.3A12.47,12.47,0,0,1,123.87,100,4.15,4.15,0,0,1,119.71,104.16Z"/><path class="a" d="M6.19,173.32A10.94,10.94,0,0,1,0,171.5l1.56-2.92A8,8,0,0,0,6,170.08c1.41,0,3-.53,3-2,0-2.56-4.71-3-7.07-5.69a5.05,5.05,0,0,1-1.24-3.45c0-2.95,2.33-5.54,6.6-5.54a9.94,9.94,0,0,1,4.89,1.18l-.06,3.48a9.55,9.55,0,0,0-4.63-1.41c-1.44,0-2.56.65-2.56,1.77,0,3.36,8.34,3.06,8.34,9.16C13.29,171.11,10.17,173.32,6.19,173.32Z"/><path class="a" d="M32,165.4V173H28v-7.69l-6.72-11.73H25.7L28.65,159c.47.83,1,1.92,1.44,2.8h.06c.41-.88.94-1.92,1.39-2.74l3-5.48h4.21Z"/><path class="a" d="M62,173l-8.43-10.79c-.74-.94-1.27-1.71-1.86-2.56h-.06c.06.65.06,1.83.06,2.71V173h-4V153.61h4.07L59.89,164c.77,1,1.3,1.74,1.83,2.53h.06c-.06-.91-.06-2.18-.06-3v-9.9h4V173Z"/><path class="a" d="M88.94,173l-1.89-4.74h-6.6L78.66,173h-4l7.6-19.51h3.06L93.28,173ZM84.5,161.27a21,21,0,0,1-.71-2.39h0a15.16,15.16,0,0,1-.71,2.33L81.61,165h4.21Z"/><path class="a" d="M107,166.34h-.74V173h-4V153.61h5.3c4.27,0,7.13,2.15,7.13,6.31C114.67,162.42,112.79,166.34,107,166.34Zm.12-9.37h-.85v6.31h.88c2.39,0,3.48-1.21,3.48-3.21C110.64,158.32,109.49,157,107.13,157Z"/><path class="a" d="M137.78,156.91h-5.22V173H128.5V156.91h-5.69v-3.3h15.88Z"/><path class="a" d="M147.51,173V153.61h4V173Z"/><path class="a" d="M171.26,173.32c-6.34,0-9.93-4.33-9.93-9.81s4.18-10.11,10.81-10.11a11.56,11.56,0,0,1,5.07,1l-.06,3.6a9.39,9.39,0,0,0-4.86-1.36c-4.57,0-6.57,3.18-6.57,6.54,0,3.71,2.39,6.63,6.22,6.63a9.74,9.74,0,0,0,4.83-1.33l1.09,2.83A12.12,12.12,0,0,1,171.26,173.32Z"/><path class="b" d="M19.06,201.25V191.12c0-.67,0-1.34.06-2h-.06a15.18,15.18,0,0,1-1.14,1.92l-3.4,5.21H12.77L9,190.92a12.35,12.35,0,0,1-1.17-1.78H7.75c0,.7,0,1.34,0,1.87v10.25H4V182.9H7.5l4.82,6.88a21.23,21.23,0,0,1,1.34,2.06h0a17.39,17.39,0,0,1,1.25-2.17l4.4-6.77h3.51v18.35Z"/><path class="b" d="M48.15,198.8a9.5,9.5,0,0,1-6.91,2.73,9.55,9.55,0,0,1-6.54-2.23,9.21,9.21,0,0,1-2.92-7,9.64,9.64,0,0,1,2.65-6.85,9.35,9.35,0,0,1,6.82-2.73,8.84,8.84,0,0,1,9.47,9.36A9.43,9.43,0,0,1,48.15,198.8Zm-6.91-13c-3.17,0-5.49,2.31-5.49,6.32s2.31,6.32,5.49,6.32,5.43-2.31,5.43-6.32S44.42,185.83,41.25,185.83Z"/><path class="b" d="M65.41,201.25H59.65V182.9h6.1c6.54,0,10.22,3.54,10.22,9C76,197.58,71.76,201.25,65.41,201.25Zm.08-15.18h-2v12h2.09c4.54,0,6.32-2.87,6.32-6.07C71.87,188.42,69.7,186.08,65.5,186.08Z"/><path class="b" d="M84.9,201.25V182.9H95.54l-1,3.12H88.72v4.29h5.85v3.15H88.72v4.68h6.79v3.12Z"/><path class="b" d="M104.53,201.25V182.9h3.79v15.2h6.46v3.15Z"/><path class="b" d="M123,201.25V182.9h3.79v15.2h6.46v3.15Z"/><path class="b" d="M141.45,201.25V182.9h10.64l-1,3.12h-5.82v4.29h5.85v3.15h-5.85v4.68h6.79v3.12Z"/><path class="b" d="M170.88,201.25c-2.78-4.76-3.9-6.82-4.57-7.07h-1.42v7.07h-3.81V182.9h5.35c4.9,0,6.68,2.42,6.68,5.26a5.26,5.26,0,0,1-3.34,4.76v0c.92.53,2.7,3.62,5.46,8.3Zm-4.37-15.18h-1.62v5.32h1.62a2.75,2.75,0,0,0,2.81-2.81A2.5,2.5,0,0,0,166.51,186.08Z"/><rect class="c" width="177.86" height="230"/></svg>