<svg xmlns="http://www.w3.org/2000/svg" viewBox="0 0 217.36 230"><defs><style>.a{fill:#9ca199;}.b{fill:#f8ac00;}.c{fill:none;}</style></defs><title>logo-synaptic_client_care</title><path class="a" d="M133.24,129.71H120.66a4.16,4.16,0,1,1,0-8.32h12.59a4.16,4.16,0,0,0,4.16-4.16v-3a4.16,4.16,0,0,1,8.32,0v3A12.49,12.49,0,0,1,133.24,129.71Z"/><path class="a" d="M108.92,38.76H86.43A12.49,12.49,0,0,1,74,26.28a4.16,4.16,0,1,1,8.32,0,4.16,4.16,0,0,0,4.16,4.16h22.49a4.16,4.16,0,1,1,0,8.32Z"/><path class="a" d="M98.53,28.37A12.49,12.49,0,0,1,86.06,15.89a4.16,4.16,0,1,1,8.32,0,4.16,4.16,0,0,0,4.16,4.16,4.16,4.16,0,1,1,0,8.32Z"/><path class="a" d="M108.92,127.14a4.16,4.16,0,0,1-4.16-4.16V12.47a4.16,4.16,0,0,0-4.16-4.16H84.23a4.16,4.16,0,0,0-4.16,4.16,4.16,4.16,0,0,1-8.32,0A12.49,12.49,0,0,1,84.23,0H100.6a12.49,12.49,0,0,1,12.47,12.47V123A4.16,4.16,0,0,1,108.92,127.14Z"/><path class="a" d="M141.93,17a4.16,4.16,0,0,1-4.16-4.16,4.16,4.16,0,0,0-4.16-4.16H117.24a4.17,4.17,0,0,0-4.16,4.16,4.16,4.16,0,1,1-8.32,0A12.49,12.49,0,0,1,117.24.37h16.37a12.49,12.49,0,0,1,12.47,12.48A4.16,4.16,0,0,1,141.93,17Z"/><path class="a" d="M73.6,64.06A12.49,12.49,0,0,1,61.12,51.59V23.85A12.49,12.49,0,0,1,73.6,11.37H90a4.16,4.16,0,1,1,0,8.32H73.6a4.17,4.17,0,0,0-4.16,4.16V51.59a4.16,4.16,0,0,0,4.16,4.16,4.16,4.16,0,0,1,0,8.32Z"/><path class="a" d="M63.69,75.8A12.49,12.49,0,0,1,51.22,63.32V45.85A12.49,12.49,0,0,1,63.69,33.37a4.16,4.16,0,1,1,0,8.32,4.16,4.16,0,0,0-4.16,4.16V63.32a4.16,4.16,0,0,0,4.16,4.16,4.16,4.16,0,0,1,0,8.32Z"/><path class="a" d="M63.69,95.6A12.49,12.49,0,0,1,51.22,83.13V80A12.49,12.49,0,0,1,63.69,67.48a4.16,4.16,0,0,1,0,8.32A4.16,4.16,0,0,0,59.53,80v3.17a4.16,4.16,0,0,0,4.16,4.16,4.16,4.16,0,1,1,0,8.32Z"/><path class="a" d="M153.78,95.6a4.16,4.16,0,0,1,0-8.32,4.16,4.16,0,0,0,4.16-4.16V65.65a4.16,4.16,0,0,0-4.16-4.16,4.16,4.16,0,0,1,0-8.32,12.49,12.49,0,0,1,12.47,12.47V83.13A12.49,12.49,0,0,1,153.78,95.6Z"/><path class="a" d="M154.15,61.49a4.16,4.16,0,0,1,0-8.32A4.16,4.16,0,0,0,158.3,49V45.85a4.16,4.16,0,0,0-4.16-4.16,4.16,4.16,0,1,1,0-8.32,12.49,12.49,0,0,1,12.47,12.47V49A12.49,12.49,0,0,1,154.15,61.49Z"/><path class="a" d="M80.8,117.61H74.69a12.49,12.49,0,0,1-12.47-12.47v-24a4.16,4.16,0,0,1,8.32,0v24a4.16,4.16,0,0,0,4.16,4.16H80.8A4.16,4.16,0,0,0,85,105.13a4.16,4.16,0,0,1,8.32,0A12.49,12.49,0,0,1,80.8,117.61Z"/><path class="a" d="M142.78,118h-6.11A12.49,12.49,0,0,1,124.2,105.5a4.16,4.16,0,0,1,8.32,0,4.16,4.16,0,0,0,4.16,4.16h6.11a4.16,4.16,0,0,1,0,8.32Z"/><path class="a" d="M142.78,118a4.16,4.16,0,0,1,0-8.32,4.16,4.16,0,0,0,4.16-4.16V77.39a4.16,4.16,0,0,0-4.16-4.16h-6.35a4.16,4.16,0,0,1,0-8.32h6.35a12.49,12.49,0,0,1,12.47,12.48V105.5A12.49,12.49,0,0,1,142.78,118Z"/><path class="a" d="M97.43,117.24A12.49,12.49,0,0,1,85,104.76a4.16,4.16,0,0,1,8.32,0,4.17,4.17,0,0,0,4.16,4.16,4.16,4.16,0,0,1,0,8.32Z"/><path class="a" d="M119.92,117.24a4.16,4.16,0,1,1,0-8.32,4.16,4.16,0,0,0,4.16-4.16,4.16,4.16,0,0,1,8.32,0A12.49,12.49,0,0,1,119.92,117.24Z"/><path class="a" d="M119.55,28.37a4.16,4.16,0,0,1,0-8.32,4.16,4.16,0,0,0,4.16-4.16,4.16,4.16,0,1,1,8.32,0A12.49,12.49,0,0,1,119.55,28.37Z"/><path class="a" d="M98.28,129.71H84.6a12.49,12.49,0,0,1-12.47-12.48v-3.79a4.16,4.16,0,0,1,8.32,0v3.79a4.16,4.16,0,0,0,4.16,4.16H98.28a4.16,4.16,0,1,1,0,8.32Z"/><path class="a" d="M124.83,140.34H93.4a12.12,12.12,0,0,1-12.11-12.11,4.16,4.16,0,0,1,8.32,0A3.8,3.8,0,0,0,93.4,132h31.43a3.8,3.8,0,0,0,3.79-3.79,4.16,4.16,0,0,1,8.32,0A12.12,12.12,0,0,1,124.83,140.34Z"/><path class="b" d="M118.57,106.24a4.16,4.16,0,0,1-4.16-4.16V86.81a12.49,12.49,0,0,1,12.47-12.47,4.16,4.16,0,1,1,0,8.32,4.16,4.16,0,0,0-4.16,4.16v15.27A4.16,4.16,0,0,1,118.57,106.24Z"/><path class="a" d="M136.79,73.23a12.49,12.49,0,0,1-12.47-12.47,4.16,4.16,0,1,1,8.32,0,4.16,4.16,0,0,0,4.16,4.16,4.16,4.16,0,0,1,0,8.32Z"/><path class="a" d="M120.16,73.23a4.16,4.16,0,0,1,0-8.32,4.16,4.16,0,0,0,4.16-4.16,4.16,4.16,0,1,1,8.32,0A12.49,12.49,0,0,1,120.16,73.23Z"/><path class="a" d="M133.24,53.68a4.16,4.16,0,0,1,0-8.32,4.16,4.16,0,0,0,4.16-4.16,4.16,4.16,0,1,1,8.32,0A12.49,12.49,0,0,1,133.24,53.68Z"/><path class="a" d="M139.73,61.86a4.16,4.16,0,0,1-4.16-4.16c0-2.25-2.51-4.16-5.49-4.16h-2c-3,0-5.49,1.9-5.49,4.16a4.16,4.16,0,1,1-8.32,0c0-6.88,6.19-12.47,13.81-12.47h2c7.61,0,13.8,5.6,13.8,12.47A4.16,4.16,0,0,1,139.73,61.86Z"/><path class="a" d="M153.3,51.59a4.16,4.16,0,0,1-4.16-4.16V23.85A4.17,4.17,0,0,0,145,19.68H128.6a4.16,4.16,0,0,1,0-8.32H145a12.49,12.49,0,0,1,12.48,12.48V47.44A4.16,4.16,0,0,1,153.3,51.59Z"/><path class="a" d="M77.38,107.7a4.16,4.16,0,0,1-4.16-4.16V89.12A12.49,12.49,0,0,1,85.7,76.65a4.16,4.16,0,0,1,0,8.32,4.16,4.16,0,0,0-4.16,4.16v14.42A4.16,4.16,0,0,1,77.38,107.7Z"/><path class="a" d="M86.18,84.85A4.16,4.16,0,0,1,82,80.69,12.49,12.49,0,0,1,94.5,68.21a4.16,4.16,0,0,1,0,8.32,4.16,4.16,0,0,0-4.16,4.16A4.16,4.16,0,0,1,86.18,84.85Z"/><path class="a" d="M130.07,41.2A4.16,4.16,0,0,1,125.91,37a12.49,12.49,0,0,1,12.47-12.47H143a4.16,4.16,0,1,1,0,8.32h-4.64A4.16,4.16,0,0,0,134.23,37,4.16,4.16,0,0,1,130.07,41.2Z"/><path class="a" d="M129.83,41.69H119.19a4.16,4.16,0,1,1,0-8.32h10.64a4.16,4.16,0,1,1,0,8.32Z"/><path class="a" d="M98.28,104.41a4.16,4.16,0,0,1-4.16-4.16A4.16,4.16,0,0,0,90,96.09a4.16,4.16,0,1,1,0-8.32,12.49,12.49,0,0,1,12.47,12.47A4.16,4.16,0,0,1,98.28,104.41Z"/><path class="a" d="M76.65,74.7a4.16,4.16,0,0,1,0-8.32c2.25,0,4.16-2.51,4.16-5.49v-2c0-3-1.9-5.49-4.16-5.49a4.16,4.16,0,0,1,0-8.32c6.88,0,12.47,6.19,12.47,13.81v2C89.12,68.51,83.53,74.7,76.65,74.7Z"/><path class="a" d="M95.1,56.73a4.16,4.16,0,0,1-4.16-4.16,12.49,12.49,0,0,1,12.47-12.47l5.41-.12a4.16,4.16,0,0,1,.18,8.31l-5.5.12a4.18,4.18,0,0,0-4.25,4.16A4.16,4.16,0,0,1,95.1,56.73Z"/><path class="a" d="M95.72,76.53a4.16,4.16,0,0,1-4.16-4.16v-8.8a4.16,4.16,0,0,1,8.32,0v8.8A4.16,4.16,0,0,1,95.72,76.53Z"/><path class="b" d="M131.41,96a4.16,4.16,0,0,1,0-8.32,4.16,4.16,0,0,0,4.16-4.16,4.16,4.16,0,1,1,8.32,0A12.49,12.49,0,0,1,131.41,96Z"/><path class="b" d="M139.73,104.34a4.16,4.16,0,0,1-4.16-4.16A4.16,4.16,0,0,0,131.41,96a4.16,4.16,0,0,1,0-8.32,12.49,12.49,0,0,1,12.47,12.47A4.16,4.16,0,0,1,139.73,104.34Z"/><path class="a" d="M26.42,173.31a10.89,10.89,0,0,1-6.16-1.82l1.56-2.9a8,8,0,0,0,4.43,1.5c1.41,0,3-.53,3-2,0-2.55-4.69-3-7-5.66A5,5,0,0,1,21,159c0-2.93,2.32-5.52,6.57-5.52a9.9,9.9,0,0,1,4.87,1.17l-.06,3.46a9.51,9.51,0,0,0-4.61-1.41c-1.44,0-2.55.65-2.55,1.76,0,3.34,8.3,3.05,8.3,9.13C33.49,171.11,30.38,173.31,26.42,173.31Z"/><path class="a" d="M52.13,165.42V173h-4v-7.66l-6.69-11.68h4.43l2.93,5.4c.47.82,1,1.91,1.44,2.79h.06c.41-.88.94-1.91,1.38-2.73l3-5.46h4.2Z"/><path class="a" d="M82,173l-8.39-10.74c-.73-.94-1.26-1.7-1.85-2.55h-.06c.06.65.06,1.82.06,2.7V173h-4V153.68h4L79.89,164c.76,1,1.29,1.73,1.82,2.52h.06c-.06-.91-.06-2.17-.06-3v-9.86h4V173Z"/><path class="a" d="M108.82,173l-1.88-4.72h-6.57L98.58,173h-4l7.57-19.42h3.05L113.14,173Zm-4.43-11.71a21,21,0,0,1-.7-2.38h0a15.19,15.19,0,0,1-.7,2.32l-1.44,3.81h4.2Z"/><path class="a" d="M126.81,166.36h-.73V173h-4V153.68h5.28c4.25,0,7.1,2.14,7.1,6.28C134.44,162.45,132.56,166.36,126.81,166.36Zm.12-9.33h-.85v6.28H127c2.38,0,3.46-1.2,3.46-3.2C130.42,158.38,129.28,157,126.93,157Z"/><path class="a" d="M157.45,157h-5.19v16h-4V157h-5.66v-3.29h15.81Z"/><path class="a" d="M167.13,173V153.68h4V173Z"/><path class="a" d="M190.78,173.31c-6.31,0-9.89-4.31-9.89-9.77s4.17-10.06,10.77-10.06a11.51,11.51,0,0,1,5,1l-.06,3.58a9.35,9.35,0,0,0-4.84-1.35c-4.55,0-6.54,3.17-6.54,6.51,0,3.7,2.38,6.6,6.19,6.6a9.7,9.7,0,0,0,4.81-1.32l1.09,2.82A12.06,12.06,0,0,1,190.78,173.31Z"/><path class="b" d="M9.34,201.65c-6,0-9.34-4.08-9.34-9.23s3.94-9.51,10.18-9.51a10.87,10.87,0,0,1,4.77,1l-.06,3.38A8.83,8.83,0,0,0,10.31,186c-4.3,0-6.18,3-6.18,6.16,0,3.49,2.25,6.24,5.85,6.24a9.17,9.17,0,0,0,4.55-1.25l1,2.66A11.4,11.4,0,0,1,9.34,201.65Z"/><path class="b" d="M24.17,201.37V183.1h3.77v15.14h6.43v3.13Z"/><path class="b" d="M42.55,201.37V183.1h3.8v18.27Z"/><path class="b" d="M56,201.37V183.1H66.62l-1,3.11H59.82v4.27h5.82v3.13H59.82v4.66h6.76v3.11Z"/><path class="b" d="M89,201.37l-7.93-10.15c-.69-.89-1.19-1.61-1.75-2.41h-.06c.06.61.06,1.72.06,2.55v10H75.57V183.1h3.83L87,192.86c.72.91,1.22,1.64,1.72,2.38h.06c-.06-.86-.06-2.05-.06-2.83V183.1h3.77v18.27Z"/><path class="b" d="M114.94,186.2H110v15.17H106.2V186.2h-5.35V183.1h14.94Z"/><path class="b" d="M145.12,201.65c-6,0-9.34-4.08-9.34-9.23s3.94-9.51,10.18-9.51a10.87,10.87,0,0,1,4.77,1l-.06,3.38a8.84,8.84,0,0,0-4.58-1.28c-4.3,0-6.18,3-6.18,6.16,0,3.49,2.25,6.24,5.85,6.24a9.17,9.17,0,0,0,4.55-1.25l1,2.66A11.4,11.4,0,0,1,145.12,201.65Z"/><path class="b" d="M172.37,201.37l-1.77-4.46h-6.21l-1.69,4.46h-3.74L166.1,183H169l7.46,18.35Zm-4.19-11.06a19.63,19.63,0,0,1-.67-2.25h0a14.37,14.37,0,0,1-.67,2.19l-1.36,3.6h4Z"/><path class="b" d="M194.32,201.37c-2.77-4.74-3.88-6.79-4.55-7h-1.41v7h-3.8V183.1h5.32c4.88,0,6.65,2.41,6.65,5.24a5.24,5.24,0,0,1-3.33,4.74v0c.91.53,2.69,3.6,5.43,8.26ZM190,186.26h-1.61v5.3H190a2.74,2.74,0,0,0,2.8-2.8A2.49,2.49,0,0,0,190,186.26Z"/><path class="b" d="M206.77,201.37V183.1h10.59l-1,3.11h-5.79v4.27h5.82v3.13h-5.82v4.66h6.77v3.11Z"/><rect class="c" width="217.36" height="230"/></svg>