<svg xmlns="http://www.w3.org/2000/svg" viewBox="0 0 177.92 230"><defs><style>.a{fill:#4f2d82;}.b{fill:#9ca199;}.c{fill:none;}</style></defs><title>logo-synaptic_webline</title><path class="a" d="M88.65,38.76H66.16A12.49,12.49,0,0,1,53.69,26.28a4.16,4.16,0,0,1,8.32,0,4.16,4.16,0,0,0,4.16,4.16H88.65a4.16,4.16,0,1,1,0,8.32Z"/><path class="a" d="M78.26,28.37A12.49,12.49,0,0,1,65.79,15.89a4.16,4.16,0,1,1,8.32,0,4.16,4.16,0,0,0,4.16,4.16,4.16,4.16,0,0,1,0,8.32Z"/><path class="b" d="M88.65,127.14A4.16,4.16,0,0,1,84.49,123V12.47a4.16,4.16,0,0,0-4.16-4.16H64a4.16,4.16,0,0,0-4.16,4.16,4.16,4.16,0,0,1-8.32,0A12.49,12.49,0,0,1,64,0H80.34A12.49,12.49,0,0,1,92.81,12.47V123A4.16,4.16,0,0,1,88.65,127.14Z"/><path class="b" d="M121.66,17a4.16,4.16,0,0,1-4.16-4.16,4.16,4.16,0,0,0-4.16-4.16H97a4.16,4.16,0,0,0-4.16,4.16,4.16,4.16,0,0,1-8.32,0A12.49,12.49,0,0,1,97,.37h16.37a12.49,12.49,0,0,1,12.47,12.47A4.16,4.16,0,0,1,121.66,17Z"/><path class="a" d="M53.33,64.06A12.49,12.49,0,0,1,40.85,51.58V23.84A12.49,12.49,0,0,1,53.33,11.37H69.7a4.16,4.16,0,0,1,0,8.32H53.33a4.16,4.16,0,0,0-4.16,4.16V51.58a4.16,4.16,0,0,0,4.16,4.16,4.16,4.16,0,1,1,0,8.32Z"/><path class="a" d="M43.42,75.79A12.49,12.49,0,0,1,30.95,63.32V45.85A12.49,12.49,0,0,1,43.42,33.37a4.16,4.16,0,1,1,0,8.32,4.16,4.16,0,0,0-4.16,4.16V63.32a4.16,4.16,0,0,0,4.16,4.16,4.16,4.16,0,1,1,0,8.32Z"/><path class="b" d="M43.42,95.6A12.49,12.49,0,0,1,30.95,83.12V80A12.49,12.49,0,0,1,43.42,67.48a4.16,4.16,0,1,1,0,8.32A4.16,4.16,0,0,0,39.27,80v3.17a4.16,4.16,0,0,0,4.16,4.16,4.16,4.16,0,1,1,0,8.32Z"/><path class="b" d="M133.51,95.6a4.16,4.16,0,0,1,0-8.32,4.16,4.16,0,0,0,4.16-4.16V65.65a4.16,4.16,0,0,0-4.16-4.16,4.16,4.16,0,0,1,0-8.32A12.49,12.49,0,0,1,146,65.65V83.12A12.49,12.49,0,0,1,133.51,95.6Z"/><path class="b" d="M133.88,61.49a4.16,4.16,0,0,1,0-8.32A4.16,4.16,0,0,0,138,49V45.85a4.16,4.16,0,0,0-4.16-4.16,4.16,4.16,0,0,1,0-8.32,12.49,12.49,0,0,1,12.47,12.47V49A12.49,12.49,0,0,1,133.88,61.49Z"/><path class="b" d="M60.53,117.6h-6.1A12.49,12.49,0,0,1,42,105.13v-24a4.16,4.16,0,0,1,8.32,0v24a4.16,4.16,0,0,0,4.16,4.16h6.1a4.16,4.16,0,0,0,4.16-4.16,4.16,4.16,0,0,1,8.32,0A12.49,12.49,0,0,1,60.53,117.6Z"/><path class="b" d="M122.51,118h-6.11a12.49,12.49,0,0,1-12.47-12.47,4.16,4.16,0,0,1,8.32,0,4.16,4.16,0,0,0,4.16,4.16h6.11a4.16,4.16,0,0,1,0,8.32Z"/><path class="b" d="M122.51,118a4.16,4.16,0,0,1,0-8.32,4.16,4.16,0,0,0,4.16-4.16V77.39a4.16,4.16,0,0,0-4.16-4.16h-6.35a4.16,4.16,0,0,1,0-8.32h6.35A12.49,12.49,0,0,1,135,77.39v28.11A12.49,12.49,0,0,1,122.51,118Z"/><path class="b" d="M77.17,117.24a12.49,12.49,0,0,1-12.47-12.48,4.16,4.16,0,0,1,8.32,0,4.16,4.16,0,0,0,4.16,4.16,4.16,4.16,0,1,1,0,8.32Z"/><path class="b" d="M99.65,117.24a4.16,4.16,0,1,1,0-8.32,4.17,4.17,0,0,0,4.16-4.16,4.16,4.16,0,1,1,8.32,0A12.49,12.49,0,0,1,99.65,117.24Z"/><path class="b" d="M99.29,28.37a4.16,4.16,0,1,1,0-8.32,4.16,4.16,0,0,0,4.16-4.16,4.16,4.16,0,1,1,8.32,0A12.49,12.49,0,0,1,99.29,28.37Z"/><path class="b" d="M78,129.71H64.33a12.49,12.49,0,0,1-12.47-12.47v-3.79a4.16,4.16,0,0,1,8.32,0v3.79a4.16,4.16,0,0,0,4.16,4.16H78a4.16,4.16,0,0,1,0,8.32Z"/><path class="b" d="M113,129.71H100.39a4.16,4.16,0,0,1,0-8.32H113a4.16,4.16,0,0,0,4.16-4.16v-3.05a4.16,4.16,0,1,1,8.32,0v3.05A12.49,12.49,0,0,1,113,129.71Z"/><path class="b" d="M104.56,140.34H73.13A12.12,12.12,0,0,1,61,128.23a4.16,4.16,0,0,1,8.32,0A3.8,3.8,0,0,0,73.13,132h31.42a3.8,3.8,0,0,0,3.79-3.79,4.16,4.16,0,1,1,8.32,0A12.12,12.12,0,0,1,104.56,140.34Z"/><path class="b" d="M98.31,106.23a4.16,4.16,0,0,1-4.16-4.16V86.8a12.49,12.49,0,0,1,12.47-12.47,4.16,4.16,0,0,1,0,8.32,4.16,4.16,0,0,0-4.16,4.16v15.27A4.16,4.16,0,0,1,98.31,106.23Z"/><path class="b" d="M116.52,73.23a12.49,12.49,0,0,1-12.47-12.48,4.16,4.16,0,1,1,8.32,0,4.16,4.16,0,0,0,4.16,4.16,4.16,4.16,0,0,1,0,8.32Z"/><path class="b" d="M99.89,73.23a4.16,4.16,0,0,1,0-8.32,4.17,4.17,0,0,0,4.16-4.16,4.16,4.16,0,1,1,8.32,0A12.49,12.49,0,0,1,99.89,73.23Z"/><path class="b" d="M113,53.67a4.16,4.16,0,1,1,0-8.32,4.16,4.16,0,0,0,4.16-4.16,4.16,4.16,0,1,1,8.32,0A12.49,12.49,0,0,1,113,53.67Z"/><path class="b" d="M119.46,61.86a4.16,4.16,0,0,1-4.16-4.16c0-2.25-2.51-4.16-5.49-4.16h-2c-3,0-5.49,1.91-5.49,4.16a4.16,4.16,0,0,1-8.32,0c0-6.88,6.19-12.47,13.81-12.47h2c7.61,0,13.81,5.6,13.81,12.47A4.16,4.16,0,0,1,119.46,61.86Z"/><path class="b" d="M133,51.59a4.16,4.16,0,0,1-4.16-4.16V23.84a4.16,4.16,0,0,0-4.16-4.16H108.34a4.16,4.16,0,0,1,0-8.32h16.37a12.49,12.49,0,0,1,12.47,12.47V47.43A4.16,4.16,0,0,1,133,51.59Z"/><path class="b" d="M57.11,107.7A4.16,4.16,0,0,1,53,103.54V89.12A12.49,12.49,0,0,1,65.43,76.65a4.16,4.16,0,0,1,0,8.32,4.16,4.16,0,0,0-4.16,4.16v14.42A4.16,4.16,0,0,1,57.11,107.7Z"/><path class="b" d="M65.91,84.85a4.16,4.16,0,0,1-4.16-4.16A12.49,12.49,0,0,1,74.23,68.21a4.16,4.16,0,1,1,0,8.32,4.16,4.16,0,0,0-4.16,4.16A4.16,4.16,0,0,1,65.91,84.85Z"/><path class="b" d="M109.8,41.21A4.16,4.16,0,0,1,105.65,37a12.49,12.49,0,0,1,12.47-12.48h4.64a4.16,4.16,0,0,1,0,8.32h-4.64A4.16,4.16,0,0,0,114,37,4.16,4.16,0,0,1,109.8,41.21Z"/><path class="b" d="M109.56,41.69H98.92a4.16,4.16,0,0,1,0-8.32h10.63a4.16,4.16,0,0,1,0,8.32Z"/><path class="b" d="M78,104.4a4.16,4.16,0,0,1-4.16-4.16,4.16,4.16,0,0,0-4.16-4.16,4.16,4.16,0,1,1,0-8.32,12.49,12.49,0,0,1,12.47,12.47A4.16,4.16,0,0,1,78,104.4Z"/><path class="b" d="M56.38,74.7a4.16,4.16,0,1,1,0-8.32c2.25,0,4.16-2.51,4.16-5.49v-2c0-3-1.9-5.49-4.16-5.49a4.16,4.16,0,1,1,0-8.32c6.88,0,12.47,6.19,12.47,13.81v2C68.85,68.5,63.26,74.7,56.38,74.7Z"/><path class="b" d="M74.84,56.72a4.16,4.16,0,0,1-4.16-4.16A12.49,12.49,0,0,1,83.15,40.09L88.56,40a4.16,4.16,0,0,1,.18,8.32l-5.5.12A4.18,4.18,0,0,0,79,52.57,4.16,4.16,0,0,1,74.84,56.72Z"/><path class="b" d="M75.45,76.53a4.16,4.16,0,0,1-4.16-4.16v-8.8a4.16,4.16,0,0,1,8.32,0v8.8A4.16,4.16,0,0,1,75.45,76.53Z"/><path class="b" d="M111.15,96a4.16,4.16,0,0,1,0-8.32,4.16,4.16,0,0,0,4.16-4.16,4.16,4.16,0,0,1,8.32,0A12.49,12.49,0,0,1,111.15,96Z"/><path class="b" d="M119.46,104.33a4.16,4.16,0,0,1-4.16-4.16A4.16,4.16,0,0,0,111.15,96a4.16,4.16,0,0,1,0-8.32,12.49,12.49,0,0,1,12.47,12.47A4.16,4.16,0,0,1,119.46,104.33Z"/><path class="b" d="M6.19,173.31A10.94,10.94,0,0,1,0,171.49l1.56-2.92A8,8,0,0,0,6,170.07c1.41,0,3-.53,3-2,0-2.56-4.72-3-7.07-5.69a5.05,5.05,0,0,1-1.24-3.45c0-2.95,2.33-5.54,6.6-5.54a10,10,0,0,1,4.89,1.18L12.15,158a9.56,9.56,0,0,0-4.63-1.41c-1.44,0-2.56.65-2.56,1.77,0,3.36,8.34,3.07,8.34,9.17C13.3,171.1,10.17,173.31,6.19,173.31Z"/><path class="b" d="M32,165.38V173H28v-7.69l-6.72-11.73h4.45L28.66,159c.47.83,1,1.92,1.44,2.8h.06c.41-.88.94-1.92,1.39-2.74l3-5.48h4.22Z"/><path class="b" d="M62,173l-8.43-10.79c-.74-.94-1.27-1.71-1.86-2.56h-.06c.06.65.06,1.83.06,2.71V173h-4V153.59h4.07L59.91,164c.77,1,1.3,1.74,1.83,2.54h.06c-.06-.91-.06-2.18-.06-3v-9.9h4V173Z"/><path class="b" d="M89,173l-1.89-4.75h-6.6L78.69,173h-4l7.61-19.51h3.07L93.31,173Zm-4.45-11.76a21,21,0,0,1-.71-2.39h0a15.17,15.17,0,0,1-.71,2.33L81.64,165h4.22Z"/><path class="b" d="M107,166.33h-.74V173h-4V153.59h5.31c4.27,0,7.13,2.15,7.13,6.31C114.71,162.41,112.83,166.33,107,166.33Zm.12-9.37h-.85v6.31h.88c2.39,0,3.48-1.21,3.48-3.21C110.67,158.31,109.53,157,107.17,157Z"/><path class="b" d="M137.83,156.89h-5.22V173h-4.07V156.89h-5.69v-3.3h15.89Z"/><path class="b" d="M147.56,173V153.59h4V173Z"/><path class="b" d="M171.32,173.31c-6.34,0-9.93-4.33-9.93-9.82s4.19-10.11,10.82-10.11a11.56,11.56,0,0,1,5.07,1l-.06,3.6a9.39,9.39,0,0,0-4.86-1.36c-4.57,0-6.57,3.18-6.57,6.54,0,3.71,2.39,6.63,6.22,6.63a9.75,9.75,0,0,0,4.83-1.33l1.09,2.83A12.12,12.12,0,0,1,171.32,173.31Z"/><path class="a" d="M36.13,201.39H32.89l-2.79-7.66a21.14,21.14,0,0,1-.84-2.56h-.08a20.84,20.84,0,0,1-.81,2.54l-2.79,7.69H22.48l-6.63-18.5h4.23l3.43,10.64c.28.84.47,1.62.7,2.48h.08a24.85,24.85,0,0,1,.75-2.45l2.48-7.33-1.2-3.34h3.79l3.59,10.36c.33,1,.64,1.81.86,2.7h.08c.2-.89.39-1.67.67-2.65l3.18-10.42h3.87Z"/><path class="a" d="M50.52,201.25V182.9H61.16l-1,3.12H54.34v4.29h5.85v3.15H54.34v4.68h6.8v3.12Z"/><path class="a" d="M76.4,201.25H70.16V182.9h6.07c3.68,0,5.46,2.34,5.46,4.6a4.17,4.17,0,0,1-2.17,3.73v0a4.48,4.48,0,0,1,3.4,4.46C82.92,198.36,80.88,201.25,76.4,201.25Zm-1-15.18H74v4.32h1.87a2.16,2.16,0,0,0,2.09-2.17C77.93,187,77.12,186.07,75.39,186.07Zm.67,7.44H74v4.6h1.95c2.14,0,3.15-.84,3.15-2.42C79.07,194.35,78,193.51,76.06,193.51Z"/><path class="a" d="M91.63,201.25V182.9h3.79v15.21h6.46v3.15Z"/><path class="a" d="M110.1,201.25V182.9h3.82v18.36Z"/><path class="a" d="M137.14,201.25l-8-10.2c-.7-.89-1.2-1.62-1.75-2.42h-.06c.06.61.06,1.73.06,2.56v10.06h-3.79V182.9h3.84l7.69,9.81c.72.92,1.23,1.64,1.73,2.4h.06c-.06-.86-.06-2.06-.06-2.84V182.9h3.79v18.36Z"/><path class="a" d="M150.4,201.25V182.9H161L160,186h-5.82v4.29h5.85v3.15h-5.85v4.68H161v3.12Z"/><path class="a" d="M170.57,192.15a4.88,4.88,0,0,1-1.94-.38,4.79,4.79,0,0,1-1.56-1.06,5.09,5.09,0,0,1-1-1.58,5.08,5.08,0,0,1,0-3.88,4.87,4.87,0,0,1,2.61-2.63,4.87,4.87,0,0,1,1.95-.39,4.81,4.81,0,0,1,1.93.39,4.89,4.89,0,0,1,2.6,2.63,5.08,5.08,0,0,1,0,3.88,5.12,5.12,0,0,1-1,1.58,4.76,4.76,0,0,1-1.56,1.06,4.89,4.89,0,0,1-1.94.38m0-1a3.88,3.88,0,0,0,1.55-.31,3.73,3.73,0,0,0,1.23-.85,3.86,3.86,0,0,0,.81-1.27,4.36,4.36,0,0,0,0-3.14,3.81,3.81,0,0,0-2-2.12,3.95,3.95,0,0,0-3.08,0,3.94,3.94,0,0,0-1.24.85,3.84,3.84,0,0,0-.82,1.27,4.38,4.38,0,0,0,0,3.14,3.88,3.88,0,0,0,.81,1.27,3.72,3.72,0,0,0,1.23.85,3.88,3.88,0,0,0,1.55.31m-1.72-6.53h1.93a2.14,2.14,0,0,1,.8.14,1.68,1.68,0,0,1,.56.35,1.27,1.27,0,0,1,.32.47,1.45,1.45,0,0,1,.1.52,1.62,1.62,0,0,1-.24.87,1.46,1.46,0,0,1-.74.59l1.22,2.07h-1.08l-1.12-1.94h-.79v1.94h-1Zm1.89,2.32a.84.84,0,0,0,.64-.21.79.79,0,0,0,.2-.57.69.69,0,0,0-.21-.56,1,1,0,0,0-.68-.18h-.88V187Z"/><rect class="c" width="177.92" height="230"/></svg>