<svg xmlns="http://www.w3.org/2000/svg" viewBox="0 0 615.12 226.77">
  <defs>
    <style>
      .a {
        fill: #6774b7;
      }

      .b {
        fill: #018566;
      }

      .c {
        fill: #4f2d82;
      }

      .d {
        fill: #ca1d5f;
      }

      .e {
        fill: #79b843;
      }

      .f {
        fill: #911a4e;
      }

      .g {
        fill: #efab1f;
      }

      .h {
        fill: #00a1c1;
      }

      .i {
        fill: #f15a22;
      }

      .j {
        fill: #9ca199;
      }

      .k {
        fill: none;
      }
    </style>
  </defs>
  <title>logo-synaptic_software</title>
  <g>
    <g>
      <path class="a" d="M132.54,209.59H112.2a6.72,6.72,0,0,1,0-13.44h20.34a6.73,6.73,0,0,0,6.72-6.72V184.5a6.72,6.72,0,1,1,13.44,0v4.93A20.18,20.18,0,0,1,132.54,209.59Z"/>
      <path class="b" d="M146.57,27.47a6.72,6.72,0,0,1-6.72-6.72A6.73,6.73,0,0,0,133.13,14H106.68A6.73,6.73,0,0,0,100,20.75a6.72,6.72,0,1,1-13.44,0A20.18,20.18,0,0,1,106.68.59h26.45a20.18,20.18,0,0,1,20.16,20.16A6.72,6.72,0,0,1,146.57,27.47Z"/>
      <path class="a" d="M76.05,209.59H53.93a20.18,20.18,0,0,1-20.16-20.16v-6.12a6.72,6.72,0,1,1,13.44,0v6.12a6.73,6.73,0,0,0,6.72,6.72H76.05a6.72,6.72,0,0,1,0,13.44Z"/>
      <path class="c" d="M93.24,62.62H56.9A20.18,20.18,0,0,1,36.74,42.47a6.72,6.72,0,1,1,13.44,0,6.73,6.73,0,0,0,6.73,6.72H93.24a6.72,6.72,0,0,1,0,13.44Z"/>
      <path class="c" d="M76.46,45.84A20.18,20.18,0,0,1,56.3,25.68a6.72,6.72,0,1,1,13.44,0,6.73,6.73,0,0,0,6.72,6.72,6.72,6.72,0,0,1,0,13.44Z"/>
      <path class="d" d="M93.24,205.44a6.72,6.72,0,0,1-6.72-6.72V20.16a6.73,6.73,0,0,0-6.72-6.72H53.34a6.73,6.73,0,0,0-6.72,6.72,6.72,6.72,0,1,1-13.44,0A20.18,20.18,0,0,1,53.34,0H79.8A20.18,20.18,0,0,1,100,20.16V198.72A6.72,6.72,0,0,1,93.24,205.44Z"/>
      <path class="c" d="M36.16,103.51A20.18,20.18,0,0,1,16,83.35V38.53A20.18,20.18,0,0,1,36.16,18.37H62.61a6.72,6.72,0,0,1,0,13.44H36.16a6.73,6.73,0,0,0-6.73,6.72V83.35a6.73,6.73,0,0,0,6.73,6.72,6.72,6.72,0,0,1,0,13.44Z"/>
      <path class="c" d="M20.15,122.47A20.18,20.18,0,0,1,0,102.32V74.08A20.18,20.18,0,0,1,20.15,53.93a6.72,6.72,0,0,1,0,13.44,6.73,6.73,0,0,0-6.72,6.72v28.23A6.73,6.73,0,0,0,20.15,109a6.72,6.72,0,0,1,0,13.44Z"/>
      <path class="e" d="M20.15,154.48A20.18,20.18,0,0,1,0,134.32V129.2A20.18,20.18,0,0,1,20.15,109a6.72,6.72,0,0,1,0,13.44,6.73,6.73,0,0,0-6.72,6.72v5.12A6.73,6.73,0,0,0,20.15,141a6.72,6.72,0,0,1,0,13.44Z"/>
      <path class="f" d="M165.73,154.47a6.72,6.72,0,0,1,0-13.44,6.73,6.73,0,0,0,6.72-6.72V106.08a6.73,6.73,0,0,0-6.72-6.72,6.72,6.72,0,0,1,0-13.44,20.18,20.18,0,0,1,20.15,20.16v28.23A20.18,20.18,0,0,1,165.73,154.47Z"/>
      <path class="f" d="M166.32,99.36a6.72,6.72,0,0,1,0-13.44A6.72,6.72,0,0,0,173,79.21V74.08a6.73,6.73,0,0,0-6.71-6.72,6.72,6.72,0,0,1,0-13.44,20.18,20.18,0,0,1,20.15,20.16v5.12A20.18,20.18,0,0,1,166.32,99.36Z"/>
      <path class="e" d="M47.8,190H37.94a20.18,20.18,0,0,1-20.16-20.16V131.16a6.72,6.72,0,1,1,13.44,0v38.71a6.73,6.73,0,0,0,6.72,6.72H47.8a6.73,6.73,0,0,0,6.72-6.72,6.72,6.72,0,1,1,13.44,0A20.18,20.18,0,0,1,47.8,190Z"/>
      <path class="f" d="M147.94,190.62a6.72,6.72,0,0,1,0-13.44,6.73,6.73,0,0,0,6.72-6.72V125a6.73,6.73,0,0,0-6.72-6.72H137.68a6.72,6.72,0,0,1,0-13.44h10.26A20.18,20.18,0,0,1,168.1,125v45.42A20.18,20.18,0,0,1,147.94,190.62Z"/>
      <path class="e" d="M74.68,189.44a20.18,20.18,0,0,1-20.16-20.16,6.72,6.72,0,1,1,13.44,0A6.73,6.73,0,0,0,74.68,176a6.72,6.72,0,0,1,0,13.44Z"/>
      <path class="b" d="M110.43,45.84a6.72,6.72,0,0,1,0-13.44,6.73,6.73,0,0,0,6.72-6.72,6.72,6.72,0,1,1,13.44,0A20.18,20.18,0,0,1,110.43,45.84Z"/>
      <path class="a" d="M118.94,226.77H68.15a19.59,19.59,0,0,1-19.56-19.56,6.72,6.72,0,1,1,13.44,0,6.13,6.13,0,0,0,6.12,6.13h50.78a6.14,6.14,0,0,0,6.13-6.13,6.72,6.72,0,1,1,13.44,0A19.59,19.59,0,0,1,118.94,226.77Z"/>
      <path class="g" d="M108.84,171.66a6.72,6.72,0,0,1-6.72-6.72V140.26a20.18,20.18,0,0,1,20.15-20.16,6.72,6.72,0,0,1,0,13.44,6.73,6.73,0,0,0-6.72,6.72v24.68A6.72,6.72,0,0,1,108.84,171.66Z"/>
      <path class="h" d="M138.28,118.33a20.18,20.18,0,0,1-20.16-20.16,6.72,6.72,0,1,1,13.44,0,6.73,6.73,0,0,0,6.72,6.72,6.72,6.72,0,0,1,0,13.44Z"/>
      <path class="h" d="M111.4,118.33a6.72,6.72,0,0,1,0-13.44,6.73,6.73,0,0,0,6.72-6.72,6.72,6.72,0,1,1,13.44,0A20.18,20.18,0,0,1,111.4,118.33Z"/>
      <path class="h" d="M132.54,86.73a6.72,6.72,0,0,1,0-13.44,6.73,6.73,0,0,0,6.72-6.72,6.72,6.72,0,1,1,13.44,0A20.18,20.18,0,0,1,132.54,86.73Z"/>
      <path class="h" d="M143,100a6.72,6.72,0,0,1-6.72-6.72c0-3.64-4.06-6.72-8.87-6.72h-3.19c-4.81,0-8.87,3.08-8.87,6.72a6.72,6.72,0,1,1-13.44,0c0-11.12,10-20.16,22.31-20.16h3.19c12.3,0,22.31,9,22.31,20.16A6.72,6.72,0,0,1,143,100Z"/>
      <path class="b" d="M164.94,53.14a6.72,6.72,0,0,1-6.72-6.72V38.53a6.73,6.73,0,0,0-6.72-6.72H125a6.72,6.72,0,0,1,0-13.44H151.5a20.18,20.18,0,0,1,20.15,20.16v7.89A6.72,6.72,0,0,1,164.94,53.14Z"/>
      <path class="i" d="M42.27,174a6.72,6.72,0,0,1-6.72-6.72V144a20.18,20.18,0,0,1,20.16-20.16,6.72,6.72,0,0,1,0,13.44A6.73,6.73,0,0,0,49,144v23.3A6.72,6.72,0,0,1,42.27,174Z"/>
      <path class="i" d="M56.49,137.1a6.72,6.72,0,0,1-6.72-6.72,20.18,20.18,0,0,1,20.16-20.16,6.72,6.72,0,0,1,0,13.44,6.73,6.73,0,0,0-6.72,6.72A6.72,6.72,0,0,1,56.49,137.1Z"/>
      <path class="b" d="M127.41,66.58a6.72,6.72,0,0,1-6.72-6.72A20.18,20.18,0,0,1,140.86,39.7h7.49a6.72,6.72,0,0,1,0,13.44h-7.49a6.73,6.73,0,0,0-6.72,6.72A6.72,6.72,0,0,1,127.41,66.58Z"/>
      <path class="b" d="M127,67.36H109.83a6.72,6.72,0,0,1,0-13.44H127a6.72,6.72,0,0,1,0,13.44Z"/>
      <path class="e" d="M76.05,168.7A6.72,6.72,0,0,1,69.33,162a6.73,6.73,0,0,0-6.72-6.72,6.72,6.72,0,0,1,0-13.44A20.18,20.18,0,0,1,82.77,162,6.72,6.72,0,0,1,76.05,168.7Z"/>
      <path class="i" d="M41.09,120.7a6.72,6.72,0,0,1,0-13.44c3.64,0,6.72-4.06,6.72-8.87V95.2c0-4.81-3.08-8.87-6.72-8.87a6.72,6.72,0,0,1,0-13.44c11.11,0,20.16,10,20.16,22.31v3.19C61.25,110.69,52.21,120.7,41.09,120.7Z"/>
      <path class="d" d="M70.91,91.66a6.72,6.72,0,0,1-6.72-6.72A20.18,20.18,0,0,1,84.35,64.78l8.74-.19A6.72,6.72,0,0,1,93.38,78l-8.89.19a6.76,6.76,0,0,0-6.87,6.72A6.72,6.72,0,0,1,70.91,91.66Z"/>
      <path class="i" d="M71.9,123.66a6.72,6.72,0,0,1-6.72-6.72V102.72a6.72,6.72,0,1,1,13.44,0v14.22A6.72,6.72,0,0,1,71.9,123.66Z"/>
      <path class="g" d="M129.59,155.15a6.72,6.72,0,0,1,0-13.44A6.73,6.73,0,0,0,136.3,135a6.72,6.72,0,1,1,13.44,0A20.18,20.18,0,0,1,129.59,155.15Z"/>
      <path class="g" d="M143,168.59a6.72,6.72,0,0,1-6.72-6.72,6.73,6.73,0,0,0-6.72-6.72,6.72,6.72,0,0,1,0-13.44,20.18,20.18,0,0,1,20.15,20.16A6.72,6.72,0,0,1,143,168.59Z"/>
      <path class="f" d="M147.94,190.62h-9.86a20.18,20.18,0,0,1-20.16-20.16,6.72,6.72,0,1,1,13.44,0,6.73,6.73,0,0,0,6.72,6.72h9.86a6.72,6.72,0,0,1,0,13.44Z"/>
      <path class="f" d="M111,189.44A6.72,6.72,0,0,1,111,176a6.73,6.73,0,0,0,6.72-6.72,6.72,6.72,0,1,1,13.44,0A20.18,20.18,0,0,1,111,189.44Z"/>
      <path class="b" d="M164.94,83.36a6.72,6.72,0,0,1-6.72-6.72V46.42a6.72,6.72,0,1,1,13.44,0V76.65A6.72,6.72,0,0,1,164.94,83.36Z"/>
    </g>
    <g>
      <path class="j" d="M231.5,108.13a17.63,17.63,0,0,1-10-2.95l2.52-4.7a13,13,0,0,0,7.17,2.42c2.28,0,4.85-.85,4.85-3.23,0-4.13-7.6-4.85-11.4-9.17a8.14,8.14,0,0,1-2-5.56c0-4.75,3.75-8.93,10.64-8.93a16,16,0,0,1,7.89,1.9l-.09,5.61a15.4,15.4,0,0,0-7.46-2.28c-2.33,0-4.13,1-4.13,2.85,0,5.42,13.44,4.94,13.44,14.78C242.95,104.57,237.91,108.13,231.5,108.13Z"/>
      <path class="j" d="M273.12,95.35v12.3h-6.51V95.26L255.78,76.35H263l4.75,8.74c.76,1.33,1.66,3.09,2.33,4.51h.09c.67-1.43,1.52-3.09,2.23-4.42l4.8-8.84H284Z"/>
      <path class="j" d="M321.44,107.66,307.86,90.27c-1.19-1.52-2-2.76-3-4.13h-.09c.09,1,.09,2.94.09,4.37v17.15H298.4V76.35H305l13.11,16.72c1.24,1.57,2.09,2.8,2.95,4.09h.09c-.09-1.47-.09-3.52-.09-4.85v-16h6.46v31.31Z"/>
      <path class="j" d="M364.92,107.66l-3-7.65H351.24l-2.9,7.65h-6.41l12.26-31.45h4.94l12.78,31.45Zm-7.17-19a34,34,0,0,1-1.14-3.85h0a24.6,24.6,0,0,1-1.14,3.75l-2.33,6.18h6.79Z"/>
      <path class="j" d="M394,96.87h-1.19v10.78h-6.51V76.35h8.55c6.89,0,11.5,3.47,11.5,10.17C406.4,90.56,403.36,96.87,394,96.87Zm.19-15.11h-1.38V91.93h1.43c3.85,0,5.61-1.95,5.61-5.18C399.89,84,398,81.77,394.24,81.77Z"/>
      <path class="j" d="M443.65,81.67h-8.41v26h-6.56v-26h-9.17V76.35h25.61Z"/>
      <path class="j" d="M459.33,107.66V76.35h6.51v31.31Z"/>
      <path class="j" d="M497.63,108.13c-10.21,0-16-7-16-15.82S488.36,76,499.05,76a18.63,18.63,0,0,1,8.17,1.66l-.09,5.8a15.14,15.14,0,0,0-7.84-2.19c-7.36,0-10.59,5.13-10.59,10.55,0,6,3.85,10.69,10,10.69a15.71,15.71,0,0,0,7.79-2.14l1.76,4.56A19.53,19.53,0,0,1,497.63,108.13Z"/>
    </g>
    <g>
      <path class="j" d="M230.87,153.61a16.67,16.67,0,0,1-9.43-2.78l2.38-4.44a12.26,12.26,0,0,0,6.78,2.29c2.15,0,4.58-.81,4.58-3.05,0-3.91-7.18-4.58-10.77-8.67a7.69,7.69,0,0,1-1.89-5.25c0-4.49,3.55-8.44,10.06-8.44a15.16,15.16,0,0,1,7.45,1.8l-.09,5.3a14.55,14.55,0,0,0-7-2.15c-2.2,0-3.91,1-3.91,2.69,0,5.12,12.7,4.67,12.7,14C241.69,150.25,236.93,153.61,230.87,153.61Z"/>
      <path class="j" d="M281,149.21a16.75,16.75,0,0,1-21.68.81,14.85,14.85,0,0,1-4.71-11.31,15.54,15.54,0,0,1,4.26-11,15.08,15.08,0,0,1,11-4.4,14.26,14.26,0,0,1,15.26,15.08A15.2,15.2,0,0,1,281,149.21Zm-11.13-20.92c-5.12,0-8.84,3.73-8.84,10.19s3.73,10.19,8.84,10.19,8.75-3.73,8.75-10.19S275,128.29,269.83,128.29Z"/>
      <path class="j" d="M315.12,128.61h-9.47v7H315l0,5h-9.38v12.48H299.5V123.58H316.7Z"/>
      <path class="j" d="M351.39,128.61h-7.95v24.56h-6.2V128.61h-8.66v-5h24.2Z"/>
      <path class="j" d="M395.88,153.39h-5.21L386.18,141a34.33,34.33,0,0,1-1.35-4.13h-.13a33.41,33.41,0,0,1-1.3,4.09l-4.49,12.39h-5L363.2,123.58H370l5.52,17.15c.45,1.35.76,2.6,1.12,4h.13a40.18,40.18,0,0,1,1.21-4L382,129l-1.93-5.39h6.1l5.79,16.7c.54,1.57,1,2.92,1.39,4.35h.14c.31-1.44.63-2.69,1.08-4.26l5.12-16.79h6.24Z"/>
      <path class="j" d="M435.69,153.16l-2.87-7.23H422.76L420,153.16H414l11.58-29.72h4.67l12.08,29.72Zm-6.78-17.91a31.78,31.78,0,0,1-1.08-3.64h0a23.26,23.26,0,0,1-1.08,3.55l-2.2,5.84h6.42Z"/>
      <path class="j" d="M471.24,153.16c-4.49-7.68-6.29-11-7.36-11.4h-2.29v11.4h-6.15V123.58h8.62c7.9,0,10.77,3.91,10.77,8.49a8.48,8.48,0,0,1-5.39,7.68v0c1.48.85,4.35,5.84,8.8,13.38Zm-7-24.47h-2.6v8.57h2.6a4.44,4.44,0,0,0,4.53-4.53C468.72,130.45,467.1,128.7,464.19,128.7Z"/>
      <path class="j" d="M491.39,153.16V123.58h17.15l-1.62,5h-9.38v6.91H507v5.07h-9.43v7.54h11v5Z"/>
    </g>
    <path class="j" d="M521.74,90.67a7.16,7.16,0,0,1-2.84-.56,7,7,0,0,1-2.29-1.55,7.47,7.47,0,0,1-1.53-2.31,7.46,7.46,0,0,1,0-5.69,7.14,7.14,0,0,1,3.82-3.85,7.15,7.15,0,0,1,2.86-.58,7.06,7.06,0,0,1,2.84.58,7.18,7.18,0,0,1,3.81,3.85,7.46,7.46,0,0,1,0,5.69,7.51,7.51,0,0,1-1.53,2.31,7,7,0,0,1-2.29,1.55,7.18,7.18,0,0,1-2.84.56m0-1.4a5.69,5.69,0,0,0,2.27-.45,5.47,5.47,0,0,0,1.8-1.24A5.66,5.66,0,0,0,527,85.72a6.4,6.4,0,0,0,0-4.6A5.58,5.58,0,0,0,524,78a5.79,5.79,0,0,0-4.52,0,5.77,5.77,0,0,0-1.81,1.25,5.64,5.64,0,0,0-1.2,1.87,6.43,6.43,0,0,0,0,4.6,5.69,5.69,0,0,0,1.19,1.86,5.46,5.46,0,0,0,1.8,1.24,5.7,5.7,0,0,0,2.27.45m-2.52-9.58h2.83a3.14,3.14,0,0,1,1.18.2,2.46,2.46,0,0,1,.82.51,1.87,1.87,0,0,1,.47.7,2.13,2.13,0,0,1,.14.76,2.38,2.38,0,0,1-.35,1.28,2.15,2.15,0,0,1-1.08.86L525,87h-1.59l-1.64-2.85h-1.17V87h-1.4Zm2.77,3.4a1.23,1.23,0,0,0,.94-.31,1.16,1.16,0,0,0,.29-.83,1,1,0,0,0-.31-.82,1.52,1.52,0,0,0-1-.27h-1.29v2.23Z"/>
    <rect class="k" width="615.12" height="226.77"/>
  </g>
</svg>
