<svg xmlns="http://www.w3.org/2000/svg" viewBox="0 0 615.12 226.77">
  <defs>
    <style>
      .a {
        fill: #8c978e;
      }

      .b {
        fill: #a90059;
      }

      .c {
        fill: none;
      }
    </style>
  </defs>
  <title>logo-synaptic_product_fund</title>
  <g>
    <g>
      <path class="a" d="M93.24,62.62H56.9A20.18,20.18,0,0,1,36.74,42.47a6.72,6.72,0,0,1,13.44,0,6.72,6.72,0,0,0,6.72,6.71H93.24a6.72,6.72,0,1,1,0,13.44Z"/>
      <path class="a" d="M76.45,45.84A20.18,20.18,0,0,1,56.3,25.68a6.72,6.72,0,0,1,13.44,0,6.73,6.73,0,0,0,6.72,6.72,6.72,6.72,0,1,1,0,13.44Z"/>
      <path class="a" d="M93.24,205.43a6.72,6.72,0,0,1-6.72-6.72V20.16a6.73,6.73,0,0,0-6.72-6.72H53.34a6.73,6.73,0,0,0-6.72,6.72,6.72,6.72,0,0,1-13.44,0A20.18,20.18,0,0,1,53.34,0H79.8A20.18,20.18,0,0,1,100,20.16V198.72A6.72,6.72,0,0,1,93.24,205.43Z"/>
      <path class="a" d="M146.57,27.47a6.72,6.72,0,0,1-6.72-6.72A6.73,6.73,0,0,0,133.13,14H106.68A6.72,6.72,0,0,0,100,20.75a6.72,6.72,0,0,1-13.44,0A20.18,20.18,0,0,1,106.68.6h26.45a20.18,20.18,0,0,1,20.16,20.15A6.72,6.72,0,0,1,146.57,27.47Z"/>
      <path class="a" d="M36.16,103.51A20.18,20.18,0,0,1,16,83.36V38.53A20.18,20.18,0,0,1,36.16,18.37H62.61a6.72,6.72,0,0,1,0,13.44H36.16a6.73,6.73,0,0,0-6.72,6.72V83.36a6.73,6.73,0,0,0,6.72,6.72,6.72,6.72,0,0,1,0,13.44Z"/>
      <path class="a" d="M20.16,122.47A20.18,20.18,0,0,1,0,102.32V74.08A20.18,20.18,0,0,1,20.16,53.93a6.72,6.72,0,1,1,0,13.44,6.73,6.73,0,0,0-6.72,6.72v28.23A6.73,6.73,0,0,0,20.16,109a6.72,6.72,0,1,1,0,13.44Z"/>
      <path class="a" d="M20.16,154.47A20.18,20.18,0,0,1,0,134.32v-5.12A20.18,20.18,0,0,1,20.16,109a6.72,6.72,0,1,1,0,13.44,6.73,6.73,0,0,0-6.72,6.72v5.12A6.73,6.73,0,0,0,20.16,141a6.72,6.72,0,1,1,0,13.44Z"/>
      <path class="b" d="M165.72,154.47a6.72,6.72,0,0,1,0-13.44,6.72,6.72,0,0,0,6.71-6.72V106.08a6.72,6.72,0,0,0-6.71-6.72,6.72,6.72,0,0,1,0-13.44,20.18,20.18,0,0,1,20.15,20.15v28.23A20.18,20.18,0,0,1,165.72,154.47Z"/>
      <path class="b" d="M166.31,99.37a6.72,6.72,0,0,1,0-13.44A6.73,6.73,0,0,0,173,79.21V74.08a6.73,6.73,0,0,0-6.72-6.72,6.72,6.72,0,1,1,0-13.44,20.18,20.18,0,0,1,20.16,20.16v5.12A20.18,20.18,0,0,1,166.31,99.37Z"/>
      <path class="a" d="M47.8,190H37.94a20.18,20.18,0,0,1-20.16-20.16V131.16a6.72,6.72,0,0,1,13.44,0v38.71a6.73,6.73,0,0,0,6.72,6.72H47.8a6.73,6.73,0,0,0,6.72-6.72,6.72,6.72,0,1,1,13.44,0A20.18,20.18,0,0,1,47.8,190Z"/>
      <path class="b" d="M147.95,190.62a6.72,6.72,0,0,1,0-13.44,6.72,6.72,0,0,0,6.71-6.72V125a6.72,6.72,0,0,0-6.71-6.72H137.68a6.72,6.72,0,1,1,0-13.44h10.27A20.18,20.18,0,0,1,168.1,125v45.42A20.18,20.18,0,0,1,147.95,190.62Z"/>
      <path class="a" d="M74.67,189.43a20.18,20.18,0,0,1-20.16-20.15,6.72,6.72,0,1,1,13.44,0A6.72,6.72,0,0,0,74.67,176a6.72,6.72,0,1,1,0,13.44Z"/>
      <path class="a" d="M110.42,45.84a6.72,6.72,0,0,1,0-13.44,6.73,6.73,0,0,0,6.72-6.72,6.72,6.72,0,1,1,13.44,0A20.18,20.18,0,0,1,110.42,45.84Z"/>
      <path class="a" d="M76.05,209.58H53.93a20.18,20.18,0,0,1-20.16-20.16v-6.11a6.72,6.72,0,1,1,13.44,0v6.11a6.73,6.73,0,0,0,6.72,6.72H76.05a6.72,6.72,0,0,1,0,13.44Z"/>
      <path class="a" d="M132.54,209.58H112.2a6.72,6.72,0,0,1,0-13.44h20.34a6.73,6.73,0,0,0,6.72-6.72V184.5a6.72,6.72,0,0,1,13.44,0v4.93A20.18,20.18,0,0,1,132.54,209.58Z"/>
      <path class="a" d="M118.94,226.77H68.16A19.59,19.59,0,0,1,48.59,207.2a6.72,6.72,0,0,1,13.44,0,6.14,6.14,0,0,0,6.13,6.13h50.78a6.13,6.13,0,0,0,6.12-6.13,6.72,6.72,0,0,1,13.44,0A19.58,19.58,0,0,1,118.94,226.77Z"/>
      <path class="a" d="M108.83,171.65a6.72,6.72,0,0,1-6.72-6.72V140.26a20.18,20.18,0,0,1,20.16-20.16,6.72,6.72,0,1,1,0,13.44,6.73,6.73,0,0,0-6.72,6.72v24.67A6.72,6.72,0,0,1,108.83,171.65Z"/>
      <path class="a" d="M138.27,118.33a20.18,20.18,0,0,1-20.16-20.16,6.72,6.72,0,0,1,13.44,0,6.73,6.73,0,0,0,6.72,6.72,6.72,6.72,0,1,1,0,13.44Z"/>
      <path class="a" d="M111.4,118.33a6.72,6.72,0,0,1,0-13.44,6.72,6.72,0,0,0,6.71-6.72,6.72,6.72,0,0,1,13.44,0A20.18,20.18,0,0,1,111.4,118.33Z"/>
      <path class="a" d="M132.54,86.73a6.72,6.72,0,0,1,0-13.44,6.72,6.72,0,0,0,6.72-6.72,6.72,6.72,0,1,1,13.44,0A20.18,20.18,0,0,1,132.54,86.73Z"/>
      <path class="a" d="M143,100a6.72,6.72,0,0,1-6.72-6.72c0-3.64-4.06-6.72-8.86-6.72h-3.2c-4.81,0-8.87,3.08-8.87,6.72a6.72,6.72,0,1,1-13.44,0c0-11.11,10-20.16,22.31-20.16h3.2c12.3,0,22.3,9,22.3,20.16A6.72,6.72,0,0,1,143,100Z"/>
      <path class="a" d="M164.93,83.36a6.72,6.72,0,0,1-6.72-6.72V38.53a6.72,6.72,0,0,0-6.71-6.72H125a6.72,6.72,0,0,1,0-13.44H151.5a20.18,20.18,0,0,1,20.15,20.15V76.64A6.72,6.72,0,0,1,164.93,83.36Z"/>
      <path class="a" d="M42.27,174a6.72,6.72,0,0,1-6.72-6.72V144a20.18,20.18,0,0,1,20.16-20.15,6.72,6.72,0,1,1,0,13.44A6.73,6.73,0,0,0,49,144v23.3A6.72,6.72,0,0,1,42.27,174Z"/>
      <path class="a" d="M56.5,137.09a6.72,6.72,0,0,1-6.72-6.72,20.18,20.18,0,0,1,20.16-20.15,6.72,6.72,0,0,1,0,13.44,6.72,6.72,0,0,0-6.72,6.72A6.72,6.72,0,0,1,56.5,137.09Z"/>
      <path class="a" d="M127.42,66.58a6.72,6.72,0,0,1-6.72-6.72A20.18,20.18,0,0,1,140.85,39.7h7.5a6.72,6.72,0,1,1,0,13.44h-7.5a6.72,6.72,0,0,0-6.71,6.72A6.72,6.72,0,0,1,127.42,66.58Z"/>
      <path class="a" d="M127,67.36H109.83a6.72,6.72,0,1,1,0-13.44H127a6.72,6.72,0,1,1,0,13.44Z"/>
      <path class="a" d="M76.05,168.7A6.72,6.72,0,0,1,69.34,162a6.73,6.73,0,0,0-6.72-6.72,6.72,6.72,0,1,1,0-13.44A20.18,20.18,0,0,1,82.77,162,6.72,6.72,0,0,1,76.05,168.7Z"/>
      <path class="a" d="M41.09,120.69a6.72,6.72,0,0,1,0-13.44c3.64,0,6.72-4.06,6.72-8.87V95.2c0-4.81-3.08-8.87-6.72-8.87a6.72,6.72,0,0,1,0-13.44c11.11,0,20.16,10,20.16,22.31v3.19C61.25,110.69,52.21,120.69,41.09,120.69Z"/>
      <path class="a" d="M70.91,91.66a6.72,6.72,0,0,1-6.72-6.72A20.18,20.18,0,0,1,84.35,64.78l8.75-.19A6.64,6.64,0,0,1,100,71.17,6.72,6.72,0,0,1,93.38,78l-8.89.19a6.76,6.76,0,0,0-6.86,6.73A6.72,6.72,0,0,1,70.91,91.66Z"/>
      <path class="a" d="M71.9,123.66a6.72,6.72,0,0,1-6.72-6.72V102.72a6.72,6.72,0,0,1,13.44,0v14.22A6.72,6.72,0,0,1,71.9,123.66Z"/>
      <path class="a" d="M129.58,155.15a6.72,6.72,0,1,1,0-13.44A6.72,6.72,0,0,0,136.3,135a6.72,6.72,0,0,1,13.44,0A20.18,20.18,0,0,1,129.58,155.15Z"/>
      <path class="a" d="M143,168.59a6.72,6.72,0,0,1-6.72-6.72,6.73,6.73,0,0,0-6.72-6.72,6.72,6.72,0,1,1,0-13.44,20.18,20.18,0,0,1,20.16,20.16A6.72,6.72,0,0,1,143,168.59Z"/>
      <path class="b" d="M147.95,190.62h-9.86a20.18,20.18,0,0,1-20.16-20.16,6.72,6.72,0,1,1,13.44,0,6.73,6.73,0,0,0,6.72,6.72h9.86a6.72,6.72,0,0,1,0,13.44Z"/>
      <path class="b" d="M111,189.43A6.72,6.72,0,1,1,111,176a6.72,6.72,0,0,0,6.71-6.72,6.72,6.72,0,1,1,13.44,0A20.18,20.18,0,0,1,111,189.43Z"/>
    </g>
    <g>
      <path class="a" d="M231.43,91.34a17.7,17.7,0,0,1-10-3l2.53-4.72a13,13,0,0,0,7.2,2.43c2.29,0,4.87-.86,4.87-3.24,0-4.15-7.63-4.87-11.45-9.21a8.17,8.17,0,0,1-2-5.58c0-4.77,3.77-9,10.68-9A16.1,16.1,0,0,1,241.16,61l-.1,5.63a15.46,15.46,0,0,0-7.49-2.29c-2.34,0-4.15,1-4.15,2.86,0,5.44,13.5,5,13.5,14.83C242.92,87.76,237.87,91.34,231.43,91.34Z"/>
      <path class="a" d="M273.22,78.51V90.86h-6.54V78.41l-10.87-19H263l4.77,8.78c.76,1.34,1.67,3.1,2.34,4.53h.1c.67-1.43,1.53-3.1,2.24-4.44l4.82-8.87h6.82Z"/>
      <path class="a" d="M321.73,90.86,308.09,73.4c-1.19-1.53-2.05-2.77-3-4.15H305c.1,1,.1,3,.1,4.39V90.86H298.6V59.43h6.58l13.16,16.79c1.24,1.57,2.1,2.81,3,4.1h.1c-.1-1.48-.1-3.53-.1-4.87v-16h6.49V90.86Z"/>
      <path class="a" d="M365.38,90.86l-3.05-7.68H351.64l-2.91,7.68h-6.44L354.6,59.28h5l12.83,31.58Zm-7.2-19A34.09,34.09,0,0,1,357,68h0a24.7,24.7,0,0,1-1.14,3.77l-2.34,6.2h6.82Z"/>
      <path class="a" d="M394.62,80h-1.19V90.86H386.9V59.43h8.59c6.92,0,11.54,3.48,11.54,10.21C407,73.69,404,80,394.62,80Zm.19-15.17h-1.38V75.07h1.43c3.86,0,5.63-2,5.63-5.2C400.49,67.06,398.63,64.86,394.81,64.86Z"/>
      <path class="a" d="M444.42,64.77H436V90.86H429.4V64.77h-9.21V59.43H445.9Z"/>
      <path class="a" d="M460.17,90.86V59.43h6.53V90.86Z"/>
      <path class="a" d="M498.62,91.34c-10.25,0-16.07-7-16.07-15.88s6.77-16.36,17.5-16.36a18.71,18.71,0,0,1,8.2,1.67l-.1,5.82a15.2,15.2,0,0,0-7.87-2.19c-7.39,0-10.64,5.15-10.64,10.59,0,6,3.86,10.73,10.06,10.73a15.78,15.78,0,0,0,7.82-2.15l1.76,4.58A19.61,19.61,0,0,1,498.62,91.34Z"/>
    </g>
    <g>
      <path class="b" d="M230,126.32H228.9v10.23h-6.17v-29.7h8.11c6.54,0,10.91,3.29,10.91,9.65C241.75,120.32,238.86,126.32,230,126.32Zm.18-14.33H228.9v9.65h1.35c3.65,0,5.32-1.85,5.32-4.91C235.57,114.06,233.82,112,230.21,112Z"/>
      <path class="b" d="M271.76,136.55c-4.51-7.71-6.31-11-7.39-11.45h-2.3v11.45H255.9v-29.7h8.65c7.93,0,10.82,3.92,10.82,8.52a8.52,8.52,0,0,1-5.41,7.71v0c1.49.86,4.37,5.86,8.83,13.43ZM264.69,112h-2.61v8.61h2.61a4.46,4.46,0,0,0,4.55-4.55C269.24,113.74,267.62,112,264.69,112Z"/>
      <path class="b" d="M315.65,132.58a16.82,16.82,0,0,1-21.77.81A14.91,14.91,0,0,1,289.15,122a15.61,15.61,0,0,1,4.28-11.09,15.14,15.14,0,0,1,11-4.42,14.31,14.31,0,0,1,15.32,15.14A15.26,15.26,0,0,1,315.65,132.58Zm-11.18-21c-5.14,0-8.88,3.74-8.88,10.23S299.33,132,304.47,132s8.79-3.74,8.79-10.23S309.61,111.58,304.47,111.58Z"/>
      <path class="b" d="M343.59,136.55h-9.33v-29.7h9.87c10.59,0,16.54,5.72,16.54,14.6C360.67,130.6,353.87,136.55,343.59,136.55Zm.14-24.56h-3.29v19.47h3.38c7.35,0,10.23-4.64,10.23-9.83C354,115.77,350.53,112,343.72,112Z"/>
      <path class="b" d="M397.71,133.57c-2.21,2.21-5.41,3.43-9.92,3.43s-7.62-1-9.74-3.07-2.93-4.87-2.93-8.34V106.84h6.13V125.1a7.11,7.11,0,0,0,1.67,4.87,6.52,6.52,0,0,0,5,1.85c2.39,0,4.1-.63,5.18-1.85a6.43,6.43,0,0,0,1.49-4.6V106.84h6.17V125C400.73,128.57,399.74,131.54,397.71,133.57Z"/>
      <path class="b" d="M430.43,137c-9.69,0-15.19-6.63-15.19-15s6.4-15.46,16.54-15.46a17.67,17.67,0,0,1,7.75,1.58l-.09,5.5a14.36,14.36,0,0,0-7.44-2.07c-7,0-10.05,4.87-10.05,10,0,5.68,3.65,10.14,9.51,10.14a14.9,14.9,0,0,0,7.39-2l1.67,4.33A18.53,18.53,0,0,1,430.43,137Z"/>
      <path class="b" d="M475.23,111.89h-8v24.65H461V111.89h-8.7v-5h24.29Z"/>
      <path class="b" d="M250.31,186c-2.57,0-5.09-1.22-7.53-3.2a15.82,15.82,0,0,1-10.14,3.38c-6.08,0-10.32-3.65-10.32-8.79,0-4.1,2.84-6.72,6.08-8.25-1.71-1.94-3.29-3.65-3.29-6.54,0-3.61,3.29-6.9,9.06-6.9s9,3,9,6.94c0,3.47-2.57,5.9-5.86,7.62,1.49,1.58,4.06,4.06,5.9,5.72a14.63,14.63,0,0,0,3.47-6.22l5.18,1.26a22.11,22.11,0,0,1-4.82,8.16c2.12,1.49,3.47,2.25,5.86,2l1,4A8.57,8.57,0,0,1,250.31,186Zm-18.66-13.3c-1.94,1.08-3,2.3-3,4.1,0,2.7,2.07,4.51,5,4.51a8.27,8.27,0,0,0,5-1.71A84.28,84.28,0,0,1,231.65,172.68Zm2.48-12.62c-1.89,0-2.79,1.13-2.79,2.39s.63,2.39,2.52,4.19c2.21-1.17,3.2-2.7,3.2-4S236.07,160.06,234.13,160.06Z"/>
      <path class="b" d="M304.48,161.06H295v7.08h9.38l0,5H295v12.53H288.8V156h17.26Z"/>
      <path class="b" d="M342.79,182.74c-2.21,2.21-5.41,3.43-9.92,3.43s-7.62-1-9.74-3.07-2.93-4.87-2.93-8.34V156h6.13v18.25a7.11,7.11,0,0,0,1.67,4.87,6.53,6.53,0,0,0,5,1.85c2.39,0,4.1-.63,5.18-1.85a6.43,6.43,0,0,0,1.49-4.6V156h6.17v18.12C345.81,177.73,344.82,180.71,342.79,182.74Z"/>
      <path class="b" d="M383.44,185.71l-12.89-16.5c-1.13-1.44-1.94-2.61-2.84-3.92h-.09c.09,1,.09,2.79.09,4.15v16.27h-6.13V156h6.22l12.44,15.87c1.17,1.49,2,2.66,2.79,3.88h.09c-.09-1.4-.09-3.33-.09-4.6V156h6.13v29.7Z"/>
      <path class="b" d="M414.21,185.71h-9.33V156h9.87c10.59,0,16.54,5.72,16.54,14.6C431.3,179.76,424.49,185.71,414.21,185.71Zm.14-24.56h-3.29v19.47h3.38c7.35,0,10.23-4.64,10.23-9.83C424.67,164.93,421.16,161.15,414.35,161.15Z"/>
    </g>
    <rect class="c" width="615.12" height="226.77"/>
  </g>
</svg>
