<svg xmlns="http://www.w3.org/2000/svg" viewBox="0 0 615.12 226.77">
  <defs>
    <style>
      .a {
        fill: #5481c1;
      }

      .b {
        fill: #8c978e;
      }

      .c {
        fill: none;
      }
    </style>
  </defs>
  <title>logo-synaptic_web_services</title>
  <g>
    <g>
      <path class="a" d="M132.54,209.58H112.2a6.72,6.72,0,0,1,0-13.44h20.34a6.73,6.73,0,0,0,6.72-6.72V184.5a6.72,6.72,0,0,1,13.44,0v4.93A20.18,20.18,0,0,1,132.54,209.58Z"/>
      <path class="b" d="M93.23,62.62H56.89A20.18,20.18,0,0,1,36.74,42.47a6.72,6.72,0,0,1,13.44,0,6.72,6.72,0,0,0,6.71,6.71H93.23a6.72,6.72,0,1,1,0,13.44Z"/>
      <path class="b" d="M76.45,45.84A20.18,20.18,0,0,1,56.29,25.68a6.72,6.72,0,0,1,13.44,0,6.73,6.73,0,0,0,6.72,6.72,6.72,6.72,0,0,1,0,13.44Z"/>
      <path class="b" d="M93.23,205.44a6.72,6.72,0,0,1-6.72-6.72V20.16a6.73,6.73,0,0,0-6.72-6.72H53.34a6.73,6.73,0,0,0-6.71,6.72,6.72,6.72,0,0,1-13.44,0A20.18,20.18,0,0,1,53.34,0H79.79A20.18,20.18,0,0,1,100,20.16V198.72A6.72,6.72,0,0,1,93.23,205.44Z"/>
      <path class="b" d="M146.56,27.47a6.72,6.72,0,0,1-6.72-6.72A6.72,6.72,0,0,0,133.13,14H106.67A6.73,6.73,0,0,0,100,20.75a6.72,6.72,0,1,1-13.44,0A20.18,20.18,0,0,1,106.67.6h26.45a20.18,20.18,0,0,1,20.16,20.15A6.72,6.72,0,0,1,146.56,27.47Z"/>
      <path class="b" d="M36.15,103.52A20.18,20.18,0,0,1,16,83.36V38.53A20.18,20.18,0,0,1,36.15,18.37H62.61a6.72,6.72,0,0,1,0,13.44H36.15a6.72,6.72,0,0,0-6.72,6.71V83.36a6.72,6.72,0,0,0,6.72,6.72,6.72,6.72,0,0,1,0,13.44Z"/>
      <path class="b" d="M20.15,122.47A20.18,20.18,0,0,1,0,102.32V74.08A20.18,20.18,0,0,1,20.15,53.93a6.72,6.72,0,0,1,0,13.44,6.72,6.72,0,0,0-6.71,6.72v28.24A6.72,6.72,0,0,0,20.15,109a6.72,6.72,0,1,1,0,13.44Z"/>
      <path class="b" d="M20.15,154.47A20.18,20.18,0,0,1,0,134.32v-5.12A20.18,20.18,0,0,1,20.15,109a6.72,6.72,0,1,1,0,13.44,6.72,6.72,0,0,0-6.71,6.72v5.12A6.72,6.72,0,0,0,20.15,141a6.72,6.72,0,0,1,0,13.44Z"/>
      <path class="b" d="M165.72,154.47a6.72,6.72,0,0,1,0-13.44,6.73,6.73,0,0,0,6.72-6.72V106.08a6.72,6.72,0,0,0-6.72-6.72,6.72,6.72,0,1,1,0-13.44,20.18,20.18,0,0,1,20.16,20.15v28.23A20.18,20.18,0,0,1,165.72,154.47Z"/>
      <path class="b" d="M166.31,99.37a6.72,6.72,0,1,1,0-13.44A6.72,6.72,0,0,0,173,79.21V74.08a6.72,6.72,0,0,0-6.71-6.72,6.72,6.72,0,1,1,0-13.44,20.18,20.18,0,0,1,20.15,20.15v5.13A20.18,20.18,0,0,1,166.31,99.37Z"/>
      <path class="b" d="M47.8,190H37.93a20.18,20.18,0,0,1-20.16-20.16V131.16a6.72,6.72,0,1,1,13.44,0v38.71a6.73,6.73,0,0,0,6.72,6.72H47.8a6.73,6.73,0,0,0,6.72-6.72,6.72,6.72,0,0,1,13.44,0A20.18,20.18,0,0,1,47.8,190Z"/>
      <path class="b" d="M147.94,190.62h-9.87a20.18,20.18,0,0,1-20.15-20.16,6.72,6.72,0,0,1,13.44,0,6.72,6.72,0,0,0,6.71,6.72h9.87a6.72,6.72,0,1,1,0,13.44Z"/>
      <path class="b" d="M147.94,190.62a6.72,6.72,0,1,1,0-13.44,6.73,6.73,0,0,0,6.72-6.72V125a6.73,6.73,0,0,0-6.72-6.72H137.68a6.72,6.72,0,0,1,0-13.44h10.27A20.18,20.18,0,0,1,168.1,125v45.42A20.18,20.18,0,0,1,147.94,190.62Z"/>
      <path class="b" d="M74.67,189.44a20.18,20.18,0,0,1-20.16-20.15,6.72,6.72,0,1,1,13.44,0A6.72,6.72,0,0,0,74.67,176a6.72,6.72,0,0,1,0,13.44Z"/>
      <path class="b" d="M111,189.44A6.72,6.72,0,1,1,111,176a6.72,6.72,0,0,0,6.72-6.72,6.72,6.72,0,1,1,13.44,0A20.18,20.18,0,0,1,111,189.44Z"/>
      <path class="b" d="M110.42,45.84a6.72,6.72,0,1,1,0-13.44,6.72,6.72,0,0,0,6.71-6.72,6.72,6.72,0,0,1,13.44,0A20.18,20.18,0,0,1,110.42,45.84Z"/>
      <path class="a" d="M76,209.58H53.93a20.18,20.18,0,0,1-20.16-20.16v-6.11a6.72,6.72,0,1,1,13.44,0v6.11a6.73,6.73,0,0,0,6.72,6.72H76a6.72,6.72,0,0,1,0,13.44Z"/>
      <path class="a" d="M118.93,226.77H68.16A19.59,19.59,0,0,1,48.59,207.2a6.72,6.72,0,0,1,13.44,0,6.14,6.14,0,0,0,6.13,6.13h50.78a6.13,6.13,0,0,0,6.12-6.13,6.72,6.72,0,0,1,13.44,0A19.59,19.59,0,0,1,118.93,226.77Z"/>
      <path class="b" d="M108.84,171.65a6.72,6.72,0,0,1-6.72-6.72V140.26a20.18,20.18,0,0,1,20.15-20.16,6.72,6.72,0,1,1,0,13.44,6.72,6.72,0,0,0-6.71,6.72v24.67A6.72,6.72,0,0,1,108.84,171.65Z"/>
      <path class="b" d="M138.27,118.33a20.18,20.18,0,0,1-20.16-20.16,6.72,6.72,0,1,1,13.44,0,6.73,6.73,0,0,0,6.72,6.72,6.72,6.72,0,0,1,0,13.44Z"/>
      <path class="b" d="M111.39,118.33a6.72,6.72,0,0,1,0-13.44,6.73,6.73,0,0,0,6.72-6.72,6.72,6.72,0,1,1,13.44,0A20.18,20.18,0,0,1,111.39,118.33Z"/>
      <path class="b" d="M132.54,86.73a6.72,6.72,0,1,1,0-13.44,6.72,6.72,0,0,0,6.72-6.72,6.72,6.72,0,0,1,13.44,0A20.18,20.18,0,0,1,132.54,86.73Z"/>
      <path class="b" d="M143,100a6.72,6.72,0,0,1-6.72-6.72c0-3.64-4.06-6.72-8.87-6.72h-3.19c-4.81,0-8.87,3.08-8.87,6.72a6.72,6.72,0,0,1-13.44,0c0-11.12,10-20.16,22.31-20.16h3.19c12.3,0,22.31,9,22.31,20.16A6.72,6.72,0,0,1,143,100Z"/>
      <path class="b" d="M164.93,83.36a6.72,6.72,0,0,1-6.72-6.72V38.53a6.72,6.72,0,0,0-6.72-6.71H125a6.72,6.72,0,0,1,0-13.44H151.5a20.18,20.18,0,0,1,20.16,20.15V76.64A6.72,6.72,0,0,1,164.93,83.36Z"/>
      <path class="b" d="M42.27,174a6.72,6.72,0,0,1-6.72-6.72V144a20.18,20.18,0,0,1,20.15-20.15,6.72,6.72,0,1,1,0,13.44A6.72,6.72,0,0,0,49,144v23.31A6.72,6.72,0,0,1,42.27,174Z"/>
      <path class="b" d="M56.49,137.1a6.72,6.72,0,0,1-6.72-6.72,20.18,20.18,0,0,1,20.16-20.16,6.72,6.72,0,0,1,0,13.44,6.73,6.73,0,0,0-6.72,6.72A6.72,6.72,0,0,1,56.49,137.1Z"/>
      <path class="b" d="M127.41,66.58a6.72,6.72,0,0,1-6.72-6.72A20.18,20.18,0,0,1,140.85,39.7h7.5a6.72,6.72,0,1,1,0,13.44h-7.5a6.72,6.72,0,0,0-6.71,6.72A6.72,6.72,0,0,1,127.41,66.58Z"/>
      <path class="b" d="M127,67.37H109.83a6.72,6.72,0,1,1,0-13.44H127a6.72,6.72,0,1,1,0,13.44Z"/>
      <path class="b" d="M76,168.7A6.72,6.72,0,0,1,69.33,162a6.73,6.73,0,0,0-6.72-6.72,6.72,6.72,0,0,1,0-13.44A20.18,20.18,0,0,1,82.77,162,6.72,6.72,0,0,1,76,168.7Z"/>
      <path class="b" d="M41.09,120.7a6.72,6.72,0,0,1,0-13.44c3.64,0,6.71-4.06,6.71-8.87V95.2c0-4.81-3.07-8.88-6.71-8.88a6.72,6.72,0,1,1,0-13.44c11.11,0,20.15,10,20.15,22.31v3.19C61.24,110.69,52.2,120.7,41.09,120.7Z"/>
      <path class="b" d="M70.91,91.67a6.72,6.72,0,0,1-6.72-6.72A20.18,20.18,0,0,1,84.34,64.78l8.74-.19A6.72,6.72,0,0,1,93.37,78l-8.89.19a6.76,6.76,0,0,0-6.86,6.73A6.72,6.72,0,0,1,70.91,91.67Z"/>
      <path class="b" d="M71.9,123.66a6.72,6.72,0,0,1-6.72-6.72V102.72a6.72,6.72,0,1,1,13.44,0v14.22A6.72,6.72,0,0,1,71.9,123.66Z"/>
      <path class="b" d="M129.58,155.15a6.72,6.72,0,0,1,0-13.44A6.73,6.73,0,0,0,136.3,135a6.72,6.72,0,0,1,13.44,0A20.18,20.18,0,0,1,129.58,155.15Z"/>
      <path class="b" d="M143,168.59a6.72,6.72,0,0,1-6.72-6.72,6.73,6.73,0,0,0-6.72-6.71,6.72,6.72,0,0,1,0-13.44,20.18,20.18,0,0,1,20.16,20.15A6.72,6.72,0,0,1,143,168.59Z"/>
    </g>
    <g>
      <path class="b" d="M231.65,104.46a17.71,17.71,0,0,1-10-3l2.53-4.72a13,13,0,0,0,7.2,2.43c2.29,0,4.87-.86,4.87-3.24,0-4.15-7.63-4.87-11.45-9.21a8.17,8.17,0,0,1-2-5.58c0-4.77,3.77-9,10.68-9a16.11,16.11,0,0,1,7.92,1.91l-.1,5.63a15.46,15.46,0,0,0-7.49-2.29c-2.34,0-4.15,1-4.15,2.86,0,5.44,13.5,5,13.5,14.83C243.14,100.89,238.09,104.46,231.65,104.46Z"/>
      <path class="b" d="M273.44,91.63V104H266.9V91.54L256,72.55h7.2L268,81.33c.76,1.34,1.67,3.1,2.34,4.53h.1c.67-1.43,1.53-3.1,2.24-4.44l4.82-8.87h6.82Z"/>
      <path class="b" d="M322,104,308.31,86.53c-1.19-1.53-2.05-2.77-3-4.15h-.09c.09,1,.09,3,.09,4.39V104h-6.49V72.55h6.58l13.17,16.79c1.24,1.57,2.1,2.81,3,4.1h.1c-.1-1.48-.1-3.53-.1-4.87v-16H328V104Z"/>
      <path class="b" d="M365.6,104l-3.05-7.68H351.86L349,104h-6.44l12.31-31.58h5L372.61,104Zm-7.2-19a33.89,33.89,0,0,1-1.14-3.86h0a24.61,24.61,0,0,1-1.14,3.77l-2.34,6.2h6.82Z"/>
      <path class="b" d="M394.85,93.16h-1.19V104h-6.54V72.55h8.59c6.92,0,11.54,3.48,11.54,10.21C407.25,86.82,404.2,93.16,394.85,93.16ZM395,78h-1.38V88.2h1.43c3.86,0,5.63-2,5.63-5.2C400.71,80.18,398.85,78,395,78Z"/>
      <path class="b" d="M444.65,77.9H436.2V104h-6.58V77.9h-9.21V72.55h25.71Z"/>
      <path class="b" d="M460.39,104V72.55h6.54V104Z"/>
      <path class="b" d="M498.84,104.46c-10.25,0-16.07-7-16.07-15.88s6.77-16.36,17.51-16.36a18.71,18.71,0,0,1,8.2,1.67l-.1,5.82a15.2,15.2,0,0,0-7.87-2.19c-7.39,0-10.64,5.15-10.64,10.59,0,6,3.86,10.73,10.06,10.73a15.77,15.77,0,0,0,7.82-2.15l1.76,4.58A19.61,19.61,0,0,1,498.84,104.46Z"/>
    </g>
    <g>
      <path class="a" d="M253.23,149.9H248l-4.51-12.39a34.17,34.17,0,0,1-1.35-4.15H242a33.76,33.76,0,0,1-1.31,4.1L236.2,149.9h-5L220.43,120h6.85l5.54,17.21c.45,1.35.77,2.61,1.13,4h.14a40.2,40.2,0,0,1,1.22-4l4-11.85L237.37,120h6.13l5.81,16.76c.54,1.58,1,2.93,1.4,4.37h.14c.32-1.44.63-2.7,1.08-4.28L257.06,120h6.26Z"/>
      <path class="a" d="M276.53,149.67V120h17.21l-1.62,5h-9.42V132h9.46v5.09h-9.46v7.57h11v5Z"/>
      <path class="a" d="M318.4,149.67H308.3V120h9.82c5.95,0,8.83,3.78,8.83,7.43a6.75,6.75,0,0,1-3.51,6v0a7.24,7.24,0,0,1,5.5,7.21C328.94,145,325.65,149.67,318.4,149.67Zm-1.62-24.56h-2.3v7h3a3.49,3.49,0,0,0,3.38-3.51C320.88,126.6,319.57,125.12,316.78,125.12Zm1.08,12h-3.38v7.43h3.15c3.47,0,5.09-1.35,5.09-3.92C322.72,138.5,321,137.15,317.86,137.15Z"/>
      <path class="a" d="M371.89,150.12a16.73,16.73,0,0,1-9.46-2.79l2.39-4.46a12.29,12.29,0,0,0,6.8,2.3c2.16,0,4.6-.81,4.6-3.06,0-3.92-7.21-4.6-10.81-8.7a7.72,7.72,0,0,1-1.89-5.27c0-4.51,3.56-8.47,10.09-8.47a15.21,15.21,0,0,1,7.48,1.8l-.09,5.32a14.61,14.61,0,0,0-7.07-2.16c-2.21,0-3.92,1-3.92,2.7,0,5.14,12.75,4.69,12.75,14C382.75,146.75,378,150.12,371.89,150.12Z"/>
      <path class="a" d="M396.95,149.67V120h17.21l-1.62,5h-9.42V132h9.46v5.09h-9.46v7.57h11v5Z"/>
      <path class="a" d="M444.58,149.67c-4.51-7.71-6.31-11-7.39-11.45h-2.3v11.45h-6.17V120h8.65c7.93,0,10.81,3.92,10.81,8.52a8.51,8.51,0,0,1-5.41,7.71v0c1.49.86,4.37,5.86,8.83,13.43Zm-7.07-24.56h-2.61v8.61h2.61a4.46,4.46,0,0,0,4.55-4.55C442.06,126.87,440.44,125.12,437.51,125.12Z"/>
      <path class="a" d="M476.62,149.9H472L459.85,120h6.76l6,15.77c.77,1.94,1.44,3.83,2,5.5h.09c.5-1.62,1.17-3.33,2-5.32l6.71-16h6.31Z"/>
      <path class="a" d="M502.94,149.67V120h6.17v29.69Z"/>
      <path class="a" d="M538.76,150.12c-9.69,0-15.18-6.62-15.18-15s6.4-15.46,16.54-15.46a17.67,17.67,0,0,1,7.75,1.58l-.09,5.5a14.35,14.35,0,0,0-7.43-2.07c-7,0-10,4.87-10,10,0,5.68,3.65,10.14,9.51,10.14a14.9,14.9,0,0,0,7.39-2l1.67,4.33A18.53,18.53,0,0,1,538.76,150.12Z"/>
      <path class="a" d="M562.87,149.67V120h17.21l-1.62,5H569V132h9.46v5.09H569v7.57h11v5Z"/>
      <path class="a" d="M602.71,150.12a16.73,16.73,0,0,1-9.46-2.79l2.39-4.46a12.29,12.29,0,0,0,6.8,2.3c2.16,0,4.6-.81,4.6-3.06,0-3.92-7.21-4.6-10.81-8.7a7.72,7.72,0,0,1-1.89-5.27c0-4.51,3.56-8.47,10.09-8.47a15.21,15.21,0,0,1,7.48,1.8l-.09,5.32a14.61,14.61,0,0,0-7.07-2.16c-2.21,0-3.92,1-3.92,2.7,0,5.14,12.75,4.69,12.75,14C613.57,146.75,608.79,150.12,602.71,150.12Z"/>
    </g>
    <rect class="c" width="615.12" height="226.77"/>
  </g>
</svg>
