<svg xmlns="http://www.w3.org/2000/svg" viewBox="0 0 615.12 226.77">
  <defs>
    <style>
      .a {
        fill: #8c978e;
      }

      .b {
        fill: #00bbce;
      }

      .c {
        fill: none;
      }
    </style>
  </defs>
  <title>logo-synaptic_risk</title>
  <g>
    <g>
      <path class="a" d="M93.24,62.63H56.9A20.18,20.18,0,0,1,36.74,42.47a6.72,6.72,0,0,1,13.44,0,6.73,6.73,0,0,0,6.72,6.72H93.24a6.72,6.72,0,0,1,0,13.44Z"/>
      <path class="a" d="M76.46,45.84A20.18,20.18,0,0,1,56.3,25.68a6.72,6.72,0,1,1,13.44,0,6.73,6.73,0,0,0,6.72,6.72,6.72,6.72,0,0,1,0,13.44Z"/>
      <path class="a" d="M93.24,205.44a6.72,6.72,0,0,1-6.72-6.72V20.16a6.72,6.72,0,0,0-6.71-6.72H53.35a6.73,6.73,0,0,0-6.72,6.72,6.72,6.72,0,1,1-13.44,0A20.18,20.18,0,0,1,53.35,0H79.8A20.18,20.18,0,0,1,100,20.16V198.72A6.72,6.72,0,0,1,93.24,205.44Z"/>
      <path class="a" d="M146.57,27.47a6.72,6.72,0,0,1-6.72-6.72A6.73,6.73,0,0,0,133.14,14H106.68A6.73,6.73,0,0,0,100,20.75a6.72,6.72,0,0,1-13.44,0A20.18,20.18,0,0,1,106.68.6h26.46a20.18,20.18,0,0,1,20.16,20.16A6.72,6.72,0,0,1,146.57,27.47Z"/>
      <path class="a" d="M36.16,103.52A20.18,20.18,0,0,1,16,83.36V38.53A20.18,20.18,0,0,1,36.16,18.37H62.62a6.72,6.72,0,1,1,0,13.44H36.16a6.73,6.73,0,0,0-6.72,6.72V83.36a6.73,6.73,0,0,0,6.72,6.72,6.72,6.72,0,0,1,0,13.44Z"/>
      <path class="a" d="M20.16,122.48A20.18,20.18,0,0,1,0,102.32V74.08A20.18,20.18,0,0,1,20.16,53.93a6.72,6.72,0,1,1,0,13.44,6.72,6.72,0,0,0-6.72,6.71v28.24A6.73,6.73,0,0,0,20.16,109a6.72,6.72,0,1,1,0,13.44Z"/>
      <path class="a" d="M20.16,154.47A20.18,20.18,0,0,1,0,134.32v-5.13A20.18,20.18,0,0,1,20.16,109a6.72,6.72,0,1,1,0,13.44,6.73,6.73,0,0,0-6.72,6.72v5.13A6.72,6.72,0,0,0,20.16,141a6.72,6.72,0,0,1,0,13.44Z"/>
      <path class="a" d="M165.73,154.47a6.72,6.72,0,1,1,0-13.44,6.72,6.72,0,0,0,6.71-6.71V106.08a6.72,6.72,0,0,0-6.71-6.72,6.72,6.72,0,1,1,0-13.44,20.18,20.18,0,0,1,20.15,20.16v28.24A20.17,20.17,0,0,1,165.73,154.47Z"/>
      <path class="a" d="M166.32,99.36a6.72,6.72,0,0,1,0-13.44A6.73,6.73,0,0,0,173,79.21V74.08a6.72,6.72,0,0,0-6.72-6.71,6.72,6.72,0,0,1,0-13.44,20.18,20.18,0,0,1,20.16,20.15v5.13A20.18,20.18,0,0,1,166.32,99.36Z"/>
      <path class="a" d="M47.8,190H37.94a20.18,20.18,0,0,1-20.16-20.16V131.17a6.72,6.72,0,0,1,13.44,0v38.71a6.73,6.73,0,0,0,6.72,6.72H47.8a6.72,6.72,0,0,0,6.71-6.72,6.72,6.72,0,0,1,13.44,0A20.18,20.18,0,0,1,47.8,190Z"/>
      <path class="a" d="M147.95,190.63h-9.86a20.18,20.18,0,0,1-20.16-20.16,6.72,6.72,0,1,1,13.44,0,6.73,6.73,0,0,0,6.72,6.72h9.86a6.72,6.72,0,1,1,0,13.44Z"/>
      <path class="a" d="M147.95,190.63a6.72,6.72,0,1,1,0-13.44,6.73,6.73,0,0,0,6.72-6.72V125a6.73,6.73,0,0,0-6.72-6.72H137.68a6.72,6.72,0,1,1,0-13.44h10.27A20.18,20.18,0,0,1,168.11,125v45.42A20.18,20.18,0,0,1,147.95,190.63Z"/>
      <path class="a" d="M74.68,189.44a20.18,20.18,0,0,1-20.16-20.16,6.72,6.72,0,1,1,13.44,0A6.73,6.73,0,0,0,74.68,176a6.72,6.72,0,1,1,0,13.44Z"/>
      <path class="a" d="M111,189.44A6.72,6.72,0,0,1,111,176a6.73,6.73,0,0,0,6.72-6.72,6.72,6.72,0,1,1,13.44,0A20.18,20.18,0,0,1,111,189.44Z"/>
      <path class="a" d="M110.43,45.84a6.72,6.72,0,0,1,0-13.44,6.73,6.73,0,0,0,6.72-6.72,6.72,6.72,0,0,1,13.44,0A20.18,20.18,0,0,1,110.43,45.84Z"/>
      <path class="a" d="M76.06,209.59H53.94a20.18,20.18,0,0,1-20.15-20.16v-6.12a6.72,6.72,0,0,1,13.44,0v6.12a6.73,6.73,0,0,0,6.71,6.72H76.06a6.72,6.72,0,0,1,0,13.44Z"/>
      <path class="a" d="M132.54,209.59H112.21a6.72,6.72,0,0,1,0-13.44h20.34a6.73,6.73,0,0,0,6.72-6.72V184.5a6.72,6.72,0,0,1,13.44,0v4.93A20.18,20.18,0,0,1,132.54,209.59Z"/>
      <path class="a" d="M118.94,226.77H68.16A19.58,19.58,0,0,1,48.6,207.21a6.72,6.72,0,0,1,13.44,0,6.13,6.13,0,0,0,6.12,6.12h50.78a6.13,6.13,0,0,0,6.13-6.12,6.72,6.72,0,0,1,13.44,0A19.59,19.59,0,0,1,118.94,226.77Z"/>
      <path class="a" d="M108.83,171.66a6.72,6.72,0,0,1-6.72-6.72V140.26a20.18,20.18,0,0,1,20.16-20.15,6.72,6.72,0,0,1,0,13.44,6.73,6.73,0,0,0-6.72,6.71v24.68A6.72,6.72,0,0,1,108.83,171.66Z"/>
      <path class="b" d="M138.28,118.33a20.19,20.19,0,0,1-20.16-20.16,6.72,6.72,0,0,1,13.44,0,6.73,6.73,0,0,0,6.72,6.72,6.72,6.72,0,0,1,0,13.44Z"/>
      <path class="b" d="M111.4,118.33a6.72,6.72,0,0,1,0-13.44,6.73,6.73,0,0,0,6.71-6.72,6.72,6.72,0,0,1,13.44,0A20.18,20.18,0,0,1,111.4,118.33Z"/>
      <path class="b" d="M132.54,86.73a6.72,6.72,0,0,1,0-13.44,6.73,6.73,0,0,0,6.72-6.72,6.72,6.72,0,1,1,13.44,0A20.18,20.18,0,0,1,132.54,86.73Z"/>
      <path class="b" d="M143,100a6.72,6.72,0,0,1-6.72-6.72c0-3.64-4.06-6.72-8.87-6.72h-3.2c-4.81,0-8.86,3.08-8.86,6.72a6.72,6.72,0,0,1-13.44,0c0-11.12,10-20.16,22.3-20.16h3.2c12.3,0,22.31,9,22.31,20.16A6.72,6.72,0,0,1,143,100Z"/>
      <path class="a" d="M164.94,83.37a6.72,6.72,0,0,1-6.72-6.72V38.53a6.73,6.73,0,0,0-6.72-6.72H125a6.72,6.72,0,1,1,0-13.44H151.5a20.18,20.18,0,0,1,20.16,20.16V76.65A6.72,6.72,0,0,1,164.94,83.37Z"/>
      <path class="a" d="M42.28,174a6.72,6.72,0,0,1-6.72-6.72V144a20.18,20.18,0,0,1,20.16-20.16,6.72,6.72,0,0,1,0,13.44A6.73,6.73,0,0,0,49,144v23.3A6.72,6.72,0,0,1,42.28,174Z"/>
      <path class="a" d="M56.5,137.1a6.72,6.72,0,0,1-6.72-6.72,20.18,20.18,0,0,1,20.16-20.16,6.72,6.72,0,0,1,0,13.44,6.73,6.73,0,0,0-6.72,6.72A6.72,6.72,0,0,1,56.5,137.1Z"/>
      <path class="a" d="M127.42,66.58a6.72,6.72,0,0,1-6.72-6.72A20.18,20.18,0,0,1,140.86,39.7h7.49a6.72,6.72,0,1,1,0,13.44h-7.49a6.73,6.73,0,0,0-6.72,6.72A6.72,6.72,0,0,1,127.42,66.58Z"/>
      <path class="a" d="M127,67.37H109.83a6.72,6.72,0,0,1,0-13.44H127a6.72,6.72,0,0,1,0,13.44Z"/>
      <path class="a" d="M76.06,168.7A6.72,6.72,0,0,1,69.34,162a6.72,6.72,0,0,0-6.72-6.71,6.72,6.72,0,0,1,0-13.44A20.18,20.18,0,0,1,82.78,162,6.72,6.72,0,0,1,76.06,168.7Z"/>
      <path class="a" d="M41.09,120.7a6.72,6.72,0,0,1,0-13.44c3.64,0,6.72-4.06,6.72-8.87V95.2c0-4.81-3.08-8.87-6.72-8.87a6.72,6.72,0,1,1,0-13.44c11.12,0,20.16,10,20.16,22.31v3.19C61.25,110.69,52.21,120.7,41.09,120.7Z"/>
      <path class="a" d="M70.92,91.66a6.72,6.72,0,0,1-6.72-6.72A20.18,20.18,0,0,1,84.35,64.79l8.74-.19A6.61,6.61,0,0,1,100,71.16,6.71,6.71,0,0,1,93.38,78l-8.89.2a6.76,6.76,0,0,0-6.86,6.72A6.72,6.72,0,0,1,70.92,91.66Z"/>
      <path class="a" d="M71.91,123.66a6.72,6.72,0,0,1-6.72-6.72V102.72a6.72,6.72,0,0,1,13.44,0v14.22A6.72,6.72,0,0,1,71.91,123.66Z"/>
      <path class="a" d="M129.58,155.15a6.72,6.72,0,0,1,0-13.44A6.72,6.72,0,0,0,136.3,135a6.72,6.72,0,1,1,13.44,0A20.18,20.18,0,0,1,129.58,155.15Z"/>
      <path class="a" d="M143,168.59a6.72,6.72,0,0,1-6.72-6.72,6.73,6.73,0,0,0-6.72-6.72,6.72,6.72,0,0,1,0-13.44,20.18,20.18,0,0,1,20.16,20.16A6.72,6.72,0,0,1,143,168.59Z"/>
    </g>
    <g>
      <path class="a" d="M231.29,107.55a17.7,17.7,0,0,1-10-3l2.53-4.72a13,13,0,0,0,7.2,2.43c2.29,0,4.87-.86,4.87-3.24,0-4.15-7.63-4.87-11.45-9.21a8.17,8.17,0,0,1-2-5.58c0-4.77,3.77-9,10.68-9A16.1,16.1,0,0,1,241,77.21l-.1,5.63a15.46,15.46,0,0,0-7.49-2.29c-2.34,0-4.15,1-4.15,2.86,0,5.44,13.5,5,13.5,14.83C242.79,104,237.73,107.55,231.29,107.55Z"/>
      <path class="a" d="M273.08,94.72v12.35h-6.54V94.62l-10.87-19h7.2l4.77,8.78c.76,1.34,1.67,3.1,2.34,4.53h.1c.67-1.43,1.53-3.1,2.24-4.44l4.82-8.87H284Z"/>
      <path class="a" d="M321.6,107.07,308,89.61c-1.19-1.53-2.05-2.77-3-4.15h-.1c.1,1,.1,3,.1,4.39v17.22h-6.49V75.64H305l13.17,16.79c1.24,1.57,2.1,2.81,3,4.1h.1c-.1-1.48-.1-3.53-.1-4.87v-16h6.49v31.43Z"/>
      <path class="a" d="M365.25,107.07l-3.05-7.68H351.51l-2.91,7.68h-6.44l12.31-31.58h5l12.83,31.58ZM358,88a34.09,34.09,0,0,1-1.14-3.86h0a24.7,24.7,0,0,1-1.14,3.77l-2.34,6.2h6.82Z"/>
      <path class="a" d="M394.5,96.24H393.3v10.83h-6.53V75.64h8.59c6.92,0,11.54,3.48,11.54,10.21C406.9,89.9,403.85,96.24,394.5,96.24Zm.19-15.17H393.3V91.28h1.43c3.86,0,5.63-2,5.63-5.2C400.36,83.27,398.5,81.07,394.69,81.07Z"/>
      <path class="a" d="M444.3,81h-8.44v26.09h-6.58V81h-9.21V75.64h25.71Z"/>
      <path class="a" d="M460,107.07V75.64h6.53v31.43Z"/>
      <path class="a" d="M498.49,107.55c-10.25,0-16.07-7-16.07-15.88s6.77-16.36,17.51-16.36a18.71,18.71,0,0,1,8.2,1.67l-.1,5.82a15.2,15.2,0,0,0-7.87-2.19c-7.39,0-10.64,5.15-10.64,10.59,0,6,3.86,10.73,10.06,10.73a15.78,15.78,0,0,0,7.82-2.15l1.76,4.58A19.61,19.61,0,0,1,498.49,107.55Z"/>
    </g>
    <g>
      <path class="b" d="M238.46,152.76c-4.51-7.71-6.31-11-7.39-11.45h-2.3v11.45H222.6v-29.7h8.65c7.93,0,10.82,3.92,10.82,8.52a8.51,8.51,0,0,1-5.41,7.71v0c1.49.86,4.37,5.86,8.83,13.43Zm-7.08-24.56h-2.61v8.61h2.61a4.46,4.46,0,0,0,4.55-4.55C235.94,130,234.32,128.19,231.39,128.19Z"/>
      <path class="b" d="M258.7,152.76v-29.7h6.17v29.7Z"/>
      <path class="b" d="M288.67,153.21a16.73,16.73,0,0,1-9.47-2.79l2.39-4.46a12.31,12.31,0,0,0,6.81,2.3c2.16,0,4.6-.81,4.6-3.06,0-3.92-7.21-4.6-10.82-8.7a7.72,7.72,0,0,1-1.89-5.27c0-4.51,3.56-8.47,10.1-8.47a15.23,15.23,0,0,1,7.48,1.8l-.09,5.32a14.61,14.61,0,0,0-7.08-2.16c-2.21,0-3.92,1-3.92,2.7,0,5.14,12.76,4.69,12.76,14C299.53,149.83,294.75,153.21,288.67,153.21Z"/>
      <path class="b" d="M330.08,152.76,320,140h-.14v12.8h-6.13v-29.7h6.13v12.31h.09l9.78-12.22h7.12l-11.72,14.2,12.44,15.41Z"/>
    </g>
    <rect class="c" width="615.12" height="226.77"/>
  </g>
</svg>
