<svg xmlns="http://www.w3.org/2000/svg" viewBox="0 0 615.12 226.77">
  <defs>
    <style>
      .a {
        fill: #8c978e;
      }

      .b {
        fill: #fbab18;
      }

      .c {
        fill: none;
      }
    </style>
  </defs>
  <title>logo-synaptic_client_care</title>
  <g>
    <g>
      <path class="a" d="M132.54,209.59H112.2a6.72,6.72,0,0,1,0-13.44h20.34a6.73,6.73,0,0,0,6.72-6.72V184.5a6.72,6.72,0,1,1,13.44,0v4.93A20.18,20.18,0,0,1,132.54,209.59Z"/>
      <path class="a" d="M93.23,62.62H56.9A20.18,20.18,0,0,1,36.74,42.47a6.72,6.72,0,1,1,13.44,0,6.72,6.72,0,0,0,6.71,6.72H93.23a6.72,6.72,0,1,1,0,13.44Z"/>
      <path class="a" d="M76.45,45.84A20.18,20.18,0,0,1,56.29,25.68a6.72,6.72,0,0,1,13.44,0,6.73,6.73,0,0,0,6.72,6.72,6.72,6.72,0,0,1,0,13.44Z"/>
      <path class="a" d="M93.23,205.44a6.72,6.72,0,0,1-6.72-6.72V20.16a6.73,6.73,0,0,0-6.72-6.72H53.34a6.73,6.73,0,0,0-6.72,6.72,6.72,6.72,0,0,1-13.44,0A20.18,20.18,0,0,1,53.34,0H79.8A20.18,20.18,0,0,1,100,20.16V198.72A6.72,6.72,0,0,1,93.23,205.44Z"/>
      <path class="a" d="M146.57,27.48a6.72,6.72,0,0,1-6.72-6.72A6.73,6.73,0,0,0,133.13,14H106.67A6.73,6.73,0,0,0,100,20.76a6.72,6.72,0,1,1-13.44,0A20.18,20.18,0,0,1,106.67.6h26.46a20.18,20.18,0,0,1,20.16,20.16A6.72,6.72,0,0,1,146.57,27.48Z"/>
      <path class="a" d="M36.16,103.52A20.18,20.18,0,0,1,16,83.36V38.53A20.19,20.19,0,0,1,36.16,18.37H62.61a6.72,6.72,0,0,1,0,13.44H36.16a6.73,6.73,0,0,0-6.72,6.72V83.36a6.73,6.73,0,0,0,6.72,6.72,6.72,6.72,0,0,1,0,13.44Z"/>
      <path class="a" d="M20.16,122.48A20.18,20.18,0,0,1,0,102.32V74.08A20.18,20.18,0,0,1,20.16,53.93a6.72,6.72,0,1,1,0,13.44,6.72,6.72,0,0,0-6.72,6.72v28.24A6.73,6.73,0,0,0,20.16,109a6.72,6.72,0,0,1,0,13.44Z"/>
      <path class="a" d="M20.16,154.48A20.18,20.18,0,0,1,0,134.32V129.2A20.18,20.18,0,0,1,20.16,109a6.72,6.72,0,0,1,0,13.44,6.73,6.73,0,0,0-6.72,6.72v5.12A6.73,6.73,0,0,0,20.16,141a6.72,6.72,0,1,1,0,13.44Z"/>
      <path class="a" d="M165.72,154.48a6.72,6.72,0,1,1,0-13.44,6.73,6.73,0,0,0,6.72-6.72V106.08a6.73,6.73,0,0,0-6.72-6.72,6.72,6.72,0,1,1,0-13.44,20.18,20.18,0,0,1,20.16,20.16v28.24A20.18,20.18,0,0,1,165.72,154.48Z"/>
      <path class="a" d="M166.32,99.37a6.72,6.72,0,1,1,0-13.44A6.72,6.72,0,0,0,173,79.21V74.08a6.72,6.72,0,0,0-6.71-6.72,6.72,6.72,0,1,1,0-13.44,20.18,20.18,0,0,1,20.15,20.15v5.13A20.18,20.18,0,0,1,166.32,99.37Z"/>
      <path class="a" d="M47.8,190H37.93a20.18,20.18,0,0,1-20.15-20.16V131.17a6.72,6.72,0,1,1,13.44,0v38.71a6.72,6.72,0,0,0,6.71,6.72H47.8a6.72,6.72,0,0,0,6.71-6.72,6.72,6.72,0,0,1,13.44,0A20.18,20.18,0,0,1,47.8,190Z"/>
      <path class="a" d="M147.95,190.63h-9.87a20.18,20.18,0,0,1-20.16-20.16,6.72,6.72,0,0,1,13.44,0,6.73,6.73,0,0,0,6.72,6.72h9.87a6.72,6.72,0,0,1,0,13.44Z"/>
      <path class="a" d="M147.95,190.63a6.72,6.72,0,0,1,0-13.44,6.72,6.72,0,0,0,6.71-6.72V125.05a6.73,6.73,0,0,0-6.71-6.72H137.68a6.72,6.72,0,1,1,0-13.44h10.27a20.18,20.18,0,0,1,20.15,20.16v45.42A20.18,20.18,0,0,1,147.95,190.63Z"/>
      <path class="a" d="M74.67,189.44a20.19,20.19,0,0,1-20.16-20.16,6.72,6.72,0,0,1,13.44,0A6.73,6.73,0,0,0,74.67,176a6.72,6.72,0,0,1,0,13.44Z"/>
      <path class="a" d="M111,189.44A6.72,6.72,0,1,1,111,176a6.73,6.73,0,0,0,6.72-6.72,6.72,6.72,0,0,1,13.44,0A20.18,20.18,0,0,1,111,189.44Z"/>
      <path class="a" d="M110.42,45.84a6.72,6.72,0,1,1,0-13.44,6.73,6.73,0,0,0,6.72-6.72,6.72,6.72,0,0,1,13.44,0A20.18,20.18,0,0,1,110.42,45.84Z"/>
      <path class="a" d="M76,209.59H53.93a20.18,20.18,0,0,1-20.16-20.16v-6.12a6.72,6.72,0,1,1,13.44,0v6.12a6.73,6.73,0,0,0,6.72,6.72H76a6.72,6.72,0,1,1,0,13.44Z"/>
      <path class="a" d="M118.94,226.77H68.16a19.59,19.59,0,0,1-19.57-19.56,6.72,6.72,0,1,1,13.44,0,6.13,6.13,0,0,0,6.13,6.12h50.78a6.13,6.13,0,0,0,6.12-6.12,6.72,6.72,0,1,1,13.44,0A19.58,19.58,0,0,1,118.94,226.77Z"/>
      <path class="b" d="M108.84,171.66a6.72,6.72,0,0,1-6.72-6.72V140.27a20.18,20.18,0,0,1,20.16-20.16,6.72,6.72,0,0,1,0,13.44,6.73,6.73,0,0,0-6.72,6.72v24.68A6.72,6.72,0,0,1,108.84,171.66Z"/>
      <path class="a" d="M138.27,118.33a20.18,20.18,0,0,1-20.16-20.16,6.72,6.72,0,0,1,13.44,0,6.73,6.73,0,0,0,6.72,6.72,6.72,6.72,0,1,1,0,13.44Z"/>
      <path class="a" d="M111.4,118.33a6.72,6.72,0,0,1,0-13.44,6.72,6.72,0,0,0,6.71-6.72,6.72,6.72,0,0,1,13.44,0A20.18,20.18,0,0,1,111.4,118.33Z"/>
      <path class="a" d="M132.54,86.73a6.72,6.72,0,1,1,0-13.44,6.73,6.73,0,0,0,6.72-6.72,6.72,6.72,0,1,1,13.44,0A20.18,20.18,0,0,1,132.54,86.73Z"/>
      <path class="a" d="M143,100a6.72,6.72,0,0,1-6.72-6.72c0-3.64-4.06-6.72-8.86-6.72h-3.2c-4.81,0-8.87,3.08-8.87,6.72a6.72,6.72,0,0,1-13.44,0c0-11.12,10-20.16,22.31-20.16h3.2c12.3,0,22.3,9,22.3,20.16A6.72,6.72,0,0,1,143,100Z"/>
      <path class="a" d="M164.94,83.37a6.72,6.72,0,0,1-6.72-6.72V38.53a6.73,6.73,0,0,0-6.72-6.72H125a6.72,6.72,0,1,1,0-13.44H151.5a20.19,20.19,0,0,1,20.16,20.16V76.65A6.72,6.72,0,0,1,164.94,83.37Z"/>
      <path class="a" d="M42.27,174a6.72,6.72,0,0,1-6.72-6.72V144a20.18,20.18,0,0,1,20.16-20.15,6.72,6.72,0,0,1,0,13.44A6.72,6.72,0,0,0,49,144v23.3A6.72,6.72,0,0,1,42.27,174Z"/>
      <path class="a" d="M56.5,137.1a6.72,6.72,0,0,1-6.72-6.72,20.18,20.18,0,0,1,20.16-20.16,6.72,6.72,0,0,1,0,13.44,6.73,6.73,0,0,0-6.72,6.72A6.72,6.72,0,0,1,56.5,137.1Z"/>
      <path class="a" d="M127.41,66.58a6.72,6.72,0,0,1-6.72-6.72A20.18,20.18,0,0,1,140.85,39.7h7.5a6.72,6.72,0,1,1,0,13.44h-7.5a6.73,6.73,0,0,0-6.72,6.72A6.72,6.72,0,0,1,127.41,66.58Z"/>
      <path class="a" d="M127,67.37H109.83a6.72,6.72,0,1,1,0-13.44H127a6.72,6.72,0,1,1,0,13.44Z"/>
      <path class="a" d="M76,168.7A6.72,6.72,0,0,1,69.33,162a6.73,6.73,0,0,0-6.72-6.72,6.72,6.72,0,0,1,0-13.44A20.18,20.18,0,0,1,82.77,162,6.72,6.72,0,0,1,76,168.7Z"/>
      <path class="a" d="M41.09,120.7a6.72,6.72,0,0,1,0-13.44c3.64,0,6.72-4.06,6.72-8.87V95.2c0-4.81-3.08-8.87-6.72-8.87a6.72,6.72,0,1,1,0-13.44c11.12,0,20.16,10,20.16,22.31v3.19C61.25,110.69,52.21,120.7,41.09,120.7Z"/>
      <path class="a" d="M70.91,91.66a6.72,6.72,0,0,1-6.72-6.72A20.18,20.18,0,0,1,84.35,64.79l8.74-.19A6.72,6.72,0,1,1,93.38,78l-8.89.19a6.76,6.76,0,0,0-6.86,6.72A6.72,6.72,0,0,1,70.91,91.66Z"/>
      <path class="a" d="M71.9,123.66a6.72,6.72,0,0,1-6.72-6.72V102.72a6.72,6.72,0,0,1,13.44,0v14.22A6.72,6.72,0,0,1,71.9,123.66Z"/>
      <path class="b" d="M129.59,155.16a6.72,6.72,0,0,1,0-13.44A6.73,6.73,0,0,0,136.3,135a6.72,6.72,0,0,1,13.44,0A20.18,20.18,0,0,1,129.59,155.16Z"/>
      <path class="b" d="M143,168.6a6.72,6.72,0,0,1-6.72-6.72,6.73,6.73,0,0,0-6.72-6.72,6.72,6.72,0,0,1,0-13.44,20.18,20.18,0,0,1,20.16,20.16A6.72,6.72,0,0,1,143,168.6Z"/>
    </g>
    <g>
      <path class="a" d="M232.36,106.16a17.7,17.7,0,0,1-10-3l2.53-4.72a13,13,0,0,0,7.2,2.43c2.29,0,4.87-.86,4.87-3.24,0-4.15-7.63-4.87-11.45-9.21a8.17,8.17,0,0,1-2-5.58c0-4.77,3.77-9,10.68-9a16.1,16.1,0,0,1,7.92,1.91l-.1,5.63a15.46,15.46,0,0,0-7.49-2.29c-2.34,0-4.15,1-4.15,2.86,0,5.44,13.5,5,13.5,14.83C243.85,102.58,238.8,106.16,232.36,106.16Z"/>
      <path class="a" d="M274.15,93.32v12.35h-6.54V93.23l-10.87-19h7.2L268.71,83c.76,1.34,1.67,3.1,2.34,4.53h.1c.67-1.43,1.53-3.1,2.24-4.44l4.82-8.87H285Z"/>
      <path class="a" d="M322.66,105.68,309,88.22c-1.19-1.53-2.05-2.77-3-4.15h-.1c.1,1,.1,3,.1,4.39v17.22h-6.49V74.24h6.58L319.28,91c1.24,1.57,2.1,2.81,3,4.1h.1c-.1-1.48-.1-3.53-.1-4.87v-16h6.49v31.43Z"/>
      <path class="a" d="M366.31,105.68,363.26,98H352.58l-2.91,7.68h-6.44L355.53,74.1h5l12.83,31.58Zm-7.2-19A33.92,33.92,0,0,1,358,82.78h0a24.59,24.59,0,0,1-1.14,3.77l-2.34,6.2h6.82Z"/>
      <path class="a" d="M395.56,94.85h-1.19v10.83h-6.53V74.24h8.59c6.92,0,11.54,3.48,11.54,10.21C408,88.51,404.91,94.85,395.56,94.85Zm.19-15.17h-1.38V89.89h1.43c3.86,0,5.63-2,5.63-5.2C401.43,81.88,399.57,79.68,395.75,79.68Z"/>
      <path class="a" d="M445.36,79.59h-8.44v26.09h-6.58V79.59h-9.21V74.24h25.71Z"/>
      <path class="a" d="M461.11,105.68V74.24h6.53v31.43Z"/>
      <path class="a" d="M499.55,106.16c-10.25,0-16.07-7-16.07-15.88S490.25,73.91,501,73.91a18.71,18.71,0,0,1,8.2,1.67l-.1,5.82a15.2,15.2,0,0,0-7.87-2.19c-7.39,0-10.64,5.15-10.64,10.59,0,6,3.86,10.73,10.06,10.73a15.78,15.78,0,0,0,7.82-2.15l1.76,4.58A19.61,19.61,0,0,1,499.55,106.16Z"/>
      <path class="b" d="M237.59,152.22c-9.69,0-15.19-6.63-15.19-15s6.4-15.46,16.54-15.46a17.67,17.67,0,0,1,7.75,1.58l-.09,5.5a14.36,14.36,0,0,0-7.44-2.07c-7,0-10.05,4.87-10.05,10,0,5.68,3.65,10.14,9.51,10.14a14.91,14.91,0,0,0,7.39-2l1.67,4.33A18.54,18.54,0,0,1,237.59,152.22Z"/>
      <path class="b" d="M261.7,151.77v-29.7h6.13v24.61h10.46v5.09Z"/>
      <path class="b" d="M291.58,151.77v-29.7h6.18v29.7Z"/>
      <path class="b" d="M313.48,151.77v-29.7H330.7l-1.62,5h-9.42v6.94h9.47v5.09h-9.47v7.57h11v5Z"/>
      <path class="b" d="M367.11,151.77l-12.89-16.5c-1.13-1.44-1.94-2.61-2.84-3.92h-.09c.09,1,.09,2.79.09,4.15v16.27h-6.13v-29.7h6.22l12.44,15.87c1.17,1.49,2,2.66,2.79,3.88h.09c-.09-1.4-.09-3.33-.09-4.6V122.07h6.13v29.7Z"/>
      <path class="b" d="M409.25,127.11h-8v24.66h-6.22V127.11h-8.7v-5h24.29Z"/>
      <path class="b" d="M458.32,152.22c-9.69,0-15.19-6.63-15.19-15s6.4-15.46,16.54-15.46a17.67,17.67,0,0,1,7.75,1.58l-.09,5.5a14.36,14.36,0,0,0-7.44-2.07c-7,0-10.05,4.87-10.05,10,0,5.68,3.65,10.14,9.51,10.14a14.9,14.9,0,0,0,7.39-2l1.67,4.33A18.53,18.53,0,0,1,458.32,152.22Z"/>
      <path class="b" d="M502.62,151.77l-2.88-7.26h-10.1l-2.75,7.26H480.8l11.63-29.84h4.69l12.12,29.84Zm-6.81-18a31.91,31.91,0,0,1-1.08-3.65h0a23.36,23.36,0,0,1-1.08,3.56l-2.21,5.86h6.45Z"/>
      <path class="b" d="M538.31,151.77c-4.51-7.71-6.31-11-7.39-11.45h-2.3v11.45h-6.17v-29.7h8.65c7.93,0,10.82,3.92,10.82,8.52a8.51,8.51,0,0,1-5.41,7.71v0c1.49.86,4.37,5.86,8.84,13.43Zm-7.08-24.57h-2.61v8.61h2.61a4.46,4.46,0,0,0,4.55-4.55C535.78,129,534.16,127.2,531.23,127.2Z"/>
      <path class="b" d="M558.54,151.77v-29.7h17.22l-1.62,5h-9.42v6.94h9.47v5.09h-9.47v7.57h11v5Z"/>
    </g>
    <rect class="c" width="615.12" height="226.77"/>
  </g>
</svg>
