<svg xmlns="http://www.w3.org/2000/svg" viewBox="0 0 615.12 226.77">
  <defs>
    <style>
      .a {
        fill: #4f2d82;
      }

      .b {
        fill: #9ca199;
      }

      .c {
        fill: none;
      }
    </style>
  </defs>
  <title>logo-synaptic_webline</title>
  <g>
    <g>
      <path class="a" d="M93.24,62.63H56.9A20.18,20.18,0,0,1,36.74,42.47a6.72,6.72,0,1,1,13.44,0,6.73,6.73,0,0,0,6.72,6.72H93.24a6.72,6.72,0,0,1,0,13.44Z"/>
      <path class="a" d="M76.45,45.84A20.18,20.18,0,0,1,56.3,25.68a6.72,6.72,0,1,1,13.44,0,6.72,6.72,0,0,0,6.72,6.71,6.72,6.72,0,0,1,0,13.44Z"/>
      <path class="b" d="M93.24,205.44a6.72,6.72,0,0,1-6.72-6.72V20.16a6.73,6.73,0,0,0-6.72-6.72H53.34a6.73,6.73,0,0,0-6.72,6.72,6.72,6.72,0,0,1-13.44,0A20.18,20.18,0,0,1,53.34,0H79.8A20.18,20.18,0,0,1,100,20.16V198.72A6.72,6.72,0,0,1,93.24,205.44Z"/>
      <path class="b" d="M146.57,27.47a6.72,6.72,0,0,1-6.72-6.72A6.73,6.73,0,0,0,133.13,14H106.68A6.73,6.73,0,0,0,100,20.75a6.72,6.72,0,0,1-13.44,0A20.18,20.18,0,0,1,106.68.6h26.46a20.18,20.18,0,0,1,20.16,20.16A6.72,6.72,0,0,1,146.57,27.47Z"/>
      <path class="a" d="M36.16,103.51A20.18,20.18,0,0,1,16,83.35V38.53A20.18,20.18,0,0,1,36.16,18.37H62.62a6.72,6.72,0,0,1,0,13.44H36.16a6.73,6.73,0,0,0-6.72,6.72V83.35a6.73,6.73,0,0,0,6.72,6.72,6.72,6.72,0,1,1,0,13.44Z"/>
      <path class="a" d="M20.16,122.47A20.18,20.18,0,0,1,0,102.31V74.08A20.18,20.18,0,0,1,20.16,53.93a6.72,6.72,0,0,1,0,13.44,6.72,6.72,0,0,0-6.72,6.71v28.23A6.73,6.73,0,0,0,20.16,109a6.72,6.72,0,1,1,0,13.44Z"/>
      <path class="b" d="M20.16,154.47A20.18,20.18,0,0,1,0,134.31v-5.12A20.18,20.18,0,0,1,20.16,109a6.72,6.72,0,1,1,0,13.44,6.73,6.73,0,0,0-6.72,6.72v5.12A6.73,6.73,0,0,0,20.16,141a6.72,6.72,0,0,1,0,13.44Z"/>
      <path class="b" d="M165.73,154.47a6.72,6.72,0,0,1,0-13.44,6.73,6.73,0,0,0,6.72-6.72V106.08a6.72,6.72,0,0,0-6.72-6.71,6.72,6.72,0,1,1,0-13.44,20.18,20.18,0,0,1,20.16,20.15v28.24A20.18,20.18,0,0,1,165.73,154.47Z"/>
      <path class="b" d="M166.32,99.36a6.72,6.72,0,1,1,0-13.44A6.72,6.72,0,0,0,173,79.21V74.08a6.72,6.72,0,0,0-6.71-6.71,6.72,6.72,0,1,1,0-13.44,20.18,20.18,0,0,1,20.15,20.15v5.13A20.18,20.18,0,0,1,166.32,99.36Z"/>
      <path class="b" d="M47.8,190H37.94a20.18,20.18,0,0,1-20.16-20.16V131.16a6.72,6.72,0,0,1,13.44,0v38.71a6.73,6.73,0,0,0,6.72,6.72H47.8a6.73,6.73,0,0,0,6.72-6.72,6.72,6.72,0,1,1,13.44,0A20.18,20.18,0,0,1,47.8,190Z"/>
      <path class="b" d="M148,190.62h-9.87a20.18,20.18,0,0,1-20.16-20.16,6.72,6.72,0,1,1,13.44,0,6.73,6.73,0,0,0,6.72,6.72H148a6.72,6.72,0,0,1,0,13.44Z"/>
      <path class="b" d="M148,190.62a6.72,6.72,0,1,1,0-13.44,6.72,6.72,0,0,0,6.71-6.72V125a6.72,6.72,0,0,0-6.71-6.72H137.68a6.72,6.72,0,1,1,0-13.44H148A20.18,20.18,0,0,1,168.1,125v45.42A20.18,20.18,0,0,1,148,190.62Z"/>
      <path class="b" d="M74.68,189.44a20.18,20.18,0,0,1-20.16-20.16,6.72,6.72,0,1,1,13.44,0A6.73,6.73,0,0,0,74.68,176a6.72,6.72,0,0,1,0,13.44Z"/>
      <path class="b" d="M111,189.44A6.72,6.72,0,0,1,111,176a6.73,6.73,0,0,0,6.72-6.72,6.72,6.72,0,0,1,13.44,0A20.18,20.18,0,0,1,111,189.44Z"/>
      <path class="b" d="M110.42,45.84a6.72,6.72,0,1,1,0-13.44,6.73,6.73,0,0,0,6.72-6.71,6.72,6.72,0,1,1,13.44,0A20.18,20.18,0,0,1,110.42,45.84Z"/>
      <path class="b" d="M76.05,209.59H53.94a20.18,20.18,0,0,1-20.16-20.16v-6.12a6.72,6.72,0,1,1,13.44,0v6.12a6.73,6.73,0,0,0,6.72,6.72H76.05a6.72,6.72,0,0,1,0,13.44Z"/>
      <path class="b" d="M132.54,209.59H112.2a6.72,6.72,0,1,1,0-13.44h20.34a6.73,6.73,0,0,0,6.72-6.72V184.5a6.72,6.72,0,1,1,13.44,0v4.93A20.18,20.18,0,0,1,132.54,209.59Z"/>
      <path class="b" d="M118.94,226.77H68.16A19.59,19.59,0,0,1,48.59,207.2a6.72,6.72,0,1,1,13.44,0,6.14,6.14,0,0,0,6.13,6.13h50.78a6.13,6.13,0,0,0,6.12-6.13,6.72,6.72,0,1,1,13.44,0A19.59,19.59,0,0,1,118.94,226.77Z"/>
      <path class="b" d="M108.84,171.66a6.72,6.72,0,0,1-6.72-6.72V140.26a20.18,20.18,0,0,1,20.16-20.16,6.72,6.72,0,1,1,0,13.44,6.73,6.73,0,0,0-6.72,6.72v24.68A6.72,6.72,0,0,1,108.84,171.66Z"/>
      <path class="b" d="M138.27,118.33a20.18,20.18,0,0,1-20.15-20.16,6.72,6.72,0,0,1,13.44,0,6.73,6.73,0,0,0,6.71,6.72,6.72,6.72,0,0,1,0,13.44Z"/>
      <path class="b" d="M111.4,118.33a6.72,6.72,0,1,1,0-13.44,6.73,6.73,0,0,0,6.72-6.72,6.72,6.72,0,0,1,13.44,0A20.19,20.19,0,0,1,111.4,118.33Z"/>
      <path class="b" d="M132.54,86.73a6.72,6.72,0,1,1,0-13.44,6.73,6.73,0,0,0,6.72-6.72,6.72,6.72,0,1,1,13.44,0A20.18,20.18,0,0,1,132.54,86.73Z"/>
      <path class="b" d="M143,100a6.72,6.72,0,0,1-6.72-6.72c0-3.64-4.06-6.72-8.87-6.72h-3.19c-4.81,0-8.87,3.08-8.87,6.72a6.72,6.72,0,0,1-13.44,0c0-11.11,10-20.16,22.31-20.16h3.19c12.3,0,22.31,9,22.31,20.16A6.72,6.72,0,0,1,143,100Z"/>
      <path class="b" d="M164.94,83.37a6.72,6.72,0,0,1-6.72-6.72V38.53a6.73,6.73,0,0,0-6.72-6.72H125.05a6.72,6.72,0,1,1,0-13.44H151.5a20.18,20.18,0,0,1,20.16,20.16V76.65A6.72,6.72,0,0,1,164.94,83.37Z"/>
      <path class="b" d="M42.28,174a6.72,6.72,0,0,1-6.72-6.72V144a20.18,20.18,0,0,1,20.16-20.16,6.72,6.72,0,1,1,0,13.44A6.73,6.73,0,0,0,49,144v23.3A6.72,6.72,0,0,1,42.28,174Z"/>
      <path class="b" d="M56.5,137.1a6.72,6.72,0,0,1-6.72-6.72,20.18,20.18,0,0,1,20.16-20.16,6.72,6.72,0,1,1,0,13.44,6.73,6.73,0,0,0-6.72,6.72A6.72,6.72,0,0,1,56.5,137.1Z"/>
      <path class="b" d="M127.42,66.58a6.72,6.72,0,0,1-6.72-6.72A20.18,20.18,0,0,1,140.85,39.7h7.5a6.72,6.72,0,1,1,0,13.44h-7.5a6.73,6.73,0,0,0-6.72,6.72A6.72,6.72,0,0,1,127.42,66.58Z"/>
      <path class="b" d="M127,67.37H109.83a6.72,6.72,0,1,1,0-13.44H127a6.72,6.72,0,1,1,0,13.44Z"/>
      <path class="b" d="M76.05,168.69A6.72,6.72,0,0,1,69.33,162a6.73,6.73,0,0,0-6.72-6.72,6.72,6.72,0,1,1,0-13.44A20.18,20.18,0,0,1,82.77,162,6.72,6.72,0,0,1,76.05,168.69Z"/>
      <path class="b" d="M41.09,120.7a6.72,6.72,0,0,1,0-13.44c3.64,0,6.72-4.06,6.72-8.87v-3.2c0-4.81-3.08-8.87-6.72-8.87a6.72,6.72,0,1,1,0-13.44c11.12,0,20.16,10,20.16,22.31v3.2C61.25,110.69,52.21,120.7,41.09,120.7Z"/>
      <path class="b" d="M70.91,91.66a6.72,6.72,0,0,1-6.72-6.72A20.18,20.18,0,0,1,84.35,64.79l8.74-.19A6.72,6.72,0,0,1,93.39,78l-8.89.2a6.76,6.76,0,0,0-6.87,6.71A6.72,6.72,0,0,1,70.91,91.66Z"/>
      <path class="b" d="M71.91,123.65a6.72,6.72,0,0,1-6.72-6.72V102.72a6.72,6.72,0,1,1,13.44,0v14.22A6.72,6.72,0,0,1,71.91,123.65Z"/>
      <path class="b" d="M129.59,155.15a6.72,6.72,0,0,1,0-13.44,6.73,6.73,0,0,0,6.72-6.72,6.72,6.72,0,0,1,13.44,0A20.18,20.18,0,0,1,129.59,155.15Z"/>
      <path class="b" d="M143,168.58a6.72,6.72,0,0,1-6.72-6.72,6.72,6.72,0,0,0-6.72-6.71,6.72,6.72,0,0,1,0-13.44,20.18,20.18,0,0,1,20.16,20.15A6.72,6.72,0,0,1,143,168.58Z"/>
    </g>
    <g>
      <path class="b" d="M232.06,107.69a17.7,17.7,0,0,1-10-3l2.53-4.72a13,13,0,0,0,7.2,2.43c2.29,0,4.87-.86,4.87-3.24,0-4.15-7.63-4.87-11.45-9.21a8.17,8.17,0,0,1-2-5.58c0-4.77,3.77-9,10.68-9a16.1,16.1,0,0,1,7.92,1.91l-.1,5.63a15.46,15.46,0,0,0-7.49-2.29c-2.34,0-4.15,1-4.15,2.86,0,5.44,13.5,5,13.5,14.83C243.55,104.11,238.5,107.69,232.06,107.69Z"/>
      <path class="b" d="M273.85,94.86v12.35h-6.54V94.76l-10.87-19h7.2l4.77,8.78c.76,1.34,1.67,3.1,2.34,4.53h.1c.67-1.43,1.53-3.1,2.24-4.44l4.82-8.87h6.82Z"/>
      <path class="b" d="M322.36,107.21,308.72,89.75c-1.19-1.53-2.05-2.77-3-4.15h-.1c.1,1,.1,3,.1,4.39v17.22h-6.49V75.78h6.58L319,92.57c1.24,1.57,2.1,2.81,3,4.1h.1c-.1-1.48-.1-3.53-.1-4.87v-16h6.49v31.43Z"/>
      <path class="b" d="M366,107.21,363,99.53H352.27l-2.91,7.68h-6.44l12.31-31.58h5L373,107.21Zm-7.2-19a34.09,34.09,0,0,1-1.14-3.86h0a24.7,24.7,0,0,1-1.14,3.77l-2.34,6.2H361Z"/>
      <path class="b" d="M395.26,96.38h-1.19v10.83h-6.53V75.78h8.59c6.92,0,11.54,3.48,11.54,10.21C407.66,90,404.61,96.38,395.26,96.38Zm.19-15.17h-1.38V91.42h1.43c3.86,0,5.63-2,5.63-5.2C401.12,83.41,399.26,81.21,395.45,81.21Z"/>
      <path class="b" d="M445.06,81.12h-8.44v26.09H430V81.12h-9.21V75.78h25.71Z"/>
      <path class="b" d="M460.8,107.21V75.78h6.53v31.43Z"/>
      <path class="b" d="M499.25,107.69c-10.25,0-16.07-7-16.07-15.88s6.77-16.36,17.51-16.36a18.71,18.71,0,0,1,8.2,1.67l-.1,5.82a15.2,15.2,0,0,0-7.87-2.19c-7.39,0-10.64,5.15-10.64,10.59,0,6,3.86,10.73,10.06,10.73a15.78,15.78,0,0,0,7.82-2.15l1.76,4.58A19.61,19.61,0,0,1,499.25,107.69Z"/>
    </g>
    <g>
      <path class="a" d="M253.65,153.12h-5.23l-4.51-12.4a34.23,34.23,0,0,1-1.35-4.15h-.14a33.65,33.65,0,0,1-1.31,4.1l-4.51,12.44h-5l-10.73-29.93h6.85l5.54,17.22c.45,1.35.77,2.61,1.13,4h.14a40.34,40.34,0,0,1,1.22-4l4-11.85-1.94-5.41h6.13L249.73,140c.54,1.58,1,2.93,1.4,4.37h.14c.32-1.44.63-2.7,1.08-4.28l5.14-16.86h6.27Z"/>
      <path class="a" d="M276.94,152.9v-29.7h17.22l-1.62,5h-9.42v6.94h9.47v5.09h-9.47v7.57h11v5Z"/>
      <path class="a" d="M318.81,152.9h-10.1v-29.7h9.83c5.95,0,8.83,3.79,8.83,7.44a6.75,6.75,0,0,1-3.52,6v0a7.24,7.24,0,0,1,5.5,7.21C329.36,148.21,326.07,152.9,318.81,152.9Zm-1.62-24.56h-2.3v7h3a3.5,3.5,0,0,0,3.38-3.52C321.29,129.82,320,128.33,317.19,128.33Zm1.08,12h-3.38v7.44H318c3.47,0,5.09-1.35,5.09-3.92C323.14,141.72,321.42,140.37,318.27,140.37Z"/>
      <path class="a" d="M343.46,152.9v-29.7h6.13V147.8H360v5.09Z"/>
      <path class="a" d="M373.34,152.9v-29.7h6.17v29.7Z"/>
      <path class="a" d="M417.1,152.9l-12.89-16.5c-1.13-1.44-1.94-2.61-2.84-3.92h-.09c.09,1,.09,2.79.09,4.15V152.9h-6.13v-29.7h6.22l12.44,15.87c1.17,1.49,2,2.66,2.79,3.88h.09c-.09-1.4-.09-3.33-.09-4.6V123.19h6.13v29.7Z"/>
      <path class="a" d="M438.55,152.9v-29.7h17.22l-1.62,5h-9.42v6.94h9.47v5.09h-9.47v7.57h11v5Z"/>
    </g>
    <path class="a" d="M471.84,138.48a7.9,7.9,0,0,1-3.13-.62,7.76,7.76,0,0,1-2.53-1.71,8.24,8.24,0,0,1-1.69-2.55,8.22,8.22,0,0,1,0-6.27,7.88,7.88,0,0,1,4.22-4.25,7.88,7.88,0,0,1,3.15-.64,7.78,7.78,0,0,1,3.13.64,7.91,7.91,0,0,1,4.2,4.25,8.22,8.22,0,0,1,0,6.27,8.29,8.29,0,0,1-1.69,2.55,7.7,7.7,0,0,1-2.53,1.71,7.91,7.91,0,0,1-3.14.62m0-1.54a6.27,6.27,0,0,0,2.51-.49,6,6,0,0,0,2-1.37,6.24,6.24,0,0,0,1.31-2.05,7.05,7.05,0,0,0,0-5.08,6.16,6.16,0,0,0-3.29-3.43,6.39,6.39,0,0,0-5,0,6.37,6.37,0,0,0-2,1.38,6.22,6.22,0,0,0-1.32,2.06,7.09,7.09,0,0,0,0,5.08,6.28,6.28,0,0,0,1.31,2.05,6,6,0,0,0,2,1.37,6.29,6.29,0,0,0,2.51.49m-2.78-10.57h3.12a3.47,3.47,0,0,1,1.3.22,2.71,2.71,0,0,1,.9.57,2.06,2.06,0,0,1,.52.77,2.35,2.35,0,0,1,.16.84,2.63,2.63,0,0,1-.39,1.41,2.37,2.37,0,0,1-1.2,1l2,3.35H473.7l-1.81-3.15H470.6v3.15h-1.54Zm3.06,3.75a1.36,1.36,0,0,0,1-.34,1.28,1.28,0,0,0,.32-.92,1.12,1.12,0,0,0-.34-.9,1.68,1.68,0,0,0-1.1-.3H470.6v2.46Z"/>
    <rect class="c" width="615.12" height="226.77"/>
  </g>
</svg>
