<svg xmlns="http://www.w3.org/2000/svg" viewBox="0 0 615.12 226.77">
  <defs>
    <style>
      .a {
        fill: #8c978e;
      }

      .b {
        fill: #e40375;
      }

      .c {
        fill: none;
      }
    </style>
  </defs>
  <title>logo-synaptic_comparator</title>
  <g>
    <g>
      <path class="a" d="M146.56,27.47a6.72,6.72,0,0,1-6.72-6.72A6.72,6.72,0,0,0,133.13,14H106.67A6.73,6.73,0,0,0,100,20.75a6.72,6.72,0,0,1-13.44,0A20.18,20.18,0,0,1,106.67.6h26.46a20.18,20.18,0,0,1,20.15,20.16A6.72,6.72,0,0,1,146.56,27.47Z"/>
      <path class="a" d="M93.24,62.62H56.9A20.18,20.18,0,0,1,36.74,42.47a6.72,6.72,0,0,1,13.44,0,6.73,6.73,0,0,0,6.72,6.72H93.24a6.72,6.72,0,1,1,0,13.44Z"/>
      <path class="a" d="M76.45,45.84A20.18,20.18,0,0,1,56.29,25.68a6.72,6.72,0,1,1,13.44,0,6.73,6.73,0,0,0,6.72,6.72,6.72,6.72,0,1,1,0,13.44Z"/>
      <path class="b" d="M93.24,205.44a6.72,6.72,0,0,1-6.72-6.72V20.16a6.73,6.73,0,0,0-6.72-6.72H53.34a6.73,6.73,0,0,0-6.72,6.72,6.72,6.72,0,0,1-13.44,0A20.18,20.18,0,0,1,53.34,0H79.8A20.18,20.18,0,0,1,100,20.16V198.72A6.72,6.72,0,0,1,93.24,205.44Z"/>
      <path class="a" d="M36.16,103.52A20.18,20.18,0,0,1,16,83.36V38.53A20.18,20.18,0,0,1,36.16,18.37H62.61a6.72,6.72,0,0,1,0,13.44H36.16a6.73,6.73,0,0,0-6.72,6.71V83.36a6.73,6.73,0,0,0,6.72,6.72,6.72,6.72,0,0,1,0,13.44Z"/>
      <path class="a" d="M20.16,122.47A20.18,20.18,0,0,1,0,102.32V74.08A20.18,20.18,0,0,1,20.16,53.93a6.72,6.72,0,1,1,0,13.44,6.73,6.73,0,0,0-6.72,6.72v28.24A6.72,6.72,0,0,0,20.16,109a6.72,6.72,0,1,1,0,13.44Z"/>
      <path class="a" d="M20.16,154.48A20.18,20.18,0,0,1,0,134.32V129.2A20.18,20.18,0,0,1,20.16,109a6.72,6.72,0,1,1,0,13.44,6.73,6.73,0,0,0-6.72,6.72v5.12A6.73,6.73,0,0,0,20.16,141a6.72,6.72,0,0,1,0,13.44Z"/>
      <path class="a" d="M165.72,154.48a6.72,6.72,0,0,1,0-13.44,6.72,6.72,0,0,0,6.71-6.72V106.08a6.72,6.72,0,0,0-6.71-6.72,6.72,6.72,0,0,1,0-13.44,20.18,20.18,0,0,1,20.15,20.16v28.23A20.18,20.18,0,0,1,165.72,154.48Z"/>
      <path class="a" d="M166.31,99.37a6.72,6.72,0,0,1,0-13.44A6.73,6.73,0,0,0,173,79.21V74.08a6.73,6.73,0,0,0-6.72-6.72,6.72,6.72,0,0,1,0-13.44,20.18,20.18,0,0,1,20.16,20.16v5.12A20.18,20.18,0,0,1,166.31,99.37Z"/>
      <path class="a" d="M47.79,190H37.93a20.18,20.18,0,0,1-20.16-20.15V131.17a6.72,6.72,0,0,1,13.44,0v38.71a6.72,6.72,0,0,0,6.72,6.71h9.86a6.72,6.72,0,0,0,6.72-6.71,6.72,6.72,0,1,1,13.44,0A20.18,20.18,0,0,1,47.79,190Z"/>
      <path class="a" d="M147.94,190.63h-9.86a20.18,20.18,0,0,1-20.16-20.16,6.72,6.72,0,0,1,13.44,0,6.73,6.73,0,0,0,6.72,6.72h9.86a6.72,6.72,0,1,1,0,13.44Z"/>
      <path class="a" d="M147.94,190.63a6.72,6.72,0,1,1,0-13.44,6.73,6.73,0,0,0,6.72-6.72V125a6.73,6.73,0,0,0-6.72-6.72H137.68a6.72,6.72,0,1,1,0-13.44h10.26A20.18,20.18,0,0,1,168.1,125v45.42A20.18,20.18,0,0,1,147.94,190.63Z"/>
      <path class="a" d="M74.68,189.44a20.18,20.18,0,0,1-20.16-20.16,6.72,6.72,0,0,1,13.44,0A6.73,6.73,0,0,0,74.68,176a6.72,6.72,0,0,1,0,13.44Z"/>
      <path class="a" d="M111,189.44A6.72,6.72,0,0,1,111,176a6.73,6.73,0,0,0,6.72-6.72,6.72,6.72,0,0,1,13.44,0A20.18,20.18,0,0,1,111,189.44Z"/>
      <path class="a" d="M110.42,45.84a6.72,6.72,0,1,1,0-13.44,6.73,6.73,0,0,0,6.72-6.72,6.72,6.72,0,1,1,13.44,0A20.18,20.18,0,0,1,110.42,45.84Z"/>
      <path class="a" d="M76.05,209.58H53.93a20.18,20.18,0,0,1-20.16-20.16v-6.12a6.72,6.72,0,0,1,13.44,0v6.12a6.73,6.73,0,0,0,6.72,6.72H76.05a6.72,6.72,0,0,1,0,13.44Z"/>
      <path class="a" d="M132.54,209.58H112.2a6.72,6.72,0,1,1,0-13.44h20.34a6.73,6.73,0,0,0,6.72-6.72V184.5a6.72,6.72,0,0,1,13.44,0v4.93A20.18,20.18,0,0,1,132.54,209.58Z"/>
      <path class="a" d="M118.94,226.77H68.15A19.59,19.59,0,0,1,48.59,207.2a6.72,6.72,0,0,1,13.44,0,6.14,6.14,0,0,0,6.13,6.13h50.78a6.13,6.13,0,0,0,6.12-6.13,6.72,6.72,0,0,1,13.44,0A19.59,19.59,0,0,1,118.94,226.77Z"/>
      <path class="a" d="M108.83,171.66a6.72,6.72,0,0,1-6.72-6.72V140.27a20.18,20.18,0,0,1,20.15-20.16,6.72,6.72,0,0,1,0,13.44,6.73,6.73,0,0,0-6.71,6.72v24.68A6.72,6.72,0,0,1,108.83,171.66Z"/>
      <path class="a" d="M138.27,118.33a20.18,20.18,0,0,1-20.16-20.16,6.72,6.72,0,0,1,13.44,0,6.73,6.73,0,0,0,6.72,6.72,6.72,6.72,0,0,1,0,13.44Z"/>
      <path class="a" d="M111.4,118.33a6.72,6.72,0,0,1,0-13.44,6.73,6.73,0,0,0,6.72-6.72,6.72,6.72,0,0,1,13.44,0A20.18,20.18,0,0,1,111.4,118.33Z"/>
      <path class="a" d="M132.54,86.73a6.72,6.72,0,0,1,0-13.44,6.73,6.73,0,0,0,6.72-6.72,6.72,6.72,0,1,1,13.44,0A20.18,20.18,0,0,1,132.54,86.73Z"/>
      <path class="a" d="M143,100a6.72,6.72,0,0,1-6.72-6.72c0-3.64-4.06-6.72-8.87-6.72h-3.19c-4.81,0-8.86,3.08-8.86,6.72a6.72,6.72,0,1,1-13.44,0c0-11.11,10-20.16,22.3-20.16h3.19c12.3,0,22.31,9,22.31,20.16A6.72,6.72,0,0,1,143,100Z"/>
      <path class="a" d="M164.94,83.37a6.72,6.72,0,0,1-6.72-6.72V38.53a6.72,6.72,0,0,0-6.72-6.71H125a6.72,6.72,0,0,1,0-13.44H151.5a20.18,20.18,0,0,1,20.16,20.15V76.65A6.72,6.72,0,0,1,164.94,83.37Z"/>
      <path class="a" d="M42.27,174a6.72,6.72,0,0,1-6.72-6.72V144a20.18,20.18,0,0,1,20.16-20.16,6.72,6.72,0,1,1,0,13.44A6.73,6.73,0,0,0,49,144v23.3A6.72,6.72,0,0,1,42.27,174Z"/>
      <path class="a" d="M56.49,137.1a6.72,6.72,0,0,1-6.72-6.72,20.18,20.18,0,0,1,20.16-20.16,6.72,6.72,0,0,1,0,13.44,6.73,6.73,0,0,0-6.72,6.72A6.72,6.72,0,0,1,56.49,137.1Z"/>
      <path class="a" d="M127.41,66.58a6.72,6.72,0,0,1-6.72-6.72A20.18,20.18,0,0,1,140.85,39.7h7.49a6.72,6.72,0,0,1,0,13.44h-7.49a6.73,6.73,0,0,0-6.72,6.72A6.72,6.72,0,0,1,127.41,66.58Z"/>
      <path class="a" d="M127,67.37H109.83a6.72,6.72,0,0,1,0-13.44H127a6.72,6.72,0,0,1,0,13.44Z"/>
      <path class="a" d="M76.05,168.7A6.72,6.72,0,0,1,69.33,162a6.73,6.73,0,0,0-6.72-6.72,6.72,6.72,0,0,1,0-13.44A20.18,20.18,0,0,1,82.77,162,6.72,6.72,0,0,1,76.05,168.7Z"/>
      <path class="a" d="M41.09,120.7a6.72,6.72,0,0,1,0-13.44c3.64,0,6.72-4.06,6.72-8.87V95.2c0-4.81-3.08-8.87-6.72-8.87a6.72,6.72,0,1,1,0-13.44c11.12,0,20.16,10,20.16,22.31v3.19C61.25,110.69,52.2,120.7,41.09,120.7Z"/>
      <path class="b" d="M70.91,91.66a6.72,6.72,0,0,1-6.72-6.72A20.18,20.18,0,0,1,84.35,64.79l8.74-.19A6.65,6.65,0,0,1,100,71.17,6.72,6.72,0,0,1,93.38,78l-8.89.19a6.76,6.76,0,0,0-6.86,6.72A6.72,6.72,0,0,1,70.91,91.66Z"/>
      <path class="a" d="M71.9,123.66a6.72,6.72,0,0,1-6.72-6.72V102.72a6.72,6.72,0,1,1,13.44,0v14.22A6.72,6.72,0,0,1,71.9,123.66Z"/>
      <path class="a" d="M129.58,155.16a6.72,6.72,0,1,1,0-13.44A6.73,6.73,0,0,0,136.3,135a6.72,6.72,0,0,1,13.44,0A20.18,20.18,0,0,1,129.58,155.16Z"/>
      <path class="a" d="M143,168.59a6.72,6.72,0,0,1-6.72-6.72,6.73,6.73,0,0,0-6.72-6.72,6.72,6.72,0,1,1,0-13.44,20.18,20.18,0,0,1,20.16,20.16A6.72,6.72,0,0,1,143,168.59Z"/>
    </g>
    <g>
      <path class="a" d="M231.72,107.72a17.7,17.7,0,0,1-10-3l2.53-4.72a13,13,0,0,0,7.2,2.43c2.29,0,4.87-.86,4.87-3.24,0-4.15-7.63-4.87-11.45-9.21a8.17,8.17,0,0,1-2-5.58c0-4.77,3.77-9,10.68-9a16.1,16.1,0,0,1,7.92,1.91l-.1,5.63a15.46,15.46,0,0,0-7.49-2.29c-2.34,0-4.15,1-4.15,2.86,0,5.44,13.5,5,13.5,14.83C243.22,104.15,238.16,107.72,231.72,107.72Z"/>
      <path class="a" d="M273.51,94.89v12.35H267V94.8l-10.88-19h7.2l4.77,8.78c.76,1.34,1.67,3.1,2.34,4.53h.1c.67-1.43,1.53-3.1,2.24-4.44l4.82-8.87h6.82Z"/>
      <path class="a" d="M322,107.25,308.39,89.79c-1.19-1.53-2.05-2.77-3-4.15h-.1c.1,1,.1,3,.1,4.39v17.22H298.9V75.81h6.58L318.64,92.6c1.24,1.57,2.1,2.81,3,4.1h.1c-.1-1.48-.1-3.53-.1-4.87v-16h6.49v31.43Z"/>
      <path class="a" d="M365.68,107.25l-3.05-7.68H351.94L349,107.25h-6.44L354.9,75.67h5l12.83,31.58Zm-7.2-19a34.09,34.09,0,0,1-1.14-3.86h0a24.7,24.7,0,0,1-1.14,3.77l-2.34,6.2h6.82Z"/>
      <path class="a" d="M394.92,96.42h-1.19v10.83H387.2V75.81h8.59c6.92,0,11.54,3.48,11.54,10.21C407.33,90.08,404.27,96.42,394.92,96.42Zm.19-15.17h-1.38V91.46h1.43c3.86,0,5.63-2,5.63-5.2C400.79,83.45,398.93,81.25,395.12,81.25Z"/>
      <path class="a" d="M444.73,81.16h-8.44v26.09H429.7V81.16H420.5V75.81h25.71Z"/>
      <path class="a" d="M460.47,107.25V75.81H467v31.43Z"/>
      <path class="a" d="M498.92,107.72c-10.25,0-16.07-7-16.07-15.88s6.77-16.36,17.51-16.36a18.71,18.71,0,0,1,8.2,1.67l-.1,5.82a15.2,15.2,0,0,0-7.87-2.19c-7.39,0-10.64,5.15-10.64,10.59,0,6,3.86,10.73,10.06,10.73a15.78,15.78,0,0,0,7.82-2.15l1.76,4.58A19.61,19.61,0,0,1,498.92,107.72Z"/>
      <path class="b" d="M237,153.79c-9.69,0-15.19-6.63-15.19-15s6.4-15.46,16.54-15.46a17.67,17.67,0,0,1,7.75,1.58l-.09,5.5a14.36,14.36,0,0,0-7.44-2.07c-7,0-10.05,4.87-10.05,10,0,5.68,3.65,10.14,9.51,10.14a14.9,14.9,0,0,0,7.39-2l1.67,4.33A18.53,18.53,0,0,1,237,153.79Z"/>
      <path class="b" d="M286.3,149.37a16.82,16.82,0,0,1-21.77.81,14.91,14.91,0,0,1-4.73-11.36,15.61,15.61,0,0,1,4.28-11.09,15.14,15.14,0,0,1,11-4.42,14.31,14.31,0,0,1,15.32,15.14A15.26,15.26,0,0,1,286.3,149.37Zm-11.18-21c-5.14,0-8.88,3.74-8.88,10.23s3.74,10.23,8.88,10.23,8.79-3.74,8.79-10.23S280.26,128.37,275.12,128.37Z"/>
      <path class="b" d="M329.3,153.34V136.93c0-1.08,0-2.16.09-3.2h-.09a24.56,24.56,0,0,1-1.85,3.11l-5.5,8.43h-2.84L313,136.62a20,20,0,0,1-1.89-2.88H311c0,1.13,0,2.16,0,3v16.59h-6.13v-29.7h5.68l7.8,11.13a34.36,34.36,0,0,1,2.16,3.34h0a28.21,28.21,0,0,1,2-3.52l7.12-11h5.68v29.7Z"/>
      <path class="b" d="M358.45,143.11h-1.13v10.23h-6.17v-29.7h8.11c6.54,0,10.91,3.29,10.91,9.65C370.17,137.11,367.29,143.11,358.45,143.11Zm.18-14.33h-1.31v9.65h1.35c3.65,0,5.32-1.85,5.32-4.91C364,130.85,362.24,128.77,358.63,128.77Z"/>
      <path class="b" d="M400.41,153.34l-2.88-7.26h-10.1l-2.75,7.26h-6.09l11.63-29.84h4.69L407,153.34Zm-6.81-18a31.91,31.91,0,0,1-1.08-3.65h0a23.36,23.36,0,0,1-1.08,3.56l-2.21,5.86h6.45Z"/>
      <path class="b" d="M436.1,153.34c-4.51-7.71-6.31-11-7.39-11.45h-2.3v11.45h-6.17v-29.7h8.65c7.93,0,10.82,3.92,10.82,8.52a8.51,8.51,0,0,1-5.41,7.71v0c1.49.86,4.37,5.86,8.84,13.43ZM429,128.77h-2.61v8.61H429a4.46,4.46,0,0,0,4.55-4.55C433.58,130.53,432,128.77,429,128.77Z"/>
      <path class="b" d="M475.63,153.34l-2.88-7.26h-10.1l-2.75,7.26h-6.09l11.63-29.84h4.69l12.13,29.84Zm-6.81-18a31.91,31.91,0,0,1-1.08-3.65h0a23.36,23.36,0,0,1-1.08,3.56l-2.21,5.86h6.45Z"/>
      <path class="b" d="M512.71,128.68h-8v24.65h-6.22V128.68h-8.7v-5H514.1Z"/>
      <path class="b" d="M550.11,149.37a16.82,16.82,0,0,1-21.77.81,14.91,14.91,0,0,1-4.73-11.36,15.61,15.61,0,0,1,4.28-11.09,15.14,15.14,0,0,1,11-4.42c4.87,0,8.93,1.71,11.58,4.6a16.57,16.57,0,0,1-.41,21.45Zm-11.18-21c-5.14,0-8.88,3.74-8.88,10.23s3.74,10.23,8.88,10.23,8.79-3.74,8.79-10.23S544.07,128.37,538.93,128.37Z"/>
      <path class="b" d="M584.58,153.34c-4.51-7.71-6.31-11-7.39-11.45h-2.3v11.45h-6.17v-29.7h8.65c7.93,0,10.82,3.92,10.82,8.52a8.51,8.51,0,0,1-5.41,7.71v0c1.49.86,4.37,5.86,8.84,13.43Zm-7.08-24.56h-2.61v8.61h2.61a4.46,4.46,0,0,0,4.55-4.55C582.06,130.53,580.44,128.77,577.51,128.77Z"/>
    </g>
    <rect class="c" width="615.12" height="226.77"/>
  </g>
</svg>
