<svg xmlns="http://www.w3.org/2000/svg" viewBox="0 0 615.12 226.77">
  <defs>
    <style>
      .a {
        fill: #8c978e;
      }

      .b {
        fill: #f4792c;
      }

      .c {
        fill: none;
      }
    </style>
  </defs>
  <title>logo-synaptic_illustrator</title>
  <g>
    <g>
      <path class="a" d="M93.24,62.63H56.9A20.18,20.18,0,0,1,36.74,42.46a6.72,6.72,0,1,1,13.44,0,6.73,6.73,0,0,0,6.71,6.72H93.24a6.72,6.72,0,0,1,0,13.44Z"/>
      <path class="a" d="M76.45,45.84A20.18,20.18,0,0,1,56.29,25.68a6.72,6.72,0,1,1,13.44,0,6.72,6.72,0,0,0,6.72,6.71,6.72,6.72,0,0,1,0,13.44Z"/>
      <path class="a" d="M93.24,205.44a6.72,6.72,0,0,1-6.72-6.72V20.16a6.73,6.73,0,0,0-6.72-6.72H53.34a6.73,6.73,0,0,0-6.72,6.72,6.72,6.72,0,0,1-13.44,0A20.18,20.18,0,0,1,53.34,0H79.8A20.18,20.18,0,0,1,100,20.16V198.72A6.72,6.72,0,0,1,93.24,205.44Z"/>
      <path class="a" d="M146.57,27.47a6.72,6.72,0,0,1-6.72-6.72A6.73,6.73,0,0,0,133.13,14H106.67A6.73,6.73,0,0,0,100,20.76a6.72,6.72,0,0,1-13.44,0A20.18,20.18,0,0,1,106.67.6h26.46a20.18,20.18,0,0,1,20.16,20.16A6.72,6.72,0,0,1,146.57,27.47Z"/>
      <path class="a" d="M36.16,103.52A20.19,20.19,0,0,1,16,83.35V38.53A20.18,20.18,0,0,1,36.16,18.37H62.61a6.72,6.72,0,0,1,0,13.44H36.16a6.73,6.73,0,0,0-6.72,6.72V83.35a6.73,6.73,0,0,0,6.72,6.72,6.72,6.72,0,0,1,0,13.44Z"/>
      <path class="a" d="M20.16,122.47A20.18,20.18,0,0,1,0,102.32V74.08A20.18,20.18,0,0,1,20.16,53.93a6.72,6.72,0,1,1,0,13.44,6.72,6.72,0,0,0-6.72,6.71v28.24A6.72,6.72,0,0,0,20.16,109a6.72,6.72,0,0,1,0,13.44Z"/>
      <path class="a" d="M20.16,154.47A20.18,20.18,0,0,1,0,134.32v-5.12A20.18,20.18,0,0,1,20.16,109a6.72,6.72,0,0,1,0,13.44,6.73,6.73,0,0,0-6.72,6.72v5.12A6.73,6.73,0,0,0,20.16,141a6.72,6.72,0,0,1,0,13.44Z"/>
      <path class="a" d="M165.72,154.47a6.72,6.72,0,0,1,0-13.44,6.73,6.73,0,0,0,6.72-6.72V106.08a6.72,6.72,0,0,0-6.72-6.71,6.72,6.72,0,0,1,0-13.44,20.18,20.18,0,0,1,20.16,20.15v28.24A20.18,20.18,0,0,1,165.72,154.47Z"/>
      <path class="a" d="M166.32,99.36a6.72,6.72,0,0,1,0-13.44A6.73,6.73,0,0,0,173,79.2V74.08a6.72,6.72,0,0,0-6.71-6.71,6.72,6.72,0,0,1,0-13.44,20.17,20.17,0,0,1,20.15,20.15V79.2A20.18,20.18,0,0,1,166.32,99.36Z"/>
      <path class="a" d="M47.8,190H37.93a20.18,20.18,0,0,1-20.15-20.15V131.16a6.72,6.72,0,0,1,13.44,0v38.71a6.72,6.72,0,0,0,6.71,6.71H47.8a6.72,6.72,0,0,0,6.71-6.71,6.72,6.72,0,0,1,13.44,0A20.17,20.17,0,0,1,47.8,190Z"/>
      <path class="a" d="M147.95,190.62h-9.87a20.18,20.18,0,0,1-20.16-20.15,6.72,6.72,0,0,1,13.44,0,6.72,6.72,0,0,0,6.72,6.71h9.87a6.72,6.72,0,0,1,0,13.44Z"/>
      <path class="a" d="M147.95,190.62a6.72,6.72,0,0,1,0-13.44,6.72,6.72,0,0,0,6.71-6.71V125a6.73,6.73,0,0,0-6.71-6.72H137.68a6.72,6.72,0,1,1,0-13.44h10.27A20.18,20.18,0,0,1,168.1,125v45.42A20.17,20.17,0,0,1,147.95,190.62Z"/>
      <path class="a" d="M74.68,189.44a20.18,20.18,0,0,1-20.16-20.16,6.72,6.72,0,1,1,13.44,0A6.73,6.73,0,0,0,74.68,176a6.72,6.72,0,1,1,0,13.44Z"/>
      <path class="a" d="M111,189.44A6.72,6.72,0,0,1,111,176a6.73,6.73,0,0,0,6.72-6.72,6.72,6.72,0,1,1,13.44,0A20.18,20.18,0,0,1,111,189.44Z"/>
      <path class="a" d="M110.42,45.84a6.72,6.72,0,1,1,0-13.44,6.72,6.72,0,0,0,6.72-6.71,6.72,6.72,0,1,1,13.44,0A20.18,20.18,0,0,1,110.42,45.84Z"/>
      <path class="a" d="M76.05,209.59H53.94a20.18,20.18,0,0,1-20.16-20.16v-6.12a6.72,6.72,0,0,1,13.44,0v6.12a6.73,6.73,0,0,0,6.72,6.72H76.05a6.72,6.72,0,0,1,0,13.44Z"/>
      <path class="a" d="M132.54,209.59H112.2a6.72,6.72,0,1,1,0-13.44h20.34a6.73,6.73,0,0,0,6.72-6.72V184.5a6.72,6.72,0,0,1,13.44,0v4.93A20.18,20.18,0,0,1,132.54,209.59Z"/>
      <path class="a" d="M118.94,226.77H68.16A19.59,19.59,0,0,1,48.59,207.2a6.72,6.72,0,0,1,13.44,0,6.14,6.14,0,0,0,6.13,6.13h50.78a6.13,6.13,0,0,0,6.12-6.13,6.72,6.72,0,0,1,13.44,0A19.59,19.59,0,0,1,118.94,226.77Z"/>
      <path class="a" d="M108.83,171.66a6.72,6.72,0,0,1-6.72-6.72V140.26a20.18,20.18,0,0,1,20.16-20.16,6.72,6.72,0,1,1,0,13.44,6.73,6.73,0,0,0-6.72,6.72v24.68A6.72,6.72,0,0,1,108.83,171.66Z"/>
      <path class="a" d="M138.27,118.32a20.18,20.18,0,0,1-20.16-20.16,6.72,6.72,0,0,1,13.44,0,6.73,6.73,0,0,0,6.72,6.72,6.72,6.72,0,0,1,0,13.44Z"/>
      <path class="a" d="M111.4,118.32a6.72,6.72,0,0,1,0-13.44,6.72,6.72,0,0,0,6.71-6.72,6.72,6.72,0,0,1,13.44,0A20.18,20.18,0,0,1,111.4,118.32Z"/>
      <path class="a" d="M132.54,86.73a6.72,6.72,0,0,1,0-13.44,6.73,6.73,0,0,0,6.72-6.72,6.72,6.72,0,1,1,13.44,0A20.18,20.18,0,0,1,132.54,86.73Z"/>
      <path class="a" d="M143,100a6.72,6.72,0,0,1-6.72-6.72c0-3.64-4.06-6.71-8.86-6.71h-3.2c-4.81,0-8.87,3.08-8.87,6.71a6.72,6.72,0,1,1-13.44,0c0-11.11,10-20.15,22.31-20.15h3.2c12.3,0,22.3,9,22.3,20.15A6.72,6.72,0,0,1,143,100Z"/>
      <path class="a" d="M164.94,83.37a6.72,6.72,0,0,1-6.72-6.72V38.53a6.73,6.73,0,0,0-6.72-6.72H125a6.72,6.72,0,0,1,0-13.44H151.5a20.18,20.18,0,0,1,20.16,20.16V76.65A6.72,6.72,0,0,1,164.94,83.37Z"/>
      <path class="b" d="M42.27,174a6.72,6.72,0,0,1-6.72-6.72V144a20.18,20.18,0,0,1,20.16-20.16,6.72,6.72,0,0,1,0,13.44A6.73,6.73,0,0,0,49,144v23.3A6.72,6.72,0,0,1,42.27,174Z"/>
      <path class="b" d="M56.5,137.1a6.72,6.72,0,0,1-6.72-6.72,20.18,20.18,0,0,1,20.16-20.16,6.72,6.72,0,0,1,0,13.44,6.73,6.73,0,0,0-6.72,6.72A6.72,6.72,0,0,1,56.5,137.1Z"/>
      <path class="a" d="M127.41,66.58a6.72,6.72,0,0,1-6.72-6.72A20.18,20.18,0,0,1,140.85,39.7h7.5a6.72,6.72,0,1,1,0,13.44h-7.5a6.73,6.73,0,0,0-6.72,6.72A6.72,6.72,0,0,1,127.41,66.58Z"/>
      <path class="a" d="M127,67.37H109.83a6.72,6.72,0,0,1,0-13.44H127a6.72,6.72,0,0,1,0,13.44Z"/>
      <path class="a" d="M76.05,168.7A6.72,6.72,0,0,1,69.33,162a6.73,6.73,0,0,0-6.72-6.72,6.72,6.72,0,1,1,0-13.44A20.18,20.18,0,0,1,82.77,162,6.72,6.72,0,0,1,76.05,168.7Z"/>
      <path class="b" d="M41.09,120.7a6.72,6.72,0,0,1,0-13.44c3.64,0,6.72-4.06,6.72-8.87V95.2c0-4.81-3.08-8.87-6.72-8.87a6.72,6.72,0,1,1,0-13.44c11.12,0,20.16,10,20.16,22.31v3.2C61.25,110.69,52.21,120.7,41.09,120.7Z"/>
      <path class="a" d="M70.91,91.66a6.72,6.72,0,0,1-6.72-6.72A20.18,20.18,0,0,1,84.35,64.79l8.74-.19A6.72,6.72,0,1,1,93.38,78l-8.89.2a6.76,6.76,0,0,0-6.87,6.72A6.72,6.72,0,0,1,70.91,91.66Z"/>
      <path class="b" d="M71.91,123.66a6.72,6.72,0,0,1-6.72-6.72V102.72a6.72,6.72,0,0,1,13.44,0v14.22A6.72,6.72,0,0,1,71.91,123.66Z"/>
      <path class="a" d="M129.58,155.15a6.72,6.72,0,0,1,0-13.44A6.73,6.73,0,0,0,136.3,135a6.72,6.72,0,0,1,13.44,0A20.18,20.18,0,0,1,129.58,155.15Z"/>
      <path class="a" d="M143,168.59a6.72,6.72,0,0,1-6.72-6.72,6.73,6.73,0,0,0-6.72-6.72,6.72,6.72,0,0,1,0-13.44,20.18,20.18,0,0,1,20.16,20.16A6.72,6.72,0,0,1,143,168.59Z"/>
    </g>
    <g>
      <path class="a" d="M231.84,107.34a17.7,17.7,0,0,1-10-3l2.53-4.72a13,13,0,0,0,7.2,2.43c2.29,0,4.87-.86,4.87-3.24,0-4.15-7.63-4.87-11.45-9.21a8.17,8.17,0,0,1-2-5.58c0-4.77,3.77-9,10.68-9A16.1,16.1,0,0,1,241.57,77l-.1,5.63A15.46,15.46,0,0,0,234,80.34c-2.34,0-4.15,1-4.15,2.86,0,5.44,13.5,5,13.5,14.83C243.34,103.76,238.28,107.34,231.84,107.34Z"/>
      <path class="a" d="M273.63,94.51v12.35h-6.54V94.41l-10.87-19h7.2l4.77,8.78c.76,1.34,1.67,3.1,2.34,4.53h.1c.67-1.43,1.53-3.1,2.24-4.44l4.82-8.87h6.82Z"/>
      <path class="a" d="M322.15,106.86,308.5,89.4c-1.19-1.53-2.05-2.77-3-4.15h-.1c.1,1,.1,3,.1,4.39v17.22H299V75.43h6.58l13.17,16.79c1.24,1.57,2.1,2.81,3,4.1h.1c-.1-1.48-.1-3.53-.1-4.87v-16h6.49v31.43Z"/>
      <path class="a" d="M365.8,106.86l-3.05-7.68H352.06l-2.91,7.68h-6.44L355,75.28h5l12.83,31.58Zm-7.2-19A34.09,34.09,0,0,1,357.45,84h0a24.7,24.7,0,0,1-1.14,3.77l-2.34,6.2h6.82Z"/>
      <path class="a" d="M395,96h-1.19v10.83h-6.53V75.43h8.59c6.92,0,11.54,3.48,11.54,10.21C407.44,89.69,404.39,96,395,96Zm.19-15.17h-1.38V91.07h1.43c3.86,0,5.63-2,5.63-5.2C400.91,83.06,399,80.86,395.23,80.86Z"/>
      <path class="a" d="M444.84,80.77H436.4v26.09h-6.58V80.77h-9.21V75.43h25.71Z"/>
      <path class="a" d="M460.59,106.86V75.43h6.53v31.43Z"/>
      <path class="a" d="M499,107.34c-10.25,0-16.07-7-16.07-15.88s6.77-16.36,17.51-16.36a18.71,18.71,0,0,1,8.2,1.67l-.1,5.82a15.2,15.2,0,0,0-7.87-2.19c-7.39,0-10.64,5.15-10.64,10.59,0,6,3.86,10.73,10.06,10.73A15.78,15.78,0,0,0,508,99.56l1.76,4.58A19.61,19.61,0,0,1,499,107.34Z"/>
    </g>
    <g>
      <path class="b" d="M223.14,152.55v-29.7h6.18v29.7Z"/>
      <path class="b" d="M245,152.55v-29.7h6.13v24.61h10.46v5.09Z"/>
      <path class="b" d="M274.92,152.55v-29.7h6.13v24.61h10.46v5.09Z"/>
      <path class="b" d="M327.38,149.57c-2.21,2.21-5.41,3.43-9.92,3.43s-7.62-1-9.74-3.07-2.93-4.87-2.93-8.34V122.85h6.13V141.1A7.11,7.11,0,0,0,312.6,146a6.53,6.53,0,0,0,5,1.85c2.39,0,4.1-.63,5.18-1.85a6.43,6.43,0,0,0,1.49-4.6V122.85h6.17V141C330.4,144.57,329.41,147.54,327.38,149.57Z"/>
      <path class="b" d="M354.24,153a16.73,16.73,0,0,1-9.47-2.79l2.39-4.46A12.31,12.31,0,0,0,354,148c2.16,0,4.6-.81,4.6-3.06,0-3.92-7.21-4.6-10.82-8.7a7.72,7.72,0,0,1-1.89-5.27c0-4.51,3.56-8.47,10.1-8.47a15.23,15.23,0,0,1,7.48,1.8l-.09,5.32a14.62,14.62,0,0,0-7.08-2.16c-2.21,0-3.92,1-3.92,2.7,0,5.14,12.76,4.69,12.76,14C365.11,149.62,360.33,153,354.24,153Z"/>
      <path class="b" d="M400,127.89h-8v24.65h-6.22V127.89h-8.7v-5h24.29Z"/>
      <path class="b" d="M430.23,152.55c-4.51-7.71-6.31-11-7.39-11.45h-2.3v11.45h-6.17v-29.7H423c7.93,0,10.82,3.92,10.82,8.52a8.51,8.51,0,0,1-5.41,7.71v0c1.49.86,4.37,5.86,8.84,13.43ZM423.15,128h-2.61v8.61h2.61A4.46,4.46,0,0,0,427.7,132C427.7,129.74,426.08,128,423.15,128Z"/>
      <path class="b" d="M469.75,152.55l-2.88-7.26h-10.1L454,152.55h-6.09l11.63-29.84h4.69l12.13,29.84Zm-6.81-18a31.91,31.91,0,0,1-1.08-3.65h0a23.36,23.36,0,0,1-1.08,3.56l-2.21,5.86H465Z"/>
      <path class="b" d="M506.83,127.89h-8v24.65h-6.22V127.89h-8.7v-5h24.29Z"/>
      <path class="b" d="M544.24,148.58a16.82,16.82,0,0,1-21.77.81A14.91,14.91,0,0,1,517.73,138,15.61,15.61,0,0,1,522,126.95a15.14,15.14,0,0,1,11-4.42c4.87,0,8.93,1.71,11.58,4.6a16.57,16.57,0,0,1-.41,21.45Zm-11.18-21c-5.14,0-8.88,3.74-8.88,10.23S527.92,148,533.06,148s8.79-3.74,8.79-10.23S538.2,127.58,533.06,127.58Z"/>
      <path class="b" d="M578.71,152.55c-4.51-7.71-6.31-11-7.39-11.45H569v11.45h-6.17v-29.7h8.65c7.93,0,10.82,3.92,10.82,8.52a8.51,8.51,0,0,1-5.41,7.71v0c1.49.86,4.37,5.86,8.84,13.43ZM571.63,128H569v8.61h2.61a4.46,4.46,0,0,0,4.55-4.55C576.19,129.74,574.56,128,571.63,128Z"/>
    </g>
    <rect class="c" width="615.12" height="226.77"/>
  </g>
</svg>
