<svg xmlns="http://www.w3.org/2000/svg" viewBox="0 0 615.12 226.77">
  <defs>
    <style>
      .a {
        fill: #9ca199;
      }

      .b {
        fill: #8c978e;
      }

      .c {
        fill: #75c044;
      }

      .d {
        fill: none;
      }
    </style>
  </defs>
  <title>logg-synaptic_modeller</title>
  <g>
    <line class="a" x1="129.12" y1="226.77" x2="78.47" y2="226.77"/>
    <g>
      <path class="b" d="M75.87,209.08H53.8A20.13,20.13,0,0,1,33.7,189v-6.1a6.7,6.7,0,0,1,13.41,0V189a6.71,6.71,0,0,0,6.7,6.7H75.87a6.7,6.7,0,0,1,0,13.41Z"/>
      <path class="b" d="M93,62.47H56.76A20.13,20.13,0,0,1,36.65,42.36a6.7,6.7,0,0,1,13.41,0,6.71,6.71,0,0,0,6.7,6.7H93a6.7,6.7,0,1,1,0,13.4Z"/>
      <path class="b" d="M76.27,45.72a20.13,20.13,0,0,1-20.11-20.1,6.7,6.7,0,1,1,13.41,0,6.71,6.71,0,0,0,6.7,6.7,6.7,6.7,0,0,1,0,13.41Z"/>
      <path class="b" d="M93,204.94a6.7,6.7,0,0,1-6.7-6.7V20.11a6.71,6.71,0,0,0-6.7-6.7H53.22a6.71,6.71,0,0,0-6.7,6.7,6.7,6.7,0,0,1-13.41,0A20.13,20.13,0,0,1,53.22,0H79.61a20.13,20.13,0,0,1,20.1,20.11V198.24A6.7,6.7,0,0,1,93,204.94Z"/>
      <path class="b" d="M146.22,27.4a6.7,6.7,0,0,1-6.7-6.7,6.71,6.71,0,0,0-6.7-6.71H106.42a6.71,6.71,0,0,0-6.71,6.71,6.7,6.7,0,0,1-13.41,0A20.13,20.13,0,0,1,106.42.59h26.39A20.13,20.13,0,0,1,152.92,20.7,6.7,6.7,0,0,1,146.22,27.4Z"/>
      <path class="b" d="M36.07,103.26A20.13,20.13,0,0,1,16,83.15V38.43A20.13,20.13,0,0,1,36.07,18.32H62.47a6.7,6.7,0,1,1,0,13.41H36.07a6.71,6.71,0,0,0-6.71,6.71V83.15a6.71,6.71,0,0,0,6.71,6.7,6.7,6.7,0,1,1,0,13.41Z"/>
      <path class="b" d="M20.11,122.17A20.13,20.13,0,0,1,0,102.07V73.9A20.13,20.13,0,0,1,20.11,53.79a6.7,6.7,0,1,1,0,13.4,6.71,6.71,0,0,0-6.7,6.71v28.16a6.71,6.71,0,0,0,6.7,6.7,6.7,6.7,0,0,1,0,13.41Z"/>
      <path class="c" d="M20.11,154.1A20.13,20.13,0,0,1,0,134v-5.11a20.13,20.13,0,0,1,20.11-20.11,6.7,6.7,0,0,1,0,13.41,6.71,6.71,0,0,0-6.7,6.71V134a6.71,6.71,0,0,0,6.7,6.7,6.7,6.7,0,1,1,0,13.41Z"/>
      <path class="b" d="M165.33,154.1a6.7,6.7,0,1,1,0-13.41A6.71,6.71,0,0,0,172,134V105.82a6.7,6.7,0,0,0-6.7-6.7,6.7,6.7,0,1,1,0-13.41,20.13,20.13,0,0,1,20.1,20.1V134A20.13,20.13,0,0,1,165.33,154.1Z"/>
      <path class="b" d="M165.91,99.12a6.7,6.7,0,1,1,0-13.41,6.71,6.71,0,0,0,6.7-6.7V73.9a6.71,6.71,0,0,0-6.7-6.71,6.7,6.7,0,1,1,0-13.4A20.13,20.13,0,0,1,186,73.9V79A20.13,20.13,0,0,1,165.91,99.12Z"/>
      <path class="c" d="M47.69,189.57H37.84a20.13,20.13,0,0,1-20.11-20.11V130.85a6.7,6.7,0,1,1,13.41,0v38.61a6.71,6.71,0,0,0,6.7,6.71h9.84a6.71,6.71,0,0,0,6.7-6.71,6.7,6.7,0,1,1,13.41,0A20.13,20.13,0,0,1,47.69,189.57Z"/>
      <path class="b" d="M147.59,190.16h-9.84a20.13,20.13,0,0,1-20.11-20.11,6.7,6.7,0,1,1,13.41,0,6.71,6.71,0,0,0,6.7,6.7h9.84a6.7,6.7,0,0,1,0,13.41Z"/>
      <path class="b" d="M147.59,190.16a6.7,6.7,0,0,1,0-13.41,6.71,6.71,0,0,0,6.7-6.7V124.75a6.71,6.71,0,0,0-6.7-6.71H137.35a6.7,6.7,0,1,1,0-13.41h10.24a20.13,20.13,0,0,1,20.11,20.11v45.31A20.13,20.13,0,0,1,147.59,190.16Z"/>
      <path class="c" d="M74.5,189a20.13,20.13,0,0,1-20.11-20.11,6.7,6.7,0,1,1,13.41,0,6.71,6.71,0,0,0,6.71,6.7,6.7,6.7,0,0,1,0,13.41Z"/>
      <path class="b" d="M110.74,189a6.7,6.7,0,1,1,0-13.41,6.71,6.71,0,0,0,6.71-6.7,6.7,6.7,0,1,1,13.41,0A20.13,20.13,0,0,1,110.74,189Z"/>
      <path class="b" d="M110.16,45.72a6.7,6.7,0,1,1,0-13.41,6.71,6.71,0,0,0,6.7-6.7,6.7,6.7,0,1,1,13.41,0A20.13,20.13,0,0,1,110.16,45.72Z"/>
      <path class="b" d="M132.22,209.08H111.93a6.7,6.7,0,0,1,0-13.41h20.29a6.71,6.71,0,0,0,6.7-6.7v-4.92a6.7,6.7,0,0,1,13.41,0V189A20.13,20.13,0,0,1,132.22,209.08Z"/>
      <path class="b" d="M118.65,226.22H68A19.54,19.54,0,0,1,48.48,206.7a6.7,6.7,0,0,1,13.41,0A6.12,6.12,0,0,0,68,212.82h50.65a6.12,6.12,0,0,0,6.11-6.11,6.7,6.7,0,0,1,13.41,0A19.54,19.54,0,0,1,118.65,226.22Z"/>
      <path class="b" d="M108.57,171.25a6.7,6.7,0,0,1-6.7-6.7V139.92A20.13,20.13,0,0,1,122,119.81a6.7,6.7,0,0,1,0,13.41,6.71,6.71,0,0,0-6.71,6.7v24.62A6.7,6.7,0,0,1,108.57,171.25Z"/>
      <path class="b" d="M137.94,118a20.13,20.13,0,0,1-20.11-20.11,6.7,6.7,0,0,1,13.41,0,6.71,6.71,0,0,0,6.71,6.7,6.7,6.7,0,1,1,0,13.41Z"/>
      <path class="b" d="M111.13,118a6.7,6.7,0,1,1,0-13.41,6.71,6.71,0,0,0,6.7-6.7,6.7,6.7,0,0,1,13.41,0A20.13,20.13,0,0,1,111.13,118Z"/>
      <path class="b" d="M132.22,86.52a6.7,6.7,0,1,1,0-13.41,6.71,6.71,0,0,0,6.7-6.7,6.7,6.7,0,0,1,13.41,0A20.13,20.13,0,0,1,132.22,86.52Z"/>
      <path class="b" d="M142.67,99.71A6.7,6.7,0,0,1,136,93c0-3.63-4.05-6.7-8.85-6.7h-3.19c-4.79,0-8.84,3.07-8.84,6.7a6.7,6.7,0,0,1-13.41,0c0-11.09,10-20.11,22.25-20.11h3.19c12.27,0,22.25,9,22.25,20.11A6.7,6.7,0,0,1,142.67,99.71Z"/>
      <path class="b" d="M164.54,83.16a6.7,6.7,0,0,1-6.7-6.7v-38a6.71,6.71,0,0,0-6.71-6.71H124.74a6.7,6.7,0,0,1,0-13.41h26.39a20.13,20.13,0,0,1,20.11,20.11v38A6.7,6.7,0,0,1,164.54,83.16Z"/>
      <path class="b" d="M42.18,173.61a6.7,6.7,0,0,1-6.7-6.7V143.66a20.13,20.13,0,0,1,20.11-20.11,6.7,6.7,0,1,1,0,13.41,6.71,6.71,0,0,0-6.7,6.7V166.9A6.7,6.7,0,0,1,42.18,173.61Z"/>
      <path class="b" d="M56.36,136.77a6.7,6.7,0,0,1-6.7-6.7A20.14,20.14,0,0,1,69.77,110a6.7,6.7,0,0,1,0,13.41,6.71,6.71,0,0,0-6.71,6.71A6.7,6.7,0,0,1,56.36,136.77Z"/>
      <path class="b" d="M127.11,66.41a6.7,6.7,0,0,1-6.7-6.7A20.13,20.13,0,0,1,140.51,39.6H148A6.7,6.7,0,0,1,148,53h-7.47a6.71,6.71,0,0,0-6.7,6.7A6.7,6.7,0,0,1,127.11,66.41Z"/>
      <path class="b" d="M126.71,67.2H109.56a6.7,6.7,0,1,1,0-13.4h17.14a6.7,6.7,0,1,1,0,13.4Z"/>
      <path class="c" d="M75.87,168.29a6.7,6.7,0,0,1-6.7-6.7,6.71,6.71,0,0,0-6.7-6.7,6.7,6.7,0,0,1,0-13.41,20.13,20.13,0,0,1,20.11,20.11A6.7,6.7,0,0,1,75.87,168.29Z"/>
      <path class="b" d="M41,120.41A6.7,6.7,0,0,1,41,107c3.63,0,6.7-4.05,6.7-8.85V95c0-4.8-3.07-8.85-6.7-8.85a6.7,6.7,0,1,1,0-13.41c11.09,0,20.11,10,20.11,22.25v3.19C61.1,110.42,52.08,120.41,41,120.41Z"/>
      <path class="b" d="M70.74,91.44a6.7,6.7,0,0,1-6.7-6.7,20.13,20.13,0,0,1,20.1-20.1l8.72-.19a6.7,6.7,0,0,1,.29,13.4L84.29,78a6.74,6.74,0,0,0-6.85,6.7A6.7,6.7,0,0,1,70.74,91.44Z"/>
      <path class="b" d="M71.73,123.36a6.7,6.7,0,0,1-6.7-6.7V102.47a6.7,6.7,0,1,1,13.41,0v14.18A6.7,6.7,0,0,1,71.73,123.36Z"/>
      <path class="b" d="M129.27,154.78a6.7,6.7,0,0,1,0-13.41,6.71,6.71,0,0,0,6.7-6.7,6.7,6.7,0,1,1,13.41,0A20.13,20.13,0,0,1,129.27,154.78Z"/>
      <path class="b" d="M142.68,168.18a6.7,6.7,0,0,1-6.7-6.7,6.71,6.71,0,0,0-6.7-6.7,6.7,6.7,0,0,1,0-13.41,20.13,20.13,0,0,1,20.11,20.11A6.7,6.7,0,0,1,142.68,168.18Z"/>
    </g>
    <g>
      <path class="b" d="M230.91,106a17.66,17.66,0,0,1-10-3l2.52-4.71a13,13,0,0,0,7.19,2.43c2.28,0,4.85-.86,4.85-3.24,0-4.14-7.61-4.85-11.42-9.18a8.15,8.15,0,0,1-2-5.57c0-4.76,3.76-8.95,10.66-8.95a16.06,16.06,0,0,1,7.9,1.9l-.09,5.61A15.42,15.42,0,0,0,233,79c-2.33,0-4.14,1-4.14,2.85,0,5.42,13.47,4.95,13.47,14.8C242.38,102.41,237.33,106,230.91,106Z"/>
      <path class="b" d="M272.6,93.18V105.5h-6.52V93.08L255.23,74.14h7.19l4.76,8.75c.76,1.33,1.67,3.09,2.33,4.52h.09c.67-1.43,1.52-3.09,2.24-4.43l4.81-8.85h6.8Z"/>
      <path class="b" d="M321,105.5,307.38,88.09c-1.19-1.52-2-2.76-3-4.14h-.09c.09,1,.09,2.95.09,4.38V105.5h-6.47V74.14h6.57l13.13,16.75c1.24,1.57,2.09,2.81,3,4.09h.09c-.09-1.47-.09-3.52-.09-4.85v-16H327V105.5Z"/>
      <path class="b" d="M364.54,105.5l-3-7.66H350.83l-2.9,7.66h-6.42L353.78,74h4.95l12.8,31.5Zm-7.19-19a34,34,0,0,1-1.14-3.85h0A24.64,24.64,0,0,1,355,86.42l-2.33,6.19h6.8Z"/>
      <path class="b" d="M393.71,94.7h-1.19v10.8H386V74.14h8.57c6.9,0,11.51,3.47,11.51,10.18C406.08,88.37,403,94.7,393.71,94.7Zm.19-15.13h-1.38V89.75H394c3.85,0,5.61-2,5.61-5.19C399.56,81.76,397.71,79.57,393.9,79.57Z"/>
      <path class="b" d="M443.39,79.47H435v26H428.4v-26h-9.18V74.14h25.65Z"/>
      <path class="b" d="M459.1,105.5V74.14h6.52V105.5Z"/>
      <path class="b" d="M497.45,106c-10.23,0-16-7-16-15.85s6.76-16.32,17.46-16.32a18.66,18.66,0,0,1,8.18,1.67L507,81.28a15.17,15.17,0,0,0-7.85-2.19c-7.37,0-10.61,5.14-10.61,10.56,0,6,3.85,10.71,10,10.71a15.74,15.74,0,0,0,7.8-2.14l1.76,4.57A19.56,19.56,0,0,1,497.45,106Z"/>
    </g>
    <g>
      <path class="c" d="M246.56,151.08V134.71c0-1.08,0-2.16.09-3.19h-.09a24.39,24.39,0,0,1-1.84,3.1L239.23,143h-2.83l-6.12-8.63a20,20,0,0,1-1.89-2.88h-.09c0,1.12,0,2.16,0,3v16.55h-6.12V121.45h5.67l7.78,11.11a34.19,34.19,0,0,1,2.16,3.33h0a28,28,0,0,1,2-3.51l7.1-10.93h5.67v29.63Z"/>
      <path class="c" d="M293.54,147.12a16.78,16.78,0,0,1-21.72.81,14.87,14.87,0,0,1-4.72-11.33,15.57,15.57,0,0,1,4.27-11.06,15.11,15.11,0,0,1,11-4.41,14.28,14.28,0,0,1,15.29,15.11A15.22,15.22,0,0,1,293.54,147.12Zm-11.15-21c-5.13,0-8.86,3.73-8.86,10.21s3.73,10.21,8.86,10.21,8.77-3.73,8.77-10.21S287.51,126.17,282.39,126.17Z"/>
      <path class="c" d="M321.41,151.08H312.1V121.45h9.85c10.57,0,16.5,5.71,16.5,14.57C338.45,145.14,331.66,151.08,321.41,151.08Zm.13-24.5h-3.28V146h3.37c7.33,0,10.21-4.63,10.21-9.8C331.84,130.35,328.33,126.57,321.54,126.57Z"/>
      <path class="c" d="M352.88,151.08V121.45h17.18l-1.62,5H359v6.92h9.44v5.08H359V146h11v5Z"/>
      <path class="c" d="M384.57,151.08V121.45h6.11V146h10.43v5.08Z"/>
      <path class="c" d="M414.38,151.08V121.45h6.11V146h10.43v5.08Z"/>
      <path class="c" d="M444.18,151.08V121.45h17.18l-1.62,5h-9.4v6.92h9.44v5.08h-9.44V146h11v5Z"/>
      <path class="c" d="M491.71,151.08c-4.5-7.69-6.3-11-7.37-11.42H482v11.42h-6.16V121.45h8.63c7.91,0,10.79,3.91,10.79,8.5a8.49,8.49,0,0,1-5.4,7.69v0c1.48.86,4.36,5.85,8.81,13.4Zm-7.06-24.5H482v8.59h2.61a4.45,4.45,0,0,0,4.54-4.54C489.19,128.33,487.57,126.57,484.65,126.57Z"/>
    </g>
    <rect class="d" width="615.12" height="226.77"/>
  </g>
</svg>
