<?xml version="1.0" standalone="no"?>
<!DOCTYPE svg PUBLIC "-//W3C//DTD SVG 1.1//EN" "http://www.w3.org/Graphics/SVG/1.1/DTD/svg11.dtd" >
<svg xmlns="http://www.w3.org/2000/svg">
<metadata></metadata>
<defs>
<font id="bliss_boldregular" horiz-adv-x="384" >
<font-face units-per-em="1000" ascent="760" descent="-240" />
<missing-glyph horiz-adv-x="216" />
<glyph unicode="&#xfb01;" horiz-adv-x="584" d="M94 380h-70v93h70v66q0 84 44.5 126.5t116.5 42.5q23 0 49 -5t50 -16l-24 -95q-15 5 -29.5 9t-28.5 4q-30 0 -44 -17t-14 -48v-67h123l-29 -93h-94v-380h-120v380zM405 473h120v-473h-120v473zM465 550q-32 0 -52.5 20.5t-20.5 50.5t20.5 51t52.5 21t53 -20.5t21 -51.5 q0 -29 -21 -50t-53 -21z" />
<glyph unicode="&#xfb02;" horiz-adv-x="631" d="M94 380h-70v93h70v66q0 84 44.5 126.5t116.5 42.5q23 0 49 -5t50 -16l-24 -95q-15 5 -29.5 9t-28.5 4q-30 0 -44 -17t-14 -48v-67h123l-29 -93h-94v-380h-120v380zM407 708h119v-569q0 -25 9 -34t26 -9q5 0 13.5 1.5t16.5 4.5l23 -92q-21 -9 -44.5 -13t-43.5 -4 q-119 0 -119 114v601z" />
<glyph horiz-adv-x="0" />
<glyph horiz-adv-x="0" />
<glyph unicode="&#xd;" horiz-adv-x="216" />
<glyph unicode=" "  horiz-adv-x="216" />
<glyph unicode="&#x09;" horiz-adv-x="216" />
<glyph unicode="&#xa0;" horiz-adv-x="216" />
<glyph unicode="!" horiz-adv-x="269" d="M99 194q-8 42 -12.5 77.5t-7 80t-3.5 106t-1 154.5v47h119v-48q0 -93 -1 -154.5t-3.5 -105.5t-7.5 -79.5t-13 -77.5h-70zM134 -9q-28 0 -47 20t-19 49t19 48.5t47 19.5t47.5 -19.5t19.5 -48.5t-19.5 -49t-47.5 -20z" />
<glyph unicode="&#x22;" horiz-adv-x="395" d="M52 708h112l-11 -234h-88zM233 708h111l-10 -234h-89z" />
<glyph unicode="#" horiz-adv-x="715" d="M153 166h-110v93h130l30 141h-110v93h131l36 166h112l-36 -166h112l36 166h113l-36 -166h110v-93h-130l-31 -141h111v-93h-131l-35 -166h-113l36 166h-113l-35 -166h-113zM398 259l30 141h-112l-31 -141h113z" />
<glyph unicode="$" horiz-adv-x="545" d="M211 17q-49 5 -85 19.5t-65 33.5l47 89q26 -17 62.5 -32t75.5 -15q19 0 37 3.5t32 11.5t23 21.5t9 33.5q0 29 -20 49.5t-49.5 38t-64.5 35t-64.5 41t-49.5 56t-20 79.5q0 27 10 54t29.5 49.5t48 38.5t66.5 22v98h87v-96q35 -4 65 -13t51 -20v-100q-37 19 -73 29.5 t-76 10.5q-38 0 -61.5 -16t-23.5 -48q0 -29 20 -48.5t49.5 -36.5t64 -34t64 -40.5t49.5 -56t20 -80.5q0 -71 -47 -116.5t-124 -59.5v-104h-87v103z" />
<glyph unicode="%" horiz-adv-x="889" d="M214 312q-34 0 -63 11t-50.5 33t-34 55t-12.5 78q0 44 12.5 77t34 55t50.5 33t63 11t63 -11t50.5 -33t34 -55t12.5 -77q0 -45 -12.5 -78t-34 -55t-50.5 -33t-63 -11zM214 384q33 0 49 29t16 76t-16 75.5t-49 28.5t-49.5 -28.5t-16.5 -75.5t16.5 -76t49.5 -29zM675 -10 q-34 0 -63 11t-50.5 33t-34 55t-12.5 78q0 44 12.5 77t34 55t50.5 33t63 11t63 -11t50.5 -33t34 -55t12.5 -77q0 -45 -12.5 -78t-34 -55t-50.5 -33t-63 -11zM675 62q33 0 49 29t16 76t-16 75.5t-49 28.5t-49.5 -28.5t-16.5 -75.5t16.5 -76t49.5 -29zM603 659h97l-415 -659 h-98z" />
<glyph unicode="&#x26;" horiz-adv-x="763" d="M497 66q-97 -76 -223 -76q-50 0 -90.5 14.5t-69 40t-44.5 60.5t-16 77q0 34 10.5 62t28.5 51t43 41t55 32q-32 36 -53.5 68.5t-21.5 79.5q0 30 13 57t37.5 47.5t60.5 32.5t82 12q91 0 141.5 -42t50.5 -108q0 -57 -37.5 -98.5t-96.5 -71.5q13 -15 30.5 -33t36 -37 t37 -37.5t34.5 -33.5q25 26 47.5 62.5t35.5 79.5l101 -25q-20 -62 -47.5 -106.5t-59.5 -77.5q26 -22 50 -35t55 -13q9 0 15.5 1t11.5 3l22 -88q-15 -6 -34 -8.5t-34 -2.5q-45 0 -87 18.5t-84 53.5zM292 86q67 0 125 46q-20 18 -41.5 39t-43 42.5t-41.5 43t-36 40.5 q-39 -20 -58.5 -45.5t-19.5 -61.5q0 -45 32 -74.5t83 -29.5zM299 416q40 21 60.5 47t20.5 53q0 23 -17 43t-55 20q-36 0 -52.5 -18.5t-16.5 -41.5q0 -22 14 -46.5t46 -56.5z" />
<glyph unicode="'" horiz-adv-x="215" d="M52 708h111l-10 -234h-89z" />
<glyph unicode="(" horiz-adv-x="348" d="M243 -236q-52 56 -85 115t-52 121.5t-26 129.5t-7 138t7 138t26 130t52 122.5t85 116.5l80 -60q-33 -42 -57 -86t-39 -96.5t-22 -116.5t-7 -148t7 -148t22 -116t38.5 -95.5t56.5 -84.5l-79 -60v0z" />
<glyph unicode=")" horiz-adv-x="348" d="M26 -176q33 41 56.5 84.5t38.5 95.5t22 116t7 148t-7 148t-22 116.5t-38.5 96.5t-57.5 86l80 60q52 -57 85 -116.5t52 -122.5t26 -130t7 -138t-7 -138t-26 -129.5t-52 -121.5t-85 -115l-79 60v0z" />
<glyph unicode="*" horiz-adv-x="488" d="M201 330q-1 21 2 43t7.5 43.5t8.5 40.5t5 34q-11 -9 -25 -22t-30.5 -27.5t-34.5 -28t-37 -23.5l-43 74q18 12 39 20.5t41.5 15t39 12.5t31.5 12q-13 6 -31 11.5t-38.5 12.5t-41.5 15.5t-39 20.5l43 74q19 -9 36.5 -23t34 -28t30.5 -27.5t25 -21.5q-1 14 -5 32.5t-8.5 40 t-7.5 44t-1 43.5h85q1 -21 -1.5 -43.5t-7 -43.5t-9 -40t-5.5 -33q11 8 25 21t30.5 27.5t34.5 28t38 23.5l42 -75q-18 -12 -38.5 -20t-41.5 -15t-39.5 -12.5t-31.5 -11.5q13 -6 31.5 -12t39 -12.5t41.5 -15t39 -20.5l-43 -75q-19 10 -37 24t-34.5 28t-30.5 27.5t-26 21.5 q1 -14 5.5 -32.5t9 -40t7 -44t1.5 -43.5h-85v0z" />
<glyph unicode="+" horiz-adv-x="550" d="M219 201h-179v99h179v196h111v-196h181v-99h-181v-201h-111v201z" />
<glyph unicode="," horiz-adv-x="238" d="M27 -122q26 44 36 81t10 74q0 31 -6 66l110 19q7 -29 7 -63q0 -54 -20.5 -106.5t-67.5 -103.5l-69 33v0z" />
<glyph unicode="-" horiz-adv-x="366" d="M52 298h263v-100h-263v100z" />
<glyph unicode="&#xad;" horiz-adv-x="366" d="M52 298h263v-100h-263v100z" />
<glyph unicode="." horiz-adv-x="238" d="M117 -9q-28 0 -47.5 20t-19.5 49t19.5 48.5t47.5 19.5q27 0 46.5 -19.5t19.5 -48.5t-19.5 -49t-46.5 -20z" />
<glyph unicode="/" horiz-adv-x="397" d="M265 696h119l-252 -731h-119z" />
<glyph unicode="0" horiz-adv-x="572" d="M286 -10q-111 0 -174.5 85.5t-63.5 252.5q0 166 63.5 251.5t174.5 85.5t174.5 -85.5t63.5 -251.5q0 -167 -63.5 -252.5t-174.5 -85.5zM286 91q60 0 85.5 60t25.5 177q0 116 -25.5 176t-85.5 60t-85.5 -60t-25.5 -176q0 -117 25.5 -177t85.5 -60z" />
<glyph unicode="1" horiz-adv-x="445" d="M223 540l-153 -69l-40 93l220 100h91v-664h-118v540z" />
<glyph unicode="2" horiz-adv-x="537" d="M28 0q7 83 33.5 141t63 99.5t77 71.5t74 55.5t56 51.5t22.5 61q0 23 -8.5 39t-22.5 26t-32.5 14.5t-38.5 4.5q-51 0 -92.5 -14t-77.5 -31l-32 93q41 20 96.5 36.5t123.5 16.5q53 0 92.5 -13t66 -36t39.5 -55t13 -69q0 -47 -19.5 -82.5t-49.5 -65t-66 -56t-69 -54.5 t-59.5 -61t-36.5 -75h306v-98h-459v0z" />
<glyph unicode="3" horiz-adv-x="556" d="M67 122q35 -16 74 -23.5t73 -7.5q149 0 149 102q0 65 -69 83q-16 5 -36 6.5t-45 1.5h-87v96h70q75 0 111 24.5t36 71.5q0 40 -25 64t-76 24q-41 0 -82.5 -13t-76.5 -32l-32 93q38 20 91.5 36.5t114.5 16.5q55 0 95 -14.5t66.5 -39t39 -56.5t12.5 -67q0 -101 -101 -142v-2 q58 -12 89.5 -51.5t31.5 -97.5q0 -43 -16 -80.5t-49 -65t-83.5 -43.5t-119.5 -16q-46 0 -96.5 9t-92.5 28z" />
<glyph unicode="4" horiz-adv-x="588" d="M39 241l326 423h86v-405h98v-98h-98v-161h-118v161h-294v80zM172 257q6 0 16 0.5t22 0.5t24 0.5t21 0.5h78v94q0 20 1 40t2 37.5t2 31t1 20.5z" />
<glyph unicode="5" horiz-adv-x="529" d="M67 120q28 -13 59.5 -21t72.5 -8q31 0 58 7t47 21t31.5 35.5t11.5 50.5q0 69 -61 92q-21 8 -50.5 11.5t-69.5 3.5h-82v347h393l-24 -98h-252v-154h26q74 0 126 -20q62 -25 91.5 -72t29.5 -103q0 -46 -15.5 -86.5t-48.5 -70.5t-84.5 -47.5t-122.5 -17.5q-52 0 -94.5 9.5 t-74.5 26.5z" />
<glyph unicode="6" horiz-adv-x="565" d="M298 -10q-51 0 -96.5 18.5t-79.5 57t-54 97t-20 139.5q0 76 20.5 142.5t59 115.5t93.5 77t125 28q34 0 72 -7t75 -24l-31 -93q-53 27 -110 27q-67 0 -117 -46.5t-63 -147.5q30 20 69 34t86 14q41 0 77.5 -13.5t63.5 -39.5t43 -64t16 -87q0 -53 -17 -95t-48 -71.5 t-73 -45.5t-91 -16zM300 87q49 0 74.5 30t25.5 84q0 60 -29 91.5t-76 31.5q-32 0 -65.5 -13.5t-54.5 -31.5q1 -48 11.5 -84t27.5 -60t39 -36t47 -12z" />
<glyph unicode="7" horiz-adv-x="499" d="M77 0q19 95 47.5 178t61 153.5t68 128t69.5 101.5h-278l-29 98h468v-42q-112 -131 -180 -287t-101 -330h-126v0z" />
<glyph unicode="8" horiz-adv-x="574" d="M283 -10q-114 0 -174.5 50.5t-60.5 132.5q0 60 32.5 102.5t82.5 63.5v2q-19 10 -36 23.5t-30.5 30.5t-21.5 39.5t-8 51.5q0 38 15.5 71t44.5 57t70.5 37.5t93.5 13.5t92 -14.5t67 -38.5t40.5 -54.5t13.5 -62.5q0 -30 -9 -54t-23 -42t-32 -31.5t-36 -22.5v-2 q25 -10 47.5 -23.5t39 -33t26 -44.5t9.5 -58q0 -41 -15.5 -76.5t-46 -61.5t-76 -41t-105.5 -15zM290 83q45 0 77.5 23t32.5 68q0 29 -13.5 48.5t-34.5 33t-46.5 22t-49.5 15.5q-15 -6 -29.5 -16t-26 -23.5t-18.5 -30.5t-7 -37q0 -26 9.5 -45.5t25 -32t36.5 -19t44 -6.5z M309 386q27 14 48 37.5t21 60.5q0 36 -24.5 62t-69.5 26q-41 0 -66 -23t-25 -58q0 -24 10 -41t26 -29t37 -20.5t43 -14.5z" />
<glyph unicode="9" horiz-adv-x="559" d="M213 -10q-42 0 -81 8t-76 25l30 96q28 -14 59.5 -23t65.5 -9q155 0 174 194h-1q-29 -23 -65.5 -35t-78.5 -12q-39 0 -75.5 12t-64.5 36.5t-45 63t-17 92.5q0 51 17 93t47.5 72t72 46t91.5 16q54 0 99 -18t77.5 -56.5t50.5 -97t18 -139.5q0 -172 -75 -268t-223 -96z M267 331q37 0 68.5 17t51.5 39q0 40 -9 73t-25 57t-39 37.5t-51 13.5q-47 0 -74 -33t-27 -87q0 -56 27 -86.5t78 -30.5z" />
<glyph unicode=":" horiz-adv-x="238" d="M117 314q-28 0 -47.5 19.5t-19.5 48.5t19.5 49t47.5 20q27 0 46.5 -20t19.5 -49t-19.5 -48.5t-46.5 -19.5zM117 -9q-28 0 -47.5 20t-19.5 49t19.5 48.5t47.5 19.5q27 0 46.5 -19.5t19.5 -48.5t-19.5 -49t-46.5 -20z" />
<glyph unicode=";" horiz-adv-x="238" d="M117 314q-28 0 -47.5 19.5t-19.5 48.5t19.5 49t47.5 20q27 0 46.5 -20t19.5 -49t-19.5 -48.5t-46.5 -19.5zM27 -122q26 44 36 81t10 74q0 31 -6 66l110 19q7 -29 7 -63q0 -54 -20.5 -106.5t-67.5 -103.5z" />
<glyph unicode="&#x3c;" horiz-adv-x="543" d="M46 307l428 177v-101l-324 -122v-2l324 -122v-101l-428 177v94z" />
<glyph unicode="=" horiz-adv-x="550" d="M40 400h471v-99h-471v99zM40 198h471v-99h-471v99z" />
<glyph unicode="&#x3e;" horiz-adv-x="543" d="M69 137l324 122v2l-324 122v101l428 -177v-94l-428 -177v101z" />
<glyph unicode="?" horiz-adv-x="482" d="M138 192q-31 37 -31 84q0 30 13.5 52.5t34 41t44 34.5t44 31.5t34 32.5t13.5 38q0 28 -18.5 43t-50.5 15t-63 -13.5t-64 -42.5l-54 77q50 43 100.5 61.5t100.5 18.5q45 0 79.5 -11.5t57 -31t34 -46t11.5 -57.5q0 -35 -14.5 -61t-36.5 -47t-48 -38.5t-48 -34t-36.5 -33 t-14.5 -36.5q0 -22 14 -40zM194 -9q-28 0 -47 20t-19 49t19 48.5t47 19.5t47.5 -19.5t19.5 -48.5t-19.5 -49t-47.5 -20z" />
<glyph unicode="@" horiz-adv-x="777" d="M507 -113q-42 -16 -82.5 -21.5t-78.5 -5.5q-68 0 -125 23.5t-99 66.5t-65.5 104t-23.5 137q0 88 29.5 158.5t80 119.5t118 75t143.5 26q74 0 136.5 -22.5t107.5 -64t70.5 -100.5t25.5 -133q0 -56 -12.5 -97t-35 -69t-54 -41.5t-68.5 -13.5q-41 0 -68 20.5t-35 61.5h-1 q-7 -14 -20 -28.5t-31 -26t-40.5 -19t-48.5 -7.5q-23 0 -47.5 8t-44 27t-32 49.5t-12.5 74.5q0 49 16.5 90t45.5 70.5t68.5 46t86.5 16.5q40 0 79.5 -10.5t74.5 -31.5l-20 -155q-2 -16 -3.5 -29.5t-1.5 -25.5q0 -27 9 -44t34 -17q38 0 60 38.5t22 105.5q0 52 -15.5 99 t-48 82t-82 56t-117.5 21q-60 0 -112.5 -21t-92 -60t-62 -95.5t-22.5 -127.5q0 -66 19 -116t51.5 -84t76.5 -51t94 -17q33 0 69 6t63 19zM467 323q-26 16 -58 16q-24 0 -46 -10t-38 -29t-25.5 -46.5t-9.5 -61.5q0 -48 17 -68.5t45 -20.5q18 0 34.5 8t31 26t25 46.5 t15.5 68.5z" />
<glyph unicode="A" horiz-adv-x="628" d="M263 662h92l264 -662h-127l-64 165h-235l-62 -165h-123zM391 263l-46 131q-14 38 -21 61.5t-12 40.5h-2q-5 -17 -12.5 -41t-21.5 -62l-48 -130h163z" />
<glyph unicode="B" horiz-adv-x="567" d="M80 659h193q53 0 91.5 -14t64 -37.5t37.5 -53.5t12 -62q0 -43 -20.5 -79.5t-59.5 -56.5v-2q58 -14 91 -57.5t33 -101.5q0 -38 -14.5 -73.5t-43.5 -62.5t-72.5 -43t-100.5 -16h-211v659zM277 99q60 0 91.5 22.5t31.5 73.5q0 42 -29.5 66t-80.5 24h-90v-186h77zM257 384 q51 0 76.5 25t25.5 63q0 37 -24.5 62.5t-78.5 25.5h-56v-176h57z" />
<glyph unicode="C" horiz-adv-x="627" d="M594 42q-55 -30 -107 -41t-102 -11q-81 0 -143 24.5t-104.5 69t-64 105.5t-21.5 133q0 71 24.5 133.5t70 109t109.5 73.5t144 27q54 0 98 -9t75 -23v-112q-38 20 -80 31.5t-90 11.5q-55 0 -97 -19t-70 -51.5t-42 -75.5t-14 -92q0 -52 15 -95.5t43.5 -74.5t69 -48 t91.5 -17q49 0 88 13t74 33z" />
<glyph unicode="D" horiz-adv-x="696" d="M80 659h205q87 0 154.5 -23.5t113 -66t69 -102.5t23.5 -133q0 -75 -26 -136.5t-74 -105.5t-116.5 -68t-154.5 -24h-194v659zM276 98q65 0 111 19t74.5 51.5t41.5 74.5t13 89q0 52 -15 94t-45.5 72t-76 46.5t-105.5 16.5h-74v-463h76z" />
<glyph unicode="E" horiz-adv-x="502" d="M80 659h364l-32 -98h-212v-176h211v-98h-211v-189h245v-98h-365v659z" />
<glyph unicode="F" horiz-adv-x="480" d="M80 659h365l-31 -98h-214v-176h210v-98h-210v-287h-120v659z" />
<glyph unicode="G" horiz-adv-x="708" d="M636 43q-45 -23 -108 -38t-132 -15q-81 0 -145 24.5t-108 68.5t-67.5 104t-23.5 131q0 75 26 138.5t73 110t114 72.5t149 26q58 0 105.5 -9.5t85.5 -23.5v-112q-39 20 -83.5 32t-98.5 12q-60 0 -105 -17.5t-76 -49t-46.5 -75.5t-15.5 -96q0 -53 15 -96.5t44 -74.5 t71 -47.5t95 -16.5q33 0 61.5 5.5t48.5 14.5v209h121v-277z" />
<glyph unicode="H" horiz-adv-x="721" d="M80 659h120v-272h320v272h121v-659h-121v285h-320v-285h-120v659z" />
<glyph unicode="I" horiz-adv-x="280" d="M80 659h120v-659h-120v659z" />
<glyph unicode="J" horiz-adv-x="329" d="M-7 -72q14 -7 30 -9.5t30 -2.5q25 0 40 7.5t23 21t10.5 31t2.5 37.5v646h120v-662q0 -39 -10.5 -72.5t-33 -58t-58 -38t-84.5 -13.5q-32 0 -53 4t-41 12z" />
<glyph unicode="K" horiz-adv-x="599" d="M80 659h120v-281h3l225 281h140l-265 -320l280 -339h-147l-233 289h-3v-289h-120v659z" />
<glyph unicode="L" horiz-adv-x="452" d="M80 659h120v-561h234v-98h-354v659z" />
<glyph unicode="M" horiz-adv-x="821" d="M80 659h109l173 -249q17 -26 30.5 -45.5t24.5 -39.5h2q11 19 24 41t30 48l158 245h110v-659h-121v372v43.5t2 43.5h-2q-3 -7 -9 -17t-12.5 -20.5t-13 -20t-10.5 -16.5l-130 -202h-55l-144 207q-11 15 -23 32t-22 36h-2q1 -20 1 -43v-40v-375h-120v659z" />
<glyph unicode="N" horiz-adv-x="754" d="M80 659h119l281 -360q45 -59 74 -102h2q-2 26 -2 55v56v351h121v-659h-110l-291 375q-22 28 -39.5 53t-34.5 48h-2q2 -20 2 -47v-55v-374h-120v659z" />
<glyph unicode="O" horiz-adv-x="768" d="M384 -10q-73 0 -134 24t-105 68.5t-68.5 106.5t-24.5 138q0 75 24.5 137t68.5 107t105 69.5t134 24.5t134 -25t105 -69.5t68.5 -106.5t24.5 -137q0 -76 -25 -138t-69 -106.5t-105 -68.5t-133 -24zM384 91q45 0 82.5 16t64.5 46t42 74t15 100q0 55 -14.5 98.5t-41 74.5 t-64 47.5t-84.5 16.5q-46 0 -83.5 -16t-64.5 -46.5t-41.5 -74.5t-14.5 -100t14.5 -100t41.5 -74t64.5 -46t83.5 -16z" />
<glyph unicode="P" horiz-adv-x="545" d="M80 659h159q91 0 148 -28q51 -26 79 -73t28 -115q0 -29 -6.5 -57t-21.5 -53.5t-39 -47t-59 -35.5q-27 -11 -61 -17t-79 -6h-28v-227h-120v659zM236 325q48 0 77 15q55 27 55 103q0 32 -13 58.5t-39 42.5q-29 17 -82 17h-34v-236h36z" />
<glyph unicode="Q" horiz-adv-x="768" d="M285 3q-53 14 -95.5 43t-73.5 70.5t-47.5 95t-16.5 115.5q0 75 24.5 137t68.5 107t105 69.5t134 24.5t134 -25t105 -69.5t68.5 -106.5t24.5 -137q0 -69 -20 -126t-57 -100t-88 -70t-112 -35q51 -58 134 -58q20 0 38 3.5t28 7.5l28 -92q-24 -11 -52 -15.5t-56 -4.5 q-49 0 -89 13t-73.5 35.5t-61 53t-50.5 64.5zM384 91q45 0 82.5 16t64.5 46t42 74t15 100q0 55 -14.5 98.5t-41 74.5t-64 47.5t-84.5 16.5q-46 0 -83.5 -16t-64.5 -46.5t-41.5 -74.5t-14.5 -100t14.5 -100t41.5 -74t64.5 -46t83.5 -16z" />
<glyph unicode="R" horiz-adv-x="589" d="M80 659h180q47 0 81 -7t60 -20q53 -25 75.5 -67.5t22.5 -93.5q0 -66 -36 -109t-93 -61v-2q29 -16 82 -107l110 -192h-138l-95 167q-24 45 -42 66t-30 24h-57v-257h-120v659zM254 355q23 0 40.5 4.5t32.5 12.5q21 12 33.5 34t12.5 53q0 26 -11 48t-33 35q-12 8 -29.5 13.5 t-44.5 5.5h-55v-206h54z" />
<glyph unicode="S" horiz-adv-x="533" d="M95 139q29 -20 66.5 -34t82.5 -14q21 0 40.5 4t35 13.5t25 24.5t9.5 36q0 32 -21 54t-53 40t-68.5 36t-68.5 42t-53 58t-21 84q0 36 14 69t41.5 58t67.5 40t91 15t92.5 -9.5t68.5 -23.5v-110q-39 20 -78.5 31t-78.5 11q-17 0 -33.5 -3.5t-29 -12t-20 -22t-7.5 -33.5 q0 -30 21 -50.5t53 -38t68.5 -35.5t68.5 -42.5t53 -60t21 -87.5q0 -44 -17.5 -79t-49 -59.5t-74.5 -37.5t-94 -13q-58 0 -109.5 15.5t-89.5 41.5z" />
<glyph unicode="T" horiz-adv-x="536" d="M206 561h-192v98h520l-31 -98h-177v-561h-120v561z" />
<glyph unicode="U" horiz-adv-x="696" d="M348 -10q-92 0 -155 31.5t-93 96.5q-13 26 -19 58t-6 70v413h120v-405q0 -53 18 -89q17 -35 51 -54.5t84 -19.5t84 19.5t51 54.5q18 36 18 90v404h120v-413q0 -79 -25 -129q-31 -64 -94 -95.5t-154 -31.5z" />
<glyph unicode="V" horiz-adv-x="649" d="M7 659h131l138 -358q14 -38 25.5 -71.5t22.5 -62.5h2q10 29 21.5 62t27.5 73l137 357h130l-269 -663h-97z" />
<glyph unicode="W" horiz-adv-x="944" d="M7 659h136l121 -379q8 -26 16 -53.5t16 -57.5h2q8 30 16.5 56.5t17.5 53.5l89 265l-41 115h122l127 -373q10 -28 19.5 -57.5t17.5 -58.5h3q8 30 14.5 57.5t15.5 56.5l114 375h124l-222 -663h-102l-99 279q-11 29 -20 56.5t-16 53.5h-3q-8 -27 -16 -53.5t-19 -55.5 l-100 -280h-100z" />
<glyph unicode="X" horiz-adv-x="633" d="M247 331l-217 328h136l156 -237l167 237h132l-231 -325l221 -334h-134l-162 243l-172 -243h-132z" />
<glyph unicode="Y" horiz-adv-x="586" d="M232 261l-225 398h132l154 -291h2l153 291h130l-225 -399v-260h-121v261z" />
<glyph unicode="Z" horiz-adv-x="570" d="M356 561h-286l-29 98h503l-324 -561h327v-98h-521z" />
<glyph unicode="[" horiz-adv-x="304" d="M68 773h213v-91h-101v-826h101v-91h-213v1008z" />
<glyph unicode="\" horiz-adv-x="401" d="M14 696h120l252 -731h-119z" />
<glyph unicode="]" horiz-adv-x="304" d="M23 -144h101v826h-101v91h214v-1008h-214v91z" />
<glyph unicode="^" horiz-adv-x="521" d="M211 659h98l153 -372h-100l-101 268h-2l-100 -268h-101z" />
<glyph unicode="_" horiz-adv-x="442" d="M0 -66h442v-64h-442v64z" />
<glyph unicode="`" d="M64 678h130l58 -147h-91z" />
<glyph unicode="a" horiz-adv-x="492" d="M326 45q-26 -23 -58.5 -39t-77.5 -16q-34 0 -62.5 11t-49.5 30.5t-33 47.5t-12 62q0 48 21.5 79t58.5 50q25 13 55.5 19t66.5 8l81 3v15q0 42 -24.5 60.5t-66.5 18.5q-35 0 -66.5 -9.5t-57.5 -23.5l-39 77q85 47 183 47q190 0 190 -172v-192q0 -42 2 -72t7 -49h-100z M252 218q-45 -1 -69 -15q-29 -16 -29 -54q0 -31 19 -48t51 -17q33 0 56.5 12.5t35.5 22.5v101z" />
<glyph unicode="b" horiz-adv-x="533" d="M216 -10q-46 0 -85.5 8.5t-69.5 24.5v685h119v-237q20 6 42 10t50 4q47 0 88.5 -15.5t72 -45t48.5 -73t18 -99.5q0 -62 -21.5 -111t-59.5 -82.5t-90 -51t-112 -17.5zM235 89q65 0 103 43t38 113q0 63 -32.5 102t-91.5 39q-27 0 -44 -5t-28 -10v-274q14 -5 28 -6.5 t27 -1.5z" />
<glyph unicode="c" horiz-adv-x="448" d="M274 -10q-58 0 -102.5 18.5t-75 51.5t-46 77.5t-15.5 95.5q0 55 19 101.5t53 80t79.5 52t98.5 18.5q45 0 76.5 -10t50.5 -22v-101q-25 18 -52.5 27.5t-62.5 9.5q-33 0 -59 -11.5t-44 -32t-27.5 -48.5t-9.5 -61q0 -73 36.5 -111.5t97.5 -38.5q33 0 59 9t51 23l35 -82 q-29 -20 -71 -33t-91 -13z" />
<glyph unicode="d" horiz-adv-x="538" d="M304 -10q-58 0 -107 16t-85 46.5t-56.5 75.5t-20.5 104q0 56 19.5 102.5t54 80t82 52t103.5 18.5q14 0 32 -1.5t32 -4.5v229h120v-683q-35 -17 -82.5 -26t-91.5 -9zM302 89q12 0 28 1.5t28 6.5v283q-14 3 -26.5 5t-30.5 2q-31 0 -57.5 -10.5t-45.5 -30t-30 -48t-11 -64.5 q0 -69 40 -107t105 -38z" />
<glyph unicode="e" horiz-adv-x="493" d="M277 -10q-65 0 -111 20.5t-75 54.5t-42.5 78.5t-13.5 92.5q0 53 14.5 98.5t41.5 79t66.5 52.5t90.5 19q100 0 155 -67.5t55 -185.5v-28h-303q2 -55 37.5 -87.5t95.5 -32.5q36 0 65 9t55 23l36 -82q-38 -23 -80.5 -33.5t-86.5 -10.5zM337 287q-1 20 -6.5 39.5t-16.5 34.5 t-27.5 24t-40.5 9q-22 0 -39 -8.5t-29 -23.5t-18 -34.5t-6 -40.5h183z" />
<glyph unicode="f" horiz-adv-x="346" d="M94 380h-70v93h70v66q0 84 44.5 126.5t116.5 42.5q23 0 49 -5t50 -16l-24 -95q-15 5 -29.5 9t-28.5 4q-30 0 -44 -17t-14 -48v-67h123l-29 -93h-94v-380h-120v380z" />
<glyph unicode="g" horiz-adv-x="504" d="M234 -237q-105 0 -162.5 38.5t-57.5 100.5q0 39 24 68.5t61 45.5q-31 19 -31 59q0 21 14 45t43 44q-38 22 -58.5 60.5t-20.5 86.5q0 33 12 64t36 55.5t60.5 39.5t84.5 15q32 0 56 -6.5t38 -14.5q6 -2 12 2q19 19 44.5 30t69.5 11q8 0 17.5 -0.5t14.5 -1.5l-24 -86 q-18 5 -35 5q-8 0 -17.5 -1.5t-17.5 -6.5q21 -23 31.5 -51.5t10.5 -60.5q0 -40 -14.5 -72t-40.5 -55t-62 -35.5t-79 -12.5q-32 0 -58 8q-7 -11 -9.5 -19t-2.5 -16q0 -21 23 -30.5t57.5 -15t75 -11.5t75 -19t57.5 -38t23 -69q0 -32 -16 -60.5t-47.5 -49.5t-78.5 -33.5 t-108 -12.5zM250 -153q54 0 87 16.5t33 42.5q0 25 -24 37.5t-57.5 18.5t-69.5 10t-60 13q-11 -8 -24.5 -23.5t-13.5 -38.5q0 -35 34.5 -55.5t94.5 -20.5zM242 219q36 0 60 22t24 65q0 35 -22.5 62t-62.5 27q-35 0 -58.5 -22.5t-23.5 -65.5q0 -35 21.5 -61.5t61.5 -26.5z" />
<glyph unicode="h" horiz-adv-x="543" d="M61 708h119v-287q32 27 72 45.5t85 18.5q28 0 55 -8t48.5 -27.5t34.5 -52.5t13 -84v-313h-119v276q0 22 -3 41t-11 33t-22 22.5t-37 8.5q-30 0 -60 -14t-56 -36v-331h-119v708z" />
<glyph unicode="i" horiz-adv-x="238" d="M59 473h120v-473h-120v473zM119 550q-32 0 -52.5 20.5t-20.5 50.5t20.5 51t52.5 21t53 -20.5t21 -51.5q0 -29 -21 -50t-53 -21z" />
<glyph unicode="j" horiz-adv-x="252" d="M-39 -122q13 -6 26 -8.5t25 -2.5q33 0 47 19t14 62v525h120v-543q0 -81 -44 -124t-119 -43q-52 0 -91 17zM133 550q-32 0 -52.5 20.5t-20.5 50.5t20.5 51t52.5 21t53 -20.5t21 -51.5q0 -29 -21 -50t-53 -21z" />
<glyph unicode="k" horiz-adv-x="493" d="M61 708h119v-399h2l155 164h136l-194 -206l210 -267h-139l-168 219h-2v-219h-119v708z" />
<glyph unicode="l" horiz-adv-x="285" d="M61 708h119v-569q0 -25 9 -34t26 -9q5 0 13.5 1.5t16.5 4.5l23 -92q-21 -9 -44.5 -13t-43.5 -4q-119 0 -119 114v601z" />
<glyph unicode="m" horiz-adv-x="833" d="M55 473h100l12 -53q35 28 75 46.5t84 18.5t76.5 -19t49.5 -54q43 36 86.5 54.5t83.5 18.5q31 0 59.5 -9t50 -29.5t34.5 -53t13 -79.5v-314h-119v281q0 21 -2.5 39t-10.5 31.5t-22 21.5t-37 8q-29 0 -57.5 -13t-54.5 -34q1 -5 1 -18v-316h-120v280q0 21 -2.5 39t-10 32 t-21 22t-36.5 8q-29 0 -58 -13t-55 -34v-334h-119v473z" />
<glyph unicode="n" horiz-adv-x="537" d="M55 473h102l12 -53q38 29 77.5 47t84.5 18q28 0 55.5 -8t49 -27.5t34.5 -52.5t13 -84v-313h-120v276q0 22 -3 41t-11 33t-22 22.5t-37 8.5q-29 0 -59.5 -14t-56.5 -36v-331h-119v473z" />
<glyph unicode="o" horiz-adv-x="542" d="M271 -10q-53 0 -96.5 19t-74.5 52t-48 78.5t-17 98.5t17 98.5t48 78.5t74.5 51.5t96.5 18.5t96.5 -18.5t75 -51.5t48.5 -78.5t17 -98.5t-17 -98.5t-48.5 -78.5t-75 -52t-96.5 -19zM271 86q57 0 85.5 43t28.5 109q0 33 -7.5 60.5t-21.5 47.5t-35.5 31.5t-49.5 11.5 t-49.5 -11.5t-35.5 -31.5t-21.5 -47.5t-7.5 -60.5q0 -66 28.5 -109t85.5 -43z" />
<glyph unicode="p" horiz-adv-x="528" d="M55 455q39 14 84.5 22t94.5 8q64 0 112.5 -17.5t81 -49.5t49 -77.5t16.5 -102.5q0 -54 -17.5 -99.5t-50 -78.5t-78 -51.5t-100.5 -18.5q-37 0 -73 11v-238h-119v692zM174 101q16 -6 30.5 -9t33.5 -3q66 0 99.5 40t33.5 109q0 76 -38.5 112.5t-102.5 36.5q-16 0 -29 -2 t-27 -6v-278z" />
<glyph unicode="q" horiz-adv-x="534" d="M247 -10q-40 0 -78 14t-68 43.5t-48 73.5t-18 104q0 62 21 110.5t57.5 81.5t86.5 50.5t107 17.5q48 0 95 -8.5t77 -21.5v-692h-119v256q-25 -15 -53.5 -22t-59.5 -7zM277 89q27 0 48 8t35 18v263q-14 4 -29 6.5t-31 2.5q-70 0 -106.5 -44t-36.5 -113q0 -63 32 -102 t88 -39z" />
<glyph unicode="r" horiz-adv-x="364" d="M55 473h101l13 -53q32 32 63 48.5t67 16.5q17 0 35 -4.5t32 -14.5l-42 -101q-16 10 -29.5 13t-24.5 3q-23 0 -45 -10.5t-51 -36.5v-334h-119v473z" />
<glyph unicode="s" horiz-adv-x="420" d="M58 123q27 -17 60 -28t69 -11t59.5 11.5t23.5 38.5q0 20 -16.5 32t-41 22t-53.5 20.5t-53.5 27t-41 41.5t-16.5 65q0 31 12.5 57.5t35.5 45.5t56 29.5t75 10.5q40 0 75 -6t64 -17v-101q-30 13 -63 21.5t-71 8.5q-30 0 -48.5 -10t-18.5 -33q0 -19 16.5 -30.5t41 -21 t53.5 -20t53.5 -28t41 -44t16.5 -67.5q0 -39 -15.5 -67t-42 -45.5t-61.5 -26t-73 -8.5q-56 0 -100.5 14t-73.5 32z" />
<glyph unicode="t" horiz-adv-x="386" d="M236 -10q-63 0 -99 33.5t-36 93.5v263h-85v93h85v110l119 35v-145h143l-29 -93h-114v-234q0 -33 11.5 -46.5t34.5 -13.5q21 0 39.5 7t32.5 16l36 -82q-26 -17 -64.5 -27t-73.5 -10z" />
<glyph unicode="u" horiz-adv-x="535" d="M213 -10q-17 0 -37.5 4t-40 14.5t-36.5 28.5t-28 46q-8 20 -12 43t-4 56v291h119v-279q0 -38 10 -59q18 -43 71 -43q29 0 55 12.5t42 29.5v339h120v-356q0 -38 1.5 -68t6.5 -49h-102l-18 49q-27 -24 -63.5 -41.5t-83.5 -17.5z" />
<glyph unicode="v" horiz-adv-x="486" d="M5 473h121l117 -322h2l115 322h120l-192 -476h-90z" />
<glyph unicode="w" horiz-adv-x="748" d="M7 473h121l100 -321h2l100 321h93l104 -321h2l98 321h118l-175 -476h-88l-104 321h-2l-106 -321h-92z" />
<glyph unicode="x" horiz-adv-x="494" d="M184 238l-171 235h125l111 -154l112 154h124l-173 -235l175 -238h-125l-114 158l-116 -158h-125z" />
<glyph unicode="y" horiz-adv-x="518" d="M18 -123q17 -8 34 -13t37 -5q40 0 72 31.5t60 112.5l-213 470h124l143 -336h2l115 336h121l-181 -488q-28 -74 -56.5 -118t-58 -67t-60.5 -30t-63 -7q-56 0 -106 22z" />
<glyph unicode="z" horiz-adv-x="415" d="M234 380h-181l-24 93h379l-217 -380h213v-93h-389z" />
<glyph unicode="{" horiz-adv-x="362" d="M300 -227q-53 3 -87.5 17t-55 37.5t-29 53.5t-8.5 65v218q0 42 -19 55t-46 14v80q27 1 46 14t19 55v218q0 34 8.5 64.5t29 54t55 37.5t87.5 17l21 -105q-45 -5 -66 -25.5t-21 -64.5v-181q0 -32 -6.5 -54.5t-17 -37t-24.5 -22t-29 -9.5v-2q15 -2 29 -9.5t24.5 -22t17 -37 t6.5 -54.5v-181q0 -44 21 -64.5t66 -25.5l-21 -105v0z" />
<glyph unicode="|" horiz-adv-x="282" d="M83 780h117v-1016h-117v1016z" />
<glyph unicode="}" horiz-adv-x="362" d="M42 -122q45 5 66 25.5t21 64.5v181q0 32 6.5 54.5t17 37t24.5 22t29 9.5v2q-15 2 -29 9.5t-24.5 22t-17 37t-6.5 54.5v181q0 44 -21 64.5t-66 25.5l21 105q53 -3 87.5 -17t55 -37.5t29 -54t8.5 -64.5v-218q0 -42 19 -55t46 -14v-80q-27 -1 -46 -14t-19 -55v-218 q0 -35 -8.5 -65t-29 -53.5t-55 -37.5t-87.5 -17l-21 105v0z" />
<glyph unicode="~" horiz-adv-x="550" d="M24 274q37 37 75 54t77 17q29 0 55 -9t50 -19.5t48 -19.5t49 -9q27 0 46.5 9.5t44.5 32.5l58 -76q-38 -38 -76 -54.5t-77 -16.5q-29 0 -55 9t-50.5 19.5t-48 19.5t-48.5 9q-26 0 -45.5 -9.5t-45.5 -32.5z" />
<glyph unicode="&#xa1;" horiz-adv-x="269" d="M134 347q-28 0 -47 20t-19 49t19 49t47 20t47.5 -20t19.5 -49t-19.5 -49t-47.5 -20zM75 -134q0 93 1 154t3.5 105.5t7 79.5t12.5 77h70q8 -42 13 -77.5t7.5 -79.5t3.5 -105.5t1 -154.5v-48h-119v49z" />
<glyph unicode="&#xa2;" horiz-adv-x="545" d="M243 106q-41 9 -72.5 30t-52.5 50.5t-31.5 65.5t-10.5 75q0 40 12 76.5t34.5 66.5t53.5 51.5t70 30.5v107h86v-97q36 -1 63 -9.5t44 -19.5v-94q-26 18 -55 25.5t-60 7.5q-28 0 -52 -9.5t-42 -27.5t-28 -44t-10 -59q0 -64 35 -101t94 -37q33 0 59.5 7.5t50.5 20.5l30 -86 q-24 -13 -58.5 -22.5t-73.5 -11.5v-102h-86v106z" />
<glyph unicode="&#xa3;" horiz-adv-x="545" d="M60 76q33 10 51.5 36.5t27 58.5t10.5 64t2 52h-71v98h71v60q0 68 22 111t54.5 67t70 33t68.5 9q45 0 78 -8.5t56 -17.5l-26 -96q-41 21 -91 21q-49 0 -81.5 -31t-32.5 -102v-46h188l-31 -98h-157q0 -25 -2 -52.5t-8 -54.5t-18 -50.5t-31 -40.5v-2q26 4 52.5 7.5t70.5 3.5 h163v-98h-436v76z" />
<glyph unicode="&#xa4;" horiz-adv-x="545" d="M392 135q-26 -16 -56.5 -25t-63.5 -9q-65 0 -119 34l-68 -69l-71 72l69 67q-17 26 -27 56.5t-10 65.5q0 33 9 63t26 56l-68 67l71 72l67 -69q26 17 56.5 27t64.5 10t65 -10t57 -27l65 67l71 -71l-67 -66q17 -26 26 -56t9 -63q0 -34 -9.5 -65t-26.5 -57l68 -66l-72 -71z M272 183q29 0 54.5 11t44 30.5t29.5 46t11 56.5t-11 56t-29.5 45.5t-44 30.5t-54.5 11t-54.5 -11t-44 -30.5t-29.5 -45.5t-11 -56t11 -56.5t29.5 -46t44 -30.5t54.5 -11z" />
<glyph unicode="&#xa5;" horiz-adv-x="545" d="M213 112h-156v75h156v74h-156v75h120l-153 323h128l120 -290h1l119 290h129l-154 -323h121v-75h-156v-74h156v-75h-156v-112h-119v112z" />
<glyph unicode="&#xa6;" horiz-adv-x="282" d="M83 780h117v-364h-117v364zM83 128h117v-364h-117v364z" />
<glyph unicode="&#xa7;" horiz-adv-x="558" d="M110 -24q27 -17 64.5 -30.5t79.5 -13.5q21 0 40.5 3.5t34 12t23.5 22.5t9 34q0 30 -21.5 49.5t-54 35.5t-70 31t-70 37t-54 53t-21.5 79q0 47 21.5 83.5t56.5 59.5q-23 21 -38.5 51t-15.5 70q0 38 14 69.5t39 54t60.5 35t79.5 12.5q60 0 103.5 -12t66.5 -24l-2 -103 q-38 20 -76 31t-80 11q-37 0 -62.5 -16.5t-25.5 -48.5q0 -31 22 -51t55 -36t71.5 -31.5t71.5 -37.5t55 -55t22 -83q0 -47 -23 -83.5t-60 -58.5q23 -20 38.5 -48t15.5 -65q0 -47 -17.5 -80t-48 -55t-71.5 -32t-87 -10q-66 0 -115.5 17.5t-75.5 37.5zM362 169q19 13 30.5 32 t11.5 43q0 28 -18 48.5t-46 37t-62.5 31.5t-67.5 32q-17 -12 -27.5 -29t-10.5 -45q0 -29 18 -50t46 -38t61.5 -31.5t64.5 -30.5z" />
<glyph unicode="&#xa8;" d="M96 544q-25 0 -43 17.5t-18 43.5t18 44t43 18q26 0 44 -18t18 -44t-18 -43.5t-44 -17.5zM287 544q-26 0 -43.5 17.5t-17.5 43.5t17.5 44t43.5 18q25 0 43 -18t18 -44t-18 -43.5t-43 -17.5z" />
<glyph unicode="&#xa9;" horiz-adv-x="770" d="M385 -10q-74 0 -135 26t-104.5 71t-68 106.5t-24.5 133.5t24.5 133.5t68 106.5t104.5 71t135 26q73 0 134 -26t104.5 -71t68 -106.5t24.5 -133.5t-24.5 -133.5t-68 -106.5t-104.5 -71t-134 -26zM385 51q57 0 105 20.5t83 57t54.5 87t19.5 111.5t-19.5 111.5t-54.5 87 t-83 57t-105 20.5t-105 -20.5t-83.5 -57t-55 -87t-19.5 -111.5t19.5 -111.5t55 -87t83.5 -57t105 -20.5zM510 157q-58 -32 -118 -32q-43 0 -77.5 15t-58.5 41t-37 62.5t-13 79.5q0 42 13.5 79t38.5 65t61 44t80 16q32 0 58 -7t41 -15v-68q-21 12 -45 19t-52 7 q-55 0 -88.5 -38t-33.5 -99q0 -64 32 -101t86 -37q29 0 50.5 7t38.5 18z" />
<glyph unicode="&#xaa;" horiz-adv-x="368" d="M238 299q-17 -15 -41 -25.5t-53 -10.5q-48 0 -80.5 29t-32.5 80q0 53 39 80.5t108 29.5l50 2v8q0 23 -17 34t-42 11q-26 0 -48 -6t-41 -16l-32 60q32 20 67 28t67 8q66 0 101.5 -29t35.5 -96v-131q0 -26 1.5 -46.5t6.5 -38.5h-77zM228 419l-41 -1q-63 -2 -63 -41 q0 -18 12 -29t35 -11q18 0 33.5 7.5t23.5 14.5v60z" />
<glyph unicode="&#xab;" horiz-adv-x="605" d="M37 241l170 231l96 -51l-134 -180l134 -178l-96 -51zM284 241l170 231l96 -51l-134 -180l134 -178l-96 -51z" />
<glyph unicode="&#xac;" horiz-adv-x="550" d="M399 245h-359v99h471v-299h-112v200z" />
<glyph unicode="&#xae;" horiz-adv-x="574" d="M285 180q-53 0 -96.5 18.5t-75 51t-49 77t-17.5 96.5t17.5 96t49 76.5t75 51t96.5 18.5q51 0 95.5 -18.5t76.5 -51t50.5 -76.5t18.5 -96t-18.5 -96.5t-51 -77t-76.5 -51t-95 -18.5zM285 227q41 0 75 15t59 41.5t38.5 62.5t13.5 77t-13.5 76.5t-38.5 62t-59 41.5t-75 15 t-75 -15t-58.5 -41.5t-38 -62t-13.5 -76.5t13.5 -77t38 -62.5t58.5 -41.5t75 -15zM202 557h78q25 0 43 -5q25 -8 37 -25.5t12 -40.5q0 -30 -18.5 -47.5t-43.5 -22.5v-2q14 -7 33.5 -40t44.5 -78h-57q-26 48 -42.5 76t-25.5 30h-11v-106h-50v261zM266 441q22 0 37.5 9 t15.5 31q0 27 -21 33q-11 4 -31 4h-15v-77h14z" />
<glyph unicode="&#xaf;" d="M49 659h285v-90h-285v90z" />
<glyph unicode="&#xb0;" horiz-adv-x="370" d="M184 353q-34 0 -62.5 11.5t-49 32t-32 48.5t-11.5 61t11.5 61t32.5 48.5t49.5 32t62.5 11.5t62.5 -11.5t49.5 -32t32.5 -48.5t11.5 -61t-12 -61t-33 -48.5t-49.5 -32t-62.5 -11.5zM185 427q32 0 53 21.5t21 56.5t-21 57t-53 22t-53 -22t-21 -57t21 -56.5t53 -21.5z" />
<glyph unicode="&#xb1;" horiz-adv-x="550" d="M219 285h-179v99h179v137h111v-137h181v-99h-181v-137h-111v137zM40 99h471v-99h-471v99z" />
<glyph unicode="&#xb2;" horiz-adv-x="349" d="M22 402q1 45 15.5 79t35.5 59.5t44.5 44t43.5 34t33.5 30t13.5 30.5q0 19 -13.5 28.5t-35.5 9.5q-24 0 -48 -8t-53 -21l-24 73q33 16 69.5 26.5t77.5 10.5q65 0 97 -29.5t32 -77.5q0 -41 -23 -67.5t-52 -48t-56 -42.5t-35 -50h169v-81h-291v0z" />
<glyph unicode="&#xb3;" horiz-adv-x="348" d="M40 493q24 -11 46.5 -15.5t44.5 -4.5q70 0 70 48q0 12 -7 22.5t-22 15.5q-10 4 -22 5t-29 1h-49v69h38q17 0 29 2t20 5q16 7 22.5 17.5t6.5 22.5q0 20 -14 29.5t-36 9.5q-23 0 -45.5 -6.5t-44.5 -15.5l-23 71q29 11 61.5 20t74.5 9q63 0 96 -29t33 -71q0 -34 -18.5 -56.5 t-47.5 -34.5v-2q38 -7 59 -30.5t21 -60.5q0 -50 -41.5 -84t-126.5 -34q-31 0 -63 6.5t-58 19.5z" />
<glyph unicode="&#xb4;" d="M189 678h130l-97 -147h-91z" />
<glyph unicode="&#xb6;" horiz-adv-x="632" d="M266 204q-48 4 -87.5 22t-67 47.5t-43 69.5t-15.5 88t16.5 89.5t47.5 72.5t74.5 48.5t97.5 17.5h262v-819h-96v742h-93v-742h-96v364z" />
<glyph unicode="&#xb7;" horiz-adv-x="238" d="M117 182q-28 0 -47.5 20t-19.5 49t19.5 48.5t47.5 19.5q27 0 46.5 -19.5t19.5 -48.5t-19.5 -49t-46.5 -20z" />
<glyph unicode="&#xb8;" d="M101 -146q24 -8 48 -8q22 0 35 8t13 24q0 22 -22.5 28t-58.5 6l27 88h88l-15 -49q37 -3 60.5 -19.5t23.5 -54.5t-34.5 -63.5t-106.5 -25.5q-23 0 -42 3t-33 8z" />
<glyph unicode="&#xb9;" horiz-adv-x="349" d="M176 699l-116 -43l-31 75l165 65h75v-394h-93v297z" />
<glyph unicode="&#xba;" horiz-adv-x="392" d="M196 263q-38 0 -69 13t-53.5 36.5t-34.5 55t-12 69.5q0 37 12 69t34.5 55.5t53.5 36.5t69 13t69 -13t53.5 -36.5t34.5 -55.5t12 -69q0 -38 -12 -69.5t-34.5 -55t-53.5 -36.5t-69 -13zM196 339q36 0 56 28t20 70t-20 70t-56 28t-56 -28t-20 -70t20 -70t56 -28z" />
<glyph unicode="&#xbb;" horiz-adv-x="605" d="M188 241l-133 180l95 51l170 -231l-170 -229l-95 51zM435 241l-133 180l95 51l170 -231l-170 -229l-95 51z" />
<glyph unicode="&#xbc;" horiz-adv-x="943" d="M620 659h98l-416 -659h-97zM207 567l-116 -43l-31 75l165 65h75v-394h-93v297zM521 141l193 253h89v-240h53v-70h-53v-84h-93v84h-189v57zM620 153q13 1 29.5 1h36.5h24v27q0 20 0.5 45.5t2.5 50.5z" />
<glyph unicode="&#xbd;" horiz-adv-x="943" d="M602 659h98l-416 -659h-97zM192 567l-116 -43l-31 75l165 65h75v-394h-93v297zM575 0q1 45 15.5 79t35.5 59.5t44.5 44t43.5 34t33.5 30t13.5 30.5q0 19 -13.5 28.5t-35.5 9.5q-24 0 -48 -8t-53 -21l-24 73q33 16 69.5 26.5t77.5 10.5q65 0 97 -29.5t32 -77.5 q0 -41 -23 -67.5t-52 -48t-56 -42.5t-35 -50h169v-81h-291v0z" />
<glyph unicode="&#xbe;" horiz-adv-x="943" d="M643 659h98l-416 -659h-97zM91 360q24 -11 46.5 -15.5t44.5 -4.5q70 0 70 48q0 12 -7 22.5t-22 15.5q-10 4 -22 5t-29 1h-49v69h38q17 0 29 2t20 5q16 7 22.5 17.5t6.5 22.5q0 20 -14 29.5t-36 9.5q-23 0 -45.5 -6.5t-44.5 -15.5l-23 71q29 11 61.5 20t74.5 9 q63 0 96 -29t33 -71q0 -34 -18.5 -56.5t-47.5 -34.5v-2q38 -7 59 -30.5t21 -60.5q0 -50 -41.5 -84t-126.5 -34q-31 0 -63 6.5t-58 19.5zM536 141l193 253h89v-240h53v-70h-53v-84h-93v84h-189v57zM635 153q13 1 29.5 1h36.5h24v27q0 20 0.5 45.5t2.5 50.5z" />
<glyph unicode="&#xbf;" horiz-adv-x="473" d="M268 347q-27 0 -46.5 20t-19.5 49t19.5 49t46.5 20q28 0 47.5 -20t19.5 -49t-19.5 -49t-47.5 -20zM423 -109q-50 -43 -100.5 -61.5t-100.5 -18.5q-45 0 -79.5 11.5t-57 31t-34 46t-11.5 57.5q0 34 14.5 60.5t36.5 47.5t47.5 38.5t47.5 34t36.5 33t14.5 36.5q0 21 -13 40 l101 37q31 -37 31 -84q0 -30 -13.5 -52.5t-34 -41t-44.5 -34.5t-44.5 -31.5t-34 -32.5t-13.5 -38q0 -28 18.5 -43t50.5 -15t63 13.5t65 42.5z" />
<glyph unicode="&#xc0;" horiz-adv-x="628" d="M263 662h92l264 -662h-127l-64 165h-235l-62 -165h-123zM391 263l-46 131q-14 38 -21 61.5t-12 40.5h-2q-5 -17 -12.5 -41t-21.5 -62l-48 -130h163zM182 843h130l58 -147h-91z" />
<glyph unicode="&#xc1;" horiz-adv-x="628" d="M263 662h92l264 -662h-127l-64 165h-235l-62 -165h-123zM391 263l-46 131q-14 38 -21 61.5t-12 40.5h-2q-5 -17 -12.5 -41t-21.5 -62l-48 -130h163zM307 843h130l-97 -147h-91z" />
<glyph unicode="&#xc2;" horiz-adv-x="628" d="M263 662h92l264 -662h-127l-64 165h-235l-62 -165h-123zM391 263l-46 131q-14 38 -21 61.5t-12 40.5h-2q-5 -17 -12.5 -41t-21.5 -62l-48 -130h163zM261 843h96l101 -147h-94l-55 79l-54 -79h-94z" />
<glyph unicode="&#xc3;" horiz-adv-x="628" d="M263 662h92l264 -662h-127l-64 165h-235l-62 -165h-123zM391 263l-46 131q-14 38 -21 61.5t-12 40.5h-2q-5 -17 -12.5 -41t-21.5 -62l-48 -130h163zM153 759q0 41 23.5 62t58.5 21q21 0 40 -7t35.5 -15t30 -15t25.5 -7q15 0 18.5 9.5t3.5 28.5h78v-40q0 -40 -23.5 -61 t-58.5 -21q-21 0 -39.5 6.5t-35 15t-30.5 15t-26 6.5q-15 0 -18.5 -9.5t-3.5 -27.5h-78v39z" />
<glyph unicode="&#xc4;" horiz-adv-x="628" d="M263 662h92l264 -662h-127l-64 165h-235l-62 -165h-123zM391 263l-46 131q-14 38 -21 61.5t-12 40.5h-2q-5 -17 -12.5 -41t-21.5 -62l-48 -130h163zM214 701q-25 0 -43 17.5t-18 43.5t18 44t43 18q26 0 44 -18t18 -44t-18 -43.5t-44 -17.5zM405 701q-26 0 -43.5 17.5 t-17.5 43.5t17.5 44t43.5 18q25 0 43 -18t18 -44t-18 -43.5t-43 -17.5z" />
<glyph unicode="&#xc5;" horiz-adv-x="628" d="M260 653q-32 10 -50.5 33.5t-18.5 57.5q0 45 32.5 71t84.5 26t84.5 -26t32.5 -71q0 -34 -18.5 -57t-48.5 -33l261 -654h-127l-64 165h-235l-62 -165h-123zM391 263l-46 132q-14 38 -21 61.5t-12 41.5h-2q-5 -18 -12.5 -42t-21.5 -62l-48 -131h163zM308 698q19 0 30 12 t11 34t-11 33.5t-30 11.5q-18 0 -29.5 -11.5t-11.5 -33.5t11.5 -34t29.5 -12z" />
<glyph unicode="&#xc6;" horiz-adv-x="837" d="M363 659h415l-31 -98h-253l29 -176h223v-98h-206l32 -189h208v-98h-314l-28 165h-218l-89 -165h-124zM422 263l-23 154q-3 18 -6 37.5t-5 39.5h-2q-8 -20 -17.5 -41.5t-20.5 -41.5l-74 -148h148z" />
<glyph unicode="&#xc7;" horiz-adv-x="627" d="M263 -146q24 -8 47 -8q22 0 35.5 8t13.5 24q0 22 -22.5 28t-58.5 6l26 86q-62 11 -109 39.5t-78.5 71t-48 96.5t-16.5 117q0 71 24.5 133.5t70 109t109.5 73.5t144 27q54 0 98 -9t75 -23v-112q-38 20 -80 31.5t-90 11.5q-55 0 -97 -19t-70 -51.5t-42 -75.5t-14 -92 q0 -52 15 -95.5t43.5 -74.5t69 -48t91.5 -17q49 0 88 13t74 33l33 -95q-54 -29 -105 -40t-99 -12l-13 -39q38 -3 61 -19.5t23 -54.5t-34 -63.5t-106 -25.5q-23 0 -42 3t-33 8z" />
<glyph unicode="&#xc8;" horiz-adv-x="502" d="M80 659h364l-32 -98h-212v-176h211v-98h-211v-189h245v-98h-365v659zM119 843h130l58 -147h-91z" />
<glyph unicode="&#xc9;" horiz-adv-x="502" d="M80 659h364l-32 -98h-212v-176h211v-98h-211v-189h245v-98h-365v659zM254 843h130l-97 -147h-91z" />
<glyph unicode="&#xca;" horiz-adv-x="502" d="M80 659h364l-32 -98h-212v-176h211v-98h-211v-189h245v-98h-365v659zM207 843h96l101 -147h-94l-55 79l-54 -79h-94z" />
<glyph unicode="&#xcb;" horiz-adv-x="502" d="M81 659h364l-32 -98h-212v-176h211v-98h-211v-189h245v-98h-365v659zM164 701q-25 0 -43 17.5t-18 43.5t18 44t43 18q26 0 44 -18t18 -44t-18 -43.5t-44 -17.5zM355 701q-26 0 -43.5 17.5t-17.5 43.5t17.5 44t43.5 18q25 0 43 -18t18 -44t-18 -43.5t-43 -17.5z" />
<glyph unicode="&#xcc;" horiz-adv-x="280" d="M80 659h120v-659h-120v659zM12 843h130l58 -147h-91z" />
<glyph unicode="&#xcd;" horiz-adv-x="280" d="M80 659h120v-659h-120v659zM134 843h130l-97 -147h-91z" />
<glyph unicode="&#xce;" horiz-adv-x="280" d="M80 659h120v-659h-120v659zM91 843h96l101 -147h-94l-55 79l-54 -79h-94z" />
<glyph unicode="&#xcf;" horiz-adv-x="280" d="M80 659h120v-659h-120v659zM44 701q-25 0 -43 17.5t-18 43.5t18 44t43 18q26 0 44 -18t18 -44t-18 -43.5t-44 -17.5zM235 701q-26 0 -43.5 17.5t-17.5 43.5t17.5 44t43.5 18q25 0 43 -18t18 -44t-18 -43.5t-43 -17.5z" />
<glyph unicode="&#xd0;" horiz-adv-x="696" d="M80 285h-72v98h72v276h205q87 0 154.5 -23.5t113 -66t69 -102.5t23.5 -133q0 -75 -26 -136.5t-74 -105.5t-116.5 -68t-154.5 -24h-194v285zM276 98q65 0 111 19t74.5 51.5t41.5 74.5t13 89q0 52 -15 94t-45.5 72t-76 46.5t-105.5 16.5h-74v-178h151v-98h-151v-187h76z " />
<glyph unicode="&#xd1;" horiz-adv-x="754" d="M80 659h119l281 -360q45 -59 74 -102h2q-2 26 -2 55v56v351h121v-659h-110l-291 375q-22 28 -39.5 53t-34.5 48h-2q2 -20 2 -47v-55v-374h-120v659zM218 759q0 41 23.5 62t58.5 21q21 0 40 -7t35.5 -15t30 -15t25.5 -7q15 0 18.5 9.5t3.5 28.5h78v-40q0 -40 -23.5 -61 t-58.5 -21q-21 0 -39.5 6.5t-35 15t-30.5 15t-26 6.5q-15 0 -18.5 -9.5t-3.5 -27.5h-78v39z" />
<glyph unicode="&#xd2;" horiz-adv-x="768" d="M384 -10q-73 0 -134 24t-105 68.5t-68.5 106.5t-24.5 138q0 75 24.5 137t68.5 107t105 69.5t134 24.5t134 -25t105 -69.5t68.5 -106.5t24.5 -137q0 -76 -25 -138t-69 -106.5t-105 -68.5t-133 -24zM384 91q45 0 82.5 16t64.5 46t42 74t15 100q0 55 -14.5 98.5t-41 74.5 t-64 47.5t-84.5 16.5q-46 0 -83.5 -16t-64.5 -46.5t-41.5 -74.5t-14.5 -100t14.5 -100t41.5 -74t64.5 -46t83.5 -16zM248 843h130l58 -147h-91z" />
<glyph unicode="&#xd3;" horiz-adv-x="768" d="M384 -10q-73 0 -134 24t-105 68.5t-68.5 106.5t-24.5 138q0 75 24.5 137t68.5 107t105 69.5t134 24.5t134 -25t105 -69.5t68.5 -106.5t24.5 -137q0 -76 -25 -138t-69 -106.5t-105 -68.5t-133 -24zM384 91q45 0 82.5 16t64.5 46t42 74t15 100q0 55 -14.5 98.5t-41 74.5 t-64 47.5t-84.5 16.5q-46 0 -83.5 -16t-64.5 -46.5t-41.5 -74.5t-14.5 -100t14.5 -100t41.5 -74t64.5 -46t83.5 -16zM394 843h130l-97 -147h-91z" />
<glyph unicode="&#xd4;" horiz-adv-x="768" d="M384 -10q-73 0 -134 24t-105 68.5t-68.5 106.5t-24.5 138q0 75 24.5 137t68.5 107t105 69.5t134 24.5t134 -25t105 -69.5t68.5 -106.5t24.5 -137q0 -76 -25 -138t-69 -106.5t-105 -68.5t-133 -24zM384 91q45 0 82.5 16t64.5 46t42 74t15 100q0 55 -14.5 98.5t-41 74.5 t-64 47.5t-84.5 16.5q-46 0 -83.5 -16t-64.5 -46.5t-41.5 -74.5t-14.5 -100t14.5 -100t41.5 -74t64.5 -46t83.5 -16zM336 843h96l101 -147h-94l-55 79l-54 -79h-94z" />
<glyph unicode="&#xd5;" horiz-adv-x="768" d="M384 -10q-73 0 -134 24t-105 68.5t-68.5 106.5t-24.5 138q0 75 24.5 137t68.5 107t105 69.5t134 24.5t134 -25t105 -69.5t68.5 -106.5t24.5 -137q0 -76 -25 -138t-69 -106.5t-105 -68.5t-133 -24zM384 91q45 0 82.5 16t64.5 46t42 74t15 100q0 55 -14.5 98.5t-41 74.5 t-64 47.5t-84.5 16.5q-46 0 -83.5 -16t-64.5 -46.5t-41.5 -74.5t-14.5 -100t14.5 -100t41.5 -74t64.5 -46t83.5 -16zM229 759q0 41 23.5 62t58.5 21q21 0 40 -7t35.5 -15t30 -15t25.5 -7q15 0 18.5 9.5t3.5 28.5h78v-40q0 -40 -23.5 -61t-58.5 -21q-21 0 -39.5 6.5t-35 15 t-30.5 15t-26 6.5q-15 0 -18.5 -9.5t-3.5 -27.5h-78v39z" />
<glyph unicode="&#xd6;" horiz-adv-x="768" d="M384 -10q-73 0 -134 24t-105 68.5t-68.5 106.5t-24.5 138q0 75 24.5 137t68.5 107t105 69.5t134 24.5t134 -25t105 -69.5t68.5 -106.5t24.5 -137q0 -76 -25 -138t-69 -106.5t-105 -68.5t-133 -24zM384 91q45 0 82.5 16t64.5 46t42 74t15 100q0 55 -14.5 98.5t-41 74.5 t-64 47.5t-84.5 16.5q-46 0 -83.5 -16t-64.5 -46.5t-41.5 -74.5t-14.5 -100t14.5 -100t41.5 -74t64.5 -46t83.5 -16zM291 701q-25 0 -43 17.5t-18 43.5t18 44t43 18q26 0 44 -18t18 -44t-18 -43.5t-44 -17.5zM482 701q-26 0 -43.5 17.5t-17.5 43.5t17.5 44t43.5 18 q25 0 43 -18t18 -44t-18 -43.5t-43 -17.5z" />
<glyph unicode="&#xd7;" horiz-adv-x="595" d="M46 66l181 182l-182 182l71 71l182 -182l181 181l71 -71l-180 -181l180 -180l-71 -72l-181 181l-181 -182z" />
<glyph unicode="&#xd8;" horiz-adv-x="775" d="M77 23l59 72q-38 45 -59.5 103t-21.5 129q0 75 24.5 137t68.5 107t105 69.5t134 24.5q50 0 93 -12t79 -35l59 73l74 -56l-59 -73q41 -44 64 -103.5t23 -131.5q0 -76 -25 -138t-69 -106.5t-105.5 -68.5t-133.5 -24q-101 0 -178 48l-57 -71zM276 123q46 -33 111 -33 q46 0 84 16t65.5 46.5t42.5 74.5t15 100q0 83 -35 141zM494 534q-23 15 -49 23t-58 8q-45 0 -83 -16t-65.5 -46.5t-42.5 -75t-15 -100.5q0 -79 31 -135z" />
<glyph unicode="&#xd9;" horiz-adv-x="696" d="M348 -10q-92 0 -155 31.5t-93 96.5q-13 26 -19 58t-6 70v413h120v-405q0 -53 18 -89q17 -35 51 -54.5t84 -19.5t84 19.5t51 54.5q18 36 18 90v404h120v-413q0 -79 -25 -129q-31 -64 -94 -95.5t-154 -31.5zM215 843h130l58 -147h-91z" />
<glyph unicode="&#xda;" horiz-adv-x="696" d="M348 -10q-92 0 -155 31.5t-93 96.5q-13 26 -19 58t-6 70v413h120v-405q0 -53 18 -89q17 -35 51 -54.5t84 -19.5t84 19.5t51 54.5q18 36 18 90v404h120v-413q0 -79 -25 -129q-31 -64 -94 -95.5t-154 -31.5zM354 843h130l-97 -147h-91z" />
<glyph unicode="&#xdb;" horiz-adv-x="696" d="M348 -10q-92 0 -155 31.5t-93 96.5q-13 26 -19 58t-6 70v413h120v-405q0 -53 18 -89q17 -35 51 -54.5t84 -19.5t84 19.5t51 54.5q18 36 18 90v404h120v-413q0 -79 -25 -129q-31 -64 -94 -95.5t-154 -31.5zM302 843h96l101 -147h-94l-55 79l-54 -79h-94z" />
<glyph unicode="&#xdc;" horiz-adv-x="696" d="M348 -10q-92 0 -155 31.5t-93 96.5q-13 26 -19 58t-6 70v413h120v-405q0 -53 18 -89q17 -35 51 -54.5t84 -19.5t84 19.5t51 54.5q18 36 18 90v404h120v-413q0 -79 -25 -129q-31 -64 -94 -95.5t-154 -31.5zM256 701q-25 0 -43 17.5t-18 43.5t18 44t43 18q26 0 44 -18 t18 -44t-18 -43.5t-44 -17.5zM447 701q-26 0 -43.5 17.5t-17.5 43.5t17.5 44t43.5 18q25 0 43 -18t18 -44t-18 -43.5t-43 -17.5z" />
<glyph unicode="&#xdd;" horiz-adv-x="586" d="M232 261l-225 398h132l154 -291h2l153 291h130l-225 -399v-260h-121v261zM292 843h130l-97 -147h-91z" />
<glyph unicode="&#xde;" horiz-adv-x="545" d="M80 659h120v-107h39q91 0 148 -28q51 -26 79 -73.5t28 -114.5q0 -29 -6.5 -57t-21.5 -53.5t-39 -47t-59 -35.5q-27 -11 -61 -17t-79 -6h-28v-120h-120v659zM236 218q47 0 77 14q55 28 55 104q0 32 -13 58.5t-39 41.5q-29 18 -82 18h-34v-236h36z" />
<glyph unicode="&#xdf;" horiz-adv-x="614" d="M55 475q0 72 22 117.5t55 71t72 35t74 9.5q44 0 84.5 -13t72 -40.5t50.5 -71.5t19 -107v-12.5t-1 -12.5q-44 -10 -68.5 -26.5t-24.5 -44.5q0 -23 17 -39t41 -32t50 -35.5t43 -48.5q9 -17 14.5 -36.5t5.5 -43.5q0 -42 -16.5 -71.5t-43.5 -48t-61 -27t-70 -8.5 q-54 0 -94.5 14t-63.5 28l37 87q26 -16 55.5 -25.5t60.5 -9.5t55 12t24 44q0 25 -17.5 42.5t-41.5 33.5t-49.5 34.5t-42.5 44.5q-9 14 -14.5 31t-5.5 37q0 50 25.5 81t68.5 49q-1 51 -27 85t-80 34q-22 0 -41.5 -6.5t-33.5 -21t-22.5 -38t-8.5 -57.5v-630h-119v616z" />
<glyph unicode="&#xe0;" horiz-adv-x="492" d="M326 45q-26 -23 -58.5 -39t-77.5 -16q-34 0 -62.5 11t-49.5 30.5t-33 47.5t-12 62q0 48 21.5 79t58.5 50q25 13 55.5 19t66.5 8l81 3v15q0 42 -24.5 60.5t-66.5 18.5q-35 0 -66.5 -9.5t-57.5 -23.5l-39 77q85 47 183 47q190 0 190 -172v-192q0 -42 2 -72t7 -49h-100z M252 218q-45 -1 -69 -15q-29 -16 -29 -54q0 -31 19 -48t51 -17q33 0 56.5 12.5t35.5 22.5v101zM119 678h130l58 -147h-91z" />
<glyph unicode="&#xe1;" horiz-adv-x="492" d="M326 45q-26 -23 -58.5 -39t-77.5 -16q-34 0 -62.5 11t-49.5 30.5t-33 47.5t-12 62q0 48 21.5 79t58.5 50q25 13 55.5 19t66.5 8l81 3v15q0 42 -24.5 60.5t-66.5 18.5q-35 0 -66.5 -9.5t-57.5 -23.5l-39 77q85 47 183 47q190 0 190 -172v-192q0 -42 2 -72t7 -49h-100z M252 218q-45 -1 -69 -15q-29 -16 -29 -54q0 -31 19 -48t51 -17q33 0 56.5 12.5t35.5 22.5v101zM244 678h130l-97 -147h-91z" />
<glyph unicode="&#xe2;" horiz-adv-x="492" d="M326 45q-26 -23 -58.5 -39t-77.5 -16q-34 0 -62.5 11t-49.5 30.5t-33 47.5t-12 62q0 48 21.5 79t58.5 50q25 13 55.5 19t66.5 8l81 3v15q0 42 -24.5 60.5t-66.5 18.5q-35 0 -66.5 -9.5t-57.5 -23.5l-39 77q85 47 183 47q190 0 190 -172v-192q0 -42 2 -72t7 -49h-100z M252 218q-45 -1 -69 -15q-29 -16 -29 -54q0 -31 19 -48t51 -17q33 0 56.5 12.5t35.5 22.5v101zM198 678h96l101 -147h-94l-55 79l-54 -79h-94z" />
<glyph unicode="&#xe3;" horiz-adv-x="495" d="M326 45q-26 -23 -58.5 -39t-77.5 -16q-34 0 -62.5 11t-49.5 30.5t-33 47.5t-12 62q0 48 21.5 79t58.5 50q25 13 55.5 19t66.5 8l81 3v15q0 42 -24.5 60.5t-66.5 18.5q-35 0 -66.5 -9.5t-57.5 -23.5l-39 77q85 47 183 47q190 0 190 -172v-192q0 -42 2 -72t7 -49h-100z M252 218q-45 -1 -69 -15q-29 -16 -29 -54q0 -31 19 -48t51 -17q33 0 56.5 12.5t35.5 22.5v101zM90 586q0 41 23.5 62t58.5 21q21 0 40 -7t35.5 -15t30 -15t25.5 -7q15 0 18.5 9.5t3.5 28.5h78v-39q0 -41 -23.5 -62t-58.5 -21q-21 0 -39.5 7t-35 15t-30.5 15t-26 7 q-15 0 -18.5 -9.5t-3.5 -28.5h-78v39z" />
<glyph unicode="&#xe4;" horiz-adv-x="492" d="M326 45q-26 -23 -58.5 -39t-77.5 -16q-34 0 -62.5 11t-49.5 30.5t-33 47.5t-12 62q0 48 21.5 79t58.5 50q25 13 55.5 19t66.5 8l81 3v15q0 42 -24.5 60.5t-66.5 18.5q-35 0 -66.5 -9.5t-57.5 -23.5l-39 77q85 47 183 47q190 0 190 -172v-192q0 -42 2 -72t7 -49h-100z M252 218q-45 -1 -69 -15q-29 -16 -29 -54q0 -31 19 -48t51 -17q33 0 56.5 12.5t35.5 22.5v101zM151 544q-25 0 -43 17.5t-18 43.5t18 44t43 18q26 0 44 -18t18 -44t-18 -43.5t-44 -17.5zM342 544q-26 0 -43.5 17.5t-17.5 43.5t17.5 44t43.5 18q25 0 43 -18t18 -44t-18 -43.5 t-43 -17.5z" />
<glyph unicode="&#xe5;" horiz-adv-x="492" d="M326 45q-26 -23 -58.5 -39t-77.5 -16q-34 0 -62.5 11t-49.5 30.5t-33 47.5t-12 62q0 48 21.5 79t58.5 50q25 13 55.5 19t66.5 8l81 3v15q0 42 -24.5 60.5t-66.5 18.5q-35 0 -66.5 -9.5t-57.5 -23.5l-39 77q85 47 183 47q190 0 190 -172v-192q0 -42 2 -72t7 -49h-100z M252 218q-45 -1 -69 -15q-29 -16 -29 -54q0 -31 19 -48t51 -17q33 0 56.5 12.5t35.5 22.5v101zM247 523q-52 0 -84.5 26t-32.5 71t32.5 71t84.5 26t84.5 -26t32.5 -71t-32.5 -71t-84.5 -26zM247 574q18 0 29.5 12t11.5 34t-11.5 34t-29.5 12q-19 0 -30 -12t-11 -34t11 -34 t30 -12z" />
<glyph unicode="&#xe6;" horiz-adv-x="778" d="M199 -10q-37 0 -67.5 10.5t-52.5 30t-34 47.5t-12 63q0 42 16.5 70.5t44 46t64 25.5t76.5 8h89v24q0 42 -27 60.5t-69 18.5q-37 0 -68.5 -10t-57.5 -24l-39 78q42 23 86.5 35t94.5 12q108 0 147 -71h2q25 33 61.5 52t86.5 19q94 0 148 -66t54 -187v-24h-300 q2 -59 36.5 -91.5t94.5 -32.5q36 0 65 9t55 23l35 -82q-38 -23 -80 -33.5t-86 -10.5q-66 0 -111 21.5t-74 56.5q-30 -34 -74.5 -56t-103.5 -22zM225 84q36 0 66.5 17t47.5 35q-11 31 -13 72h-84q-39 0 -63.5 -14t-24.5 -47q0 -30 19.5 -46.5t51.5 -16.5zM621 291 q-1 19 -6.5 38t-16 33t-27 23t-39.5 9q-44 0 -66.5 -30.5t-24.5 -72.5h180z" />
<glyph unicode="&#xe7;" horiz-adv-x="448" d="M161 -146q24 -8 47 -8q22 0 35.5 8t13.5 24q0 23 -23.5 28t-57.5 6l26 86q-41 10 -72 32t-52 53t-32 69t-11 81q0 55 19 101.5t53 80t79.5 52t98.5 18.5q45 0 76.5 -10t50.5 -22v-101q-25 18 -52.5 27.5t-62.5 9.5q-33 0 -59 -11.5t-44 -32t-27.5 -48.5t-9.5 -61 q0 -73 36.5 -111.5t97.5 -38.5q33 0 59 9t51 23l35 -82q-14 -9 -31.5 -17.5t-37.5 -14.5t-40 -9.5t-38 -3.5h-1l-13 -40q38 -3 61 -19.5t23 -54.5t-34 -63.5t-106 -25.5q-23 0 -42 3t-33 8z" />
<glyph unicode="&#xe8;" horiz-adv-x="493" d="M277 -10q-65 0 -111 20.5t-75 54.5t-42.5 78.5t-13.5 92.5q0 53 14.5 98.5t41.5 79t66.5 52.5t90.5 19q100 0 155 -67.5t55 -185.5v-28h-303q2 -55 37.5 -87.5t95.5 -32.5q36 0 65 9t55 23l36 -82q-38 -23 -80.5 -33.5t-86.5 -10.5zM337 287q-1 20 -6.5 39.5t-16.5 34.5 t-27.5 24t-40.5 9q-22 0 -39 -8.5t-29 -23.5t-18 -34.5t-6 -40.5h183zM124 678h130l58 -147h-91z" />
<glyph unicode="&#xe9;" horiz-adv-x="493" d="M277 -10q-65 0 -111 20.5t-75 54.5t-42.5 78.5t-13.5 92.5q0 53 14.5 98.5t41.5 79t66.5 52.5t90.5 19q100 0 155 -67.5t55 -185.5v-28h-303q2 -55 37.5 -87.5t95.5 -32.5q36 0 65 9t55 23l36 -82q-38 -23 -80.5 -33.5t-86.5 -10.5zM337 287q-1 20 -6.5 39.5t-16.5 34.5 t-27.5 24t-40.5 9q-22 0 -39 -8.5t-29 -23.5t-18 -34.5t-6 -40.5h183zM249 678h130l-97 -147h-91z" />
<glyph unicode="&#xea;" horiz-adv-x="493" d="M277 -10q-65 0 -111 20.5t-75 54.5t-42.5 78.5t-13.5 92.5q0 53 14.5 98.5t41.5 79t66.5 52.5t90.5 19q100 0 155 -67.5t55 -185.5v-28h-303q2 -55 37.5 -87.5t95.5 -32.5q36 0 65 9t55 23l36 -82q-38 -23 -80.5 -33.5t-86.5 -10.5zM337 287q-1 20 -6.5 39.5t-16.5 34.5 t-27.5 24t-40.5 9q-22 0 -39 -8.5t-29 -23.5t-18 -34.5t-6 -40.5h183zM203 678h96l101 -147h-94l-55 79l-54 -79h-94z" />
<glyph unicode="&#xeb;" horiz-adv-x="493" d="M277 -10q-65 0 -111 20.5t-75 54.5t-42.5 78.5t-13.5 92.5q0 53 14.5 98.5t41.5 79t66.5 52.5t90.5 19q100 0 155 -67.5t55 -185.5v-28h-303q2 -55 37.5 -87.5t95.5 -32.5q36 0 65 9t55 23l36 -82q-38 -23 -80.5 -33.5t-86.5 -10.5zM337 287q-1 20 -6.5 39.5t-16.5 34.5 t-27.5 24t-40.5 9q-22 0 -39 -8.5t-29 -23.5t-18 -34.5t-6 -40.5h183zM156 544q-25 0 -43 17.5t-18 43.5t18 44t43 18q26 0 44 -18t18 -44t-18 -43.5t-44 -17.5zM347 544q-26 0 -43.5 17.5t-17.5 43.5t17.5 44t43.5 18q25 0 43 -18t18 -44t-18 -43.5t-43 -17.5z" />
<glyph unicode="&#xec;" horiz-adv-x="238" d="M59 473h120v-473h-120v473zM-8 678h130l58 -147h-91z" />
<glyph unicode="&#xed;" horiz-adv-x="238" d="M59 473h120v-473h-120v473zM117 678h130l-97 -147h-91z" />
<glyph unicode="&#xee;" horiz-adv-x="238" d="M59 473h120v-473h-120v473zM71 678h96l101 -147h-94l-55 79l-54 -79h-94z" />
<glyph unicode="&#xef;" horiz-adv-x="238" d="M59 473h120v-473h-120v473zM24 544q-25 0 -43 17.5t-18 43.5t18 44t43 18q26 0 44 -18t18 -44t-18 -43.5t-44 -17.5zM215 544q-26 0 -43.5 17.5t-17.5 43.5t17.5 44t43.5 18q25 0 43 -18t18 -44t-18 -43.5t-43 -17.5z" />
<glyph unicode="&#xf0;" horiz-adv-x="553" d="M386 613q36 -32 59 -70t37 -80t19.5 -85.5t5.5 -84.5q0 -84 -19.5 -142t-52 -93.5t-76 -51.5t-91.5 -16q-52 0 -95 18t-73.5 50t-47.5 76t-17 97q0 54 14.5 99t42 78t67.5 51t91 18t91.5 -21t63.5 -50h2q-11 46 -38.5 89t-75.5 71l-137 -63l-25 54l86 37 q-20 8 -53.5 12.5t-67.5 5.5l22 96q68 -2 122 -17t93 -39l118 56l26 -54zM272 85q57 0 85 40.5t28 108.5q0 67 -30.5 107.5t-85.5 40.5q-57 0 -84.5 -42t-27.5 -108q0 -68 30.5 -107.5t84.5 -39.5z" />
<glyph unicode="&#xf1;" horiz-adv-x="537" d="M55 473h102l12 -53q38 29 77.5 47t84.5 18q28 0 55.5 -8t49 -27.5t34.5 -52.5t13 -84v-313h-120v276q0 22 -3 41t-11 33t-22 22.5t-37 8.5q-29 0 -59.5 -14t-56.5 -36v-331h-119v473zM101 586q0 41 23.5 62t58.5 21q21 0 40 -7t35.5 -15t30 -15t25.5 -7q15 0 18.5 9.5 t3.5 28.5h78v-39q0 -41 -23.5 -62t-58.5 -21q-21 0 -39.5 7t-35 15t-30.5 15t-26 7q-15 0 -18.5 -9.5t-3.5 -28.5h-78v39z" />
<glyph unicode="&#xf2;" horiz-adv-x="542" d="M271 -10q-53 0 -96.5 19t-74.5 52t-48 78.5t-17 98.5t17 98.5t48 78.5t74.5 51.5t96.5 18.5t96.5 -18.5t75 -51.5t48.5 -78.5t17 -98.5t-17 -98.5t-48.5 -78.5t-75 -52t-96.5 -19zM271 86q57 0 85.5 43t28.5 109q0 33 -7.5 60.5t-21.5 47.5t-35.5 31.5t-49.5 11.5 t-49.5 -11.5t-35.5 -31.5t-21.5 -47.5t-7.5 -60.5q0 -66 28.5 -109t85.5 -43zM141 678h130l58 -147h-91z" />
<glyph unicode="&#xf3;" horiz-adv-x="542" d="M271 -10q-53 0 -96.5 19t-74.5 52t-48 78.5t-17 98.5t17 98.5t48 78.5t74.5 51.5t96.5 18.5t96.5 -18.5t75 -51.5t48.5 -78.5t17 -98.5t-17 -98.5t-48.5 -78.5t-75 -52t-96.5 -19zM271 86q57 0 85.5 43t28.5 109q0 33 -7.5 60.5t-21.5 47.5t-35.5 31.5t-49.5 11.5 t-49.5 -11.5t-35.5 -31.5t-21.5 -47.5t-7.5 -60.5q0 -66 28.5 -109t85.5 -43zM272 678h130l-97 -147h-91z" />
<glyph unicode="&#xf4;" horiz-adv-x="542" d="M271 -10q-53 0 -96.5 19t-74.5 52t-48 78.5t-17 98.5t17 98.5t48 78.5t74.5 51.5t96.5 18.5t96.5 -18.5t75 -51.5t48.5 -78.5t17 -98.5t-17 -98.5t-48.5 -78.5t-75 -52t-96.5 -19zM271 86q57 0 85.5 43t28.5 109q0 33 -7.5 60.5t-21.5 47.5t-35.5 31.5t-49.5 11.5 t-49.5 -11.5t-35.5 -31.5t-21.5 -47.5t-7.5 -60.5q0 -66 28.5 -109t85.5 -43zM222 678h96l101 -147h-94l-55 79l-54 -79h-94z" />
<glyph unicode="&#xf5;" horiz-adv-x="542" d="M271 -10q-53 0 -96.5 19t-74.5 52t-48 78.5t-17 98.5t17 98.5t48 78.5t74.5 51.5t96.5 18.5t96.5 -18.5t75 -51.5t48.5 -78.5t17 -98.5t-17 -98.5t-48.5 -78.5t-75 -52t-96.5 -19zM271 86q57 0 85.5 43t28.5 109q0 33 -7.5 60.5t-21.5 47.5t-35.5 31.5t-49.5 11.5 t-49.5 -11.5t-35.5 -31.5t-21.5 -47.5t-7.5 -60.5q0 -66 28.5 -109t85.5 -43zM114 586q0 41 23.5 62t58.5 21q21 0 40 -7t35.5 -15t30 -15t25.5 -7q15 0 18.5 9.5t3.5 28.5h78v-39q0 -41 -23.5 -62t-58.5 -21q-21 0 -39.5 7t-35 15t-30.5 15t-26 7q-15 0 -18.5 -9.5 t-3.5 -28.5h-78v39z" />
<glyph unicode="&#xf6;" horiz-adv-x="542" d="M271 -10q-53 0 -96.5 19t-74.5 52t-48 78.5t-17 98.5t17 98.5t48 78.5t74.5 51.5t96.5 18.5t96.5 -18.5t75 -51.5t48.5 -78.5t17 -98.5t-17 -98.5t-48.5 -78.5t-75 -52t-96.5 -19zM271 86q57 0 85.5 43t28.5 109q0 33 -7.5 60.5t-21.5 47.5t-35.5 31.5t-49.5 11.5 t-49.5 -11.5t-35.5 -31.5t-21.5 -47.5t-7.5 -60.5q0 -66 28.5 -109t85.5 -43zM175 544q-25 0 -43 17.5t-18 43.5t18 44t43 18q26 0 44 -18t18 -44t-18 -43.5t-44 -17.5zM366 544q-26 0 -43.5 17.5t-17.5 43.5t17.5 44t43.5 18q25 0 43 -18t18 -44t-18 -43.5t-43 -17.5z" />
<glyph unicode="&#xf7;" horiz-adv-x="550" d="M278 360q-25 0 -43 18t-18 44t18 44t43 18q26 0 43.5 -18t17.5 -44t-17.5 -44t-43.5 -18zM40 300h471v-99h-471v99zM278 16q-25 0 -43 18t-18 44t18 44t43 18q26 0 43.5 -18t17.5 -44t-17.5 -44t-43.5 -18z" />
<glyph unicode="&#xf8;" horiz-adv-x="542" d="M56 12l41 52q-29 33 -45.5 77.5t-16.5 96.5q0 53 17 98.5t48 78.5t74.5 51.5t96.5 18.5q36 0 67 -9t57 -26l37 48l51 -39l-38 -48q29 -33 46 -77t17 -96q0 -53 -17 -98.5t-48.5 -78.5t-75 -52t-96.5 -19q-36 0 -67.5 9t-57.5 26l-40 -52zM208 105q25 -21 63 -21 q28 0 50 11.5t37 32.5t22.5 49t7.5 61q0 44 -14 80zM334 370q-27 21 -63 21q-28 0 -50 -11.5t-37 -32t-22.5 -48.5t-7.5 -61q0 -47 15 -80z" />
<glyph unicode="&#xf9;" horiz-adv-x="535" d="M213 -10q-17 0 -37.5 4t-40 14.5t-36.5 28.5t-28 46q-8 20 -12 43t-4 56v291h119v-279q0 -38 10 -59q18 -43 71 -43q29 0 55 12.5t42 29.5v339h120v-356q0 -38 1.5 -68t6.5 -49h-102l-18 49q-27 -24 -63.5 -41.5t-83.5 -17.5zM136 678h130l58 -147h-91z" />
<glyph unicode="&#xfa;" horiz-adv-x="535" d="M213 -10q-17 0 -37.5 4t-40 14.5t-36.5 28.5t-28 46q-8 20 -12 43t-4 56v291h119v-279q0 -38 10 -59q18 -43 71 -43q29 0 55 12.5t42 29.5v339h120v-356q0 -38 1.5 -68t6.5 -49h-102l-18 49q-27 -24 -63.5 -41.5t-83.5 -17.5zM265 678h130l-97 -147h-91z" />
<glyph unicode="&#xfb;" horiz-adv-x="535" d="M213 -10q-17 0 -37.5 4t-40 14.5t-36.5 28.5t-28 46q-8 20 -12 43t-4 56v291h119v-279q0 -38 10 -59q18 -43 71 -43q29 0 55 12.5t42 29.5v339h120v-356q0 -38 1.5 -68t6.5 -49h-102l-18 49q-27 -24 -63.5 -41.5t-83.5 -17.5zM218 678h96l101 -147h-94l-55 79l-54 -79 h-94z" />
<glyph unicode="&#xfc;" horiz-adv-x="535" d="M213 -10q-17 0 -37.5 4t-40 14.5t-36.5 28.5t-28 46q-8 20 -12 43t-4 56v291h119v-279q0 -38 10 -59q18 -43 71 -43q29 0 55 12.5t42 29.5v339h120v-356q0 -38 1.5 -68t6.5 -49h-102l-18 49q-27 -24 -63.5 -41.5t-83.5 -17.5zM171 544q-25 0 -43 17.5t-18 43.5t18 44 t43 18q26 0 44 -18t18 -44t-18 -43.5t-44 -17.5zM362 544q-26 0 -43.5 17.5t-17.5 43.5t17.5 44t43.5 18q25 0 43 -18t18 -44t-18 -43.5t-43 -17.5z" />
<glyph unicode="&#xfd;" horiz-adv-x="518" d="M18 -123q17 -8 34 -13t37 -5q40 0 72 31.5t60 112.5l-213 470h124l143 -336h2l115 336h121l-181 -488q-28 -74 -56.5 -118t-58 -67t-60.5 -30t-63 -7q-56 0 -106 22zM265 678h130l-97 -147h-91z" />
<glyph unicode="&#xfe;" horiz-adv-x="533" d="M61 708h119v-231q12 3 30.5 5.5t44.5 2.5q59 0 104.5 -17.5t76.5 -49t47 -76t16 -98.5t-17 -100.5t-49.5 -80.5t-78.5 -53.5t-103 -19.5q-35 0 -71 11v-238h-119v945zM180 101q16 -7 30.5 -9.5t33.5 -2.5q66 0 99 41t33 110q0 75 -38 111t-101 36q-32 0 -57 -9v-277z" />
<glyph unicode="&#xff;" horiz-adv-x="518" d="M18 -123q17 -8 34 -13t37 -5q40 0 72 31.5t60 112.5l-213 470h124l143 -336h2l115 336h121l-181 -488q-28 -74 -56.5 -118t-58 -67t-60.5 -30t-63 -7q-56 0 -106 22zM172 544q-25 0 -43 17.5t-18 43.5t18 44t43 18q26 0 44 -18t18 -44t-18 -43.5t-44 -17.5zM363 544 q-26 0 -43.5 17.5t-17.5 43.5t17.5 44t43.5 18q25 0 43 -18t18 -44t-18 -43.5t-43 -17.5z" />
<glyph unicode="&#x131;" horiz-adv-x="238" d="M59 473h120v-473h-120v473z" />
<glyph unicode="&#x152;" horiz-adv-x="916" d="M387 -10q-60 0 -114 16t-96 48q-57 42 -89.5 109t-32.5 161q0 89 34 161.5t97 118.5q41 29 92.5 45t115.5 16q22 0 45.5 -1t50 -2t58 -2t71.5 -1h238l-31 -98h-212v-176h211v-98h-211v-189h244v-98h-247q-71 0 -124.5 -5t-99.5 -5zM396 91q23 0 48.5 2.5t48.5 8.5v449 q-19 5 -50 9t-53 4q-83 0 -133 -48q-36 -31 -55 -79t-19 -110q0 -136 83 -196q52 -40 130 -40z" />
<glyph unicode="&#x153;" horiz-adv-x="844" d="M268 -10q-52 0 -95 19t-73.5 52t-47.5 78.5t-17 98.5t17 98.5t47.5 78.5t72.5 51.5t93 18.5q63 0 106 -24.5t69 -65.5h2q23 40 63 65t96 25q46 0 84.5 -17.5t66 -50t42.5 -79.5t15 -106v-28h-303q2 -55 38.5 -87.5t95.5 -32.5q36 0 65 9t55 23l35 -82q-38 -23 -80 -33.5 t-86 -10.5q-69 0 -114 25.5t-72 65.5h-2q-26 -42 -69 -66.5t-104 -24.5zM271 85q56 0 84.5 43.5t28.5 109.5q0 33 -7 60.5t-21.5 48t-35.5 32t-49 11.5t-49.5 -11.5t-35.5 -32t-21.5 -48t-7.5 -60.5q0 -66 28.5 -109.5t85.5 -43.5zM688 287q0 20 -5.5 39.5t-16.5 34.5 t-28 24t-41 9q-22 0 -39 -8.5t-28.5 -23.5t-18 -34.5t-6.5 -40.5h183z" />
<glyph unicode="&#x178;" horiz-adv-x="586" d="M232 261l-225 398h132l154 -291h2l153 291h130l-225 -399v-260h-121v261zM199 701q-25 0 -43 17.5t-18 43.5t18 44t43 18q26 0 44 -18t18 -44t-18 -43.5t-44 -17.5zM390 701q-26 0 -43.5 17.5t-17.5 43.5t17.5 44t43.5 18q25 0 43 -18t18 -44t-18 -43.5t-43 -17.5z" />
<glyph unicode="&#x2c6;" d="M143 678h96l101 -147h-94l-55 79l-54 -79h-94z" />
<glyph unicode="&#x2da;" d="M192 523q-52 0 -84.5 26t-32.5 71t32.5 71t84.5 26t84.5 -26t32.5 -71t-32.5 -71t-84.5 -26zM192 574q18 0 29.5 12t11.5 34t-11.5 34t-29.5 12q-19 0 -30 -12t-11 -34t11 -34t30 -12z" />
<glyph unicode="&#x2dc;" d="M35 586q0 41 23.5 62t58.5 21q21 0 40 -7t35.5 -15t30 -15t25.5 -7q15 0 18.5 9.5t3.5 28.5h78v-39q0 -41 -23.5 -62t-58.5 -21q-21 0 -39.5 7t-35 15t-30.5 15t-26 7q-15 0 -18.5 -9.5t-3.5 -28.5h-78v39z" />
<glyph unicode="&#x2000;" horiz-adv-x="421" />
<glyph unicode="&#x2001;" horiz-adv-x="843" />
<glyph unicode="&#x2002;" horiz-adv-x="421" />
<glyph unicode="&#x2003;" horiz-adv-x="843" />
<glyph unicode="&#x2004;" horiz-adv-x="281" />
<glyph unicode="&#x2005;" horiz-adv-x="210" />
<glyph unicode="&#x2006;" horiz-adv-x="140" />
<glyph unicode="&#x2007;" horiz-adv-x="140" />
<glyph unicode="&#x2008;" horiz-adv-x="105" />
<glyph unicode="&#x2009;" horiz-adv-x="168" />
<glyph unicode="&#x200a;" horiz-adv-x="46" />
<glyph unicode="&#x2013;" horiz-adv-x="450" d="M0 295h450v-88h-450v88z" />
<glyph unicode="&#x2014;" horiz-adv-x="800" d="M0 295h800v-88h-800v88z" />
<glyph unicode="&#x2018;" horiz-adv-x="228" d="M87 435q-17 32 -26.5 66t-9.5 72q0 35 8.5 71.5t27.5 75.5l75 -12q-6 -23 -8.5 -43.5t-2.5 -40.5q0 -38 9.5 -71t26.5 -68l-100 -50v0z" />
<glyph unicode="&#x2019;" horiz-adv-x="228" d="M31 478q26 44 36 81t10 74q0 31 -6 66l110 19q7 -29 7 -63q0 -53 -20.5 -106t-67.5 -104l-69 33v0z" />
<glyph unicode="&#x201a;" horiz-adv-x="228" d="M21 -122q26 44 36 81t10 74q0 31 -6 66l110 19q7 -29 7 -63q0 -53 -20.5 -106t-67.5 -104l-69 33v0z" />
<glyph unicode="&#x201c;" horiz-adv-x="417" d="M87 435q-17 32 -26.5 66t-9.5 72q0 35 8.5 71.5t27.5 75.5l75 -12q-6 -23 -8.5 -43.5t-2.5 -40.5q0 -38 9.5 -71t26.5 -68zM276 435q-17 32 -26.5 66t-9.5 72q0 35 8.5 71.5t27.5 75.5l75 -12q-6 -23 -8.5 -43.5t-2.5 -40.5q0 -38 9.5 -71t26.5 -68z" />
<glyph unicode="&#x201d;" horiz-adv-x="417" d="M31 478q26 44 36 81t10 74q0 31 -6 66l110 19q7 -29 7 -63q0 -53 -20.5 -106t-67.5 -104zM220 478q26 44 36 81t10 74q0 31 -6 66l110 19q7 -29 7 -63q0 -53 -20.5 -106t-67.5 -104z" />
<glyph unicode="&#x201e;" horiz-adv-x="417" d="M21 -122q26 44 36 81t10 74q0 31 -6 66l110 19q7 -29 7 -63q0 -53 -20.5 -106t-67.5 -104zM210 -122q26 44 36 81t10 74q0 31 -6 66l110 19q7 -29 7 -63q0 -53 -20.5 -106t-67.5 -104z" />
<glyph unicode="&#x2022;" horiz-adv-x="327" d="M163 194q-26 0 -48 9.5t-38 26.5t-25 39t-9 48q0 27 9 50t25 40t38 26.5t48 9.5t48.5 -9.5t38.5 -26.5t25 -40t9 -50q0 -26 -9 -48t-25 -39t-38.5 -26.5t-48.5 -9.5z" />
<glyph unicode="&#x2026;" horiz-adv-x="902" d="M173 -9q-28 0 -47.5 20t-19.5 49t19.5 48.5t47.5 19.5t47.5 -19.5t19.5 -48.5t-19.5 -49t-47.5 -20zM451 -9q-28 0 -47.5 20t-19.5 49t19.5 48.5t47.5 19.5t47.5 -19.5t19.5 -48.5t-19.5 -49t-47.5 -20zM729 -9q-28 0 -47.5 20t-19.5 49t19.5 48.5t47.5 19.5t47.5 -19.5 t19.5 -48.5t-19.5 -49t-47.5 -20z" />
<glyph unicode="&#x202f;" horiz-adv-x="168" />
<glyph unicode="&#x2039;" horiz-adv-x="358" d="M37 241l170 231l96 -51l-134 -180l134 -178l-96 -51z" />
<glyph unicode="&#x203a;" horiz-adv-x="358" d="M188 241l-134 180l96 51l170 -231l-170 -229l-96 51z" />
<glyph unicode="&#x2044;" horiz-adv-x="157" d="M237 659h98l-416 -659h-97z" />
<glyph unicode="&#x205f;" horiz-adv-x="210" />
<glyph unicode="&#x2074;" horiz-adv-x="387" d="M28 543l193 253h89v-240h53v-70h-53v-84h-93v84h-189v57zM127 555q13 1 29.5 1h36.5h24v27q0 20 0.5 45.5t2.5 50.5z" />
<glyph unicode="&#x20ac;" horiz-adv-x="545" d="M529 35q-39 -26 -83.5 -35.5t-86.5 -9.5q-57 0 -101.5 16t-78 45t-56 69t-33.5 89h-69v75h58q-1 10 -1.5 21t-0.5 18q0 9 0.5 22.5t2.5 25.5h-59v75h73q13 48 37.5 88t59 69.5t78 45.5t95.5 16q38 0 74 -8t62 -22v-112q-33 20 -62.5 29t-60.5 9q-53 0 -91.5 -30 t-58.5 -85h243l-25 -75h-236q-2 -14 -2.5 -25.5t-0.5 -19.5v-17.5t2 -24.5h230l-26 -75h-188q18 -52 54 -83.5t92 -31.5q26 0 54.5 7t59.5 28z" />
<glyph unicode="&#x2122;" horiz-adv-x="868" d="M128 580h-112v79h334l-19 -79h-106v-316h-97v316zM376 659h84l85 -120q14 -20 24.5 -37t19.5 -33h2q8 15 17.5 31t23.5 36l84 123h89v-395h-97v176q0 23 0.5 39.5t2.5 32.5h-2q-14 -27 -34 -56l-63 -90h-43l-62 90q-10 14 -18.5 28t-16.5 28h-2q2 -16 2.5 -32.5 t0.5 -39.5v-176h-97v395z" />
<glyph unicode="&#x25fc;" horiz-adv-x="475" d="M0 475h475v-475h-475v475z" />
<glyph horiz-adv-x="368" d="M238 299q-17 -15 -41 -25.5t-53 -10.5q-48 0 -80.5 29t-32.5 80q0 53 39 80.5t108 29.5l50 2v8q0 23 -17 34t-42 11q-26 0 -48 -6t-41 -16l-32 60q32 20 67 28t67 8q66 0 101.5 -29t35.5 -96v-131q0 -26 1.5 -46.5t6.5 -38.5h-77zM228 419l-41 -1q-63 -2 -63 -41 q0 -18 12 -29t35 -11q18 0 33.5 7.5t23.5 14.5v60z" />
<glyph horiz-adv-x="392" d="M196 263q-38 0 -69 13t-53.5 36.5t-34.5 55t-12 69.5q0 37 12 69t34.5 55.5t53.5 36.5t69 13t69 -13t53.5 -36.5t34.5 -55.5t12 -69q0 -38 -12 -69.5t-34.5 -55t-53.5 -36.5t-69 -13zM196 339q36 0 56 28t20 70t-20 70t-56 28t-56 -28t-20 -70t20 -70t56 -28z" />
<glyph d="M64 843h130l58 -147h-91z" />
<glyph d="M189 843h130l-97 -147h-91z" />
<glyph d="M143 843h96l101 -147h-94l-55 79l-54 -79h-94z" />
<glyph d="M35 759q0 41 23.5 62t58.5 21q21 0 40 -7t35.5 -15t30 -15t25.5 -7q15 0 18.5 9.5t3.5 28.5h78v-40q0 -40 -23.5 -61t-58.5 -21q-21 0 -39.5 6.5t-35 15t-30.5 15t-26 6.5q-15 0 -18.5 -9.5t-3.5 -27.5h-78v39z" />
<glyph d="M96 701q-25 0 -43 17.5t-18 43.5t18 44t43 18q26 0 44 -18t18 -44t-18 -43.5t-44 -17.5zM287 701q-26 0 -43.5 17.5t-17.5 43.5t17.5 44t43.5 18q25 0 43 -18t18 -44t-18 -43.5t-43 -17.5z" />
</font>
</defs>
</svg>
