<svg xmlns="http://www.w3.org/2000/svg" viewBox="0 0 281.08 316.72"><title>Synaptic Risk logo</title><path d="M231.27,72.33a19.69,19.69,0,0,0-14.46-19V37.61A19.7,19.7,0,0,0,198.73,18,19.7,19.7,0,0,0,179.19.58H153.36a19.59,19.59,0,0,0-12.8,4.76A19.58,19.58,0,0,0,127.12,0H101.29a19.69,19.69,0,0,0-19.6,18.16A19.69,19.69,0,0,0,64.83,37.61V53.08A19.71,19.71,0,0,0,49.21,72.33V99.9A19.58,19.58,0,0,0,54.26,113a19.58,19.58,0,0,0-5.05,13.12v5a19.7,19.7,0,0,0,17.36,19.53v15.19A19.71,19.71,0,0,0,82.2,185.11a19.7,19.7,0,0,0,14.54,18.82,19.11,19.11,0,0,0,19,17.47h49.58a19.11,19.11,0,0,0,19-17.63,19.71,19.71,0,0,0,13.9-18.22,19.7,19.7,0,0,0,15.07-19.11V150.67a19.69,19.69,0,0,0,17.35-19.53V103.57a19.58,19.58,0,0,0-4.76-12.8,19.59,19.59,0,0,0,5.34-13.44Zm-13.7,58.81a6.56,6.56,0,0,1-4.23,6.12V122.09a19.7,19.7,0,0,0-19.68-19.68h-10a6.56,6.56,0,0,0,0,13.12h10a6.57,6.57,0,0,1,6.56,6.56v44.35a6.57,6.57,0,0,1-6.56,6.56H184a6.57,6.57,0,0,1-6.56-6.56,6.69,6.69,0,1,0-13.31-1.16,6.57,6.57,0,0,1-6.56,6.56,6.56,6.56,0,0,0,0,13.12,19.59,19.59,0,0,0,12.58-4.56A19.61,19.61,0,0,0,184,186.11h1a6.57,6.57,0,0,1-6.45,5.4H158.75a6.56,6.56,0,0,0,0,13.12h12.08a6,6,0,0,1-5.51,3.65H115.75a6,6,0,0,1-5.51-3.65h13.22a6.56,6.56,0,1,0,0-13.12h-21.6a6.56,6.56,0,0,1-6.53-6h.54a19.58,19.58,0,0,0,13.44-5.34,19.59,19.59,0,0,0,12.8,4.76,6.56,6.56,0,0,0,0-13.12,6.57,6.57,0,0,1-6.56-6.56,6.56,6.56,0,0,0-13.12,0c0,.1,0,.19,0,.29s0,.19,0,.29a6.56,6.56,0,0,1-6.56,6.56H86.24a6.57,6.57,0,0,1-6.56-6.56V128.06a6.56,6.56,0,1,0-13.12,0v9.2a6.56,6.56,0,0,1-4.24-6.12v-5a6.57,6.57,0,0,1,6.56-6.56,6.56,6.56,0,0,0,0-13.12,6.57,6.57,0,0,1-6.56-6.56V72.33a6.54,6.54,0,0,1,2.5-5.14v14.2a19.7,19.7,0,0,0,19.69,19.68,6.56,6.56,0,1,0,0-13.12,6.57,6.57,0,0,1-6.56-6.56V37.61a6.57,6.57,0,0,1,6.56-6.56h20.6a19.71,19.71,0,0,0,18.75,13.7,6.56,6.56,0,1,0,0-13.12,6.57,6.57,0,0,1-6.56-6.56A6.52,6.52,0,0,0,116,21.14a6.55,6.55,0,0,0-5.63-3.21H95a6.57,6.57,0,0,1,6.32-4.81h25.83a6.56,6.56,0,0,1,6.56,6.56V48H104.76a6.57,6.57,0,0,1-6.56-6.56,6.56,6.56,0,0,0-13.12,0,19.7,19.7,0,0,0,19.68,19.68h28.91v2.06l-2.12,0a19.7,19.7,0,0,0-19.68,19.68,6.56,6.56,0,1,0,13.12,0,6.6,6.6,0,0,1,6.7-6.56l2,0V194a6.56,6.56,0,0,0,13.12,0V20.26a6.57,6.57,0,0,1,6.56-6.56h25.83a6.56,6.56,0,0,1,6.13,4.23h-14a6.52,6.52,0,0,0-3.5,1,6.56,6.56,0,0,0-4.21,6.12A6.57,6.57,0,0,1,157,31.64a6.56,6.56,0,1,0,0,13.12,19.71,19.71,0,0,0,18.75-13.7h21.36a6.57,6.57,0,0,1,6.56,6.56V74.83a6.56,6.56,0,0,0,13.12,0V68.37a6.51,6.51,0,0,1,1.34,4v5a6.57,6.57,0,0,1-6.56,6.56H211A6.56,6.56,0,1,0,211,97a6.56,6.56,0,0,1,6.56,6.56Z" fill="#8c978e"/><path d="M175.15,123.83a6.56,6.56,0,0,0-6.56-6.56,19.7,19.7,0,0,0-19.69,19.68V161A6.56,6.56,0,0,0,162,161v-24.1a6.57,6.57,0,0,1,6.56-6.56A6.56,6.56,0,0,0,175.15,123.83Z" fill="#8c978e"/><path d="M110.92,127.29a6.57,6.57,0,0,1,6.56-6.56,6.58,6.58,0,0,0,1-.08,6.51,6.51,0,0,0,7.52-6.48V100.29a6.56,6.56,0,0,0-13.12,0v7.9a19.74,19.74,0,0,0-14.19,13.38,19.7,19.7,0,0,0-14.74,19v22.75a6.56,6.56,0,1,0,13.12,0V140.6A6.57,6.57,0,0,1,103.6,134a7.5,7.5,0,0,0,7.32-6.75Z" fill="#8c978e"/><path d="M194,38.76h-7.31a19.71,19.71,0,0,0-18.81,13.89H156.43a6.56,6.56,0,1,0,0,13.12h16.78a6.56,6.56,0,0,0,6-4,6.52,6.52,0,0,0,.92-3.34,6.57,6.57,0,0,1,6.56-6.56H194a6.56,6.56,0,1,0,0-13.12Z" fill="#8c978e"/><path d="M110.34,138.47a6.56,6.56,0,0,0,0,13.12,6.56,6.56,0,0,1,6.56,6.56,6.56,6.56,0,1,0,13.12,0A19.7,19.7,0,0,0,110.34,138.47Z" fill="#8c978e"/><path d="M89.33,117.84c10.85,0,19.68-9.77,19.68-21.78V92.95c0-12-8.83-21.78-19.68-21.78a6.56,6.56,0,0,0,0,13.12c3.56,0,6.56,4,6.56,8.66v3.12c0,4.69-3,8.66-6.56,8.66a6.56,6.56,0,0,0,0,13.12Z" fill="#8c978e"/><path d="M169.16,144.92a6.56,6.56,0,0,0,6.56,6.56,6.57,6.57,0,0,1,6.56,6.56,6.56,6.56,0,0,0,13.12,0,19.58,19.58,0,0,0-5.05-13.12,19.57,19.57,0,0,0,5.05-13.12,6.56,6.56,0,0,0-13.12,0,6.56,6.56,0,0,1-6.56,6.56A6.56,6.56,0,0,0,169.16,144.92Z" fill="#8c978e"/><path d="M184.21,102.41a6.57,6.57,0,0,1-6.56-6.56,6.56,6.56,0,0,0-13.12,0,6.57,6.57,0,0,1-6.56,6.56,6.56,6.56,0,1,0,0,13.12,19.57,19.57,0,0,0,13.12-5.05,19.58,19.58,0,0,0,13.12,5.05,6.56,6.56,0,1,0,0-13.12Z" fill="#00a1c1"/><path d="M198.29,65a6.56,6.56,0,0,0-13.12,0,6.57,6.57,0,0,1-6.56,6.56,6.58,6.58,0,0,0-1.15.11,24.06,24.06,0,0,0-3.84-.31H170.5c-12,0-21.77,8.83-21.77,19.68a6.56,6.56,0,1,0,13.12,0c0-3.56,4-6.56,8.65-6.56h3.12c4.69,0,8.66,3,8.66,6.56a6.56,6.56,0,1,0,13.12,0,18.29,18.29,0,0,0-3.89-11.21A19.62,19.62,0,0,0,198.29,65Z" fill="#00a1c1"/><path d="M9.78,272.14A17.29,17.29,0,0,1,0,269.25l2.47-4.61a12.71,12.71,0,0,0,7,2.38c2.24,0,4.75-.84,4.75-3.17,0-4.05-7.45-4.75-11.18-9a8,8,0,0,1-2-5.45c0-4.66,3.68-8.75,10.43-8.75a15.72,15.72,0,0,1,7.73,1.86l-.09,5.5a15.1,15.1,0,0,0-7.31-2.24c-2.28,0-4.05,1-4.05,2.79,0,5.31,13.18,4.84,13.18,14.48C21,268.65,16.07,272.14,9.78,272.14Z" fill="#8c978e"/><path d="M50.58,259.61v12.06H44.2V259.52L33.58,241h7l4.66,8.57c.75,1.3,1.63,3,2.28,4.42h.09c.65-1.4,1.49-3,2.19-4.33l4.7-8.66H61.2Z" fill="#8c978e"/><path d="M97.95,271.67l-13.32-17c-1.16-1.49-2-2.7-2.93-4.05H81.6c.09,1,.09,2.89.09,4.28v16.81H75.36V241h6.43l12.85,16.39c1.21,1.54,2,2.75,2.89,4h.09c-.09-1.44-.09-3.45-.09-4.75V241h6.33v30.69Z" fill="#8c978e"/><path d="M140.56,271.67l-3-7.5H127.15l-2.84,7.5H118l12-30.83h4.84l12.53,30.83Zm-7-18.58a33.1,33.1,0,0,1-1.12-3.77h0a24,24,0,0,1-1.12,3.68L129,259.05h6.66Z" fill="#8c978e"/><path d="M169.12,261.1H168v10.57h-6.38V241H170c6.75,0,11.27,3.4,11.27,10C181.22,254.91,178.24,261.1,169.12,261.1Zm.19-14.81H168v10h1.4c3.77,0,5.5-1.91,5.5-5.08C174.84,248.44,173,246.29,169.3,246.29Z" fill="#8c978e"/><path d="M217.74,246.2H209.5v25.47h-6.43V246.2h-9V241h25.1Z" fill="#8c978e"/><path d="M233.11,271.67V241h6.38v30.69Z" fill="#8c978e"/><path d="M270.65,272.14c-10,0-15.69-6.85-15.69-15.51s6.61-16,17.09-16a18.27,18.27,0,0,1,8,1.63L280,248a14.84,14.84,0,0,0-7.68-2.14c-7.22,0-10.38,5-10.38,10.34,0,5.87,3.77,10.48,9.83,10.48a15.4,15.4,0,0,0,7.64-2.1l1.72,4.47A19.15,19.15,0,0,1,270.65,272.14Z" fill="#8c978e"/><path d="M101,316.28c-4.4-7.53-6.16-10.78-7.22-11.18H91.56v11.18h-6v-29H94c7.75,0,10.56,3.83,10.56,8.32a8.31,8.31,0,0,1-5.28,7.52v0c1.45.84,4.27,5.72,8.63,13.11Zm-6.91-24H91.56v8.41h2.55a4.35,4.35,0,0,0,4.44-4.44C98.56,294,97,292.3,94.12,292.3Z" fill="#00a1c1"/><path d="M120.78,316.28v-29h6v29Z" fill="#00a1c1"/><path d="M150,316.72A16.34,16.34,0,0,1,140.8,314l2.33-4.36a12,12,0,0,0,6.65,2.24c2.11,0,4.49-.79,4.49-3,0-3.83-7-4.49-10.56-8.49a7.54,7.54,0,0,1-1.85-5.15c0-4.4,3.48-8.27,9.86-8.27a14.86,14.86,0,0,1,7.3,1.76l-.09,5.19a14.27,14.27,0,0,0-6.91-2.11c-2.16,0-3.83,1-3.83,2.64,0,5,12.45,4.58,12.45,13.69C160.64,313.42,156,316.72,150,316.72Z" fill="#00a1c1"/><path d="M190.48,316.28l-9.86-12.5h-.13v12.5h-6v-29h6v12h.09l9.55-11.93h7l-11.44,13.86,12.15,15Z" fill="#00a1c1"/></svg>