<svg xmlns="http://www.w3.org/2000/svg" viewBox="0 0 281.08 363.5"><title>Synaptic Product &amp; Fund</title><path d="M166.06,393.5a17.29,17.29,0,0,1-9.78-2.89l2.47-4.61a12.7,12.7,0,0,0,7,2.38c2.24,0,4.75-.84,4.75-3.17,0-4.05-7.45-4.75-11.18-9a8,8,0,0,1-2-5.45c0-4.66,3.68-8.75,10.43-8.75a15.71,15.71,0,0,1,7.73,1.86l-0.09,5.5a15.1,15.1,0,0,0-7.31-2.24c-2.28,0-4.05,1-4.05,2.79,0,5.31,13.18,4.84,13.18,14.48C177.29,390,172.35,393.5,166.06,393.5Z" transform="translate(-156.28 -119.97)" fill="#8c978e"/><path d="M206.86,381V393h-6.38V380.88l-10.62-18.54h7l4.66,8.57c0.75,1.3,1.63,3,2.28,4.42h0.09c0.65-1.4,1.49-3,2.19-4.33l4.7-8.66h6.66Z" transform="translate(-156.28 -119.97)" fill="#8c978e"/><path d="M254.23,393l-13.32-17c-1.16-1.49-2-2.7-2.93-4.05h-0.09c0.09,1,.09,2.89.09,4.28V393h-6.33V362.34h6.43l12.85,16.39c1.21,1.54,2,2.75,2.89,4h0.09c-0.09-1.44-.09-3.45-0.09-4.75V362.34h6.33V393h-5.91Z" transform="translate(-156.28 -119.97)" fill="#8c978e"/><path d="M296.85,393l-3-7.5H283.43l-2.84,7.5h-6.29l12-30.83h4.84L303.69,393h-6.85Zm-7-18.58a33.29,33.29,0,0,1-1.12-3.77h0a24.12,24.12,0,0,1-1.12,3.68l-2.28,6.05h6.66Z" transform="translate(-156.28 -119.97)" fill="#8c978e"/><path d="M325.4,382.46h-1.16V393h-6.38V362.34h8.38c6.75,0,11.27,3.4,11.27,10C337.51,376.27,334.53,382.46,325.4,382.46Zm0.19-14.81h-1.35v10h1.4c3.77,0,5.5-1.91,5.5-5.08C331.13,369.79,329.31,367.65,325.59,367.65Z" transform="translate(-156.28 -119.97)" fill="#8c978e"/><path d="M374,367.56h-8.24V393h-6.43V367.56h-9v-5.22h25.1Z" transform="translate(-156.28 -119.97)" fill="#8c978e"/><path d="M389.4,393V362.34h6.38V393H389.4Z" transform="translate(-156.28 -119.97)" fill="#8c978e"/><path d="M426.93,393.5c-10,0-15.69-6.85-15.69-15.51s6.61-16,17.09-16a18.27,18.27,0,0,1,8,1.63l-0.09,5.68a14.84,14.84,0,0,0-7.68-2.14c-7.22,0-10.38,5-10.38,10.34,0,5.87,3.77,10.48,9.83,10.48a15.4,15.4,0,0,0,7.64-2.1l1.72,4.47A19.15,19.15,0,0,1,426.93,393.5Z" transform="translate(-156.28 -119.97)" fill="#8c978e"/><path d="M181.19,428h-1.1v10h-6V409H182c6.38,0,10.65,3.21,10.65,9.42C192.63,422.19,189.82,428,181.19,428Zm0.18-14h-1.28v9.42h1.32c3.56,0,5.19-1.8,5.19-4.8C186.6,416.07,184.89,414,181.37,414Z" transform="translate(-156.28 -119.97)" fill="#830051"/><path d="M221.94,438c-4.4-7.53-6.16-10.78-7.22-11.18h-2.24V438h-6V409h8.45c7.75,0,10.56,3.83,10.56,8.32a8.31,8.31,0,0,1-5.28,7.52v0c1.45,0.84,4.27,5.72,8.63,13.11h-6.86ZM215,414h-2.55v8.41H215a4.35,4.35,0,0,0,4.44-4.44C219.47,415.76,217.89,414,215,414Z" transform="translate(-156.28 -119.97)" fill="#830051"/><path d="M264.79,434.16a16.42,16.42,0,0,1-21.26.79,14.56,14.56,0,0,1-4.62-11.09A15.24,15.24,0,0,1,243.09,413a14.78,14.78,0,0,1,10.78-4.31,14,14,0,0,1,15,14.79A14.9,14.9,0,0,1,264.79,434.16Zm-10.91-20.51c-5,0-8.67,3.65-8.67,10s3.65,10,8.67,10,8.58-3.65,8.58-10S258.89,413.65,253.87,413.65Z" transform="translate(-156.28 -119.97)" fill="#830051"/><path d="M292.06,438H283V409h9.64c10.34,0,16.15,5.59,16.15,14.26C308.74,432.22,302.1,438,292.06,438Zm0.13-24H289v19h3.3c7.17,0,10-4.53,10-9.59C302.27,417.75,298.84,414,292.19,414Z" transform="translate(-156.28 -119.97)" fill="#830051"/><path d="M344.91,435.13c-2.16,2.16-5.28,3.34-9.68,3.34s-7.44-1-9.5-3-2.86-4.75-2.86-8.14V409h6v17.82a6.94,6.94,0,0,0,1.63,4.75,6.37,6.37,0,0,0,4.84,1.8c2.33,0,4-.62,5.06-1.8a6.28,6.28,0,0,0,1.45-4.49V409h6v17.69C347.86,430.24,346.89,433.15,344.91,435.13Z" transform="translate(-156.28 -119.97)" fill="#830051"/><path d="M376.85,438.47c-9.46,0-14.83-6.47-14.83-14.65s6.25-15.09,16.15-15.09a17.25,17.25,0,0,1,7.57,1.54l-0.09,5.37a14,14,0,0,0-7.26-2c-6.82,0-9.81,4.75-9.81,9.77,0,5.54,3.56,9.9,9.29,9.9a14.55,14.55,0,0,0,7.22-2l1.63,4.22A18.09,18.09,0,0,1,376.85,438.47Z" transform="translate(-156.28 -119.97)" fill="#830051"/><path d="M420.59,414H412.8V438h-6.07V414h-8.49V409H422Z" transform="translate(-156.28 -119.97)" fill="#830051"/><path d="M227.39,483.3c-2.51,0-5-1.19-7.35-3.12a15.45,15.45,0,0,1-9.9,3.3c-5.94,0-10.08-3.56-10.08-8.58,0-4,2.77-6.56,5.94-8.05-1.67-1.89-3.21-3.56-3.21-6.38,0-3.52,3.21-6.73,8.85-6.73s8.8,2.9,8.8,6.78c0,3.39-2.51,5.76-5.72,7.44,1.45,1.54,4,4,5.76,5.59a14.28,14.28,0,0,0,3.39-6.07l5.06,1.23a21.59,21.59,0,0,1-4.71,8c2.07,1.45,3.39,2.2,5.72,1.94l1,3.92A8.36,8.36,0,0,1,227.39,483.3Zm-18.22-13c-1.89,1.06-2.95,2.24-2.95,4,0,2.64,2,4.4,4.93,4.4A8.07,8.07,0,0,0,216,477,82.29,82.29,0,0,1,209.17,470.31ZM211.59,458c-1.85,0-2.73,1.1-2.73,2.33s0.62,2.33,2.46,4.09c2.16-1.14,3.12-2.64,3.12-3.92S213.48,458,211.59,458Z" transform="translate(-156.28 -119.97)" fill="#830051"/><path d="M270.29,459H261v6.91h9.15l0,4.93H261V483h-6V454h16.85Z" transform="translate(-156.28 -119.97)" fill="#830051"/><path d="M307.69,480.13c-2.16,2.16-5.28,3.34-9.68,3.34s-7.44-1-9.5-3-2.86-4.75-2.86-8.14V454h6v17.82a6.94,6.94,0,0,0,1.63,4.75,6.37,6.37,0,0,0,4.84,1.8c2.33,0,4-.62,5.06-1.8a6.28,6.28,0,0,0,1.45-4.49V454h6v17.69C310.64,475.24,309.67,478.15,307.69,480.13Z" transform="translate(-156.28 -119.97)" fill="#830051"/><path d="M347.38,483l-12.59-16.11c-1.1-1.41-1.89-2.55-2.77-3.83h-0.09c0.09,1,.09,2.73.09,4V483h-6V454h6.07l12.15,15.49c1.14,1.45,1.94,2.6,2.73,3.78h0.09c-0.09-1.36-.09-3.26-0.09-4.49V454h6v29h-5.59Z" transform="translate(-156.28 -119.97)" fill="#830051"/><path d="M377.43,483h-9.11V454H378c10.34,0,16.15,5.59,16.15,14.26C394.1,477.22,387.46,483,377.43,483Zm0.13-24h-3.21v19h3.3c7.17,0,10-4.53,10-9.59C387.63,462.75,384.2,459,377.56,459Z" transform="translate(-156.28 -119.97)" fill="#830051"/><path d="M306.31,281a6.56,6.56,0,0,0,13.12,0V256.92a6.57,6.57,0,0,1,6.56-6.56,6.56,6.56,0,0,0,0-13.12,19.71,19.71,0,0,0-19.69,19.68V281Z" transform="translate(-156.28 -119.97)" fill="#8c978e"/><path d="M355.69,185a6.56,6.56,0,1,0-13.12,0,6.57,6.57,0,0,1-6.56,6.56,6.58,6.58,0,0,0-1.15.11,24.06,24.06,0,0,0-3.84-.31H327.9c-12,0-21.78,8.83-21.78,19.68a6.56,6.56,0,1,0,13.12,0c0-3.56,4-6.56,8.66-6.56H331c4.69,0,8.65,3,8.65,6.56a6.56,6.56,0,1,0,13.12,0,18.3,18.3,0,0,0-3.89-11.2A19.62,19.62,0,0,0,355.69,185Z" transform="translate(-156.28 -119.97)" fill="#8c978e"/><path d="M356.14,138a19.7,19.7,0,0,0-19.55-17.43H310.76a19.58,19.58,0,0,0-12.8,4.76A19.59,19.59,0,0,0,284.52,120H258.69a19.69,19.69,0,0,0-19.6,18.16,19.69,19.69,0,0,0-16.85,19.45V173a19.71,19.71,0,0,0-15.62,19.25v27.57A19.57,19.57,0,0,0,211.66,233a19.58,19.58,0,0,0-5.05,13.12v5A19.7,19.7,0,0,0,224,270.64v15.18a19.71,19.71,0,0,0,15.63,19.26,19.69,19.69,0,0,0,14.54,18.81,19.12,19.12,0,0,0,19,17.49h49.58a19.11,19.11,0,0,0,19-17.64,19.71,19.71,0,0,0,13.94-18.82v-4.81a6.56,6.56,0,1,0-13.12,0v4.81a6.57,6.57,0,0,1-6.56,6.56H316.15a6.56,6.56,0,1,0,0,13.12h12.09a6,6,0,0,1-5.51,3.66H273.16a6,6,0,0,1-5.52-3.66h13.22a6.56,6.56,0,1,0,0-13.12h-21.6a6.57,6.57,0,0,1-6.53-6h0.54a19.59,19.59,0,0,0,13.44-5.34,19.58,19.58,0,0,0,12.8,4.76,6.56,6.56,0,0,0,0-13.12,6.57,6.57,0,0,1-6.56-6.56,6.56,6.56,0,1,0-13.12,0c0,0.1,0,.19,0,0.29s0,0.19,0,.29a6.57,6.57,0,0,1-6.56,6.56h-9.63a6.57,6.57,0,0,1-6.56-6.56V248A6.56,6.56,0,0,0,224,248v9.21a6.56,6.56,0,0,1-4.24-6.13v-5a6.57,6.57,0,0,1,6.56-6.56,6.56,6.56,0,0,0,0-13.12,6.57,6.57,0,0,1-6.56-6.56V192.3a6.55,6.55,0,0,1,2.5-5.15v14.2A19.7,19.7,0,0,0,241.91,221a6.56,6.56,0,1,0,0-13.12,6.57,6.57,0,0,1-6.56-6.56V157.59a6.57,6.57,0,0,1,6.56-6.56h20.6a19.71,19.71,0,0,0,18.74,13.7,6.56,6.56,0,0,0,0-13.12A6.57,6.57,0,0,1,274.7,145a7.48,7.48,0,0,0-7-7.14H252.38a6.57,6.57,0,0,1,6.32-4.82h25.83a6.57,6.57,0,0,1,6.56,6.56V168H262.16a6.56,6.56,0,0,1-6.56-6.56,6.56,6.56,0,1,0-13.12,0,19.7,19.7,0,0,0,19.68,19.67h28.92v2.07l-2.12,0a19.7,19.7,0,0,0-19.68,19.69,6.56,6.56,0,1,0,13.12,0,6.6,6.6,0,0,1,6.7-6.57l2,0V314a6.56,6.56,0,1,0,13.12,0V140.23a6.56,6.56,0,0,1,6.56-6.56h25.83a6.57,6.57,0,0,1,6.13,4.23h-14A8.31,8.31,0,0,0,321,145a6.57,6.57,0,0,1-6.56,6.56,6.56,6.56,0,0,0,0,13.12A19.71,19.71,0,0,0,333.16,151h21.36a6.56,6.56,0,0,1,6.56,6.56V194.8a6.56,6.56,0,1,0,13.12,0V157.59A19.69,19.69,0,0,0,356.14,138Z" transform="translate(-156.28 -119.97)" fill="#8c978e"/><path d="M247.88,289.89a6.56,6.56,0,0,0,6.56-6.56V260.57A6.57,6.57,0,0,1,261,254a7.51,7.51,0,0,0,7.32-6.75,6.57,6.57,0,0,1,6.56-6.56,5.95,5.95,0,0,1,1.92,0,6.56,6.56,0,0,0,6.56-6.56V220.26a6.56,6.56,0,1,0-13.12,0v7.9a19.74,19.74,0,0,0-14.19,13.39,19.7,19.7,0,0,0-14.74,19v22.75A6.56,6.56,0,0,0,247.88,289.89Z" transform="translate(-156.28 -119.97)" fill="#8c978e"/><path d="M351.45,158.74h-7.32a19.71,19.71,0,0,0-18.8,13.89H313.84a6.56,6.56,0,1,0,0,13.12h16.78a7.68,7.68,0,0,0,7-7.33,6.56,6.56,0,0,1,6.56-6.56h7.32A6.56,6.56,0,0,0,351.45,158.74Z" transform="translate(-156.28 -119.97)" fill="#8c978e"/><path d="M267.74,271.56a6.57,6.57,0,0,1,6.56,6.56,6.56,6.56,0,1,0,13.12,0,19.7,19.7,0,0,0-19.69-19.68A6.56,6.56,0,0,0,267.74,271.56Z" transform="translate(-156.28 -119.97)" fill="#8c978e"/><path d="M246.73,224.69a6.56,6.56,0,0,0,0,13.12c10.85,0,19.68-9.77,19.68-21.78v-3.12c0-12-8.83-21.78-19.68-21.78a6.56,6.56,0,1,0,0,13.12c3.56,0,6.56,4,6.56,8.66V216C253.29,220.73,250.29,224.69,246.73,224.69Z" transform="translate(-156.28 -119.97)" fill="#8c978e"/><path d="M346.25,245.22a6.56,6.56,0,0,0-6.56,6.56,6.56,6.56,0,0,1-6.56,6.56,6.56,6.56,0,0,0,0,13.12,6.57,6.57,0,0,1,6.56,6.56,6.56,6.56,0,1,0,13.12,0,19.58,19.58,0,0,0-5.05-13.12,19.57,19.57,0,0,0,5.05-13.12A6.56,6.56,0,0,0,346.25,245.22Z" transform="translate(-156.28 -119.97)" fill="#8c978e"/><path d="M388.67,192.3a19.7,19.7,0,0,0-14.47-19v15a6.52,6.52,0,0,1,1.35,4v5a6.57,6.57,0,0,1-6.56,6.56h-0.58a6.56,6.56,0,1,0,0,13.12,6.56,6.56,0,0,1,6.56,6.56v27.57a6.56,6.56,0,0,1-4.24,6.13V242.06a19.7,19.7,0,0,0-19.68-19.68H341a6.56,6.56,0,1,0,0,13.12h10a6.56,6.56,0,0,1,6.56,6.56V286.4a6.57,6.57,0,0,1-6.56,6.56h-9.63a6.57,6.57,0,0,1-6.56-6.56,6.7,6.7,0,1,0-13.31-1.15A6.56,6.56,0,0,1,315,291.8a6.56,6.56,0,0,0,0,13.12,19.58,19.58,0,0,0,12.57-4.56,19.61,19.61,0,0,0,13.85,5.72h9.63a6.64,6.64,0,0,0,.67,0,19.69,19.69,0,0,0,19-19.65V270.64a19.7,19.7,0,0,0,17.36-19.53V223.55a19.58,19.58,0,0,0-4.76-12.8,19.59,19.59,0,0,0,5.34-13.44v-5Z" transform="translate(-156.28 -119.97)" fill="#830051"/><path d="M328.49,230.45a19.59,19.59,0,0,0,13.12,5.05,6.56,6.56,0,0,0,0-13.12,6.57,6.57,0,0,1-6.56-6.56,6.56,6.56,0,0,0-13.12,0,6.56,6.56,0,0,1-6.56,6.56,6.56,6.56,0,0,0,0,13.12A19.57,19.57,0,0,0,328.49,230.45Z" transform="translate(-156.28 -119.97)" fill="#8c978e"/></svg>