<svg xmlns="http://www.w3.org/2000/svg" viewBox="0 0 343.71 87.97"><defs><style>.cls-1{fill:#a90f3d;}.cls-2{fill:#fff;}</style></defs><title>dpp-7</title><g id="Layer_2" data-name="Layer 2"><g id="PROFILED"><path class="cls-1" d="M333.9,88H9.81A9.84,9.84,0,0,1,0,78.16V9.81A9.84,9.84,0,0,1,9.81,0H333.9a9.84,9.84,0,0,1,9.81,9.81V78.16A9.84,9.84,0,0,1,333.9,88Z"/><path class="cls-2" d="M312.71,13.9a.83.83,0,0,1,.91.82c0,.45-.09.73-.64,1.63s-7.9,14.52-11.53,23.51c-.91,2.09-8.53,18.88-12.25,31.4-1.09,3.72-2.9,4.63-4.54,4.63a3.2,3.2,0,0,1-3.54-3.36c0-2.27,2-6,3.18-8.44,1.54-3.09,17.33-33.22,22.51-43.47H285.3c-5.45,0-6.62,2.45-9.26,6.35-.45.64-1.09.54-1.73.18-.82-.45-.82-.55-.55-1.36l5.63-14.61c.27-.55.36-.64,1.45-.64s1.36.27,1.18,1.63.55,1.73,5.17,1.73h25.5Z"/><path class="cls-2" d="M75.29,20.16a9.85,9.85,0,0,0-1.36-2.7,8.72,8.72,0,0,0-2.06-2,6.38,6.38,0,0,0-2.6-1.08q-.54-.11-1.19-.18a15.92,15.92,0,0,0-1.6-.07h-.71l-.75.06-.68.07a2.86,2.86,0,0,0-.5.08q-.14,1.33-.16,3.66t0,5.56v3.17q0,1.41,0,2.3c0,.25,0,.53,0,.83s.06.59.1.87a3.54,3.54,0,0,0,.18.76,1.34,1.34,0,0,0,.29.5,2.51,2.51,0,0,0,1.37.69,8.66,8.66,0,0,0,1.56.15q.68,0,1.4-.07a6.69,6.69,0,0,0,1.34-.26,7.18,7.18,0,0,0,4.38-3.27,11.45,11.45,0,0,0,1.45-6,9.8,9.8,0,0,0-.49-3.07m3.33,6.59a8.71,8.71,0,0,1-1.33,2.66,7.81,7.81,0,0,1-2,1.84A10.62,10.62,0,0,1,73,32.41a13,13,0,0,1-2.57.61,19.67,19.67,0,0,1-2.58.18H57.94v-.27a4.75,4.75,0,0,0,1.31-.35,2.54,2.54,0,0,0,1-.65.9.9,0,0,0,.2-.46c0-.22.08-.46.12-.73s.06-.56.08-.87,0-.61,0-.9,0-.6,0-1,0-.91,0-1.42,0-1,0-1.59V17.09q0-.49,0-.91a5.61,5.61,0,0,0-.12-.76,1.25,1.25,0,0,0-.24-.53,2.16,2.16,0,0,0-1-.68A6.41,6.41,0,0,0,58,13.95v-.27H68.24q.89,0,1.79.08a15.31,15.31,0,0,1,1.79.27,9.08,9.08,0,0,1,1.76.57,10.14,10.14,0,0,1,2.14,1.25,8.33,8.33,0,0,1,1.75,1.8A8.88,8.88,0,0,1,78.66,20a10.08,10.08,0,0,1,.45,3.13,11.94,11.94,0,0,1-.49,3.58"/><path class="cls-2" d="M103.07,14.33a4.23,4.23,0,0,0-1,.7,6.66,6.66,0,0,0-.88,1q-.42.6-.91,1.36-.33.51-.91,1.4l-1.19,1.83L97,22.46l-.89,1.36v5.45q0,.78,0,1.53a2,2,0,0,0,.26,1,1.9,1.9,0,0,0,1.06.79,11.94,11.94,0,0,0,1.25.3v.27H90.36v-.27a6,6,0,0,0,1.23-.26,2.8,2.8,0,0,0,1.13-.85.91.91,0,0,0,.2-.46,7,7,0,0,0,.11-.73c0-.27,0-.56.05-.87s0-.6,0-.9q0-.76,0-1.8t0-2.53L92.83,24l-.66-1.07-.87-1.42L90.36,20l-.87-1.4c-.27-.43-.5-.79-.68-1.06l-.93-1.44A7.8,7.8,0,0,0,87,15a4.7,4.7,0,0,0-.85-.73,1.93,1.93,0,0,0-1-.3v-.27h8.21v.27l-.81.08a3.81,3.81,0,0,0-.76.18,1.59,1.59,0,0,0-.57.32.73.73,0,0,0-.22.56,2.59,2.59,0,0,0,.39,1.07c.26.48.54,1,.83,1.45L93,18.78c.27.46.57.95.89,1.47l1,1.59q.5.81.93,1.55.35-.52.87-1.32l1-1.63,1-1.59q.47-.76.72-1.19l.3-.5c.11-.19.21-.39.31-.6a5.67,5.67,0,0,0,.26-.64,1.93,1.93,0,0,0,.11-.6,1,1,0,0,0-.22-.68,1.44,1.44,0,0,0-.56-.38,3.68,3.68,0,0,0-.75-.2l-.79-.12v-.27h6.26v.27a4.28,4.28,0,0,0-1.3.38"/><path class="cls-2" d="M130.76,14.46a2.4,2.4,0,0,0-.93,1.17,4.57,4.57,0,0,0-.24,1.5q-.05,1.1-.11,2.34t-.1,2.75q0,1.59,0,3.4v1.74q0,.95,0,1.94t0,2V33a.24.24,0,0,1-.07.18.27.27,0,0,1-.2.07.74.74,0,0,1-.49-.27q-2.31-2.66-4.2-4.88l-3.62-4.24-3.37-3.94q-1.65-1.92-3.5-4V27.39q0,1.38.07,2.49a4.47,4.47,0,0,0,.34,1.65,2,2,0,0,0,.93.94,5.63,5.63,0,0,0,1.75.45v.27h-6.67v-.27a5.25,5.25,0,0,0,1.3-.34,2.12,2.12,0,0,0,1-.85,3.7,3.7,0,0,0,.49-1.68q.11-1.11.16-2.66c0-.78.06-1.69.08-2.75s0-2.19,0-3.4V17.93q0-.54,0-1.33a3.11,3.11,0,0,0-.38-1.29,2.52,2.52,0,0,0-.71-.79,2.73,2.73,0,0,0-.88-.41,7.34,7.34,0,0,0-.91-.18v-.27H116l12.85,15V19.48q0-1.08,0-2.07a4.92,4.92,0,0,0-.24-1.56,2.48,2.48,0,0,0-1-1.23,4.74,4.74,0,0,0-2-.66v-.27h6.72v.27a4.1,4.1,0,0,0-1.61.52"/><path class="cls-2" d="M147.61,16.77c-.11.24-.27.61-.48,1.11s-.46,1.12-.77,1.84-.65,1.54-1,2.45l-1.21,3h6.75q-.46-1.22-.93-2.44L149,20.36l-.81-2.06q-.37-.93-.61-1.53m3.55,16.43v-.27l.39-.05a3.43,3.43,0,0,0,.65-.19,1.88,1.88,0,0,0,.6-.38.82.82,0,0,0,.26-.62,3.6,3.6,0,0,0-.15-.8q-.15-.55-.42-1.35t-.62-1.78q-.35-1-.76-2H143.9q-.41,1-.79,2l-.76,1.88a6.88,6.88,0,0,0-.57,2.06.81.81,0,0,0,.22.58,1.69,1.69,0,0,0,.56.38,3.1,3.1,0,0,0,.73.22l.74.12v.27h-5.77v-.3a3,3,0,0,0,1.21-.38,2.72,2.72,0,0,0,.58-.41,5.88,5.88,0,0,0,.62-.9,19.52,19.52,0,0,0,1.06-2.09q.57-1.28,1.27-2.9l1.45-3.35q.75-1.72,1.48-3.47t1.38-3.27l-.27-.6a4.46,4.46,0,0,0,.88-.52,5.21,5.21,0,0,0,.69-.62,5.85,5.85,0,0,0,.5-.62c.13-.2.24-.36.31-.49h.22l1.6,4.27,1.45,3.89L154,25.08q.65,1.75,1.3,3.46.3.84.56,1.4l.58,1.26a3.42,3.42,0,0,0,.24.38,3.35,3.35,0,0,0,.5.55,3,3,0,0,0,.77.5,2.84,2.84,0,0,0,1.08.24v.32h-7.91Z"/><path class="cls-2" d="M180.88,33.19v-.3a4.44,4.44,0,0,0,2-.49,2.38,2.38,0,0,0,1.06-1,3.35,3.35,0,0,0,.24-.88,10.52,10.52,0,0,0,.11-1.07q.05-1.79.05-3.42V15l-1.64,3.69q-.75,1.68-1.48,3.28t-1.48,3.27l-1.64,3.67q-.14.27-.38.85L177.19,31q-.24.61-.46,1.11c-.14.33-.24.56-.27.67h-.16l-1.72-4q-.86-2-1.67-3.81l-1.52-3.43q-.71-1.6-1.27-2.85t-.93-2.09l-.5-1.14q0,1.79,0,3.16t0,2.71q0,1.34,0,2.83v3.47c0,.85,0,1.59.08,2.21a4.24,4.24,0,0,0,.41,1.57,2.36,2.36,0,0,0,1,1,5.41,5.41,0,0,0,1.83.53v.27h-7.08v-.27a4.75,4.75,0,0,0,1.54-.56,2.66,2.66,0,0,0,.95-1,5.2,5.2,0,0,0,.51-1.61,16.18,16.18,0,0,0,.19-2.34c0-.78.06-1.69.08-2.75s0-2.19,0-3.4V17.82q0-.54,0-1.33a2.33,2.33,0,0,0-1-2,2.92,2.92,0,0,0-.87-.39c-.31-.08-.57-.14-.79-.18v-.27h5.77l6.48,14.75q1.19-2.57,2.33-5.12t2-4.61q.91-2.06,1.49-3.43c.39-.91.61-1.44.66-1.59H190v.27a2.94,2.94,0,0,0-1.69.46,2.23,2.23,0,0,0-.8,1,5.61,5.61,0,0,0-.22,1.44q-.05,1-.08,1.92c0,.87,0,1.71,0,2.52v5.39q0,1.44,0,3a8.07,8.07,0,0,0,.07,1,2.41,2.41,0,0,0,.23.83,1.93,1.93,0,0,0,.2.26,2.85,2.85,0,0,0,.5.43,3.35,3.35,0,0,0,.81.41,3.77,3.77,0,0,0,1.14.2v.27h-9.3Z"/><path class="cls-2" d="M198.25,33.19v-.27a5.42,5.42,0,0,0,1.26-.35,2.68,2.68,0,0,0,1-.7,1.07,1.07,0,0,0,.2-.46,5.67,5.67,0,0,0,.11-.7q0-.41.05-.85c0-.3,0-.59,0-.88s0-.6,0-1,0-.91,0-1.42,0-1,0-1.59V17.09c0-.33,0-.63,0-.91a5.46,5.46,0,0,0-.12-.76,1.25,1.25,0,0,0-.24-.53,2.15,2.15,0,0,0-.93-.66,5.48,5.48,0,0,0-1.26-.28v-.27h8.11v.27a7,7,0,0,0-1.22.3,1.75,1.75,0,0,0-1,.87,2.59,2.59,0,0,0-.26,1.17c0,.47,0,.91,0,1.33s0,.9,0,1.34,0,.89,0,1.34v9.08q0,.79,0,1.52a1.94,1.94,0,0,0,.24,1,2,2,0,0,0,1,.71,5.48,5.48,0,0,0,1.27.3v.27Z"/><path class="cls-2" d="M233.17,20a9.17,9.17,0,0,0-1.06-2.44,8.67,8.67,0,0,0-1.67-2,7.62,7.62,0,0,0-2.17-1.33,6.77,6.77,0,0,0-2.56-.49,6.57,6.57,0,0,0-3.33.84,7.69,7.69,0,0,0-2.45,2.22,10.59,10.59,0,0,0-1.52,3.13,12.33,12.33,0,0,0-.53,3.59,11.74,11.74,0,0,0,.56,3.66,9.07,9.07,0,0,0,1.59,3,7.56,7.56,0,0,0,2.49,2,7.17,7.17,0,0,0,3.25.73,6.76,6.76,0,0,0,2.64-.52,7.92,7.92,0,0,0,2.2-1.35,8.22,8.22,0,0,0,1.63-1.94,7.22,7.22,0,0,0,.91-2.26h.32l-.08,6h-.32a8.25,8.25,0,0,0-.68-.84c-.24-.25-.4-.38-.49-.38a2.36,2.36,0,0,0-.49.28,7.93,7.93,0,0,1-1.25.62,11.87,11.87,0,0,1-2,.6,12.57,12.57,0,0,1-2.68.26,13.62,13.62,0,0,1-4.55-.72,9.86,9.86,0,0,1-3.46-2,8.83,8.83,0,0,1-2.18-3.15,10.39,10.39,0,0,1-.76-4,10.19,10.19,0,0,1,.07-1.11,9.94,9.94,0,0,1,.24-1.33,11.41,11.41,0,0,1,.49-1.48,10.16,10.16,0,0,1,.8-1.56,9.76,9.76,0,0,1,1.41-1.76,9,9,0,0,1,2-1.48,11,11,0,0,1,2.58-1,12.69,12.69,0,0,1,3.23-.38,12.07,12.07,0,0,1,2.85.3,12.92,12.92,0,0,1,2,.65,7.76,7.76,0,0,1,1.25.65,2.41,2.41,0,0,0,.49.3.48.48,0,0,0,.2-.12l.32-.3c.12-.12.24-.25.37-.41s.24-.31.35-.48h.3v6.07Z"/><path class="cls-2" d="M65.46,45.19c0-1.1-.33-2.35-2.89-2.35H59.89v4.71h2.68c2.56,0,2.89-1.25,2.89-2.35m1.24,0c0,2.28-1.41,3.54-4,3.54H59.89v4.38H58.65V41.65h4.07c2.56,0,4,1.25,4,3.54"/><polygon class="cls-2" points="78.08 41.65 78.08 53.11 85.17 53.11 85.17 51.91 79.31 51.91 79.31 41.65 78.08 41.65"/><path class="cls-2" d="M101.07,43.11l2,5.24h-4Zm-.62-1.46L95.88,53.11h1.34l1.38-3.57h4.95l1.37,3.57h1.32l-4.55-11.46Z"/><polygon class="cls-2" points="125.7 41.65 125.7 51.31 118.86 41.65 117.45 41.65 117.45 53.11 118.69 53.11 118.69 43.45 125.55 53.11 126.94 53.11 126.94 41.65 125.7 41.65"/><polygon class="cls-2" points="147.58 41.65 147.58 51.31 140.74 41.65 139.33 41.65 139.33 53.11 140.57 53.11 140.57 43.45 147.42 53.11 148.82 53.11 148.82 41.65 147.58 41.65"/><polygon class="cls-2" points="161.06 41.65 161.06 53.11 168.29 53.11 168.29 51.94 162.3 51.94 162.3 47.97 167.57 47.97 167.57 46.77 162.3 46.77 162.3 42.82 168.29 42.82 168.29 41.65 161.06 41.65"/><path class="cls-2" d="M186.82,45.07c0-1-.31-2.25-2.71-2.25h-2.9v4.5h2.9c2.4,0,2.71-1.2,2.71-2.25m1.75,8h-1.46l-3-4.62H181.2v4.62H180V41.65h4.21c2.47,0,3.88,1.13,3.88,3.33a3.18,3.18,0,0,1-2.63,3.31Z"/><path class="cls-2" d="M191.81,40v-.4h3.46V40h-1.48v3.75h-.49V40Z"/><path class="cls-2" d="M195.85,43.73V39.58h.49l1.48,2.17,1.48-2.17h.49v4.15h-.49V40.27l-1.48,2.17-1.48-2.17v3.46Z"/><path class="cls-2" d="M15.83,62.7a2.39,2.39,0,0,1-2.39-2.39V42.26a2.39,2.39,0,1,1,4.77,0V60.31A2.39,2.39,0,0,1,15.83,62.7Z"/><path class="cls-2" d="M33.79,66.73a2.39,2.39,0,0,1-2.39-2.39V27.46a2.39,2.39,0,0,1,4.77,0V64.34A2.39,2.39,0,0,1,33.79,66.73Z"/><path class="cls-2" d="M42.77,74.64a2.39,2.39,0,0,1-2.39-2.39V15.12a2.39,2.39,0,0,1,4.77,0V72.25A2.39,2.39,0,0,1,42.77,74.64Z"/><path class="cls-2" d="M24.81,56.85a2.39,2.39,0,0,1-2.39-2.39V25.17a2.39,2.39,0,0,1,4.77,0V54.46A2.39,2.39,0,0,1,24.81,56.85Z"/><path class="cls-2" d="M58.32,74.67V65.33h3.49a3.7,3.7,0,0,1,2.56.81,3.42,3.42,0,0,1,0,4.63,3.72,3.72,0,0,1-2.56.81H60v3.08H58.32ZM60,70.08h1.68a2.13,2.13,0,0,0,1.51-.41,1.65,1.65,0,0,0,.4-1.21,1.61,1.61,0,0,0-.41-1.19,2.15,2.15,0,0,0-1.51-.4H60Z"/><path class="cls-2" d="M69.83,74.67V65.33h3.59a3.81,3.81,0,0,1,2.55.78,2.77,2.77,0,0,1,.91,2.23,2.64,2.64,0,0,1-2.05,2.76l2.45,3.57h-2L73,71.38H71.51v3.29Zm1.68-4.83h1.86a2.5,2.5,0,0,0,1.34-.31,1.62,1.62,0,0,0,0-2.31,2.55,2.55,0,0,0-1.34-.3H71.51Z"/><path class="cls-2" d="M81.27,70a6.86,6.86,0,0,1,.27-2,4,4,0,0,1,.69-1.38,3.36,3.36,0,0,1,1-.84,4,4,0,0,1,1.16-.43,6.93,6.93,0,0,1,2.45,0,4,4,0,0,1,1.16.43,3.48,3.48,0,0,1,1,.84A4,4,0,0,1,89.72,68a7.73,7.73,0,0,1,0,4A4,4,0,0,1,89,73.4a3.54,3.54,0,0,1-1,.83,4,4,0,0,1-1.16.43,6.38,6.38,0,0,1-1.22.11,6.46,6.46,0,0,1-1.22-.11,4,4,0,0,1-1.16-.43,3.44,3.44,0,0,1-1-.83A4,4,0,0,1,81.53,72,6.91,6.91,0,0,1,81.27,70Zm1.68,0a6.11,6.11,0,0,0,.21,1.74,2,2,0,0,0,.61,1,2.31,2.31,0,0,0,.83.44,3.89,3.89,0,0,0,1,.12,4.82,4.82,0,0,0,.83-.06,2.35,2.35,0,0,0,.72-.26,1.65,1.65,0,0,0,.6-.56,3.29,3.29,0,0,0,.39-1,7.13,7.13,0,0,0-.06-3.18,2,2,0,0,0-.62-1,2.29,2.29,0,0,0-.83-.43,4.1,4.1,0,0,0-1-.11,4.72,4.72,0,0,0-.81.06,2.38,2.38,0,0,0-.72.27,1.69,1.69,0,0,0-.6.55,3.24,3.24,0,0,0-.38,1A6,6,0,0,0,82.95,70Z"/><path class="cls-2" d="M94.82,74.67V65.33h6v1.51H96.5v2.36h3.77v1.59H96.5v3.88Z"/><path class="cls-2" d="M105.43,74.67V65.33h1.68v9.34Z"/><path class="cls-2" d="M112.27,74.67V65.33H114v7.75h4.49v1.59Z"/><path class="cls-2" d="M122.88,74.67V65.33h6.21v1.51h-4.53v2.36h3.93v1.59h-3.93v2.36h4.53v1.51Z"/><path class="cls-2" d="M133.81,74.67V65.33H137a4.31,4.31,0,0,1,3.29,1.19,6,6,0,0,1,0,7A4.31,4.31,0,0,1,137,74.67h-3.22Zm1.68-1.51H137a2.64,2.64,0,0,0,2.1-.74,4.9,4.9,0,0,0,0-4.84,2.64,2.64,0,0,0-2.1-.74H135.5Z"/></g></g></svg>