<svg xmlns="http://www.w3.org/2000/svg" viewBox="0 0 343.8 87.9"><defs><style>.cls-1{fill:#a90f3d;}.cls-2{fill:#fff;}</style></defs><title>dpp-6</title><g id="Layer_2" data-name="Layer 2"><g id="PROFILED"><path class="cls-1" d="M333.6,87.9H10.2A10.24,10.24,0,0,1,0,77.7V10.2A10.24,10.24,0,0,1,10.2,0H333.6a10.24,10.24,0,0,1,10.2,10.2V77.7A10.18,10.18,0,0,1,333.6,87.9Z"/><path class="cls-2" d="M278.5,70.8c-4.5-4.9-5.8-12-5.8-16.7,0-11.3,4.2-22.5,13.8-31.9a43.6,43.6,0,0,1,13.3-8.8,11.57,11.57,0,0,1,3.4-1,1,1,0,0,1,1.1.9,1.65,1.65,0,0,1-.8,1.5c-7.3,3.3-19.2,13.3-21.5,28.1a17.84,17.84,0,0,1,12.1-4.2c11.3,0,16.1,10.1,16.1,16,0,8.4-2.5,12.3-5.6,15.6-3.4,3.6-7.2,5.4-12.9,5.4C285.4,75.8,281.2,74.1,278.5,70.8Zm23.8-13.2c0-8.1-4-14.9-11-14.9-5.4,0-7.9,2.2-9,4.4a22.06,22.06,0,0,0-2,9.9c0,4.6.7,15.9,11.7,15.9C294.1,72.9,302.3,71.9,302.3,57.6Z"/><path class="cls-2" d="M75.3,20.1a8.67,8.67,0,0,0-1.4-2.7,8,8,0,0,0-2.1-2,6.6,6.6,0,0,0-2.6-1.1c-.4-.1-.8-.1-1.2-.2a7.59,7.59,0,0,0-1.6-.1h-.7a1.48,1.48,0,0,0-.7.1c-.2,0-.5.1-.7.1a.75.75,0,0,0-.5.1c-.1.9-.1,2.1-.2,3.7V29.9c0,.3.1.6.1.9a2.35,2.35,0,0,0,.2.8,2.19,2.19,0,0,0,.3.5,2.35,2.35,0,0,0,1.4.7,10,10,0,0,0,1.6.2,6.6,6.6,0,0,0,1.4-.1,2.77,2.77,0,0,0,1.3-.3,7.09,7.09,0,0,0,4.4-3.3,11.13,11.13,0,0,0,1.5-6,10.73,10.73,0,0,0-.5-3.2m3.3,6.6a11.26,11.26,0,0,1-1.3,2.7,6.83,6.83,0,0,1-2,1.8,9,9,0,0,1-2.4,1.2,11,11,0,0,1-2.6.6,22.75,22.75,0,0,1-2.6.2H57.8v-.3a5,5,0,0,0,1.3-.4,3.59,3.59,0,0,0,1-.7.59.59,0,0,0,.2-.5c0-.2.1-.5.1-.7s.1-.6.1-.9V16c0-.3-.1-.5-.1-.8a.59.59,0,0,0-.2-.5,2.29,2.29,0,0,0-1-.7c-.4-.1-.8-.2-1.3-.3v-.3H68.1a10.87,10.87,0,0,1,1.8.1,11.27,11.27,0,0,1,1.8.3,6.36,6.36,0,0,1,1.8.6,7.19,7.19,0,0,1,2.1,1.2,10.22,10.22,0,0,1,1.8,1.8,9,9,0,0,1,1.2,2.4,10.12,10.12,0,0,1,.4,3.1,10.81,10.81,0,0,1-.4,3.8"/><path class="cls-2" d="M103.1,14.3a3.59,3.59,0,0,0-1,.7,9,9,0,0,0-.9,1c-.3.4-.6.9-.9,1.4-.2.3-.5.8-.9,1.4l-1.2,1.8L97,22.4a15.14,15.14,0,0,0-.9,1.4v6.9a1.33,1.33,0,0,0,.3,1,1.78,1.78,0,0,0,1.1.8c.4.1.9.2,1.2.3v.3H90.4v-.2a3.5,3.5,0,0,0,1.2-.3,2.2,2.2,0,0,0,1.1-.9.59.59,0,0,0,.2-.5c0-.2.1-.5.1-.7a2.77,2.77,0,0,1,.1-.9V24.4c0-.1-.1-.2-.3-.5s-.4-.6-.7-1.1-.6-.9-.9-1.4l-.9-1.5c-.3-.5-.6-1-.9-1.4s-.5-.8-.7-1.1c-.3-.5-.7-1-.9-1.4a10.63,10.63,0,0,0-.9-1.1,2.76,2.76,0,0,0-.9-.7,1.69,1.69,0,0,0-1-.3v-.3h8.2v.3a2.2,2.2,0,0,0-.8.1c-.3.1-.5.1-.8.2a3.33,3.33,0,0,0-.6.3.85.85,0,0,0-.2.6,2.43,2.43,0,0,0,.4,1.1c.3.5.5,1,.8,1.4s.4.7.7,1.2.6.9.9,1.5.7,1,1,1.6.6,1.1.9,1.5c.2-.3.5-.8.9-1.3s.7-1.1,1-1.6a14,14,0,0,0,1-1.6,8.76,8.76,0,0,0,.7-1.2,2.19,2.19,0,0,0,.3-.5l.3-.6.3-.6a1.27,1.27,0,0,0,.1-.6,1.45,1.45,0,0,0-.2-.7.92.92,0,0,0-.6-.4,1.85,1.85,0,0,0-.7-.2c-.3,0-.5-.1-.8-.1v-.3h6.3V14a2.24,2.24,0,0,0-1,.3"/><path class="cls-2" d="M130.8,14.4a2.26,2.26,0,0,0-.9,1.2,4.87,4.87,0,0,0-.2,1.5c0,.7-.1,1.5-.1,2.3s-.1,1.7-.1,2.8V33c0,.1,0,.1-.1.2a.35.35,0,0,1-.2.1.91.91,0,0,1-.5-.3c-1.5-1.8-2.9-3.4-4.2-4.9s-2.5-2.9-3.6-4.2-2.3-2.7-3.4-3.9-2.3-2.6-3.5-4V27.4a19.29,19.29,0,0,0,.1,2.5,6.53,6.53,0,0,0,.3,1.7,2,2,0,0,0,.9.9,3.87,3.87,0,0,0,1.7.4v.3h-6.7v-.3l1.3-.3a2.19,2.19,0,0,0,1-.9,3.43,3.43,0,0,0,.5-1.7c.1-.7.1-1.6.2-2.7,0-.8.1-1.7.1-2.8V16.6a4,4,0,0,0-.4-1.3,2.7,2.7,0,0,0-.7-.8,3.55,3.55,0,0,0-.9-.4c-.3-.1-.6-.1-.9-.2v-.3H116l12.8,15V17.3a6.27,6.27,0,0,0-.2-1.6,2.34,2.34,0,0,0-1-1.2,6.55,6.55,0,0,0-2-.7v-.3h6.7v.3a5.21,5.21,0,0,0-1.5.6"/><path class="cls-2" d="M147.6,16.7c-.1.2-.3.6-.5,1.1s-.5,1.1-.8,1.8-.6,1.5-1,2.5-.8,1.9-1.2,3h6.8l-.9-2.4c-.3-.8-.6-1.6-.9-2.3s-.6-1.4-.8-2.1-.5-1.2-.7-1.6m3.6,16.4v-.2a.76.76,0,0,0,.4-.1,1.42,1.42,0,0,0,.6-.2,2.09,2.09,0,0,0,.6-.4.86.86,0,0,0,.3-.6c0-.2-.1-.4-.1-.8s-.2-.8-.4-1.4a18.88,18.88,0,0,1-.6-1.8,16.67,16.67,0,0,0-.8-2H144c-.3.7-.5,1.3-.8,2s-.5,1.3-.8,1.9a6.88,6.88,0,0,0-.6,2.1,1.42,1.42,0,0,0,.2.6.92.92,0,0,0,.6.4,1.85,1.85,0,0,0,.7.2c.3,0,.5.1.7.1v.3h-5.8v-.3a3.37,3.37,0,0,0,1.2-.4,5.92,5.92,0,0,0,.6-.4,6.38,6.38,0,0,0,.6-.9c.3-.5.6-1.2,1.1-2.1s.8-1.8,1.3-2.9,1-2.2,1.4-3.3,1-2.3,1.5-3.5.9-2.3,1.4-3.3l-.3-.6a4.05,4.05,0,0,0,.9-.5,4.35,4.35,0,0,0,.7-.6,2.65,2.65,0,0,0,.5-.6,2.19,2.19,0,0,1,.3-.5h.2c.6,1.5,1.1,2.9,1.6,4.3l1.5,3.9c.5,1.2.9,2.5,1.3,3.6s.9,2.3,1.3,3.5a9.75,9.75,0,0,0,.6,1.4c.2.4.4.8.6,1.3,0,.1.1.2.2.4a2.65,2.65,0,0,0,.5.6,2.18,2.18,0,0,0,.8.5,3.59,3.59,0,0,0,1.1.2v.3l-7.9-.2Z"/><path class="cls-2" d="M180.9,33.1v-.3a4.23,4.23,0,0,0,2-.5,2.71,2.71,0,0,0,1.1-1,2,2,0,0,0,.2-.9,4.1,4.1,0,0,0,.1-1.1c0-1.2.1-2.3.1-3.4v-11c-.6,1.3-1.1,2.6-1.6,3.7l-1.5,3.3-1.5,3.3c-.5,1.1-1,2.3-1.6,3.7-.1.2-.2.5-.4.9s-.3.8-.5,1.2a11.73,11.73,0,0,1-.5,1.1,2.39,2.39,0,0,1-.3.7h-.2c-.6-1.3-1.2-2.7-1.7-4s-1.1-2.6-1.7-3.8-1-2.4-1.5-3.4-.9-2-1.3-2.8a16.46,16.46,0,0,1-.9-2.1,6.14,6.14,0,0,0-.5-1.1V27.8a14.12,14.12,0,0,0,.1,2.2,7.49,7.49,0,0,0,.4,1.6,2,2,0,0,0,1,1,6.55,6.55,0,0,0,1.8.5v.3h-7.1v-.5a3.39,3.39,0,0,0,1.5-.6,2.19,2.19,0,0,0,.9-1,6,6,0,0,0,.5-1.6,14,14,0,0,0,.2-2.3c0-.8.1-1.7.1-2.8V16.5a2.13,2.13,0,0,0-.3-1.2,1.58,1.58,0,0,0-.7-.7,3.55,3.55,0,0,0-.9-.4c-.3-.1-.6-.1-.8-.2v-.3h5.8l6.5,14.7c.8-1.7,1.6-3.4,2.3-5.1s1.4-3.2,2-4.6,1.1-2.5,1.5-3.4.6-1.4.7-1.6H190V14a2.86,2.86,0,0,0-1.7.5,1.89,1.89,0,0,0-.8,1,4.64,4.64,0,0,0-.2,1.4c0,.7-.1,1.3-.1,1.9V29.7a3.4,3.4,0,0,0,.1,1,1.55,1.55,0,0,0,.2.8,1.24,1.24,0,0,1,.2.3,2.18,2.18,0,0,0,.5.4,2,2,0,0,0,.8.4,3.59,3.59,0,0,0,1.1.2v.3Z"/><path class="cls-2" d="M198.3,33.1v-.2a5,5,0,0,0,1.3-.4,3.59,3.59,0,0,0,1-.7.76.76,0,0,0,.2-.5c0-.2.1-.4.1-.7a2.77,2.77,0,0,1,.1-.9V16c0-.3-.1-.5-.1-.8s-.1-.4-.2-.5a5.5,5.5,0,0,0-.9-.7c-.4-.1-.8-.2-1.3-.3v-.3h8.1v.3l-1.2.3a1.47,1.47,0,0,0-1,.9,3.5,3.5,0,0,0-.3,1.2V30.5a2.15,2.15,0,0,0,.2,1,2.55,2.55,0,0,0,1,.7,3.08,3.08,0,0,0,1.3.3v.3C206.5,33.1,198.3,33.1,198.3,33.1Z"/><path class="cls-2" d="M233.2,19.9a6.59,6.59,0,0,0-1.1-2.4,8.2,8.2,0,0,0-1.7-2,6.11,6.11,0,0,0-2.2-1.3,7.51,7.51,0,0,0-2.6-.5,7,7,0,0,0-3.3.8,8.81,8.81,0,0,0-2.5,2.2,8.92,8.92,0,0,0-1.5,3.1,11.19,11.19,0,0,0-.5,3.6,11.48,11.48,0,0,0,.6,3.7,10.81,10.81,0,0,0,1.6,3,8.18,8.18,0,0,0,2.5,2,7.25,7.25,0,0,0,3.3.7,7.51,7.51,0,0,0,2.6-.5,6.36,6.36,0,0,0,2.2-1.4,9.5,9.5,0,0,0,1.6-1.9,9.17,9.17,0,0,0,.9-2.3h.3l-.1,6H233a2.7,2.7,0,0,0-.7-.8c-.2-.3-.4-.4-.5-.4a5.2,5.2,0,0,0-.5.3,6.66,6.66,0,0,1-1.2.6,16.7,16.7,0,0,1-2,.6,11.15,11.15,0,0,1-2.7.3,13.46,13.46,0,0,1-4.6-.7,11.87,11.87,0,0,1-3.5-2,9.73,9.73,0,0,1-2.2-3.1,10.57,10.57,0,0,1-.8-4,4.48,4.48,0,0,1,.1-1.1,5.85,5.85,0,0,1,.2-1.3,8.8,8.8,0,0,1,.5-1.5c.2-.5.5-1,.8-1.6a11,11,0,0,1,1.4-1.8,7.49,7.49,0,0,1,2-1.5,10,10,0,0,1,2.6-1,10.8,10.8,0,0,1,3.2-.4,11.43,11.43,0,0,1,2.8.3,16.69,16.69,0,0,1,2,.6,4.2,4.2,0,0,1,1.2.7,5.2,5.2,0,0,0,.5.3.31.31,0,0,0,.2-.1l.3-.3c.1-.1.2-.3.4-.4a1.76,1.76,0,0,1,.4-.5h.3v6Z"/><path class="cls-2" d="M65.5,45.1c0-1.1-.3-2.4-2.9-2.4H59.9v4.7h2.7c2.5.1,2.9-1.2,2.9-2.3m1.2,0c0,2.3-1.4,3.5-4,3.5H59.9V53H58.7V41.5h4.1c2.5.1,3.9,1.3,3.9,3.6"/><polygon class="cls-2" points="78.1 41.6 78.1 53 85.2 53 85.2 51.8 79.3 51.8 79.3 41.6 78.1 41.6"/><path class="cls-2" d="M101.1,43l2,5.2h-4Zm-.6-1.4L95.9,53.1h1.3l1.4-3.6h4.9l1.4,3.6h1.3l-4.6-11.5Z"/><polygon class="cls-2" points="125.7 41.6 125.7 51.2 118.9 41.6 117.5 41.6 117.5 53 118.7 53 118.7 43.4 125.5 53 126.9 53 126.9 41.6 125.7 41.6"/><polygon class="cls-2" points="147.6 41.6 147.6 51.2 140.7 41.6 139.3 41.6 139.3 53 140.6 53 140.6 43.4 147.4 53 148.8 53 148.8 41.6 147.6 41.6"/><polygon class="cls-2" points="161.1 41.6 161.1 53 168.3 53 168.3 51.9 162.3 51.9 162.3 47.9 167.6 47.9 167.6 46.7 162.3 46.7 162.3 42.8 168.3 42.8 168.3 41.6 161.1 41.6"/><path class="cls-2" d="M186.8,45c0-1-.3-2.3-2.7-2.3h-2.9v4.5h2.9c2.4.1,2.7-1.1,2.7-2.2m1.8,8h-1.5l-3-4.6h-2.9V53H180V41.5h4.2c2.5,0,3.9,1.1,3.9,3.3a3.19,3.19,0,0,1-2.6,3.3Z"/><path class="cls-2" d="M192.45,39.82v-.4h3.46v.4h-1.48v3.75h-.49V39.82Z"/><path class="cls-2" d="M196.5,43.57V39.43H197l1.48,2.17L200,39.43h.49v4.15H200V40.12l-1.48,2.17L197,40.12v3.46Z"/><path class="cls-2" d="M15.8,62.6a2.43,2.43,0,0,1-2.4-2.4V42.1a2.4,2.4,0,0,1,4.8,0V60.2A2.37,2.37,0,0,1,15.8,62.6Z"/><path class="cls-2" d="M33.8,66.7a2.43,2.43,0,0,1-2.4-2.4V27.4a2.4,2.4,0,1,1,4.8,0V64.3A2.43,2.43,0,0,1,33.8,66.7Z"/><path class="cls-2" d="M42.8,74.6a2.43,2.43,0,0,1-2.4-2.4V15.1a2.4,2.4,0,0,1,4.8,0V72.2A2.43,2.43,0,0,1,42.8,74.6Z"/><path class="cls-2" d="M24.8,56.8a2.43,2.43,0,0,1-2.4-2.4V25.1a2.4,2.4,0,0,1,4.8,0V54.4A2.43,2.43,0,0,1,24.8,56.8Z"/><path class="cls-2" d="M58.3,74.6V65.3h3.5a4,4,0,0,1,2.6.8,3.39,3.39,0,0,1,0,4.6,4,4,0,0,1-2.6.8H60v3.1ZM60,70h1.7a2.08,2.08,0,0,0,1.5-.4,2,2,0,0,0,0-2.4,2.08,2.08,0,0,0-1.5-.4H60Z"/><path class="cls-2" d="M69.8,74.6V65.3h3.6a4.24,4.24,0,0,1,2.6.8,3,3,0,0,1-1.2,5l2.5,3.6h-2l-2.2-3.3H71.6v3.3H69.8Zm1.7-4.8h1.9a2.27,2.27,0,0,0,1.3-.3,1.69,1.69,0,0,0,0-2.4,2.5,2.5,0,0,0-1.3-.3H71.5Z"/><path class="cls-2" d="M81.3,69.9a6,6,0,0,1,.3-2,4.58,4.58,0,0,1,.7-1.4,3.92,3.92,0,0,1,1-.8,2.84,2.84,0,0,1,1.2-.4,7.25,7.25,0,0,1,2.4,0,5.64,5.64,0,0,1,1.2.4,3.92,3.92,0,0,1,1,.8,3.65,3.65,0,0,1,.7,1.4,6.82,6.82,0,0,1,0,4,4.58,4.58,0,0,1-.7,1.4,3.92,3.92,0,0,1-1,.8,2.84,2.84,0,0,1-1.2.4,7.25,7.25,0,0,1-2.4,0,5.64,5.64,0,0,1-1.2-.4,3.92,3.92,0,0,1-1-.8,3.65,3.65,0,0,1-.7-1.4A6,6,0,0,1,81.3,69.9Zm1.6,0a7.18,7.18,0,0,0,.2,1.7,1.44,1.44,0,0,0,.6,1,2,2,0,0,0,.8.4,3.08,3.08,0,0,0,1,.1,2,2,0,0,0,.8-.1,1.08,1.08,0,0,0,.7-.3,1.7,1.7,0,0,0,.6-.6,2.32,2.32,0,0,0,.4-1,6.05,6.05,0,0,0,.2-1.5,7.18,7.18,0,0,0-.2-1.7,1.44,1.44,0,0,0-.6-1,2,2,0,0,0-.8-.4,3.08,3.08,0,0,0-1-.1,2,2,0,0,0-.8.1,1.08,1.08,0,0,0-.7.3,1.7,1.7,0,0,0-.6.6,2.32,2.32,0,0,0-.4,1A7.72,7.72,0,0,0,82.9,69.9Z"/><path class="cls-2" d="M94.8,74.6V65.3h6v1.5H96.4v2.4h3.8v1.6H96.4v3.9H94.8Z"/><path class="cls-2" d="M105.4,74.6V65.3h1.7v9.3Z"/><path class="cls-2" d="M112.3,74.6V65.3H114v7.8h4.5v1.6h-6.2Z"/><path class="cls-2" d="M122.9,74.6V65.3h6.2v1.5h-4.5v2.4h3.9v1.6h-3.9v2.4h4.5v1.5h-6.2Z"/><path class="cls-2" d="M133.8,74.6V65.3H137a4.46,4.46,0,0,1,3.3,1.2,4.76,4.76,0,0,1,1.1,3.5,5.23,5.23,0,0,1-1.1,3.5,4.16,4.16,0,0,1-3.3,1.2l-3.2-.1Zm1.7-1.5H137a2.54,2.54,0,0,0,2.1-.7,5.1,5.1,0,0,0,0-4.8,2.54,2.54,0,0,0-2.1-.7h-1.5Z"/></g></g></svg>